0
SECTION
2
HEADER
9
$ACADVER
1
AC1006
0
ENDSEC
0
SECTION
2
TABLES
0
TABLE
2
LAYER
70
1
0
LAYER
70
0
62
1
6
CONTINUOUS
2
L3D0
0
ENDTAB
0
ENDSEC
0
SECTION
2
BLOCKS
0
ENDSEC
0
SECTION
2
ENTITIES
0
POLYLINE
8
L3D0
70
1
40
0
41
0
66
1
0
VERTEX
8
L3D0
10
0.88
20
-0.295
0
VERTEX
8
L3D0
10
0.88
20
-0.095
0
VERTEX
8
L3D0
10
1.08
20
-0.095
0
VERTEX
8
L3D0
10
1.08
20
-0.295
0
SEQEND
0
POLYLINE
8
L3D0
70
1
40
0
41
0
66
1
0
VERTEX
8
L3D0
10
0.88
20
0.095
0
VERTEX
8
L3D0
10
0.88
20
0.295
0
VERTEX
8
L3D0
10
1.08
20
0.295
0
VERTEX
8
L3D0
10
1.08
20
0.095
0
SEQEND
0
POLYLINE
8
L3D0
70
1
40
0
41
0
66
1
0
VERTEX
8
L3D0
10
0.731
20
0.455
0
VERTEX
8
L3D0
10
0.731
20
0.655
0
VERTEX
8
L3D0
10
0.931
20
0.655
0
VERTEX
8
L3D0
10
0.931
20
0.455
0
SEQEND
0
POLYLINE
8
L3D0
70
1
40
0
41
0
66
1
0
VERTEX
8
L3D0
10
0.455
20
0.731
0
VERTEX
8
L3D0
10
0.455
20
0.931
0
VERTEX
8
L3D0
10
0.655
20
0.931
0
VERTEX
8
L3D0
10
0.655
20
0.731
0
SEQEND
0
POLYLINE
8
L3D0
70
1
40
0
41
0
66
1
0
VERTEX
8
L3D0
10
0.095
20
0.88
0
VERTEX
8
L3D0
10
0.095
20
1.08
0
VERTEX
8
L3D0
10
0.295
20
1.08
0
VERTEX
8
L3D0
10
0.295
20
0.88
0
SEQEND
0
POLYLINE
8
L3D0
70
1
40
0
41
0
66
1
0
VERTEX
8
L3D0
10
-0.295
20
0.88
0
VERTEX
8
L3D0
10
-0.295
20
1.08
0
VERTEX
8
L3D0
10
-0.095
20
1.08
0
VERTEX
8
L3D0
10
-0.095
20
0.88
0
SEQEND
0
POLYLINE
8
L3D0
70
1
40
0
41
0
66
1
0
VERTEX
8
L3D0
10
-0.655
20
0.731
0
VERTEX
8
L3D0
10
-0.655
20
0.931
0
VERTEX
8
L3D0
10
-0.455
20
0.931
0
VERTEX
8
L3D0
10
-0.455
20
0.731
0
SEQEND
0
POLYLINE
8
L3D0
70
1
40
0
41
0
66
1
0
VERTEX
8
L3D0
10
-0.931
20
0.455
0
VERTEX
8
L3D0
10
-0.931
20
0.655
0
VERTEX
8
L3D0
10
-0.731
20
0.655
0
VERTEX
8
L3D0
10
-0.731
20
0.455
0
SEQEND
0
POLYLINE
8
L3D0
70
1
40
0
41
0
66
1
0
VERTEX
8
L3D0
10
-1.08
20
0.095
0
VERTEX
8
L3D0
10
-1.08
20
0.295
0
VERTEX
8
L3D0
10
-0.88
20
0.295
0
VERTEX
8
L3D0
10
-0.88
20
0.095
0
SEQEND
0
POLYLINE
8
L3D0
70
1
40
0
41
0
66
1
0
VERTEX
8
L3D0
10
-1.08
20
-0.295
0
VERTEX
8
L3D0
10
-1.08
20
-0.095
0
VERTEX
8
L3D0
10
-0.88
20
-0.095
0
VERTEX
8
L3D0
10
-0.88
20
-0.295
0
SEQEND
0
POLYLINE
8
L3D0
70
1
40
0
41
0
66
1
0
VERTEX
8
L3D0
10
-0.931
20
-0.655
0
VERTEX
8
L3D0
10
-0.931
20
-0.455
0
VERTEX
8
L3D0
10
-0.731
20
-0.455
0
VERTEX
8
L3D0
10
-0.731
20
-0.655
0
SEQEND
0
POLYLINE
8
L3D0
70
1
40
0
41
0
66
1
0
VERTEX
8
L3D0
10
-0.655
20
-0.931
0
VERTEX
8
L3D0
10
-0.655
20
-0.731
0
VERTEX
8
L3D0
10
-0.455
20
-0.731
0
VERTEX
8
L3D0
10
-0.455
20
-0.931
0
SEQEND
0
POLYLINE
8
L3D0
70
1
40
0
41
0
66
1
0
VERTEX
8
L3D0
10
-0.295
20
-1.08
0
VERTEX
8
L3D0
10
-0.295
20
-0.88
0
VERTEX
8
L3D0
10
-0.095
20
-0.88
0
VERTEX
8
L3D0
10
-0.095
20
-1.08
0
SEQEND
0
POLYLINE
8
L3D0
70
1
40
0
41
0
66
1
0
VERTEX
8
L3D0
10
0.095
20
-1.08
0
VERTEX
8
L3D0
10
0.095
20
-0.88
0
VERTEX
8
L3D0
10
0.295
20
-0.88
0
VERTEX
8
L3D0
10
0.295
20
-1.08
0
SEQEND
0
POLYLINE
8
L3D0
70
1
40
0
41
0
66
1
0
VERTEX
8
L3D0
10
0.455
20
-0.931
0
VERTEX
8
L3D0
10
0.455
20
-0.731
0
VERTEX
8
L3D0
10
0.655
20
-0.731
0
VERTEX
8
L3D0
10
0.655
20
-0.931
0
SEQEND
0
POLYLINE
8
L3D0
70
1
40
0
41
0
66
1
0
VERTEX
8
L3D0
10
0.731
20
-0.655
0
VERTEX
8
L3D0
10
0.731
20
-0.455
0
VERTEX
8
L3D0
10
0.931
20
-0.455
0
VERTEX
8
L3D0
10
0.931
20
-0.655
0
SEQEND
0
ENDSEC
0
EOF
