0
SECTION
2
HEADER
9
$ACADVER
1
AC1006
0
ENDSEC
0
SECTION
2
TABLES
0
TABLE
2
LAYER
70
1
0
LAYER
70
0
62
1
6
CONTINUOUS
2
L2D0
0
ENDTAB
0
ENDSEC
0
SECTION
2
BLOCKS
0
ENDSEC
0
SECTION
2
ENTITIES
0
POLYLINE
8
L2D0
70
1
40
0
41
0
66
1
0
VERTEX
8
L2D0
10
-0.196
20
0.88
0
VERTEX
8
L2D0
10
-0.196
20
1.08
0
VERTEX
8
L2D0
10
0.196
20
1.08
0
VERTEX
8
L2D0
10
0.196
20
0.88
0
SEQEND
0
POLYLINE
8
L2D0
70
1
40
0
41
0
66
1
0
VERTEX
8
L2D0
10
-0.761
20
0.483
0
VERTEX
8
L2D0
10
-0.903
20
0.625
0
VERTEX
8
L2D0
10
-0.625
20
0.903
0
VERTEX
8
L2D0
10
-0.483
20
0.761
0
SEQEND
0
POLYLINE
8
L2D0
70
1
40
0
41
0
66
1
0
VERTEX
8
L2D0
10
-1.08
20
-0.196
0
VERTEX
8
L2D0
10
-1.08
20
0.196
0
VERTEX
8
L2D0
10
-0.88
20
0.196
0
VERTEX
8
L2D0
10
-0.88
20
-0.196
0
SEQEND
0
POLYLINE
8
L2D0
70
1
40
0
41
0
66
1
0
VERTEX
8
L2D0
10
-0.625
20
-0.903
0
VERTEX
8
L2D0
10
-0.903
20
-0.625
0
VERTEX
8
L2D0
10
-0.761
20
-0.483
0
VERTEX
8
L2D0
10
-0.483
20
-0.761
0
SEQEND
0
POLYLINE
8
L2D0
70
1
40
0
41
0
66
1
0
VERTEX
8
L2D0
10
-0.196
20
-1.08
0
VERTEX
8
L2D0
10
-0.196
20
-0.88
0
VERTEX
8
L2D0
10
0.196
20
-0.88
0
VERTEX
8
L2D0
10
0.196
20
-1.08
0
SEQEND
0
POLYLINE
8
L2D0
70
1
40
0
41
0
66
1
0
VERTEX
8
L2D0
10
0.625
20
-0.903
0
VERTEX
8
L2D0
10
0.483
20
-0.761
0
VERTEX
8
L2D0
10
0.761
20
-0.483
0
VERTEX
8
L2D0
10
0.903
20
-0.625
0
SEQEND
0
POLYLINE
8
L2D0
70
1
40
0
41
0
66
1
0
VERTEX
8
L2D0
10
0.88
20
-0.196
0
VERTEX
8
L2D0
10
0.88
20
0.196
0
VERTEX
8
L2D0
10
1.08
20
0.196
0
VERTEX
8
L2D0
10
1.08
20
-0.196
0
SEQEND
0
POLYLINE
8
L2D0
70
1
40
0
41
0
66
1
0
VERTEX
8
L2D0
10
0.761
20
0.483
0
VERTEX
8
L2D0
10
0.483
20
0.761
0
VERTEX
8
L2D0
10
0.625
20
0.903
0
VERTEX
8
L2D0
10
0.903
20
0.625
0
SEQEND
0
ENDSEC
0
EOF
