0
SECTION
2
HEADER
9
$ACADVER
1
AC1006
0
ENDSEC
0
SECTION
2
TABLES
0
TABLE
2
LAYER
70
1
0
LAYER
70
0
62
1
6
CONTINUOUS
2
L5D0
0
ENDTAB
0
ENDSEC
0
SECTION
2
BLOCKS
0
ENDSEC
0
SECTION
2
ENTITIES
0
SOLID
8
L5D0
10
-0.04
20
-0.04
11
-0.04
21
0.04
12
0.04
22
-0.04
13
0.04
23
0.04
0
SOLID
8
L5D0
10
0.36
20
-0.04
11
0.36
21
0.04
12
0.44
22
-0.04
13
0.44
23
0.04
0
SOLID
8
L5D0
10
0.16
20
0.306
11
0.16
21
0.386
12
0.24
22
0.306
13
0.24
23
0.386
0
SOLID
8
L5D0
10
-0.239
20
0.306
11
-0.239
21
0.386
12
-0.159
22
0.306
13
-0.159
23
0.386
0
SOLID
8
L5D0
10
-0.44
20
-0.04
11
-0.44
21
0.04
12
-0.36
22
-0.04
13
-0.36
23
0.04
0
SOLID
8
L5D0
10
-0.24
20
-0.386
11
-0.24
21
-0.306
12
-0.16
22
-0.386
13
-0.16
23
-0.306
0
SOLID
8
L5D0
10
0.159
20
-0.386
11
0.159
21
-0.306
12
0.239
22
-0.386
13
0.239
23
-0.306
0
SOLID
8
L5D0
10
0.76
20
-0.04
11
0.76
21
0.04
12
0.84
22
-0.04
13
0.84
23
0.04
0
SOLID
8
L5D0
10
0.652
20
0.359
11
0.652
21
0.439
12
0.732
22
0.359
13
0.732
23
0.439
0
SOLID
8
L5D0
10
0.36
20
0.652
11
0.36
21
0.732
12
0.44
22
0.652
13
0.44
23
0.732
0
SOLID
8
L5D0
10
-0.04
20
0.76
11
-0.04
21
0.84
12
0.04
22
0.76
13
0.04
23
0.84
0
SOLID
8
L5D0
10
-0.439
20
0.652
11
-0.439
21
0.732
12
-0.359
22
0.652
13
-0.359
23
0.732
0
SOLID
8
L5D0
10
-0.732
20
0.36
11
-0.732
21
0.44
12
-0.652
22
0.36
13
-0.652
23
0.44
0
SOLID
8
L5D0
10
-0.84
20
-0.04
11
-0.84
21
0.04
12
-0.76
22
-0.04
13
-0.76
23
0.04
0
SOLID
8
L5D0
10
-0.732
20
-0.439
11
-0.732
21
-0.359
12
-0.652
22
-0.439
13
-0.652
23
-0.359
0
SOLID
8
L5D0
10
-0.44
20
-0.732
11
-0.44
21
-0.652
12
-0.36
22
-0.732
13
-0.36
23
-0.652
0
SOLID
8
L5D0
10
-0.04
20
-0.84
11
-0.04
21
-0.76
12
0.04
22
-0.84
13
0.04
23
-0.76
0
SOLID
8
L5D0
10
0.359
20
-0.732
11
0.359
21
-0.652
12
0.439
22
-0.732
13
0.439
23
-0.652
0
SOLID
8
L5D0
10
0.652
20
-0.44
11
0.652
21
-0.36
12
0.732
22
-0.44
13
0.732
23
-0.36
0
SOLID
8
L5D0
10
1.16
20
-0.04
11
1.16
21
0.04
12
1.24
22
-0.04
13
1.24
23
0.04
0
SOLID
8
L5D0
10
1.087
20
0.37
11
1.087
21
0.45
12
1.167
22
0.37
13
1.167
23
0.45
0
SOLID
8
L5D0
10
0.879
20
0.731
11
0.879
21
0.811
12
0.959
22
0.731
13
0.959
23
0.811
0
SOLID
8
L5D0
10
0.56
20
0.999
11
0.56
21
1.079
12
0.64
22
0.999
13
0.64
23
1.079
0
SOLID
8
L5D0
10
0.168
20
1.141
11
0.168
21
1.221
12
0.248
22
1.141
13
0.248
23
1.221
0
SOLID
8
L5D0
10
-0.248
20
1.141
11
-0.248
21
1.221
12
-0.168
22
1.141
13
-0.168
23
1.221
0
SOLID
8
L5D0
10
-0.639
20
0.999
11
-0.639
21
1.079
12
-0.559
22
0.999
13
-0.559
23
1.079
0
SOLID
8
L5D0
10
-0.959
20
0.731
11
-0.959
21
0.811
12
-0.879
22
0.731
13
-0.879
23
0.811
0
SOLID
8
L5D0
10
-1.167
20
0.37
11
-1.167
21
0.45
12
-1.087
22
0.37
13
-1.087
23
0.45
0
SOLID
8
L5D0
10
-1.24
20
-0.04
11
-1.24
21
0.04
12
-1.16
22
-0.04
13
-1.16
23
0.04
0
SOLID
8
L5D0
10
-1.167
20
-0.45
11
-1.167
21
-0.37
12
-1.087
22
-0.45
13
-1.087
23
-0.37
0
SOLID
8
L5D0
10
-0.959
20
-0.811
11
-0.959
21
-0.731
12
-0.879
22
-0.811
13
-0.879
23
-0.731
0
SOLID
8
L5D0
10
-0.64
20
-1.079
11
-0.64
21
-0.999
12
-0.56
22
-1.079
13
-0.56
23
-0.999
0
SOLID
8
L5D0
10
-0.248
20
-1.221
11
-0.248
21
-1.141
12
-0.168
22
-1.221
13
-0.168
23
-1.141
0
SOLID
8
L5D0
10
0.168
20
-1.221
11
0.168
21
-1.141
12
0.248
22
-1.221
13
0.248
23
-1.141
0
SOLID
8
L5D0
10
0.56
20
-1.079
11
0.56
21
-0.999
12
0.64
22
-1.079
13
0.64
23
-0.999
0
SOLID
8
L5D0
10
0.879
20
-0.811
11
0.879
21
-0.731
12
0.959
22
-0.811
13
0.959
23
-0.731
0
SOLID
8
L5D0
10
1.087
20
-0.45
11
1.087
21
-0.37
12
1.167
22
-0.45
13
1.167
23
-0.37
0
ENDSEC
0
EOF
