0
SECTION
2
HEADER
9
$ACADVER
1
AC1006
0
ENDSEC
0
SECTION
2
TABLES
0
TABLE
2
LAYER
70
4
0
LAYER
70
0
62
1
6
CONTINUOUS
2
L1D0
0
LAYER
70
0
62
2
6
CONTINUOUS
2
L2D0
0
LAYER
70
0
62
3
6
CONTINUOUS
2
L3D0
0
LAYER
70
0
62
4
6
CONTINUOUS
2
L4D0
0
ENDTAB
0
ENDSEC
0
SECTION
2
BLOCKS
0
ENDSEC
0
SECTION
2
ENTITIES
0
POLYLINE
8
L1D0
70
1
40
0
41
0
66
1
0
VERTEX
8
L1D0
10
1.8
20
1.8
0
VERTEX
8
L1D0
10
1.8
20
2.2
0
VERTEX
8
L1D0
10
2.2
20
2.2
0
VERTEX
8
L1D0
10
2.2
20
1.8
0
SEQEND
0
POLYLINE
8
L1D0
70
1
40
0
41
0
66
1
0
VERTEX
8
L1D0
10
-2.2
20
1.8
0
VERTEX
8
L1D0
10
-2.2
20
2.2
0
VERTEX
8
L1D0
10
-1.8
20
2.2
0
VERTEX
8
L1D0
10
-1.8
20
1.8
0
SEQEND
0
POLYLINE
8
L1D0
70
1
40
0
41
0
66
1
0
VERTEX
8
L1D0
10
-2.2
20
-2.2
0
VERTEX
8
L1D0
10
-2.2
20
-1.8
0
VERTEX
8
L1D0
10
-1.8
20
-1.8
0
VERTEX
8
L1D0
10
-1.8
20
-2.2
0
SEQEND
0
POLYLINE
8
L1D0
70
1
40
0
41
0
66
1
0
VERTEX
8
L1D0
10
1.8
20
-2.2
0
VERTEX
8
L1D0
10
1.8
20
-1.8
0
VERTEX
8
L1D0
10
2.2
20
-1.8
0
VERTEX
8
L1D0
10
2.2
20
-2.2
0
SEQEND
0
POLYLINE
8
L2D0
70
1
40
0
41
0
66
1
0
VERTEX
8
L2D0
10
-0.196
20
0.88
0
VERTEX
8
L2D0
10
-0.196
20
1.08
0
VERTEX
8
L2D0
10
0.196
20
1.08
0
VERTEX
8
L2D0
10
0.196
20
0.88
0
SEQEND
0
POLYLINE
8
L2D0
70
1
40
0
41
0
66
1
0
VERTEX
8
L2D0
10
-0.761
20
0.483
0
VERTEX
8
L2D0
10
-0.903
20
0.625
0
VERTEX
8
L2D0
10
-0.625
20
0.903
0
VERTEX
8
L2D0
10
-0.483
20
0.761
0
SEQEND
0
POLYLINE
8
L2D0
70
1
40
0
41
0
66
1
0
VERTEX
8
L2D0
10
-1.08
20
-0.196
0
VERTEX
8
L2D0
10
-1.08
20
0.196
0
VERTEX
8
L2D0
10
-0.88
20
0.196
0
VERTEX
8
L2D0
10
-0.88
20
-0.196
0
SEQEND
0
POLYLINE
8
L2D0
70
1
40
0
41
0
66
1
0
VERTEX
8
L2D0
10
-0.625
20
-0.903
0
VERTEX
8
L2D0
10
-0.903
20
-0.625
0
VERTEX
8
L2D0
10
-0.761
20
-0.483
0
VERTEX
8
L2D0
10
-0.483
20
-0.761
0
SEQEND
0
POLYLINE
8
L2D0
70
1
40
0
41
0
66
1
0
VERTEX
8
L2D0
10
-0.196
20
-1.08
0
VERTEX
8
L2D0
10
-0.196
20
-0.88
0
VERTEX
8
L2D0
10
0.196
20
-0.88
0
VERTEX
8
L2D0
10
0.196
20
-1.08
0
SEQEND
0
POLYLINE
8
L2D0
70
1
40
0
41
0
66
1
0
VERTEX
8
L2D0
10
0.625
20
-0.903
0
VERTEX
8
L2D0
10
0.483
20
-0.761
0
VERTEX
8
L2D0
10
0.761
20
-0.483
0
VERTEX
8
L2D0
10
0.903
20
-0.625
0
SEQEND
0
POLYLINE
8
L2D0
70
1
40
0
41
0
66
1
0
VERTEX
8
L2D0
10
0.88
20
-0.196
0
VERTEX
8
L2D0
10
0.88
20
0.196
0
VERTEX
8
L2D0
10
1.08
20
0.196
0
VERTEX
8
L2D0
10
1.08
20
-0.196
0
SEQEND
0
POLYLINE
8
L2D0
70
1
40
0
41
0
66
1
0
VERTEX
8
L2D0
10
0.761
20
0.483
0
VERTEX
8
L2D0
10
0.483
20
0.761
0
VERTEX
8
L2D0
10
0.625
20
0.903
0
VERTEX
8
L2D0
10
0.903
20
0.625
0
SEQEND
0
POLYLINE
8
L3D0
70
1
40
0
41
0
66
1
0
VERTEX
8
L3D0
10
0.88
20
-0.295
0
VERTEX
8
L3D0
10
0.88
20
-0.095
0
VERTEX
8
L3D0
10
1.08
20
-0.095
0
VERTEX
8
L3D0
10
1.08
20
-0.295
0
SEQEND
0
POLYLINE
8
L3D0
70
1
40
0
41
0
66
1
0
VERTEX
8
L3D0
10
0.88
20
0.095
0
VERTEX
8
L3D0
10
0.88
20
0.295
0
VERTEX
8
L3D0
10
1.08
20
0.295
0
VERTEX
8
L3D0
10
1.08
20
0.095
0
SEQEND
0
POLYLINE
8
L3D0
70
1
40
0
41
0
66
1
0
VERTEX
8
L3D0
10
0.731
20
0.455
0
VERTEX
8
L3D0
10
0.731
20
0.655
0
VERTEX
8
L3D0
10
0.931
20
0.655
0
VERTEX
8
L3D0
10
0.931
20
0.455
0
SEQEND
0
POLYLINE
8
L3D0
70
1
40
0
41
0
66
1
0
VERTEX
8
L3D0
10
0.455
20
0.731
0
VERTEX
8
L3D0
10
0.455
20
0.931
0
VERTEX
8
L3D0
10
0.655
20
0.931
0
VERTEX
8
L3D0
10
0.655
20
0.731
0
SEQEND
0
POLYLINE
8
L3D0
70
1
40
0
41
0
66
1
0
VERTEX
8
L3D0
10
0.095
20
0.88
0
VERTEX
8
L3D0
10
0.095
20
1.08
0
VERTEX
8
L3D0
10
0.295
20
1.08
0
VERTEX
8
L3D0
10
0.295
20
0.88
0
SEQEND
0
POLYLINE
8
L3D0
70
1
40
0
41
0
66
1
0
VERTEX
8
L3D0
10
-0.295
20
0.88
0
VERTEX
8
L3D0
10
-0.295
20
1.08
0
VERTEX
8
L3D0
10
-0.095
20
1.08
0
VERTEX
8
L3D0
10
-0.095
20
0.88
0
SEQEND
0
POLYLINE
8
L3D0
70
1
40
0
41
0
66
1
0
VERTEX
8
L3D0
10
-0.655
20
0.731
0
VERTEX
8
L3D0
10
-0.655
20
0.931
0
VERTEX
8
L3D0
10
-0.455
20
0.931
0
VERTEX
8
L3D0
10
-0.455
20
0.731
0
SEQEND
0
POLYLINE
8
L3D0
70
1
40
0
41
0
66
1
0
VERTEX
8
L3D0
10
-0.931
20
0.455
0
VERTEX
8
L3D0
10
-0.931
20
0.655
0
VERTEX
8
L3D0
10
-0.731
20
0.655
0
VERTEX
8
L3D0
10
-0.731
20
0.455
0
SEQEND
0
POLYLINE
8
L3D0
70
1
40
0
41
0
66
1
0
VERTEX
8
L3D0
10
-1.08
20
0.095
0
VERTEX
8
L3D0
10
-1.08
20
0.295
0
VERTEX
8
L3D0
10
-0.88
20
0.295
0
VERTEX
8
L3D0
10
-0.88
20
0.095
0
SEQEND
0
POLYLINE
8
L3D0
70
1
40
0
41
0
66
1
0
VERTEX
8
L3D0
10
-1.08
20
-0.295
0
VERTEX
8
L3D0
10
-1.08
20
-0.095
0
VERTEX
8
L3D0
10
-0.88
20
-0.095
0
VERTEX
8
L3D0
10
-0.88
20
-0.295
0
SEQEND
0
POLYLINE
8
L3D0
70
1
40
0
41
0
66
1
0
VERTEX
8
L3D0
10
-0.931
20
-0.655
0
VERTEX
8
L3D0
10
-0.931
20
-0.455
0
VERTEX
8
L3D0
10
-0.731
20
-0.455
0
VERTEX
8
L3D0
10
-0.731
20
-0.655
0
SEQEND
0
POLYLINE
8
L3D0
70
1
40
0
41
0
66
1
0
VERTEX
8
L3D0
10
-0.655
20
-0.931
0
VERTEX
8
L3D0
10
-0.655
20
-0.731
0
VERTEX
8
L3D0
10
-0.455
20
-0.731
0
VERTEX
8
L3D0
10
-0.455
20
-0.931
0
SEQEND
0
POLYLINE
8
L3D0
70
1
40
0
41
0
66
1
0
VERTEX
8
L3D0
10
-0.295
20
-1.08
0
VERTEX
8
L3D0
10
-0.295
20
-0.88
0
VERTEX
8
L3D0
10
-0.095
20
-0.88
0
VERTEX
8
L3D0
10
-0.095
20
-1.08
0
SEQEND
0
POLYLINE
8
L3D0
70
1
40
0
41
0
66
1
0
VERTEX
8
L3D0
10
0.095
20
-1.08
0
VERTEX
8
L3D0
10
0.095
20
-0.88
0
VERTEX
8
L3D0
10
0.295
20
-0.88
0
VERTEX
8
L3D0
10
0.295
20
-1.08
0
SEQEND
0
POLYLINE
8
L3D0
70
1
40
0
41
0
66
1
0
VERTEX
8
L3D0
10
0.455
20
-0.931
0
VERTEX
8
L3D0
10
0.455
20
-0.731
0
VERTEX
8
L3D0
10
0.655
20
-0.731
0
VERTEX
8
L3D0
10
0.655
20
-0.931
0
SEQEND
0
POLYLINE
8
L3D0
70
1
40
0
41
0
66
1
0
VERTEX
8
L3D0
10
0.731
20
-0.655
0
VERTEX
8
L3D0
10
0.731
20
-0.455
0
VERTEX
8
L3D0
10
0.931
20
-0.455
0
VERTEX
8
L3D0
10
0.931
20
-0.655
0
SEQEND
0
POLYLINE
8
L4D0
70
1
40
0
41
0
66
1
0
VERTEX
8
L4D0
10
-2.3
20
-2.3
0
VERTEX
8
L4D0
10
-2.3
20
-1.7
0
VERTEX
8
L4D0
10
1.3
20
-1.7
0
VERTEX
8
L4D0
10
1.3
20
-1.5
0
VERTEX
8
L4D0
10
-1.9
20
-1.5
0
VERTEX
8
L4D0
10
-1.9
20
1.7
0
VERTEX
8
L4D0
10
-2.3
20
1.7
0
VERTEX
8
L4D0
10
-2.3
20
2.3
0
VERTEX
8
L4D0
10
-1.7
20
2.3
0
VERTEX
8
L4D0
10
-1.7
20
-1.3
0
VERTEX
8
L4D0
10
-1.5
20
-1.3
0
VERTEX
8
L4D0
10
-1.5
20
1.9
0
VERTEX
8
L4D0
10
1.7
20
1.9
0
VERTEX
8
L4D0
10
1.7
20
2.3
0
VERTEX
8
L4D0
10
2.3
20
2.3
0
VERTEX
8
L4D0
10
2.3
20
1.7
0
VERTEX
8
L4D0
10
-1.3
20
1.7
0
VERTEX
8
L4D0
10
-1.3
20
1.5
0
VERTEX
8
L4D0
10
1.9
20
1.5
0
VERTEX
8
L4D0
10
1.9
20
-1.7
0
VERTEX
8
L4D0
10
2.3
20
-1.7
0
VERTEX
8
L4D0
10
2.3
20
-2.3
0
VERTEX
8
L4D0
10
1.7
20
-2.3
0
VERTEX
8
L4D0
10
1.7
20
1.3
0
VERTEX
8
L4D0
10
1.5
20
1.3
0
VERTEX
8
L4D0
10
1.5
20
-1.9
0
VERTEX
8
L4D0
10
-1.7
20
-1.9
0
VERTEX
8
L4D0
10
-1.7
20
-2.3
0
SEQEND
0
POLYLINE
8
L4D0
70
1
40
0
41
0
66
1
0
VERTEX
8
L4D0
10
-0.248
20
-1.221
0
VERTEX
8
L4D0
10
-0.168
20
-1.221
0
VERTEX
8
L4D0
10
-0.168
20
-1.141
0
VERTEX
8
L4D0
10
-0.248
20
-1.141
0
SEQEND
0
POLYLINE
8
L4D0
70
1
40
0
41
0
66
1
0
VERTEX
8
L4D0
10
0.168
20
-1.221
0
VERTEX
8
L4D0
10
0.248
20
-1.221
0
VERTEX
8
L4D0
10
0.248
20
-1.141
0
VERTEX
8
L4D0
10
0.168
20
-1.141
0
SEQEND
0
POLYLINE
8
L4D0
70
1
40
0
41
0
66
1
0
VERTEX
8
L4D0
10
-0.64
20
-1.079
0
VERTEX
8
L4D0
10
-0.56
20
-1.079
0
VERTEX
8
L4D0
10
-0.56
20
-0.999
0
VERTEX
8
L4D0
10
-0.64
20
-0.999
0
SEQEND
0
POLYLINE
8
L4D0
70
1
40
0
41
0
66
1
0
VERTEX
8
L4D0
10
0.56
20
-1.079
0
VERTEX
8
L4D0
10
0.64
20
-1.079
0
VERTEX
8
L4D0
10
0.64
20
-0.999
0
VERTEX
8
L4D0
10
0.56
20
-0.999
0
SEQEND
0
POLYLINE
8
L4D0
70
1
40
0
41
0
66
1
0
VERTEX
8
L4D0
10
-0.04
20
-0.84
0
VERTEX
8
L4D0
10
0.04
20
-0.84
0
VERTEX
8
L4D0
10
0.04
20
-0.76
0
VERTEX
8
L4D0
10
-0.04
20
-0.76
0
SEQEND
0
POLYLINE
8
L4D0
70
1
40
0
41
0
66
1
0
VERTEX
8
L4D0
10
-0.959
20
-0.811
0
VERTEX
8
L4D0
10
-0.879
20
-0.811
0
VERTEX
8
L4D0
10
-0.879
20
-0.731
0
VERTEX
8
L4D0
10
-0.959
20
-0.731
0
SEQEND
0
POLYLINE
8
L4D0
70
1
40
0
41
0
66
1
0
VERTEX
8
L4D0
10
0.879
20
-0.811
0
VERTEX
8
L4D0
10
0.959
20
-0.811
0
VERTEX
8
L4D0
10
0.959
20
-0.731
0
VERTEX
8
L4D0
10
0.879
20
-0.731
0
SEQEND
0
POLYLINE
8
L4D0
70
1
40
0
41
0
66
1
0
VERTEX
8
L4D0
10
-0.44
20
-0.732
0
VERTEX
8
L4D0
10
-0.36
20
-0.732
0
VERTEX
8
L4D0
10
-0.36
20
-0.652
0
VERTEX
8
L4D0
10
-0.44
20
-0.652
0
SEQEND
0
POLYLINE
8
L4D0
70
1
40
0
41
0
66
1
0
VERTEX
8
L4D0
10
0.359
20
-0.732
0
VERTEX
8
L4D0
10
0.439
20
-0.732
0
VERTEX
8
L4D0
10
0.439
20
-0.652
0
VERTEX
8
L4D0
10
0.359
20
-0.652
0
SEQEND
0
POLYLINE
8
L4D0
70
1
40
0
41
0
66
1
0
VERTEX
8
L4D0
10
-1.167
20
-0.45
0
VERTEX
8
L4D0
10
-1.087
20
-0.45
0
VERTEX
8
L4D0
10
-1.087
20
-0.37
0
VERTEX
8
L4D0
10
-1.167
20
-0.37
0
SEQEND
0
POLYLINE
8
L4D0
70
1
40
0
41
0
66
1
0
VERTEX
8
L4D0
10
1.087
20
-0.45
0
VERTEX
8
L4D0
10
1.167
20
-0.45
0
VERTEX
8
L4D0
10
1.167
20
-0.37
0
VERTEX
8
L4D0
10
1.087
20
-0.37
0
SEQEND
0
POLYLINE
8
L4D0
70
1
40
0
41
0
66
1
0
VERTEX
8
L4D0
10
0.652
20
-0.44
0
VERTEX
8
L4D0
10
0.732
20
-0.44
0
VERTEX
8
L4D0
10
0.732
20
-0.36
0
VERTEX
8
L4D0
10
0.652
20
-0.36
0
SEQEND
0
POLYLINE
8
L4D0
70
1
40
0
41
0
66
1
0
VERTEX
8
L4D0
10
-0.732
20
-0.439
0
VERTEX
8
L4D0
10
-0.652
20
-0.439
0
VERTEX
8
L4D0
10
-0.652
20
-0.359
0
VERTEX
8
L4D0
10
-0.732
20
-0.359
0
SEQEND
0
POLYLINE
8
L4D0
70
1
40
0
41
0
66
1
0
VERTEX
8
L4D0
10
-0.24
20
-0.386
0
VERTEX
8
L4D0
10
-0.16
20
-0.386
0
VERTEX
8
L4D0
10
-0.16
20
-0.306
0
VERTEX
8
L4D0
10
-0.24
20
-0.306
0
SEQEND
0
POLYLINE
8
L4D0
70
1
40
0
41
0
66
1
0
VERTEX
8
L4D0
10
0.159
20
-0.386
0
VERTEX
8
L4D0
10
0.239
20
-0.386
0
VERTEX
8
L4D0
10
0.239
20
-0.306
0
VERTEX
8
L4D0
10
0.159
20
-0.306
0
SEQEND
0
POLYLINE
8
L4D0
70
1
40
0
41
0
66
1
0
VERTEX
8
L4D0
10
-1.24
20
-0.04
0
VERTEX
8
L4D0
10
-1.16
20
-0.04
0
VERTEX
8
L4D0
10
-1.16
20
0.04
0
VERTEX
8
L4D0
10
-1.24
20
0.04
0
SEQEND
0
POLYLINE
8
L4D0
70
1
40
0
41
0
66
1
0
VERTEX
8
L4D0
10
-0.84
20
-0.04
0
VERTEX
8
L4D0
10
-0.76
20
-0.04
0
VERTEX
8
L4D0
10
-0.76
20
0.04
0
VERTEX
8
L4D0
10
-0.84
20
0.04
0
SEQEND
0
POLYLINE
8
L4D0
70
1
40
0
41
0
66
1
0
VERTEX
8
L4D0
10
-0.44
20
-0.04
0
VERTEX
8
L4D0
10
-0.36
20
-0.04
0
VERTEX
8
L4D0
10
-0.36
20
0.04
0
VERTEX
8
L4D0
10
-0.44
20
0.04
0
SEQEND
0
POLYLINE
8
L4D0
70
1
40
0
41
0
66
1
0
VERTEX
8
L4D0
10
-0.04
20
-0.04
0
VERTEX
8
L4D0
10
0.04
20
-0.04
0
VERTEX
8
L4D0
10
0.04
20
0.04
0
VERTEX
8
L4D0
10
-0.04
20
0.04
0
SEQEND
0
POLYLINE
8
L4D0
70
1
40
0
41
0
66
1
0
VERTEX
8
L4D0
10
0.36
20
-0.04
0
VERTEX
8
L4D0
10
0.44
20
-0.04
0
VERTEX
8
L4D0
10
0.44
20
0.04
0
VERTEX
8
L4D0
10
0.36
20
0.04
0
SEQEND
0
POLYLINE
8
L4D0
70
1
40
0
41
0
66
1
0
VERTEX
8
L4D0
10
0.76
20
-0.04
0
VERTEX
8
L4D0
10
0.84
20
-0.04
0
VERTEX
8
L4D0
10
0.84
20
0.04
0
VERTEX
8
L4D0
10
0.76
20
0.04
0
SEQEND
0
POLYLINE
8
L4D0
70
1
40
0
41
0
66
1
0
VERTEX
8
L4D0
10
1.16
20
-0.04
0
VERTEX
8
L4D0
10
1.24
20
-0.04
0
VERTEX
8
L4D0
10
1.24
20
0.04
0
VERTEX
8
L4D0
10
1.16
20
0.04
0
SEQEND
0
POLYLINE
8
L4D0
70
1
40
0
41
0
66
1
0
VERTEX
8
L4D0
10
-0.239
20
0.306
0
VERTEX
8
L4D0
10
-0.159
20
0.306
0
VERTEX
8
L4D0
10
-0.159
20
0.386
0
VERTEX
8
L4D0
10
-0.239
20
0.386
0
SEQEND
0
POLYLINE
8
L4D0
70
1
40
0
41
0
66
1
0
VERTEX
8
L4D0
10
0.16
20
0.306
0
VERTEX
8
L4D0
10
0.24
20
0.306
0
VERTEX
8
L4D0
10
0.24
20
0.386
0
VERTEX
8
L4D0
10
0.16
20
0.386
0
SEQEND
0
POLYLINE
8
L4D0
70
1
40
0
41
0
66
1
0
VERTEX
8
L4D0
10
0.652
20
0.359
0
VERTEX
8
L4D0
10
0.732
20
0.359
0
VERTEX
8
L4D0
10
0.732
20
0.439
0
VERTEX
8
L4D0
10
0.652
20
0.439
0
SEQEND
0
POLYLINE
8
L4D0
70
1
40
0
41
0
66
1
0
VERTEX
8
L4D0
10
-0.732
20
0.36
0
VERTEX
8
L4D0
10
-0.652
20
0.36
0
VERTEX
8
L4D0
10
-0.652
20
0.44
0
VERTEX
8
L4D0
10
-0.732
20
0.44
0
SEQEND
0
POLYLINE
8
L4D0
70
1
40
0
41
0
66
1
0
VERTEX
8
L4D0
10
-1.167
20
0.37
0
VERTEX
8
L4D0
10
-1.087
20
0.37
0
VERTEX
8
L4D0
10
-1.087
20
0.45
0
VERTEX
8
L4D0
10
-1.167
20
0.45
0
SEQEND
0
POLYLINE
8
L4D0
70
1
40
0
41
0
66
1
0
VERTEX
8
L4D0
10
1.087
20
0.37
0
VERTEX
8
L4D0
10
1.167
20
0.37
0
VERTEX
8
L4D0
10
1.167
20
0.45
0
VERTEX
8
L4D0
10
1.087
20
0.45
0
SEQEND
0
POLYLINE
8
L4D0
70
1
40
0
41
0
66
1
0
VERTEX
8
L4D0
10
-0.439
20
0.652
0
VERTEX
8
L4D0
10
-0.359
20
0.652
0
VERTEX
8
L4D0
10
-0.359
20
0.732
0
VERTEX
8
L4D0
10
-0.439
20
0.732
0
SEQEND
0
POLYLINE
8
L4D0
70
1
40
0
41
0
66
1
0
VERTEX
8
L4D0
10
0.36
20
0.652
0
VERTEX
8
L4D0
10
0.44
20
0.652
0
VERTEX
8
L4D0
10
0.44
20
0.732
0
VERTEX
8
L4D0
10
0.36
20
0.732
0
SEQEND
0
POLYLINE
8
L4D0
70
1
40
0
41
0
66
1
0
VERTEX
8
L4D0
10
-0.959
20
0.731
0
VERTEX
8
L4D0
10
-0.879
20
0.731
0
VERTEX
8
L4D0
10
-0.879
20
0.811
0
VERTEX
8
L4D0
10
-0.959
20
0.811
0
SEQEND
0
POLYLINE
8
L4D0
70
1
40
0
41
0
66
1
0
VERTEX
8
L4D0
10
0.879
20
0.731
0
VERTEX
8
L4D0
10
0.959
20
0.731
0
VERTEX
8
L4D0
10
0.959
20
0.811
0
VERTEX
8
L4D0
10
0.879
20
0.811
0
SEQEND
0
POLYLINE
8
L4D0
70
1
40
0
41
0
66
1
0
VERTEX
8
L4D0
10
-0.04
20
0.76
0
VERTEX
8
L4D0
10
0.04
20
0.76
0
VERTEX
8
L4D0
10
0.04
20
0.84
0
VERTEX
8
L4D0
10
-0.04
20
0.84
0
SEQEND
0
POLYLINE
8
L4D0
70
1
40
0
41
0
66
1
0
VERTEX
8
L4D0
10
-0.639
20
0.999
0
VERTEX
8
L4D0
10
-0.559
20
0.999
0
VERTEX
8
L4D0
10
-0.559
20
1.079
0
VERTEX
8
L4D0
10
-0.639
20
1.079
0
SEQEND
0
POLYLINE
8
L4D0
70
1
40
0
41
0
66
1
0
VERTEX
8
L4D0
10
0.56
20
0.999
0
VERTEX
8
L4D0
10
0.64
20
0.999
0
VERTEX
8
L4D0
10
0.64
20
1.079
0
VERTEX
8
L4D0
10
0.56
20
1.079
0
SEQEND
0
POLYLINE
8
L4D0
70
1
40
0
41
0
66
1
0
VERTEX
8
L4D0
10
-0.248
20
1.141
0
VERTEX
8
L4D0
10
-0.168
20
1.141
0
VERTEX
8
L4D0
10
-0.168
20
1.221
0
VERTEX
8
L4D0
10
-0.248
20
1.221
0
SEQEND
0
POLYLINE
8
L4D0
70
1
40
0
41
0
66
1
0
VERTEX
8
L4D0
10
0.168
20
1.141
0
VERTEX
8
L4D0
10
0.248
20
1.141
0
VERTEX
8
L4D0
10
0.248
20
1.221
0
VERTEX
8
L4D0
10
0.168
20
1.221
0
SEQEND
0
ENDSEC
0
EOF
