0
SECTION
2
HEADER
9
$ACADVER
1
AC1006
0
ENDSEC
0
SECTION
2
TABLES
0
TABLE
2
LAYER
70
5
0
LAYER
70
0
62
1
6
CONTINUOUS
2
L1D0
0
LAYER
70
0
62
2
6
CONTINUOUS
2
L2D0
0
LAYER
70
0
62
3
6
CONTINUOUS
2
L3D0
0
LAYER
70
0
62
4
6
CONTINUOUS
2
L4D0
0
LAYER
70
0
62
5
6
CONTINUOUS
2
L5D0
0
ENDTAB
0
ENDSEC
0
SECTION
2
BLOCKS
0
ENDSEC
0
SECTION
2
ENTITIES
0
POLYLINE
8
L1D0
70
1
40
0
41
0
66
1
0
VERTEX
8
L1D0
10
1.8
20
1.8
0
VERTEX
8
L1D0
10
1.8
20
2.2
0
VERTEX
8
L1D0
10
2.2
20
2.2
0
VERTEX
8
L1D0
10
2.2
20
1.8
0
SEQEND
0
POLYLINE
8
L1D0
70
1
40
0
41
0
66
1
0
VERTEX
8
L1D0
10
-2.2
20
1.8
0
VERTEX
8
L1D0
10
-2.2
20
2.2
0
VERTEX
8
L1D0
10
-1.8
20
2.2
0
VERTEX
8
L1D0
10
-1.8
20
1.8
0
SEQEND
0
POLYLINE
8
L1D0
70
1
40
0
41
0
66
1
0
VERTEX
8
L1D0
10
-2.2
20
-2.2
0
VERTEX
8
L1D0
10
-2.2
20
-1.8
0
VERTEX
8
L1D0
10
-1.8
20
-1.8
0
VERTEX
8
L1D0
10
-1.8
20
-2.2
0
SEQEND
0
POLYLINE
8
L1D0
70
1
40
0
41
0
66
1
0
VERTEX
8
L1D0
10
1.8
20
-2.2
0
VERTEX
8
L1D0
10
1.8
20
-1.8
0
VERTEX
8
L1D0
10
2.2
20
-1.8
0
VERTEX
8
L1D0
10
2.2
20
-2.2
0
SEQEND
0
POLYLINE
8
L2D0
70
1
40
0
41
0
66
1
0
VERTEX
8
L2D0
10
-0.196
20
0.88
0
VERTEX
8
L2D0
10
-0.196
20
1.08
0
VERTEX
8
L2D0
10
0.196
20
1.08
0
VERTEX
8
L2D0
10
0.196
20
0.88
0
SEQEND
0
POLYLINE
8
L2D0
70
1
40
0
41
0
66
1
0
VERTEX
8
L2D0
10
-0.761
20
0.483
0
VERTEX
8
L2D0
10
-0.903
20
0.625
0
VERTEX
8
L2D0
10
-0.625
20
0.903
0
VERTEX
8
L2D0
10
-0.483
20
0.761
0
SEQEND
0
POLYLINE
8
L2D0
70
1
40
0
41
0
66
1
0
VERTEX
8
L2D0
10
-1.08
20
-0.196
0
VERTEX
8
L2D0
10
-1.08
20
0.196
0
VERTEX
8
L2D0
10
-0.88
20
0.196
0
VERTEX
8
L2D0
10
-0.88
20
-0.196
0
SEQEND
0
POLYLINE
8
L2D0
70
1
40
0
41
0
66
1
0
VERTEX
8
L2D0
10
-0.625
20
-0.903
0
VERTEX
8
L2D0
10
-0.903
20
-0.625
0
VERTEX
8
L2D0
10
-0.761
20
-0.483
0
VERTEX
8
L2D0
10
-0.483
20
-0.761
0
SEQEND
0
POLYLINE
8
L2D0
70
1
40
0
41
0
66
1
0
VERTEX
8
L2D0
10
-0.196
20
-1.08
0
VERTEX
8
L2D0
10
-0.196
20
-0.88
0
VERTEX
8
L2D0
10
0.196
20
-0.88
0
VERTEX
8
L2D0
10
0.196
20
-1.08
0
SEQEND
0
POLYLINE
8
L2D0
70
1
40
0
41
0
66
1
0
VERTEX
8
L2D0
10
0.625
20
-0.903
0
VERTEX
8
L2D0
10
0.483
20
-0.761
0
VERTEX
8
L2D0
10
0.761
20
-0.483
0
VERTEX
8
L2D0
10
0.903
20
-0.625
0
SEQEND
0
POLYLINE
8
L2D0
70
1
40
0
41
0
66
1
0
VERTEX
8
L2D0
10
0.88
20
-0.196
0
VERTEX
8
L2D0
10
0.88
20
0.196
0
VERTEX
8
L2D0
10
1.08
20
0.196
0
VERTEX
8
L2D0
10
1.08
20
-0.196
0
SEQEND
0
POLYLINE
8
L2D0
70
1
40
0
41
0
66
1
0
VERTEX
8
L2D0
10
0.761
20
0.483
0
VERTEX
8
L2D0
10
0.483
20
0.761
0
VERTEX
8
L2D0
10
0.625
20
0.903
0
VERTEX
8
L2D0
10
0.903
20
0.625
0
SEQEND
0
POLYLINE
8
L3D0
70
1
40
0
41
0
66
1
0
VERTEX
8
L3D0
10
0.88
20
-0.295
0
VERTEX
8
L3D0
10
0.88
20
-0.095
0
VERTEX
8
L3D0
10
1.08
20
-0.095
0
VERTEX
8
L3D0
10
1.08
20
-0.295
0
SEQEND
0
POLYLINE
8
L3D0
70
1
40
0
41
0
66
1
0
VERTEX
8
L3D0
10
0.88
20
0.095
0
VERTEX
8
L3D0
10
0.88
20
0.295
0
VERTEX
8
L3D0
10
1.08
20
0.295
0
VERTEX
8
L3D0
10
1.08
20
0.095
0
SEQEND
0
POLYLINE
8
L3D0
70
1
40
0
41
0
66
1
0
VERTEX
8
L3D0
10
0.731
20
0.455
0
VERTEX
8
L3D0
10
0.731
20
0.655
0
VERTEX
8
L3D0
10
0.931
20
0.655
0
VERTEX
8
L3D0
10
0.931
20
0.455
0
SEQEND
0
POLYLINE
8
L3D0
70
1
40
0
41
0
66
1
0
VERTEX
8
L3D0
10
0.455
20
0.731
0
VERTEX
8
L3D0
10
0.455
20
0.931
0
VERTEX
8
L3D0
10
0.655
20
0.931
0
VERTEX
8
L3D0
10
0.655
20
0.731
0
SEQEND
0
POLYLINE
8
L3D0
70
1
40
0
41
0
66
1
0
VERTEX
8
L3D0
10
0.095
20
0.88
0
VERTEX
8
L3D0
10
0.095
20
1.08
0
VERTEX
8
L3D0
10
0.295
20
1.08
0
VERTEX
8
L3D0
10
0.295
20
0.88
0
SEQEND
0
POLYLINE
8
L3D0
70
1
40
0
41
0
66
1
0
VERTEX
8
L3D0
10
-0.295
20
0.88
0
VERTEX
8
L3D0
10
-0.295
20
1.08
0
VERTEX
8
L3D0
10
-0.095
20
1.08
0
VERTEX
8
L3D0
10
-0.095
20
0.88
0
SEQEND
0
POLYLINE
8
L3D0
70
1
40
0
41
0
66
1
0
VERTEX
8
L3D0
10
-0.655
20
0.731
0
VERTEX
8
L3D0
10
-0.655
20
0.931
0
VERTEX
8
L3D0
10
-0.455
20
0.931
0
VERTEX
8
L3D0
10
-0.455
20
0.731
0
SEQEND
0
POLYLINE
8
L3D0
70
1
40
0
41
0
66
1
0
VERTEX
8
L3D0
10
-0.931
20
0.455
0
VERTEX
8
L3D0
10
-0.931
20
0.655
0
VERTEX
8
L3D0
10
-0.731
20
0.655
0
VERTEX
8
L3D0
10
-0.731
20
0.455
0
SEQEND
0
POLYLINE
8
L3D0
70
1
40
0
41
0
66
1
0
VERTEX
8
L3D0
10
-1.08
20
0.095
0
VERTEX
8
L3D0
10
-1.08
20
0.295
0
VERTEX
8
L3D0
10
-0.88
20
0.295
0
VERTEX
8
L3D0
10
-0.88
20
0.095
0
SEQEND
0
POLYLINE
8
L3D0
70
1
40
0
41
0
66
1
0
VERTEX
8
L3D0
10
-1.08
20
-0.295
0
VERTEX
8
L3D0
10
-1.08
20
-0.095
0
VERTEX
8
L3D0
10
-0.88
20
-0.095
0
VERTEX
8
L3D0
10
-0.88
20
-0.295
0
SEQEND
0
POLYLINE
8
L3D0
70
1
40
0
41
0
66
1
0
VERTEX
8
L3D0
10
-0.931
20
-0.655
0
VERTEX
8
L3D0
10
-0.931
20
-0.455
0
VERTEX
8
L3D0
10
-0.731
20
-0.455
0
VERTEX
8
L3D0
10
-0.731
20
-0.655
0
SEQEND
0
POLYLINE
8
L3D0
70
1
40
0
41
0
66
1
0
VERTEX
8
L3D0
10
-0.655
20
-0.931
0
VERTEX
8
L3D0
10
-0.655
20
-0.731
0
VERTEX
8
L3D0
10
-0.455
20
-0.731
0
VERTEX
8
L3D0
10
-0.455
20
-0.931
0
SEQEND
0
POLYLINE
8
L3D0
70
1
40
0
41
0
66
1
0
VERTEX
8
L3D0
10
-0.295
20
-1.08
0
VERTEX
8
L3D0
10
-0.295
20
-0.88
0
VERTEX
8
L3D0
10
-0.095
20
-0.88
0
VERTEX
8
L3D0
10
-0.095
20
-1.08
0
SEQEND
0
POLYLINE
8
L3D0
70
1
40
0
41
0
66
1
0
VERTEX
8
L3D0
10
0.095
20
-1.08
0
VERTEX
8
L3D0
10
0.095
20
-0.88
0
VERTEX
8
L3D0
10
0.295
20
-0.88
0
VERTEX
8
L3D0
10
0.295
20
-1.08
0
SEQEND
0
POLYLINE
8
L3D0
70
1
40
0
41
0
66
1
0
VERTEX
8
L3D0
10
0.455
20
-0.931
0
VERTEX
8
L3D0
10
0.455
20
-0.731
0
VERTEX
8
L3D0
10
0.655
20
-0.731
0
VERTEX
8
L3D0
10
0.655
20
-0.931
0
SEQEND
0
POLYLINE
8
L3D0
70
1
40
0
41
0
66
1
0
VERTEX
8
L3D0
10
0.731
20
-0.655
0
VERTEX
8
L3D0
10
0.731
20
-0.455
0
VERTEX
8
L3D0
10
0.931
20
-0.455
0
VERTEX
8
L3D0
10
0.931
20
-0.655
0
SEQEND
0
POLYLINE
8
L4D0
70
1
40
0
41
0
66
1
0
VERTEX
8
L4D0
10
-2.3
20
-2.3
0
VERTEX
8
L4D0
10
-2.3
20
-1.7
0
VERTEX
8
L4D0
10
1.3
20
-1.7
0
VERTEX
8
L4D0
10
1.3
20
-1.5
0
VERTEX
8
L4D0
10
-1.9
20
-1.5
0
VERTEX
8
L4D0
10
-1.9
20
1.7
0
VERTEX
8
L4D0
10
-2.3
20
1.7
0
VERTEX
8
L4D0
10
-2.3
20
2.3
0
VERTEX
8
L4D0
10
-1.7
20
2.3
0
VERTEX
8
L4D0
10
-1.7
20
-1.3
0
VERTEX
8
L4D0
10
-1.5
20
-1.3
0
VERTEX
8
L4D0
10
-1.5
20
1.9
0
VERTEX
8
L4D0
10
1.7
20
1.9
0
VERTEX
8
L4D0
10
1.7
20
2.3
0
VERTEX
8
L4D0
10
2.3
20
2.3
0
VERTEX
8
L4D0
10
2.3
20
1.7
0
VERTEX
8
L4D0
10
-1.3
20
1.7
0
VERTEX
8
L4D0
10
-1.3
20
1.5
0
VERTEX
8
L4D0
10
1.9
20
1.5
0
VERTEX
8
L4D0
10
1.9
20
-1.7
0
VERTEX
8
L4D0
10
2.3
20
-1.7
0
VERTEX
8
L4D0
10
2.3
20
-2.3
0
VERTEX
8
L4D0
10
1.7
20
-2.3
0
VERTEX
8
L4D0
10
1.7
20
1.3
0
VERTEX
8
L4D0
10
1.5
20
1.3
0
VERTEX
8
L4D0
10
1.5
20
-1.9
0
VERTEX
8
L4D0
10
-1.7
20
-1.9
0
VERTEX
8
L4D0
10
-1.7
20
-2.3
0
SEQEND
0
POLYLINE
8
L5D0
70
1
40
0
41
0
66
1
0
VERTEX
8
L5D0
10
-0.04
20
-0.04
0
VERTEX
8
L5D0
10
-0.04
20
0.04
0
VERTEX
8
L5D0
10
0.04
20
0.04
0
VERTEX
8
L5D0
10
0.04
20
-0.04
0
SEQEND
0
POLYLINE
8
L5D0
70
1
40
0
41
0
66
1
0
VERTEX
8
L5D0
10
0.352
20
-0.04
0
VERTEX
8
L5D0
10
0.352
20
0.04
0
VERTEX
8
L5D0
10
0.432
20
0.04
0
VERTEX
8
L5D0
10
0.432
20
-0.04
0
SEQEND
0
POLYLINE
8
L5D0
70
1
40
0
41
0
66
1
0
VERTEX
8
L5D0
10
0.156
20
0.299
0
VERTEX
8
L5D0
10
0.156
20
0.379
0
VERTEX
8
L5D0
10
0.236
20
0.379
0
VERTEX
8
L5D0
10
0.236
20
0.299
0
SEQEND
0
POLYLINE
8
L5D0
70
1
40
0
41
0
66
1
0
VERTEX
8
L5D0
10
-0.235
20
0.299
0
VERTEX
8
L5D0
10
-0.235
20
0.379
0
VERTEX
8
L5D0
10
-0.155
20
0.379
0
VERTEX
8
L5D0
10
-0.155
20
0.299
0
SEQEND
0
POLYLINE
8
L5D0
70
1
40
0
41
0
66
1
0
VERTEX
8
L5D0
10
-0.432
20
-0.04
0
VERTEX
8
L5D0
10
-0.432
20
0.04
0
VERTEX
8
L5D0
10
-0.352
20
0.04
0
VERTEX
8
L5D0
10
-0.352
20
-0.04
0
SEQEND
0
POLYLINE
8
L5D0
70
1
40
0
41
0
66
1
0
VERTEX
8
L5D0
10
-0.236
20
-0.379
0
VERTEX
8
L5D0
10
-0.236
20
-0.299
0
VERTEX
8
L5D0
10
-0.156
20
-0.299
0
VERTEX
8
L5D0
10
-0.156
20
-0.379
0
SEQEND
0
POLYLINE
8
L5D0
70
1
40
0
41
0
66
1
0
VERTEX
8
L5D0
10
0.155
20
-0.379
0
VERTEX
8
L5D0
10
0.155
20
-0.299
0
VERTEX
8
L5D0
10
0.235
20
-0.299
0
VERTEX
8
L5D0
10
0.235
20
-0.379
0
SEQEND
0
POLYLINE
8
L5D0
70
1
40
0
41
0
66
1
0
VERTEX
8
L5D0
10
0.744
20
-0.04
0
VERTEX
8
L5D0
10
0.744
20
0.04
0
VERTEX
8
L5D0
10
0.824
20
0.04
0
VERTEX
8
L5D0
10
0.824
20
-0.04
0
SEQEND
0
POLYLINE
8
L5D0
70
1
40
0
41
0
66
1
0
VERTEX
8
L5D0
10
0.638
20
0.351
0
VERTEX
8
L5D0
10
0.638
20
0.431
0
VERTEX
8
L5D0
10
0.718
20
0.431
0
VERTEX
8
L5D0
10
0.718
20
0.351
0
SEQEND
0
POLYLINE
8
L5D0
70
1
40
0
41
0
66
1
0
VERTEX
8
L5D0
10
0.352
20
0.638
0
VERTEX
8
L5D0
10
0.352
20
0.718
0
VERTEX
8
L5D0
10
0.432
20
0.718
0
VERTEX
8
L5D0
10
0.432
20
0.638
0
SEQEND
0
POLYLINE
8
L5D0
70
1
40
0
41
0
66
1
0
VERTEX
8
L5D0
10
-0.04
20
0.744
0
VERTEX
8
L5D0
10
-0.04
20
0.824
0
VERTEX
8
L5D0
10
0.04
20
0.824
0
VERTEX
8
L5D0
10
0.04
20
0.744
0
SEQEND
0
POLYLINE
8
L5D0
70
1
40
0
41
0
66
1
0
VERTEX
8
L5D0
10
-0.431
20
0.638
0
VERTEX
8
L5D0
10
-0.431
20
0.718
0
VERTEX
8
L5D0
10
-0.351
20
0.718
0
VERTEX
8
L5D0
10
-0.351
20
0.638
0
SEQEND
0
POLYLINE
8
L5D0
70
1
40
0
41
0
66
1
0
VERTEX
8
L5D0
10
-0.718
20
0.352
0
VERTEX
8
L5D0
10
-0.718
20
0.432
0
VERTEX
8
L5D0
10
-0.638
20
0.432
0
VERTEX
8
L5D0
10
-0.638
20
0.352
0
SEQEND
0
POLYLINE
8
L5D0
70
1
40
0
41
0
66
1
0
VERTEX
8
L5D0
10
-0.824
20
-0.04
0
VERTEX
8
L5D0
10
-0.824
20
0.04
0
VERTEX
8
L5D0
10
-0.744
20
0.04
0
VERTEX
8
L5D0
10
-0.744
20
-0.04
0
SEQEND
0
POLYLINE
8
L5D0
70
1
40
0
41
0
66
1
0
VERTEX
8
L5D0
10
-0.718
20
-0.431
0
VERTEX
8
L5D0
10
-0.718
20
-0.351
0
VERTEX
8
L5D0
10
-0.638
20
-0.351
0
VERTEX
8
L5D0
10
-0.638
20
-0.431
0
SEQEND
0
POLYLINE
8
L5D0
70
1
40
0
41
0
66
1
0
VERTEX
8
L5D0
10
-0.432
20
-0.718
0
VERTEX
8
L5D0
10
-0.432
20
-0.638
0
VERTEX
8
L5D0
10
-0.352
20
-0.638
0
VERTEX
8
L5D0
10
-0.352
20
-0.718
0
SEQEND
0
POLYLINE
8
L5D0
70
1
40
0
41
0
66
1
0
VERTEX
8
L5D0
10
-0.04
20
-0.824
0
VERTEX
8
L5D0
10
-0.04
20
-0.744
0
VERTEX
8
L5D0
10
0.04
20
-0.744
0
VERTEX
8
L5D0
10
0.04
20
-0.824
0
SEQEND
0
POLYLINE
8
L5D0
70
1
40
0
41
0
66
1
0
VERTEX
8
L5D0
10
0.351
20
-0.718
0
VERTEX
8
L5D0
10
0.351
20
-0.638
0
VERTEX
8
L5D0
10
0.431
20
-0.638
0
VERTEX
8
L5D0
10
0.431
20
-0.718
0
SEQEND
0
POLYLINE
8
L5D0
70
1
40
0
41
0
66
1
0
VERTEX
8
L5D0
10
0.638
20
-0.432
0
VERTEX
8
L5D0
10
0.638
20
-0.352
0
VERTEX
8
L5D0
10
0.718
20
-0.352
0
VERTEX
8
L5D0
10
0.718
20
-0.432
0
SEQEND
0
POLYLINE
8
L5D0
70
1
40
0
41
0
66
1
0
VERTEX
8
L5D0
10
1.136
20
-0.04
0
VERTEX
8
L5D0
10
1.136
20
0.04
0
VERTEX
8
L5D0
10
1.216
20
0.04
0
VERTEX
8
L5D0
10
1.216
20
-0.04
0
SEQEND
0
POLYLINE
8
L5D0
70
1
40
0
41
0
66
1
0
VERTEX
8
L5D0
10
1.046
20
0.41
0
VERTEX
8
L5D0
10
1.046
20
0.49
0
VERTEX
8
L5D0
10
1.126
20
0.49
0
VERTEX
8
L5D0
10
1.126
20
0.41
0
SEQEND
0
POLYLINE
8
L5D0
70
1
40
0
41
0
66
1
0
VERTEX
8
L5D0
10
0.791
20
0.791
0
VERTEX
8
L5D0
10
0.791
20
0.871
0
VERTEX
8
L5D0
10
0.871
20
0.871
0
VERTEX
8
L5D0
10
0.871
20
0.791
0
SEQEND
0
POLYLINE
8
L5D0
70
1
40
0
41
0
66
1
0
VERTEX
8
L5D0
10
0.41
20
1.046
0
VERTEX
8
L5D0
10
0.41
20
1.126
0
VERTEX
8
L5D0
10
0.49
20
1.126
0
VERTEX
8
L5D0
10
0.49
20
1.046
0
SEQEND
0
POLYLINE
8
L5D0
70
1
40
0
41
0
66
1
0
VERTEX
8
L5D0
10
-0.04
20
1.136
0
VERTEX
8
L5D0
10
-0.04
20
1.216
0
VERTEX
8
L5D0
10
0.04
20
1.216
0
VERTEX
8
L5D0
10
0.04
20
1.136
0
SEQEND
0
POLYLINE
8
L5D0
70
1
40
0
41
0
66
1
0
VERTEX
8
L5D0
10
-0.49
20
1.046
0
VERTEX
8
L5D0
10
-0.49
20
1.126
0
VERTEX
8
L5D0
10
-0.41
20
1.126
0
VERTEX
8
L5D0
10
-0.41
20
1.046
0
SEQEND
0
POLYLINE
8
L5D0
70
1
40
0
41
0
66
1
0
VERTEX
8
L5D0
10
-0.871
20
0.791
0
VERTEX
8
L5D0
10
-0.871
20
0.871
0
VERTEX
8
L5D0
10
-0.791
20
0.871
0
VERTEX
8
L5D0
10
-0.791
20
0.791
0
SEQEND
0
POLYLINE
8
L5D0
70
1
40
0
41
0
66
1
0
VERTEX
8
L5D0
10
-1.126
20
0.41
0
VERTEX
8
L5D0
10
-1.126
20
0.49
0
VERTEX
8
L5D0
10
-1.046
20
0.49
0
VERTEX
8
L5D0
10
-1.046
20
0.41
0
SEQEND
0
POLYLINE
8
L5D0
70
1
40
0
41
0
66
1
0
VERTEX
8
L5D0
10
-1.216
20
-0.04
0
VERTEX
8
L5D0
10
-1.216
20
0.04
0
VERTEX
8
L5D0
10
-1.136
20
0.04
0
VERTEX
8
L5D0
10
-1.136
20
-0.04
0
SEQEND
0
POLYLINE
8
L5D0
70
1
40
0
41
0
66
1
0
VERTEX
8
L5D0
10
-1.126
20
-0.49
0
VERTEX
8
L5D0
10
-1.126
20
-0.41
0
VERTEX
8
L5D0
10
-1.046
20
-0.41
0
VERTEX
8
L5D0
10
-1.046
20
-0.49
0
SEQEND
0
POLYLINE
8
L5D0
70
1
40
0
41
0
66
1
0
VERTEX
8
L5D0
10
-0.871
20
-0.871
0
VERTEX
8
L5D0
10
-0.871
20
-0.791
0
VERTEX
8
L5D0
10
-0.791
20
-0.791
0
VERTEX
8
L5D0
10
-0.791
20
-0.871
0
SEQEND
0
POLYLINE
8
L5D0
70
1
40
0
41
0
66
1
0
VERTEX
8
L5D0
10
-0.49
20
-1.126
0
VERTEX
8
L5D0
10
-0.49
20
-1.046
0
VERTEX
8
L5D0
10
-0.41
20
-1.046
0
VERTEX
8
L5D0
10
-0.41
20
-1.126
0
SEQEND
0
POLYLINE
8
L5D0
70
1
40
0
41
0
66
1
0
VERTEX
8
L5D0
10
-0.04
20
-1.216
0
VERTEX
8
L5D0
10
-0.04
20
-1.136
0
VERTEX
8
L5D0
10
0.04
20
-1.136
0
VERTEX
8
L5D0
10
0.04
20
-1.216
0
SEQEND
0
POLYLINE
8
L5D0
70
1
40
0
41
0
66
1
0
VERTEX
8
L5D0
10
0.41
20
-1.126
0
VERTEX
8
L5D0
10
0.41
20
-1.046
0
VERTEX
8
L5D0
10
0.49
20
-1.046
0
VERTEX
8
L5D0
10
0.49
20
-1.126
0
SEQEND
0
POLYLINE
8
L5D0
70
1
40
0
41
0
66
1
0
VERTEX
8
L5D0
10
0.791
20
-0.871
0
VERTEX
8
L5D0
10
0.791
20
-0.791
0
VERTEX
8
L5D0
10
0.871
20
-0.791
0
VERTEX
8
L5D0
10
0.871
20
-0.871
0
SEQEND
0
POLYLINE
8
L5D0
70
1
40
0
41
0
66
1
0
VERTEX
8
L5D0
10
1.046
20
-0.49
0
VERTEX
8
L5D0
10
1.046
20
-0.41
0
VERTEX
8
L5D0
10
1.126
20
-0.41
0
VERTEX
8
L5D0
10
1.126
20
-0.49
0
SEQEND
0
POLYLINE
8
L5D0
70
1
40
0
41
0
66
1
0
VERTEX
8
L5D0
10
1.068
20
1.068
0
VERTEX
8
L5D0
10
1.068
20
1.148
0
VERTEX
8
L5D0
10
1.148
20
1.148
0
VERTEX
8
L5D0
10
1.148
20
1.068
0
SEQEND
0
POLYLINE
8
L5D0
70
1
40
0
41
0
66
1
0
VERTEX
8
L5D0
10
-1.148
20
1.068
0
VERTEX
8
L5D0
10
-1.148
20
1.148
0
VERTEX
8
L5D0
10
-1.068
20
1.148
0
VERTEX
8
L5D0
10
-1.068
20
1.068
0
SEQEND
0
POLYLINE
8
L5D0
70
1
40
0
41
0
66
1
0
VERTEX
8
L5D0
10
-1.148
20
-1.148
0
VERTEX
8
L5D0
10
-1.148
20
-1.068
0
VERTEX
8
L5D0
10
-1.068
20
-1.068
0
VERTEX
8
L5D0
10
-1.068
20
-1.148
0
SEQEND
0
POLYLINE
8
L5D0
70
1
40
0
41
0
66
1
0
VERTEX
8
L5D0
10
1.068
20
-1.148
0
VERTEX
8
L5D0
10
1.068
20
-1.068
0
VERTEX
8
L5D0
10
1.148
20
-1.068
0
VERTEX
8
L5D0
10
1.148
20
-1.148
0
SEQEND
0
ENDSEC
0
EOF
