0
SECTION
2
HEADER
9
$ACADVER
1
AC1006
0
ENDSEC
0
SECTION
2
TABLES
0
TABLE
2
LAYER
70
5
0
LAYER
70
0
62
1
6
CONTINUOUS
2
L1D0
0
LAYER
70
0
62
2
6
CONTINUOUS
2
L2D0
0
LAYER
70
0
62
3
6
CONTINUOUS
2
L3D0
0
LAYER
70
0
62
4
6
CONTINUOUS
2
L4D0
0
LAYER
70
0
62
5
6
CONTINUOUS
2
L5D0
0
ENDTAB
0
ENDSEC
0
SECTION
2
BLOCKS
0
ENDSEC
0
SECTION
2
ENTITIES
0
POLYLINE
8
L1D0
70
1
40
0
41
0
66
1
0
VERTEX
8
L1D0
10
1.8
20
1.8
0
VERTEX
8
L1D0
10
1.8
20
2.2
0
VERTEX
8
L1D0
10
2.2
20
2.2
0
VERTEX
8
L1D0
10
2.2
20
1.8
0
SEQEND
0
POLYLINE
8
L1D0
70
1
40
0
41
0
66
1
0
VERTEX
8
L1D0
10
-2.2
20
1.8
0
VERTEX
8
L1D0
10
-2.2
20
2.2
0
VERTEX
8
L1D0
10
-1.8
20
2.2
0
VERTEX
8
L1D0
10
-1.8
20
1.8
0
SEQEND
0
POLYLINE
8
L1D0
70
1
40
0
41
0
66
1
0
VERTEX
8
L1D0
10
-2.2
20
-2.2
0
VERTEX
8
L1D0
10
-2.2
20
-1.8
0
VERTEX
8
L1D0
10
-1.8
20
-1.8
0
VERTEX
8
L1D0
10
-1.8
20
-2.2
0
SEQEND
0
POLYLINE
8
L1D0
70
1
40
0
41
0
66
1
0
VERTEX
8
L1D0
10
1.8
20
-2.2
0
VERTEX
8
L1D0
10
1.8
20
-1.8
0
VERTEX
8
L1D0
10
2.2
20
-1.8
0
VERTEX
8
L1D0
10
2.2
20
-2.2
0
SEQEND
0
POLYLINE
8
L2D0
70
1
40
0
41
0
66
1
0
VERTEX
8
L2D0
10
-0.196
20
0.88
0
VERTEX
8
L2D0
10
-0.196
20
1.08
0
VERTEX
8
L2D0
10
0.196
20
1.08
0
VERTEX
8
L2D0
10
0.196
20
0.88
0
SEQEND
0
POLYLINE
8
L2D0
70
1
40
0
41
0
66
1
0
VERTEX
8
L2D0
10
-0.761
20
0.483
0
VERTEX
8
L2D0
10
-0.903
20
0.625
0
VERTEX
8
L2D0
10
-0.625
20
0.903
0
VERTEX
8
L2D0
10
-0.483
20
0.761
0
SEQEND
0
POLYLINE
8
L2D0
70
1
40
0
41
0
66
1
0
VERTEX
8
L2D0
10
-1.08
20
-0.196
0
VERTEX
8
L2D0
10
-1.08
20
0.196
0
VERTEX
8
L2D0
10
-0.88
20
0.196
0
VERTEX
8
L2D0
10
-0.88
20
-0.196
0
SEQEND
0
POLYLINE
8
L2D0
70
1
40
0
41
0
66
1
0
VERTEX
8
L2D0
10
-0.625
20
-0.903
0
VERTEX
8
L2D0
10
-0.903
20
-0.625
0
VERTEX
8
L2D0
10
-0.761
20
-0.483
0
VERTEX
8
L2D0
10
-0.483
20
-0.761
0
SEQEND
0
POLYLINE
8
L2D0
70
1
40
0
41
0
66
1
0
VERTEX
8
L2D0
10
-0.196
20
-1.08
0
VERTEX
8
L2D0
10
-0.196
20
-0.88
0
VERTEX
8
L2D0
10
0.196
20
-0.88
0
VERTEX
8
L2D0
10
0.196
20
-1.08
0
SEQEND
0
POLYLINE
8
L2D0
70
1
40
0
41
0
66
1
0
VERTEX
8
L2D0
10
0.625
20
-0.903
0
VERTEX
8
L2D0
10
0.483
20
-0.761
0
VERTEX
8
L2D0
10
0.761
20
-0.483
0
VERTEX
8
L2D0
10
0.903
20
-0.625
0
SEQEND
0
POLYLINE
8
L2D0
70
1
40
0
41
0
66
1
0
VERTEX
8
L2D0
10
0.88
20
-0.196
0
VERTEX
8
L2D0
10
0.88
20
0.196
0
VERTEX
8
L2D0
10
1.08
20
0.196
0
VERTEX
8
L2D0
10
1.08
20
-0.196
0
SEQEND
0
POLYLINE
8
L2D0
70
1
40
0
41
0
66
1
0
VERTEX
8
L2D0
10
0.761
20
0.483
0
VERTEX
8
L2D0
10
0.483
20
0.761
0
VERTEX
8
L2D0
10
0.625
20
0.903
0
VERTEX
8
L2D0
10
0.903
20
0.625
0
SEQEND
0
POLYLINE
8
L3D0
70
1
40
0
41
0
66
1
0
VERTEX
8
L3D0
10
0.88
20
-0.295
0
VERTEX
8
L3D0
10
0.88
20
-0.095
0
VERTEX
8
L3D0
10
1.08
20
-0.095
0
VERTEX
8
L3D0
10
1.08
20
-0.295
0
SEQEND
0
POLYLINE
8
L3D0
70
1
40
0
41
0
66
1
0
VERTEX
8
L3D0
10
0.88
20
0.095
0
VERTEX
8
L3D0
10
0.88
20
0.295
0
VERTEX
8
L3D0
10
1.08
20
0.295
0
VERTEX
8
L3D0
10
1.08
20
0.095
0
SEQEND
0
POLYLINE
8
L3D0
70
1
40
0
41
0
66
1
0
VERTEX
8
L3D0
10
0.731
20
0.455
0
VERTEX
8
L3D0
10
0.731
20
0.655
0
VERTEX
8
L3D0
10
0.931
20
0.655
0
VERTEX
8
L3D0
10
0.931
20
0.455
0
SEQEND
0
POLYLINE
8
L3D0
70
1
40
0
41
0
66
1
0
VERTEX
8
L3D0
10
0.455
20
0.731
0
VERTEX
8
L3D0
10
0.455
20
0.931
0
VERTEX
8
L3D0
10
0.655
20
0.931
0
VERTEX
8
L3D0
10
0.655
20
0.731
0
SEQEND
0
POLYLINE
8
L3D0
70
1
40
0
41
0
66
1
0
VERTEX
8
L3D0
10
0.095
20
0.88
0
VERTEX
8
L3D0
10
0.095
20
1.08
0
VERTEX
8
L3D0
10
0.295
20
1.08
0
VERTEX
8
L3D0
10
0.295
20
0.88
0
SEQEND
0
POLYLINE
8
L3D0
70
1
40
0
41
0
66
1
0
VERTEX
8
L3D0
10
-0.295
20
0.88
0
VERTEX
8
L3D0
10
-0.295
20
1.08
0
VERTEX
8
L3D0
10
-0.095
20
1.08
0
VERTEX
8
L3D0
10
-0.095
20
0.88
0
SEQEND
0
POLYLINE
8
L3D0
70
1
40
0
41
0
66
1
0
VERTEX
8
L3D0
10
-0.655
20
0.731
0
VERTEX
8
L3D0
10
-0.655
20
0.931
0
VERTEX
8
L3D0
10
-0.455
20
0.931
0
VERTEX
8
L3D0
10
-0.455
20
0.731
0
SEQEND
0
POLYLINE
8
L3D0
70
1
40
0
41
0
66
1
0
VERTEX
8
L3D0
10
-0.931
20
0.455
0
VERTEX
8
L3D0
10
-0.931
20
0.655
0
VERTEX
8
L3D0
10
-0.731
20
0.655
0
VERTEX
8
L3D0
10
-0.731
20
0.455
0
SEQEND
0
POLYLINE
8
L3D0
70
1
40
0
41
0
66
1
0
VERTEX
8
L3D0
10
-1.08
20
0.095
0
VERTEX
8
L3D0
10
-1.08
20
0.295
0
VERTEX
8
L3D0
10
-0.88
20
0.295
0
VERTEX
8
L3D0
10
-0.88
20
0.095
0
SEQEND
0
POLYLINE
8
L3D0
70
1
40
0
41
0
66
1
0
VERTEX
8
L3D0
10
-1.08
20
-0.295
0
VERTEX
8
L3D0
10
-1.08
20
-0.095
0
VERTEX
8
L3D0
10
-0.88
20
-0.095
0
VERTEX
8
L3D0
10
-0.88
20
-0.295
0
SEQEND
0
POLYLINE
8
L3D0
70
1
40
0
41
0
66
1
0
VERTEX
8
L3D0
10
-0.931
20
-0.655
0
VERTEX
8
L3D0
10
-0.931
20
-0.455
0
VERTEX
8
L3D0
10
-0.731
20
-0.455
0
VERTEX
8
L3D0
10
-0.731
20
-0.655
0
SEQEND
0
POLYLINE
8
L3D0
70
1
40
0
41
0
66
1
0
VERTEX
8
L3D0
10
-0.655
20
-0.931
0
VERTEX
8
L3D0
10
-0.655
20
-0.731
0
VERTEX
8
L3D0
10
-0.455
20
-0.731
0
VERTEX
8
L3D0
10
-0.455
20
-0.931
0
SEQEND
0
POLYLINE
8
L3D0
70
1
40
0
41
0
66
1
0
VERTEX
8
L3D0
10
-0.295
20
-1.08
0
VERTEX
8
L3D0
10
-0.295
20
-0.88
0
VERTEX
8
L3D0
10
-0.095
20
-0.88
0
VERTEX
8
L3D0
10
-0.095
20
-1.08
0
SEQEND
0
POLYLINE
8
L3D0
70
1
40
0
41
0
66
1
0
VERTEX
8
L3D0
10
0.095
20
-1.08
0
VERTEX
8
L3D0
10
0.095
20
-0.88
0
VERTEX
8
L3D0
10
0.295
20
-0.88
0
VERTEX
8
L3D0
10
0.295
20
-1.08
0
SEQEND
0
POLYLINE
8
L3D0
70
1
40
0
41
0
66
1
0
VERTEX
8
L3D0
10
0.455
20
-0.931
0
VERTEX
8
L3D0
10
0.455
20
-0.731
0
VERTEX
8
L3D0
10
0.655
20
-0.731
0
VERTEX
8
L3D0
10
0.655
20
-0.931
0
SEQEND
0
POLYLINE
8
L3D0
70
1
40
0
41
0
66
1
0
VERTEX
8
L3D0
10
0.731
20
-0.655
0
VERTEX
8
L3D0
10
0.731
20
-0.455
0
VERTEX
8
L3D0
10
0.931
20
-0.455
0
VERTEX
8
L3D0
10
0.931
20
-0.655
0
SEQEND
0
POLYLINE
8
L4D0
70
1
40
0
41
0
66
1
0
VERTEX
8
L4D0
10
-2.3
20
-2.3
0
VERTEX
8
L4D0
10
-2.3
20
-1.7
0
VERTEX
8
L4D0
10
1.3
20
-1.7
0
VERTEX
8
L4D0
10
1.3
20
-1.5
0
VERTEX
8
L4D0
10
-1.9
20
-1.5
0
VERTEX
8
L4D0
10
-1.9
20
1.7
0
VERTEX
8
L4D0
10
-2.3
20
1.7
0
VERTEX
8
L4D0
10
-2.3
20
2.3
0
VERTEX
8
L4D0
10
-1.7
20
2.3
0
VERTEX
8
L4D0
10
-1.7
20
-1.3
0
VERTEX
8
L4D0
10
-1.5
20
-1.3
0
VERTEX
8
L4D0
10
-1.5
20
1.9
0
VERTEX
8
L4D0
10
1.7
20
1.9
0
VERTEX
8
L4D0
10
1.7
20
2.3
0
VERTEX
8
L4D0
10
2.3
20
2.3
0
VERTEX
8
L4D0
10
2.3
20
1.7
0
VERTEX
8
L4D0
10
-1.3
20
1.7
0
VERTEX
8
L4D0
10
-1.3
20
1.5
0
VERTEX
8
L4D0
10
1.9
20
1.5
0
VERTEX
8
L4D0
10
1.9
20
-1.7
0
VERTEX
8
L4D0
10
2.3
20
-1.7
0
VERTEX
8
L4D0
10
2.3
20
-2.3
0
VERTEX
8
L4D0
10
1.7
20
-2.3
0
VERTEX
8
L4D0
10
1.7
20
1.3
0
VERTEX
8
L4D0
10
1.5
20
1.3
0
VERTEX
8
L4D0
10
1.5
20
-1.9
0
VERTEX
8
L4D0
10
-1.7
20
-1.9
0
VERTEX
8
L4D0
10
-1.7
20
-2.3
0
SEQEND
0
POLYLINE
8
L5D0
70
1
40
0
41
0
66
1
0
VERTEX
8
L5D0
10
-0.04
20
-0.04
0
VERTEX
8
L5D0
10
-0.04
20
0.04
0
VERTEX
8
L5D0
10
0.04
20
0.04
0
VERTEX
8
L5D0
10
0.04
20
-0.04
0
SEQEND
0
POLYLINE
8
L5D0
70
1
40
0
41
0
66
1
0
VERTEX
8
L5D0
10
0.35
20
-0.04
0
VERTEX
8
L5D0
10
0.35
20
0.04
0
VERTEX
8
L5D0
10
0.43
20
0.04
0
VERTEX
8
L5D0
10
0.43
20
-0.04
0
SEQEND
0
POLYLINE
8
L5D0
70
1
40
0
41
0
66
1
0
VERTEX
8
L5D0
10
0.155
20
0.297
0
VERTEX
8
L5D0
10
0.155
20
0.377
0
VERTEX
8
L5D0
10
0.235
20
0.377
0
VERTEX
8
L5D0
10
0.235
20
0.297
0
SEQEND
0
POLYLINE
8
L5D0
70
1
40
0
41
0
66
1
0
VERTEX
8
L5D0
10
-0.234
20
0.297
0
VERTEX
8
L5D0
10
-0.234
20
0.377
0
VERTEX
8
L5D0
10
-0.154
20
0.377
0
VERTEX
8
L5D0
10
-0.154
20
0.297
0
SEQEND
0
POLYLINE
8
L5D0
70
1
40
0
41
0
66
1
0
VERTEX
8
L5D0
10
-0.43
20
-0.04
0
VERTEX
8
L5D0
10
-0.43
20
0.04
0
VERTEX
8
L5D0
10
-0.35
20
0.04
0
VERTEX
8
L5D0
10
-0.35
20
-0.04
0
SEQEND
0
POLYLINE
8
L5D0
70
1
40
0
41
0
66
1
0
VERTEX
8
L5D0
10
-0.235
20
-0.377
0
VERTEX
8
L5D0
10
-0.235
20
-0.297
0
VERTEX
8
L5D0
10
-0.155
20
-0.297
0
VERTEX
8
L5D0
10
-0.155
20
-0.377
0
SEQEND
0
POLYLINE
8
L5D0
70
1
40
0
41
0
66
1
0
VERTEX
8
L5D0
10
0.154
20
-0.377
0
VERTEX
8
L5D0
10
0.154
20
-0.297
0
VERTEX
8
L5D0
10
0.234
20
-0.297
0
VERTEX
8
L5D0
10
0.234
20
-0.377
0
SEQEND
0
POLYLINE
8
L5D0
70
1
40
0
41
0
66
1
0
VERTEX
8
L5D0
10
0.74
20
-0.04
0
VERTEX
8
L5D0
10
0.74
20
0.04
0
VERTEX
8
L5D0
10
0.82
20
0.04
0
VERTEX
8
L5D0
10
0.82
20
-0.04
0
SEQEND
0
POLYLINE
8
L5D0
70
1
40
0
41
0
66
1
0
VERTEX
8
L5D0
10
0.635
20
0.349
0
VERTEX
8
L5D0
10
0.635
20
0.429
0
VERTEX
8
L5D0
10
0.715
20
0.429
0
VERTEX
8
L5D0
10
0.715
20
0.349
0
SEQEND
0
POLYLINE
8
L5D0
70
1
40
0
41
0
66
1
0
VERTEX
8
L5D0
10
0.35
20
0.635
0
VERTEX
8
L5D0
10
0.35
20
0.715
0
VERTEX
8
L5D0
10
0.43
20
0.715
0
VERTEX
8
L5D0
10
0.43
20
0.635
0
SEQEND
0
POLYLINE
8
L5D0
70
1
40
0
41
0
66
1
0
VERTEX
8
L5D0
10
-0.04
20
0.74
0
VERTEX
8
L5D0
10
-0.04
20
0.82
0
VERTEX
8
L5D0
10
0.04
20
0.82
0
VERTEX
8
L5D0
10
0.04
20
0.74
0
SEQEND
0
POLYLINE
8
L5D0
70
1
40
0
41
0
66
1
0
VERTEX
8
L5D0
10
-0.429
20
0.635
0
VERTEX
8
L5D0
10
-0.429
20
0.715
0
VERTEX
8
L5D0
10
-0.349
20
0.715
0
VERTEX
8
L5D0
10
-0.349
20
0.635
0
SEQEND
0
POLYLINE
8
L5D0
70
1
40
0
41
0
66
1
0
VERTEX
8
L5D0
10
-0.715
20
0.35
0
VERTEX
8
L5D0
10
-0.715
20
0.43
0
VERTEX
8
L5D0
10
-0.635
20
0.43
0
VERTEX
8
L5D0
10
-0.635
20
0.35
0
SEQEND
0
POLYLINE
8
L5D0
70
1
40
0
41
0
66
1
0
VERTEX
8
L5D0
10
-0.82
20
-0.04
0
VERTEX
8
L5D0
10
-0.82
20
0.04
0
VERTEX
8
L5D0
10
-0.74
20
0.04
0
VERTEX
8
L5D0
10
-0.74
20
-0.04
0
SEQEND
0
POLYLINE
8
L5D0
70
1
40
0
41
0
66
1
0
VERTEX
8
L5D0
10
-0.715
20
-0.429
0
VERTEX
8
L5D0
10
-0.715
20
-0.349
0
VERTEX
8
L5D0
10
-0.635
20
-0.349
0
VERTEX
8
L5D0
10
-0.635
20
-0.429
0
SEQEND
0
POLYLINE
8
L5D0
70
1
40
0
41
0
66
1
0
VERTEX
8
L5D0
10
-0.43
20
-0.715
0
VERTEX
8
L5D0
10
-0.43
20
-0.635
0
VERTEX
8
L5D0
10
-0.35
20
-0.635
0
VERTEX
8
L5D0
10
-0.35
20
-0.715
0
SEQEND
0
POLYLINE
8
L5D0
70
1
40
0
41
0
66
1
0
VERTEX
8
L5D0
10
-0.04
20
-0.82
0
VERTEX
8
L5D0
10
-0.04
20
-0.74
0
VERTEX
8
L5D0
10
0.04
20
-0.74
0
VERTEX
8
L5D0
10
0.04
20
-0.82
0
SEQEND
0
POLYLINE
8
L5D0
70
1
40
0
41
0
66
1
0
VERTEX
8
L5D0
10
0.349
20
-0.715
0
VERTEX
8
L5D0
10
0.349
20
-0.635
0
VERTEX
8
L5D0
10
0.429
20
-0.635
0
VERTEX
8
L5D0
10
0.429
20
-0.715
0
SEQEND
0
POLYLINE
8
L5D0
70
1
40
0
41
0
66
1
0
VERTEX
8
L5D0
10
0.635
20
-0.43
0
VERTEX
8
L5D0
10
0.635
20
-0.35
0
VERTEX
8
L5D0
10
0.715
20
-0.35
0
VERTEX
8
L5D0
10
0.715
20
-0.43
0
SEQEND
0
POLYLINE
8
L5D0
70
1
40
0
41
0
66
1
0
VERTEX
8
L5D0
10
1.13
20
-0.04
0
VERTEX
8
L5D0
10
1.13
20
0.04
0
VERTEX
8
L5D0
10
1.21
20
0.04
0
VERTEX
8
L5D0
10
1.21
20
-0.04
0
SEQEND
0
POLYLINE
8
L5D0
70
1
40
0
41
0
66
1
0
VERTEX
8
L5D0
10
1.059
20
0.36
0
VERTEX
8
L5D0
10
1.059
20
0.44
0
VERTEX
8
L5D0
10
1.139
20
0.44
0
VERTEX
8
L5D0
10
1.139
20
0.36
0
SEQEND
0
POLYLINE
8
L5D0
70
1
40
0
41
0
66
1
0
VERTEX
8
L5D0
10
0.856
20
0.712
0
VERTEX
8
L5D0
10
0.856
20
0.792
0
VERTEX
8
L5D0
10
0.936
20
0.792
0
VERTEX
8
L5D0
10
0.936
20
0.712
0
SEQEND
0
POLYLINE
8
L5D0
70
1
40
0
41
0
66
1
0
VERTEX
8
L5D0
10
0.545
20
0.973
0
VERTEX
8
L5D0
10
0.545
20
1.053
0
VERTEX
8
L5D0
10
0.625
20
1.053
0
VERTEX
8
L5D0
10
0.625
20
0.973
0
SEQEND
0
POLYLINE
8
L5D0
70
1
40
0
41
0
66
1
0
VERTEX
8
L5D0
10
0.163
20
1.112
0
VERTEX
8
L5D0
10
0.163
20
1.192
0
VERTEX
8
L5D0
10
0.243
20
1.192
0
VERTEX
8
L5D0
10
0.243
20
1.112
0
SEQEND
0
POLYLINE
8
L5D0
70
1
40
0
41
0
66
1
0
VERTEX
8
L5D0
10
-0.243
20
1.112
0
VERTEX
8
L5D0
10
-0.243
20
1.192
0
VERTEX
8
L5D0
10
-0.163
20
1.192
0
VERTEX
8
L5D0
10
-0.163
20
1.112
0
SEQEND
0
POLYLINE
8
L5D0
70
1
40
0
41
0
66
1
0
VERTEX
8
L5D0
10
-0.624
20
0.973
0
VERTEX
8
L5D0
10
-0.624
20
1.053
0
VERTEX
8
L5D0
10
-0.544
20
1.053
0
VERTEX
8
L5D0
10
-0.544
20
0.973
0
SEQEND
0
POLYLINE
8
L5D0
70
1
40
0
41
0
66
1
0
VERTEX
8
L5D0
10
-0.936
20
0.712
0
VERTEX
8
L5D0
10
-0.936
20
0.792
0
VERTEX
8
L5D0
10
-0.856
20
0.792
0
VERTEX
8
L5D0
10
-0.856
20
0.712
0
SEQEND
0
POLYLINE
8
L5D0
70
1
40
0
41
0
66
1
0
VERTEX
8
L5D0
10
-1.139
20
0.36
0
VERTEX
8
L5D0
10
-1.139
20
0.44
0
VERTEX
8
L5D0
10
-1.059
20
0.44
0
VERTEX
8
L5D0
10
-1.059
20
0.36
0
SEQEND
0
POLYLINE
8
L5D0
70
1
40
0
41
0
66
1
0
VERTEX
8
L5D0
10
-1.21
20
-0.04
0
VERTEX
8
L5D0
10
-1.21
20
0.04
0
VERTEX
8
L5D0
10
-1.13
20
0.04
0
VERTEX
8
L5D0
10
-1.13
20
-0.04
0
SEQEND
0
POLYLINE
8
L5D0
70
1
40
0
41
0
66
1
0
VERTEX
8
L5D0
10
-1.139
20
-0.44
0
VERTEX
8
L5D0
10
-1.139
20
-0.36
0
VERTEX
8
L5D0
10
-1.059
20
-0.36
0
VERTEX
8
L5D0
10
-1.059
20
-0.44
0
SEQEND
0
POLYLINE
8
L5D0
70
1
40
0
41
0
66
1
0
VERTEX
8
L5D0
10
-0.936
20
-0.792
0
VERTEX
8
L5D0
10
-0.936
20
-0.712
0
VERTEX
8
L5D0
10
-0.856
20
-0.712
0
VERTEX
8
L5D0
10
-0.856
20
-0.792
0
SEQEND
0
POLYLINE
8
L5D0
70
1
40
0
41
0
66
1
0
VERTEX
8
L5D0
10
-0.625
20
-1.053
0
VERTEX
8
L5D0
10
-0.625
20
-0.973
0
VERTEX
8
L5D0
10
-0.545
20
-0.973
0
VERTEX
8
L5D0
10
-0.545
20
-1.053
0
SEQEND
0
POLYLINE
8
L5D0
70
1
40
0
41
0
66
1
0
VERTEX
8
L5D0
10
-0.243
20
-1.192
0
VERTEX
8
L5D0
10
-0.243
20
-1.112
0
VERTEX
8
L5D0
10
-0.163
20
-1.112
0
VERTEX
8
L5D0
10
-0.163
20
-1.192
0
SEQEND
0
POLYLINE
8
L5D0
70
1
40
0
41
0
66
1
0
VERTEX
8
L5D0
10
0.163
20
-1.192
0
VERTEX
8
L5D0
10
0.163
20
-1.112
0
VERTEX
8
L5D0
10
0.243
20
-1.112
0
VERTEX
8
L5D0
10
0.243
20
-1.192
0
SEQEND
0
POLYLINE
8
L5D0
70
1
40
0
41
0
66
1
0
VERTEX
8
L5D0
10
0.545
20
-1.053
0
VERTEX
8
L5D0
10
0.545
20
-0.973
0
VERTEX
8
L5D0
10
0.625
20
-0.973
0
VERTEX
8
L5D0
10
0.625
20
-1.053
0
SEQEND
0
POLYLINE
8
L5D0
70
1
40
0
41
0
66
1
0
VERTEX
8
L5D0
10
0.856
20
-0.792
0
VERTEX
8
L5D0
10
0.856
20
-0.712
0
VERTEX
8
L5D0
10
0.936
20
-0.712
0
VERTEX
8
L5D0
10
0.936
20
-0.792
0
SEQEND
0
POLYLINE
8
L5D0
70
1
40
0
41
0
66
1
0
VERTEX
8
L5D0
10
1.059
20
-0.44
0
VERTEX
8
L5D0
10
1.059
20
-0.36
0
VERTEX
8
L5D0
10
1.139
20
-0.36
0
VERTEX
8
L5D0
10
1.139
20
-0.44
0
SEQEND
0
POLYLINE
8
L5D0
70
1
40
0
41
0
66
1
0
VERTEX
8
L5D0
10
1.063
20
1.063
0
VERTEX
8
L5D0
10
1.063
20
1.143
0
VERTEX
8
L5D0
10
1.143
20
1.143
0
VERTEX
8
L5D0
10
1.143
20
1.063
0
SEQEND
0
POLYLINE
8
L5D0
70
1
40
0
41
0
66
1
0
VERTEX
8
L5D0
10
-1.143
20
1.063
0
VERTEX
8
L5D0
10
-1.143
20
1.143
0
VERTEX
8
L5D0
10
-1.063
20
1.143
0
VERTEX
8
L5D0
10
-1.063
20
1.063
0
SEQEND
0
POLYLINE
8
L5D0
70
1
40
0
41
0
66
1
0
VERTEX
8
L5D0
10
-1.143
20
-1.143
0
VERTEX
8
L5D0
10
-1.143
20
-1.063
0
VERTEX
8
L5D0
10
-1.063
20
-1.063
0
VERTEX
8
L5D0
10
-1.063
20
-1.143
0
SEQEND
0
POLYLINE
8
L5D0
70
1
40
0
41
0
66
1
0
VERTEX
8
L5D0
10
1.063
20
-1.143
0
VERTEX
8
L5D0
10
1.063
20
-1.063
0
VERTEX
8
L5D0
10
1.143
20
-1.063
0
VERTEX
8
L5D0
10
1.143
20
-1.143
0
SEQEND
0
ENDSEC
0
EOF
