0
SECTION
2
HEADER
9
$ACADVER
1
AC1006
0
ENDSEC
0
SECTION
2
TABLES
0
TABLE
2
LAYER
70
8
0
LAYER
70
0
62
1
6
CONTINUOUS
2
L1D0
0
LAYER
70
0
62
2
6
CONTINUOUS
2
L2D0
0
LAYER
70
0
62
3
6
CONTINUOUS
2
L3D0
0
LAYER
70
0
62
4
6
CONTINUOUS
2
L4D0
0
LAYER
70
0
62
5
6
CONTINUOUS
2
L5D0
0
LAYER
70
0
62
6
6
CONTINUOUS
2
L6D0
0
LAYER
70
0
62
7
6
CONTINUOUS
2
L7D0
0
LAYER
70
0
62
8
6
CONTINUOUS
2
L8D0
0
ENDTAB
0
ENDSEC
0
SECTION
2
BLOCKS
0
ENDSEC
0
SECTION
2
ENTITIES
0
POLYLINE
8
L1D0
70
1
40
0
41
0
66
1
0
VERTEX
8
L1D0
10
1.8
20
1.8
0
VERTEX
8
L1D0
10
1.8
20
2.2
0
VERTEX
8
L1D0
10
2.2
20
2.2
0
VERTEX
8
L1D0
10
2.2
20
1.8
0
SEQEND
0
POLYLINE
8
L1D0
70
1
40
0
41
0
66
1
0
VERTEX
8
L1D0
10
-2.2
20
1.8
0
VERTEX
8
L1D0
10
-2.2
20
2.2
0
VERTEX
8
L1D0
10
-1.8
20
2.2
0
VERTEX
8
L1D0
10
-1.8
20
1.8
0
SEQEND
0
POLYLINE
8
L1D0
70
1
40
0
41
0
66
1
0
VERTEX
8
L1D0
10
-2.2
20
-2.2
0
VERTEX
8
L1D0
10
-2.2
20
-1.8
0
VERTEX
8
L1D0
10
-1.8
20
-1.8
0
VERTEX
8
L1D0
10
-1.8
20
-2.2
0
SEQEND
0
POLYLINE
8
L1D0
70
1
40
0
41
0
66
1
0
VERTEX
8
L1D0
10
1.8
20
-2.2
0
VERTEX
8
L1D0
10
1.8
20
-1.8
0
VERTEX
8
L1D0
10
2.2
20
-1.8
0
VERTEX
8
L1D0
10
2.2
20
-2.2
0
SEQEND
0
POLYLINE
8
L2D0
70
1
40
0
41
0
66
1
0
VERTEX
8
L2D0
10
0.709
20
-0.156
0
VERTEX
8
L2D0
10
0.709
20
0.156
0
VERTEX
8
L2D0
10
0.859
20
0.156
0
VERTEX
8
L2D0
10
0.859
20
-0.156
0
SEQEND
0
POLYLINE
8
L2D0
70
1
40
0
41
0
66
1
0
VERTEX
8
L2D0
10
0.611
20
0.391
0
VERTEX
8
L2D0
10
0.391
20
0.611
0
VERTEX
8
L2D0
10
0.497
20
0.717
0
VERTEX
8
L2D0
10
0.717
20
0.497
0
SEQEND
0
POLYLINE
8
L2D0
70
1
40
0
41
0
66
1
0
VERTEX
8
L2D0
10
-0.156
20
0.709
0
VERTEX
8
L2D0
10
-0.156
20
0.859
0
VERTEX
8
L2D0
10
0.156
20
0.859
0
VERTEX
8
L2D0
10
0.156
20
0.709
0
SEQEND
0
POLYLINE
8
L2D0
70
1
40
0
41
0
66
1
0
VERTEX
8
L2D0
10
-0.611
20
0.391
0
VERTEX
8
L2D0
10
-0.717
20
0.497
0
VERTEX
8
L2D0
10
-0.497
20
0.717
0
VERTEX
8
L2D0
10
-0.391
20
0.611
0
SEQEND
0
POLYLINE
8
L2D0
70
1
40
0
41
0
66
1
0
VERTEX
8
L2D0
10
-0.859
20
-0.156
0
VERTEX
8
L2D0
10
-0.859
20
0.156
0
VERTEX
8
L2D0
10
-0.709
20
0.156
0
VERTEX
8
L2D0
10
-0.709
20
-0.156
0
SEQEND
0
POLYLINE
8
L2D0
70
1
40
0
41
0
66
1
0
VERTEX
8
L2D0
10
-0.497
20
-0.717
0
VERTEX
8
L2D0
10
-0.717
20
-0.497
0
VERTEX
8
L2D0
10
-0.611
20
-0.391
0
VERTEX
8
L2D0
10
-0.391
20
-0.611
0
SEQEND
0
POLYLINE
8
L2D0
70
1
40
0
41
0
66
1
0
VERTEX
8
L2D0
10
-0.156
20
-0.859
0
VERTEX
8
L2D0
10
-0.156
20
-0.709
0
VERTEX
8
L2D0
10
0.156
20
-0.709
0
VERTEX
8
L2D0
10
0.156
20
-0.859
0
SEQEND
0
POLYLINE
8
L2D0
70
1
40
0
41
0
66
1
0
VERTEX
8
L2D0
10
0.497
20
-0.717
0
VERTEX
8
L2D0
10
0.391
20
-0.611
0
VERTEX
8
L2D0
10
0.611
20
-0.391
0
VERTEX
8
L2D0
10
0.717
20
-0.497
0
SEQEND
0
POLYLINE
8
L3D0
70
1
40
0
41
0
66
1
0
VERTEX
8
L3D0
10
0.709
20
-0.231
0
VERTEX
8
L3D0
10
0.709
20
-0.081
0
VERTEX
8
L3D0
10
0.859
20
-0.081
0
VERTEX
8
L3D0
10
0.859
20
-0.231
0
SEQEND
0
POLYLINE
8
L3D0
70
1
40
0
41
0
66
1
0
VERTEX
8
L3D0
10
0.709
20
0.081
0
VERTEX
8
L3D0
10
0.709
20
0.231
0
VERTEX
8
L3D0
10
0.859
20
0.231
0
VERTEX
8
L3D0
10
0.859
20
0.081
0
SEQEND
0
POLYLINE
8
L3D0
70
1
40
0
41
0
66
1
0
VERTEX
8
L3D0
10
0.59
20
0.369
0
VERTEX
8
L3D0
10
0.59
20
0.519
0
VERTEX
8
L3D0
10
0.74
20
0.519
0
VERTEX
8
L3D0
10
0.74
20
0.369
0
SEQEND
0
POLYLINE
8
L3D0
70
1
40
0
41
0
66
1
0
VERTEX
8
L3D0
10
0.369
20
0.59
0
VERTEX
8
L3D0
10
0.369
20
0.74
0
VERTEX
8
L3D0
10
0.519
20
0.74
0
VERTEX
8
L3D0
10
0.519
20
0.59
0
SEQEND
0
POLYLINE
8
L3D0
70
1
40
0
41
0
66
1
0
VERTEX
8
L3D0
10
0.081
20
0.709
0
VERTEX
8
L3D0
10
0.081
20
0.859
0
VERTEX
8
L3D0
10
0.231
20
0.859
0
VERTEX
8
L3D0
10
0.231
20
0.709
0
SEQEND
0
POLYLINE
8
L3D0
70
1
40
0
41
0
66
1
0
VERTEX
8
L3D0
10
-0.231
20
0.709
0
VERTEX
8
L3D0
10
-0.231
20
0.859
0
VERTEX
8
L3D0
10
-0.081
20
0.859
0
VERTEX
8
L3D0
10
-0.081
20
0.709
0
SEQEND
0
POLYLINE
8
L3D0
70
1
40
0
41
0
66
1
0
VERTEX
8
L3D0
10
-0.519
20
0.59
0
VERTEX
8
L3D0
10
-0.519
20
0.74
0
VERTEX
8
L3D0
10
-0.369
20
0.74
0
VERTEX
8
L3D0
10
-0.369
20
0.59
0
SEQEND
0
POLYLINE
8
L3D0
70
1
40
0
41
0
66
1
0
VERTEX
8
L3D0
10
-0.74
20
0.369
0
VERTEX
8
L3D0
10
-0.74
20
0.519
0
VERTEX
8
L3D0
10
-0.59
20
0.519
0
VERTEX
8
L3D0
10
-0.59
20
0.369
0
SEQEND
0
POLYLINE
8
L3D0
70
1
40
0
41
0
66
1
0
VERTEX
8
L3D0
10
-0.859
20
0.081
0
VERTEX
8
L3D0
10
-0.859
20
0.231
0
VERTEX
8
L3D0
10
-0.709
20
0.231
0
VERTEX
8
L3D0
10
-0.709
20
0.081
0
SEQEND
0
POLYLINE
8
L3D0
70
1
40
0
41
0
66
1
0
VERTEX
8
L3D0
10
-0.859
20
-0.231
0
VERTEX
8
L3D0
10
-0.859
20
-0.081
0
VERTEX
8
L3D0
10
-0.709
20
-0.081
0
VERTEX
8
L3D0
10
-0.709
20
-0.231
0
SEQEND
0
POLYLINE
8
L3D0
70
1
40
0
41
0
66
1
0
VERTEX
8
L3D0
10
-0.74
20
-0.519
0
VERTEX
8
L3D0
10
-0.74
20
-0.369
0
VERTEX
8
L3D0
10
-0.59
20
-0.369
0
VERTEX
8
L3D0
10
-0.59
20
-0.519
0
SEQEND
0
POLYLINE
8
L3D0
70
1
40
0
41
0
66
1
0
VERTEX
8
L3D0
10
-0.519
20
-0.74
0
VERTEX
8
L3D0
10
-0.519
20
-0.59
0
VERTEX
8
L3D0
10
-0.369
20
-0.59
0
VERTEX
8
L3D0
10
-0.369
20
-0.74
0
SEQEND
0
POLYLINE
8
L3D0
70
1
40
0
41
0
66
1
0
VERTEX
8
L3D0
10
-0.231
20
-0.859
0
VERTEX
8
L3D0
10
-0.231
20
-0.709
0
VERTEX
8
L3D0
10
-0.081
20
-0.709
0
VERTEX
8
L3D0
10
-0.081
20
-0.859
0
SEQEND
0
POLYLINE
8
L3D0
70
1
40
0
41
0
66
1
0
VERTEX
8
L3D0
10
0.081
20
-0.859
0
VERTEX
8
L3D0
10
0.081
20
-0.709
0
VERTEX
8
L3D0
10
0.231
20
-0.709
0
VERTEX
8
L3D0
10
0.231
20
-0.859
0
SEQEND
0
POLYLINE
8
L3D0
70
1
40
0
41
0
66
1
0
VERTEX
8
L3D0
10
0.369
20
-0.74
0
VERTEX
8
L3D0
10
0.369
20
-0.59
0
VERTEX
8
L3D0
10
0.519
20
-0.59
0
VERTEX
8
L3D0
10
0.519
20
-0.74
0
SEQEND
0
POLYLINE
8
L3D0
70
1
40
0
41
0
66
1
0
VERTEX
8
L3D0
10
0.59
20
-0.519
0
VERTEX
8
L3D0
10
0.59
20
-0.369
0
VERTEX
8
L3D0
10
0.74
20
-0.369
0
VERTEX
8
L3D0
10
0.74
20
-0.519
0
SEQEND
0
POLYLINE
8
L4D0
70
1
40
0
41
0
66
1
0
VERTEX
8
L4D0
10
-2.3
20
-2.3
0
VERTEX
8
L4D0
10
-2.3
20
-1.7
0
VERTEX
8
L4D0
10
1.3
20
-1.7
0
VERTEX
8
L4D0
10
1.3
20
-1.5
0
VERTEX
8
L4D0
10
-1.9
20
-1.5
0
VERTEX
8
L4D0
10
-1.9
20
1.7
0
VERTEX
8
L4D0
10
-2.3
20
1.7
0
VERTEX
8
L4D0
10
-2.3
20
2.3
0
VERTEX
8
L4D0
10
-1.7
20
2.3
0
VERTEX
8
L4D0
10
-1.7
20
-1.3
0
VERTEX
8
L4D0
10
-1.5
20
-1.3
0
VERTEX
8
L4D0
10
-1.5
20
1.9
0
VERTEX
8
L4D0
10
1.7
20
1.9
0
VERTEX
8
L4D0
10
1.7
20
2.3
0
VERTEX
8
L4D0
10
2.3
20
2.3
0
VERTEX
8
L4D0
10
2.3
20
1.7
0
VERTEX
8
L4D0
10
-1.3
20
1.7
0
VERTEX
8
L4D0
10
-1.3
20
1.5
0
VERTEX
8
L4D0
10
1.9
20
1.5
0
VERTEX
8
L4D0
10
1.9
20
-1.7
0
VERTEX
8
L4D0
10
2.3
20
-1.7
0
VERTEX
8
L4D0
10
2.3
20
-2.3
0
VERTEX
8
L4D0
10
1.7
20
-2.3
0
VERTEX
8
L4D0
10
1.7
20
1.3
0
VERTEX
8
L4D0
10
1.5
20
1.3
0
VERTEX
8
L4D0
10
1.5
20
-1.9
0
VERTEX
8
L4D0
10
-1.7
20
-1.9
0
VERTEX
8
L4D0
10
-1.7
20
-2.3
0
SEQEND
0
POLYLINE
8
L5D0
70
1
40
0
41
0
66
1
0
VERTEX
8
L5D0
10
-0.05
20
-0.05
0
VERTEX
8
L5D0
10
-0.05
20
0.05
0
VERTEX
8
L5D0
10
0.05
20
0.05
0
VERTEX
8
L5D0
10
0.05
20
-0.05
0
SEQEND
0
POLYLINE
8
L5D0
70
1
40
0
41
0
66
1
0
VERTEX
8
L5D0
10
0.535
20
-0.05
0
VERTEX
8
L5D0
10
0.535
20
0.05
0
VERTEX
8
L5D0
10
0.635
20
0.05
0
VERTEX
8
L5D0
10
0.635
20
-0.05
0
SEQEND
0
POLYLINE
8
L5D0
70
1
40
0
41
0
66
1
0
VERTEX
8
L5D0
10
0.363
20
0.363
0
VERTEX
8
L5D0
10
0.363
20
0.463
0
VERTEX
8
L5D0
10
0.463
20
0.463
0
VERTEX
8
L5D0
10
0.463
20
0.363
0
SEQEND
0
POLYLINE
8
L5D0
70
1
40
0
41
0
66
1
0
VERTEX
8
L5D0
10
-0.05
20
0.535
0
VERTEX
8
L5D0
10
-0.05
20
0.635
0
VERTEX
8
L5D0
10
0.05
20
0.635
0
VERTEX
8
L5D0
10
0.05
20
0.535
0
SEQEND
0
POLYLINE
8
L5D0
70
1
40
0
41
0
66
1
0
VERTEX
8
L5D0
10
-0.463
20
0.363
0
VERTEX
8
L5D0
10
-0.463
20
0.463
0
VERTEX
8
L5D0
10
-0.363
20
0.463
0
VERTEX
8
L5D0
10
-0.363
20
0.363
0
SEQEND
0
POLYLINE
8
L5D0
70
1
40
0
41
0
66
1
0
VERTEX
8
L5D0
10
-0.635
20
-0.05
0
VERTEX
8
L5D0
10
-0.635
20
0.05
0
VERTEX
8
L5D0
10
-0.535
20
0.05
0
VERTEX
8
L5D0
10
-0.535
20
-0.05
0
SEQEND
0
POLYLINE
8
L5D0
70
1
40
0
41
0
66
1
0
VERTEX
8
L5D0
10
-0.463
20
-0.463
0
VERTEX
8
L5D0
10
-0.463
20
-0.363
0
VERTEX
8
L5D0
10
-0.363
20
-0.363
0
VERTEX
8
L5D0
10
-0.363
20
-0.463
0
SEQEND
0
POLYLINE
8
L5D0
70
1
40
0
41
0
66
1
0
VERTEX
8
L5D0
10
-0.05
20
-0.635
0
VERTEX
8
L5D0
10
-0.05
20
-0.535
0
VERTEX
8
L5D0
10
0.05
20
-0.535
0
VERTEX
8
L5D0
10
0.05
20
-0.635
0
SEQEND
0
POLYLINE
8
L5D0
70
1
40
0
41
0
66
1
0
VERTEX
8
L5D0
10
0.363
20
-0.463
0
VERTEX
8
L5D0
10
0.363
20
-0.363
0
VERTEX
8
L5D0
10
0.463
20
-0.363
0
VERTEX
8
L5D0
10
0.463
20
-0.463
0
SEQEND
0
POLYLINE
8
L5D0
70
1
40
0
41
0
66
1
0
VERTEX
8
L5D0
10
1.12
20
-0.05
0
VERTEX
8
L5D0
10
1.12
20
0.05
0
VERTEX
8
L5D0
10
1.22
20
0.05
0
VERTEX
8
L5D0
10
1.22
20
-0.05
0
SEQEND
0
POLYLINE
8
L5D0
70
1
40
0
41
0
66
1
0
VERTEX
8
L5D0
10
1.03
20
0.397
0
VERTEX
8
L5D0
10
1.03
20
0.497
0
VERTEX
8
L5D0
10
1.13
20
0.497
0
VERTEX
8
L5D0
10
1.13
20
0.397
0
SEQEND
0
POLYLINE
8
L5D0
70
1
40
0
41
0
66
1
0
VERTEX
8
L5D0
10
0.777
20
0.777
0
VERTEX
8
L5D0
10
0.777
20
0.877
0
VERTEX
8
L5D0
10
0.877
20
0.877
0
VERTEX
8
L5D0
10
0.877
20
0.777
0
SEQEND
0
POLYLINE
8
L5D0
70
1
40
0
41
0
66
1
0
VERTEX
8
L5D0
10
0.397
20
1.03
0
VERTEX
8
L5D0
10
0.397
20
1.13
0
VERTEX
8
L5D0
10
0.497
20
1.13
0
VERTEX
8
L5D0
10
0.497
20
1.03
0
SEQEND
0
POLYLINE
8
L5D0
70
1
40
0
41
0
66
1
0
VERTEX
8
L5D0
10
-0.05
20
1.12
0
VERTEX
8
L5D0
10
-0.05
20
1.22
0
VERTEX
8
L5D0
10
0.05
20
1.22
0
VERTEX
8
L5D0
10
0.05
20
1.12
0
SEQEND
0
POLYLINE
8
L5D0
70
1
40
0
41
0
66
1
0
VERTEX
8
L5D0
10
-0.497
20
1.03
0
VERTEX
8
L5D0
10
-0.497
20
1.13
0
VERTEX
8
L5D0
10
-0.397
20
1.13
0
VERTEX
8
L5D0
10
-0.397
20
1.03
0
SEQEND
0
POLYLINE
8
L5D0
70
1
40
0
41
0
66
1
0
VERTEX
8
L5D0
10
-0.877
20
0.777
0
VERTEX
8
L5D0
10
-0.877
20
0.877
0
VERTEX
8
L5D0
10
-0.777
20
0.877
0
VERTEX
8
L5D0
10
-0.777
20
0.777
0
SEQEND
0
POLYLINE
8
L5D0
70
1
40
0
41
0
66
1
0
VERTEX
8
L5D0
10
-1.13
20
0.397
0
VERTEX
8
L5D0
10
-1.13
20
0.497
0
VERTEX
8
L5D0
10
-1.03
20
0.497
0
VERTEX
8
L5D0
10
-1.03
20
0.397
0
SEQEND
0
POLYLINE
8
L5D0
70
1
40
0
41
0
66
1
0
VERTEX
8
L5D0
10
-1.22
20
-0.05
0
VERTEX
8
L5D0
10
-1.22
20
0.05
0
VERTEX
8
L5D0
10
-1.12
20
0.05
0
VERTEX
8
L5D0
10
-1.12
20
-0.05
0
SEQEND
0
POLYLINE
8
L5D0
70
1
40
0
41
0
66
1
0
VERTEX
8
L5D0
10
-1.13
20
-0.497
0
VERTEX
8
L5D0
10
-1.13
20
-0.397
0
VERTEX
8
L5D0
10
-1.03
20
-0.397
0
VERTEX
8
L5D0
10
-1.03
20
-0.497
0
SEQEND
0
POLYLINE
8
L5D0
70
1
40
0
41
0
66
1
0
VERTEX
8
L5D0
10
-0.877
20
-0.877
0
VERTEX
8
L5D0
10
-0.877
20
-0.777
0
VERTEX
8
L5D0
10
-0.777
20
-0.777
0
VERTEX
8
L5D0
10
-0.777
20
-0.877
0
SEQEND
0
POLYLINE
8
L5D0
70
1
40
0
41
0
66
1
0
VERTEX
8
L5D0
10
-0.497
20
-1.13
0
VERTEX
8
L5D0
10
-0.497
20
-1.03
0
VERTEX
8
L5D0
10
-0.397
20
-1.03
0
VERTEX
8
L5D0
10
-0.397
20
-1.13
0
SEQEND
0
POLYLINE
8
L5D0
70
1
40
0
41
0
66
1
0
VERTEX
8
L5D0
10
-0.05
20
-1.22
0
VERTEX
8
L5D0
10
-0.05
20
-1.12
0
VERTEX
8
L5D0
10
0.05
20
-1.12
0
VERTEX
8
L5D0
10
0.05
20
-1.22
0
SEQEND
0
POLYLINE
8
L5D0
70
1
40
0
41
0
66
1
0
VERTEX
8
L5D0
10
0.397
20
-1.13
0
VERTEX
8
L5D0
10
0.397
20
-1.03
0
VERTEX
8
L5D0
10
0.497
20
-1.03
0
VERTEX
8
L5D0
10
0.497
20
-1.13
0
SEQEND
0
POLYLINE
8
L5D0
70
1
40
0
41
0
66
1
0
VERTEX
8
L5D0
10
0.777
20
-0.877
0
VERTEX
8
L5D0
10
0.777
20
-0.777
0
VERTEX
8
L5D0
10
0.877
20
-0.777
0
VERTEX
8
L5D0
10
0.877
20
-0.877
0
SEQEND
0
POLYLINE
8
L5D0
70
1
40
0
41
0
66
1
0
VERTEX
8
L5D0
10
1.03
20
-0.497
0
VERTEX
8
L5D0
10
1.03
20
-0.397
0
VERTEX
8
L5D0
10
1.13
20
-0.397
0
VERTEX
8
L5D0
10
1.13
20
-0.497
0
SEQEND
0
POLYLINE
8
L5D0
70
1
40
0
41
0
66
1
0
VERTEX
8
L5D0
10
1.19
20
1.19
0
VERTEX
8
L5D0
10
1.19
20
1.29
0
VERTEX
8
L5D0
10
1.29
20
1.29
0
VERTEX
8
L5D0
10
1.29
20
1.19
0
SEQEND
0
POLYLINE
8
L5D0
70
1
40
0
41
0
66
1
0
VERTEX
8
L5D0
10
-1.29
20
1.19
0
VERTEX
8
L5D0
10
-1.29
20
1.29
0
VERTEX
8
L5D0
10
-1.19
20
1.29
0
VERTEX
8
L5D0
10
-1.19
20
1.19
0
SEQEND
0
POLYLINE
8
L5D0
70
1
40
0
41
0
66
1
0
VERTEX
8
L5D0
10
-1.29
20
-1.29
0
VERTEX
8
L5D0
10
-1.29
20
-1.19
0
VERTEX
8
L5D0
10
-1.19
20
-1.19
0
VERTEX
8
L5D0
10
-1.19
20
-1.29
0
SEQEND
0
POLYLINE
8
L5D0
70
1
40
0
41
0
66
1
0
VERTEX
8
L5D0
10
1.19
20
-1.29
0
VERTEX
8
L5D0
10
1.19
20
-1.19
0
VERTEX
8
L5D0
10
1.29
20
-1.19
0
VERTEX
8
L5D0
10
1.29
20
-1.29
0
SEQEND
0
POLYLINE
8
L6D0
70
1
40
0
41
0
66
1
0
VERTEX
8
L6D0
10
1.8
20
1.8
0
VERTEX
8
L6D0
10
1.8
20
2.2
0
VERTEX
8
L6D0
10
2.2
20
2.2
0
VERTEX
8
L6D0
10
2.2
20
1.8
0
SEQEND
0
POLYLINE
8
L6D0
70
1
40
0
41
0
66
1
0
VERTEX
8
L6D0
10
-2.2
20
1.8
0
VERTEX
8
L6D0
10
-2.2
20
2.2
0
VERTEX
8
L6D0
10
-1.8
20
2.2
0
VERTEX
8
L6D0
10
-1.8
20
1.8
0
SEQEND
0
POLYLINE
8
L6D0
70
1
40
0
41
0
66
1
0
VERTEX
8
L6D0
10
-2.2
20
-2.2
0
VERTEX
8
L6D0
10
-2.2
20
-1.8
0
VERTEX
8
L6D0
10
-1.8
20
-1.8
0
VERTEX
8
L6D0
10
-1.8
20
-2.2
0
SEQEND
0
POLYLINE
8
L6D0
70
1
40
0
41
0
66
1
0
VERTEX
8
L6D0
10
1.8
20
-2.2
0
VERTEX
8
L6D0
10
1.8
20
-1.8
0
VERTEX
8
L6D0
10
2.2
20
-1.8
0
VERTEX
8
L6D0
10
2.2
20
-2.2
0
SEQEND
0
POLYLINE
8
L6D0
70
1
40
0
41
0
66
1
0
VERTEX
8
L6D0
10
-1.5
20
-1.5
0
VERTEX
8
L6D0
10
-1.5
20
1.5
0
VERTEX
8
L6D0
10
1.5
20
1.5
0
VERTEX
8
L6D0
10
1.5
20
-1.5
0
SEQEND
0
POLYLINE
8
L7D0
70
1
40
0
41
0
66
1
0
VERTEX
8
L7D0
10
0.659
20
-0.281
0
VERTEX
8
L7D0
10
0.659
20
-0.031
0
VERTEX
8
L7D0
10
0.909
20
-0.031
0
VERTEX
8
L7D0
10
0.909
20
-0.281
0
SEQEND
0
POLYLINE
8
L7D0
70
1
40
0
41
0
66
1
0
VERTEX
8
L7D0
10
0.659
20
0.031
0
VERTEX
8
L7D0
10
0.659
20
0.281
0
VERTEX
8
L7D0
10
0.909
20
0.281
0
VERTEX
8
L7D0
10
0.909
20
0.031
0
SEQEND
0
POLYLINE
8
L7D0
70
1
40
0
41
0
66
1
0
VERTEX
8
L7D0
10
0.54
20
0.319
0
VERTEX
8
L7D0
10
0.54
20
0.569
0
VERTEX
8
L7D0
10
0.79
20
0.569
0
VERTEX
8
L7D0
10
0.79
20
0.319
0
SEQEND
0
POLYLINE
8
L7D0
70
1
40
0
41
0
66
1
0
VERTEX
8
L7D0
10
0.319
20
0.54
0
VERTEX
8
L7D0
10
0.319
20
0.79
0
VERTEX
8
L7D0
10
0.569
20
0.79
0
VERTEX
8
L7D0
10
0.569
20
0.54
0
SEQEND
0
POLYLINE
8
L7D0
70
1
40
0
41
0
66
1
0
VERTEX
8
L7D0
10
0.031
20
0.659
0
VERTEX
8
L7D0
10
0.031
20
0.909
0
VERTEX
8
L7D0
10
0.281
20
0.909
0
VERTEX
8
L7D0
10
0.281
20
0.659
0
SEQEND
0
POLYLINE
8
L7D0
70
1
40
0
41
0
66
1
0
VERTEX
8
L7D0
10
-0.281
20
0.659
0
VERTEX
8
L7D0
10
-0.281
20
0.909
0
VERTEX
8
L7D0
10
-0.031
20
0.909
0
VERTEX
8
L7D0
10
-0.031
20
0.659
0
SEQEND
0
POLYLINE
8
L7D0
70
1
40
0
41
0
66
1
0
VERTEX
8
L7D0
10
-0.569
20
0.54
0
VERTEX
8
L7D0
10
-0.569
20
0.79
0
VERTEX
8
L7D0
10
-0.319
20
0.79
0
VERTEX
8
L7D0
10
-0.319
20
0.54
0
SEQEND
0
POLYLINE
8
L7D0
70
1
40
0
41
0
66
1
0
VERTEX
8
L7D0
10
-0.79
20
0.319
0
VERTEX
8
L7D0
10
-0.79
20
0.569
0
VERTEX
8
L7D0
10
-0.54
20
0.569
0
VERTEX
8
L7D0
10
-0.54
20
0.319
0
SEQEND
0
POLYLINE
8
L7D0
70
1
40
0
41
0
66
1
0
VERTEX
8
L7D0
10
-0.909
20
0.031
0
VERTEX
8
L7D0
10
-0.909
20
0.281
0
VERTEX
8
L7D0
10
-0.659
20
0.281
0
VERTEX
8
L7D0
10
-0.659
20
0.031
0
SEQEND
0
POLYLINE
8
L7D0
70
1
40
0
41
0
66
1
0
VERTEX
8
L7D0
10
-0.909
20
-0.281
0
VERTEX
8
L7D0
10
-0.909
20
-0.031
0
VERTEX
8
L7D0
10
-0.659
20
-0.031
0
VERTEX
8
L7D0
10
-0.659
20
-0.281
0
SEQEND
0
POLYLINE
8
L7D0
70
1
40
0
41
0
66
1
0
VERTEX
8
L7D0
10
-0.79
20
-0.569
0
VERTEX
8
L7D0
10
-0.79
20
-0.319
0
VERTEX
8
L7D0
10
-0.54
20
-0.319
0
VERTEX
8
L7D0
10
-0.54
20
-0.569
0
SEQEND
0
POLYLINE
8
L7D0
70
1
40
0
41
0
66
1
0
VERTEX
8
L7D0
10
-0.569
20
-0.79
0
VERTEX
8
L7D0
10
-0.569
20
-0.54
0
VERTEX
8
L7D0
10
-0.319
20
-0.54
0
VERTEX
8
L7D0
10
-0.319
20
-0.79
0
SEQEND
0
POLYLINE
8
L7D0
70
1
40
0
41
0
66
1
0
VERTEX
8
L7D0
10
-0.281
20
-0.909
0
VERTEX
8
L7D0
10
-0.281
20
-0.659
0
VERTEX
8
L7D0
10
-0.031
20
-0.659
0
VERTEX
8
L7D0
10
-0.031
20
-0.909
0
SEQEND
0
POLYLINE
8
L7D0
70
1
40
0
41
0
66
1
0
VERTEX
8
L7D0
10
0.031
20
-0.909
0
VERTEX
8
L7D0
10
0.031
20
-0.659
0
VERTEX
8
L7D0
10
0.281
20
-0.659
0
VERTEX
8
L7D0
10
0.281
20
-0.909
0
SEQEND
0
POLYLINE
8
L7D0
70
1
40
0
41
0
66
1
0
VERTEX
8
L7D0
10
0.319
20
-0.79
0
VERTEX
8
L7D0
10
0.319
20
-0.54
0
VERTEX
8
L7D0
10
0.569
20
-0.54
0
VERTEX
8
L7D0
10
0.569
20
-0.79
0
SEQEND
0
POLYLINE
8
L7D0
70
1
40
0
41
0
66
1
0
VERTEX
8
L7D0
10
0.54
20
-0.569
0
VERTEX
8
L7D0
10
0.54
20
-0.319
0
VERTEX
8
L7D0
10
0.79
20
-0.319
0
VERTEX
8
L7D0
10
0.79
20
-0.569
0
SEQEND
0
POLYLINE
8
L8D0
70
1
40
0
41
0
66
1
0
VERTEX
8
L8D0
10
0.709
20
-0.231
0
VERTEX
8
L8D0
10
0.709
20
-0.081
0
VERTEX
8
L8D0
10
0.859
20
-0.081
0
VERTEX
8
L8D0
10
0.859
20
-0.231
0
SEQEND
0
POLYLINE
8
L8D0
70
1
40
0
41
0
66
1
0
VERTEX
8
L8D0
10
0.709
20
0.081
0
VERTEX
8
L8D0
10
0.709
20
0.231
0
VERTEX
8
L8D0
10
0.859
20
0.231
0
VERTEX
8
L8D0
10
0.859
20
0.081
0
SEQEND
0
POLYLINE
8
L8D0
70
1
40
0
41
0
66
1
0
VERTEX
8
L8D0
10
0.59
20
0.369
0
VERTEX
8
L8D0
10
0.59
20
0.519
0
VERTEX
8
L8D0
10
0.74
20
0.519
0
VERTEX
8
L8D0
10
0.74
20
0.369
0
SEQEND
0
POLYLINE
8
L8D0
70
1
40
0
41
0
66
1
0
VERTEX
8
L8D0
10
0.369
20
0.59
0
VERTEX
8
L8D0
10
0.369
20
0.74
0
VERTEX
8
L8D0
10
0.519
20
0.74
0
VERTEX
8
L8D0
10
0.519
20
0.59
0
SEQEND
0
POLYLINE
8
L8D0
70
1
40
0
41
0
66
1
0
VERTEX
8
L8D0
10
0.081
20
0.709
0
VERTEX
8
L8D0
10
0.081
20
0.859
0
VERTEX
8
L8D0
10
0.231
20
0.859
0
VERTEX
8
L8D0
10
0.231
20
0.709
0
SEQEND
0
POLYLINE
8
L8D0
70
1
40
0
41
0
66
1
0
VERTEX
8
L8D0
10
-0.231
20
0.709
0
VERTEX
8
L8D0
10
-0.231
20
0.859
0
VERTEX
8
L8D0
10
-0.081
20
0.859
0
VERTEX
8
L8D0
10
-0.081
20
0.709
0
SEQEND
0
POLYLINE
8
L8D0
70
1
40
0
41
0
66
1
0
VERTEX
8
L8D0
10
-0.519
20
0.59
0
VERTEX
8
L8D0
10
-0.519
20
0.74
0
VERTEX
8
L8D0
10
-0.369
20
0.74
0
VERTEX
8
L8D0
10
-0.369
20
0.59
0
SEQEND
0
POLYLINE
8
L8D0
70
1
40
0
41
0
66
1
0
VERTEX
8
L8D0
10
-0.74
20
0.369
0
VERTEX
8
L8D0
10
-0.74
20
0.519
0
VERTEX
8
L8D0
10
-0.59
20
0.519
0
VERTEX
8
L8D0
10
-0.59
20
0.369
0
SEQEND
0
POLYLINE
8
L8D0
70
1
40
0
41
0
66
1
0
VERTEX
8
L8D0
10
-0.859
20
0.081
0
VERTEX
8
L8D0
10
-0.859
20
0.231
0
VERTEX
8
L8D0
10
-0.709
20
0.231
0
VERTEX
8
L8D0
10
-0.709
20
0.081
0
SEQEND
0
POLYLINE
8
L8D0
70
1
40
0
41
0
66
1
0
VERTEX
8
L8D0
10
-0.859
20
-0.231
0
VERTEX
8
L8D0
10
-0.859
20
-0.081
0
VERTEX
8
L8D0
10
-0.709
20
-0.081
0
VERTEX
8
L8D0
10
-0.709
20
-0.231
0
SEQEND
0
POLYLINE
8
L8D0
70
1
40
0
41
0
66
1
0
VERTEX
8
L8D0
10
-0.74
20
-0.519
0
VERTEX
8
L8D0
10
-0.74
20
-0.369
0
VERTEX
8
L8D0
10
-0.59
20
-0.369
0
VERTEX
8
L8D0
10
-0.59
20
-0.519
0
SEQEND
0
POLYLINE
8
L8D0
70
1
40
0
41
0
66
1
0
VERTEX
8
L8D0
10
-0.519
20
-0.74
0
VERTEX
8
L8D0
10
-0.519
20
-0.59
0
VERTEX
8
L8D0
10
-0.369
20
-0.59
0
VERTEX
8
L8D0
10
-0.369
20
-0.74
0
SEQEND
0
POLYLINE
8
L8D0
70
1
40
0
41
0
66
1
0
VERTEX
8
L8D0
10
-0.231
20
-0.859
0
VERTEX
8
L8D0
10
-0.231
20
-0.709
0
VERTEX
8
L8D0
10
-0.081
20
-0.709
0
VERTEX
8
L8D0
10
-0.081
20
-0.859
0
SEQEND
0
POLYLINE
8
L8D0
70
1
40
0
41
0
66
1
0
VERTEX
8
L8D0
10
0.081
20
-0.859
0
VERTEX
8
L8D0
10
0.081
20
-0.709
0
VERTEX
8
L8D0
10
0.231
20
-0.709
0
VERTEX
8
L8D0
10
0.231
20
-0.859
0
SEQEND
0
POLYLINE
8
L8D0
70
1
40
0
41
0
66
1
0
VERTEX
8
L8D0
10
0.369
20
-0.74
0
VERTEX
8
L8D0
10
0.369
20
-0.59
0
VERTEX
8
L8D0
10
0.519
20
-0.59
0
VERTEX
8
L8D0
10
0.519
20
-0.74
0
SEQEND
0
POLYLINE
8
L8D0
70
1
40
0
41
0
66
1
0
VERTEX
8
L8D0
10
0.59
20
-0.519
0
VERTEX
8
L8D0
10
0.59
20
-0.369
0
VERTEX
8
L8D0
10
0.74
20
-0.369
0
VERTEX
8
L8D0
10
0.74
20
-0.519
0
SEQEND
0
ENDSEC
0
EOF
