0
SECTION
2
HEADER
9
$ACADVER
1
AC1006
0
ENDSEC
0
SECTION
2
TABLES
0
TABLE
2
LAYER
70
8
0
LAYER
70
0
62
1
6
CONTINUOUS
2
L1D0
0
LAYER
70
0
62
2
6
CONTINUOUS
2
L2D0
0
LAYER
70
0
62
3
6
CONTINUOUS
2
L3D0
0
LAYER
70
0
62
4
6
CONTINUOUS
2
L4D0
0
LAYER
70
0
62
5
6
CONTINUOUS
2
L5D0
0
LAYER
70
0
62
6
6
CONTINUOUS
2
L6D0
0
LAYER
70
0
62
7
6
CONTINUOUS
2
L7D0
0
LAYER
70
0
62
8
6
CONTINUOUS
2
L8D0
0
ENDTAB
0
ENDSEC
0
SECTION
2
BLOCKS
0
ENDSEC
0
SECTION
2
ENTITIES
0
POLYLINE
8
L1D0
70
1
40
0
41
0
66
1
0
VERTEX
8
L1D0
10
1.69
20
1.69
0
VERTEX
8
L1D0
10
1.69
20
2.09
0
VERTEX
8
L1D0
10
2.09
20
2.09
0
VERTEX
8
L1D0
10
2.09
20
1.69
0
SEQEND
0
POLYLINE
8
L1D0
70
1
40
0
41
0
66
1
0
VERTEX
8
L1D0
10
-2.09
20
1.69
0
VERTEX
8
L1D0
10
-2.09
20
2.09
0
VERTEX
8
L1D0
10
-1.69
20
2.09
0
VERTEX
8
L1D0
10
-1.69
20
1.69
0
SEQEND
0
POLYLINE
8
L1D0
70
1
40
0
41
0
66
1
0
VERTEX
8
L1D0
10
-2.09
20
-2.09
0
VERTEX
8
L1D0
10
-2.09
20
-1.69
0
VERTEX
8
L1D0
10
-1.69
20
-1.69
0
VERTEX
8
L1D0
10
-1.69
20
-2.09
0
SEQEND
0
POLYLINE
8
L1D0
70
1
40
0
41
0
66
1
0
VERTEX
8
L1D0
10
1.69
20
-2.09
0
VERTEX
8
L1D0
10
1.69
20
-1.69
0
VERTEX
8
L1D0
10
2.09
20
-1.69
0
VERTEX
8
L1D0
10
2.09
20
-2.09
0
SEQEND
0
POLYLINE
8
L2D0
70
1
40
0
41
0
66
1
0
VERTEX
8
L2D0
10
-0.651
20
-0.772
0
VERTEX
8
L2D0
10
-0.784
20
-0.702
0
VERTEX
8
L2D0
10
-0.633
20
-0.414
0
VERTEX
8
L2D0
10
-0.5
20
-0.484
0
SEQEND
0
POLYLINE
8
L2D0
70
1
40
0
41
0
66
1
0
VERTEX
8
L2D0
10
0.082
20
-1.048
0
VERTEX
8
L2D0
10
-0.059
20
-0.998
0
VERTEX
8
L2D0
10
0.046
20
-0.698
0
VERTEX
8
L2D0
10
0.187
20
-0.748
0
SEQEND
0
POLYLINE
8
L2D0
70
1
40
0
41
0
66
1
0
VERTEX
8
L2D0
10
0.722
20
-0.797
0
VERTEX
8
L2D0
10
0.439
20
-0.635
0
VERTEX
8
L2D0
10
0.514
20
-0.505
0
VERTEX
8
L2D0
10
0.797
20
-0.667
0
SEQEND
0
POLYLINE
8
L2D0
70
1
40
0
41
0
66
1
0
VERTEX
8
L2D0
10
0.998
20
-0.065
0
VERTEX
8
L2D0
10
0.694
20
0.042
0
VERTEX
8
L2D0
10
0.744
20
0.183
0
VERTEX
8
L2D0
10
1.048
20
0.076
0
SEQEND
0
POLYLINE
8
L2D0
70
1
40
0
41
0
66
1
0
VERTEX
8
L2D0
10
0.632
20
0.434
0
VERTEX
8
L2D0
10
0.501
20
0.508
0
VERTEX
8
L2D0
10
0.662
20
0.794
0
VERTEX
8
L2D0
10
0.793
20
0.72
0
SEQEND
0
POLYLINE
8
L2D0
70
1
40
0
41
0
66
1
0
VERTEX
8
L2D0
10
-0.047
20
0.687
0
VERTEX
8
L2D0
10
-0.189
20
0.738
0
VERTEX
8
L2D0
10
-0.079
20
1.045
0
VERTEX
8
L2D0
10
0.063
20
0.994
0
SEQEND
0
POLYLINE
8
L2D0
70
1
40
0
41
0
66
1
0
VERTEX
8
L2D0
10
-0.513
20
0.499
0
VERTEX
8
L2D0
10
-0.798
20
0.666
0
VERTEX
8
L2D0
10
-0.723
20
0.795
0
VERTEX
8
L2D0
10
-0.438
20
0.628
0
SEQEND
0
POLYLINE
8
L2D0
70
1
40
0
41
0
66
1
0
VERTEX
8
L2D0
10
-0.753
20
-0.165
0
VERTEX
8
L2D0
10
-1.058
20
-0.07
0
VERTEX
8
L2D0
10
-1.013
20
0.073
0
VERTEX
8
L2D0
10
-0.708
20
-0.022
0
SEQEND
0
POLYLINE
8
L3D0
70
1
40
0
41
0
66
1
0
VERTEX
8
L3D0
10
-0.805
20
-0.169
0
VERTEX
8
L3D0
10
-0.805
20
-0.019
0
VERTEX
8
L3D0
10
-0.655
20
-0.019
0
VERTEX
8
L3D0
10
-0.655
20
-0.169
0
SEQEND
0
POLYLINE
8
L3D0
70
1
40
0
41
0
66
1
0
VERTEX
8
L3D0
10
-0.641
20
-0.524
0
VERTEX
8
L3D0
10
-0.641
20
-0.374
0
VERTEX
8
L3D0
10
-0.491
20
-0.374
0
VERTEX
8
L3D0
10
-0.491
20
-0.524
0
SEQEND
0
POLYLINE
8
L3D0
70
1
40
0
41
0
66
1
0
VERTEX
8
L3D0
10
-0.793
20
-0.812
0
VERTEX
8
L3D0
10
-0.793
20
-0.662
0
VERTEX
8
L3D0
10
-0.643
20
-0.662
0
VERTEX
8
L3D0
10
-0.643
20
-0.812
0
SEQEND
0
POLYLINE
8
L3D0
70
1
40
0
41
0
66
1
0
VERTEX
8
L3D0
10
-0.063
20
-1.099
0
VERTEX
8
L3D0
10
-0.063
20
-0.949
0
VERTEX
8
L3D0
10
0.087
20
-0.949
0
VERTEX
8
L3D0
10
0.087
20
-1.099
0
SEQEND
0
POLYLINE
8
L3D0
70
1
40
0
41
0
66
1
0
VERTEX
8
L3D0
10
0.042
20
-0.797
0
VERTEX
8
L3D0
10
0.042
20
-0.647
0
VERTEX
8
L3D0
10
0.192
20
-0.647
0
VERTEX
8
L3D0
10
0.192
20
-0.797
0
SEQEND
0
POLYLINE
8
L3D0
70
1
40
0
41
0
66
1
0
VERTEX
8
L3D0
10
0.401
20
-0.645
0
VERTEX
8
L3D0
10
0.401
20
-0.495
0
VERTEX
8
L3D0
10
0.551
20
-0.495
0
VERTEX
8
L3D0
10
0.551
20
-0.645
0
SEQEND
0
POLYLINE
8
L3D0
70
1
40
0
41
0
66
1
0
VERTEX
8
L3D0
10
0.685
20
-0.808
0
VERTEX
8
L3D0
10
0.685
20
-0.658
0
VERTEX
8
L3D0
10
0.835
20
-0.658
0
VERTEX
8
L3D0
10
0.835
20
-0.808
0
SEQEND
0
POLYLINE
8
L3D0
70
1
40
0
41
0
66
1
0
VERTEX
8
L3D0
10
0.948
20
-0.069
0
VERTEX
8
L3D0
10
0.948
20
0.081
0
VERTEX
8
L3D0
10
1.098
20
0.081
0
VERTEX
8
L3D0
10
1.098
20
-0.069
0
SEQEND
0
POLYLINE
8
L3D0
70
1
40
0
41
0
66
1
0
VERTEX
8
L3D0
10
0.644
20
0.038
0
VERTEX
8
L3D0
10
0.644
20
0.188
0
VERTEX
8
L3D0
10
0.794
20
0.188
0
VERTEX
8
L3D0
10
0.794
20
0.038
0
SEQEND
0
POLYLINE
8
L3D0
70
1
40
0
41
0
66
1
0
VERTEX
8
L3D0
10
0.491
20
0.395
0
VERTEX
8
L3D0
10
0.491
20
0.545
0
VERTEX
8
L3D0
10
0.641
20
0.545
0
VERTEX
8
L3D0
10
0.641
20
0.395
0
SEQEND
0
POLYLINE
8
L3D0
70
1
40
0
41
0
66
1
0
VERTEX
8
L3D0
10
0.652
20
0.682
0
VERTEX
8
L3D0
10
0.652
20
0.832
0
VERTEX
8
L3D0
10
0.802
20
0.832
0
VERTEX
8
L3D0
10
0.802
20
0.682
0
SEQEND
0
POLYLINE
8
L3D0
70
1
40
0
41
0
66
1
0
VERTEX
8
L3D0
10
-0.083
20
0.944
0
VERTEX
8
L3D0
10
-0.083
20
1.094
0
VERTEX
8
L3D0
10
0.067
20
1.094
0
VERTEX
8
L3D0
10
0.067
20
0.944
0
SEQEND
0
POLYLINE
8
L3D0
70
1
40
0
41
0
66
1
0
VERTEX
8
L3D0
10
-0.193
20
0.637
0
VERTEX
8
L3D0
10
-0.193
20
0.787
0
VERTEX
8
L3D0
10
-0.043
20
0.787
0
VERTEX
8
L3D0
10
-0.043
20
0.637
0
SEQEND
0
POLYLINE
8
L3D0
70
1
40
0
41
0
66
1
0
VERTEX
8
L3D0
10
-0.551
20
0.489
0
VERTEX
8
L3D0
10
-0.551
20
0.639
0
VERTEX
8
L3D0
10
-0.401
20
0.639
0
VERTEX
8
L3D0
10
-0.401
20
0.489
0
SEQEND
0
POLYLINE
8
L3D0
70
1
40
0
41
0
66
1
0
VERTEX
8
L3D0
10
-0.836
20
0.655
0
VERTEX
8
L3D0
10
-0.836
20
0.805
0
VERTEX
8
L3D0
10
-0.686
20
0.805
0
VERTEX
8
L3D0
10
-0.686
20
0.655
0
SEQEND
0
POLYLINE
8
L3D0
70
1
40
0
41
0
66
1
0
VERTEX
8
L3D0
10
-1.111
20
-0.075
0
VERTEX
8
L3D0
10
-1.111
20
0.075
0
VERTEX
8
L3D0
10
-0.961
20
0.075
0
VERTEX
8
L3D0
10
-0.961
20
-0.075
0
SEQEND
0
POLYLINE
8
L4D0
70
1
40
0
41
0
66
1
0
VERTEX
8
L4D0
10
-2.19
20
-2.19
0
VERTEX
8
L4D0
10
-2.19
20
-1.59
0
VERTEX
8
L4D0
10
1.19
20
-1.59
0
VERTEX
8
L4D0
10
1.19
20
-1.39
0
VERTEX
8
L4D0
10
-1.79
20
-1.39
0
VERTEX
8
L4D0
10
-1.79
20
1.59
0
VERTEX
8
L4D0
10
-2.19
20
1.59
0
VERTEX
8
L4D0
10
-2.19
20
2.19
0
VERTEX
8
L4D0
10
-1.59
20
2.19
0
VERTEX
8
L4D0
10
-1.59
20
-1.19
0
VERTEX
8
L4D0
10
-1.39
20
-1.19
0
VERTEX
8
L4D0
10
-1.39
20
1.79
0
VERTEX
8
L4D0
10
1.59
20
1.79
0
VERTEX
8
L4D0
10
1.59
20
2.19
0
VERTEX
8
L4D0
10
2.19
20
2.19
0
VERTEX
8
L4D0
10
2.19
20
1.59
0
VERTEX
8
L4D0
10
-1.19
20
1.59
0
VERTEX
8
L4D0
10
-1.19
20
1.39
0
VERTEX
8
L4D0
10
1.79
20
1.39
0
VERTEX
8
L4D0
10
1.79
20
-1.59
0
VERTEX
8
L4D0
10
2.19
20
-1.59
0
VERTEX
8
L4D0
10
2.19
20
-2.19
0
VERTEX
8
L4D0
10
1.59
20
-2.19
0
VERTEX
8
L4D0
10
1.59
20
1.19
0
VERTEX
8
L4D0
10
1.39
20
1.19
0
VERTEX
8
L4D0
10
1.39
20
-1.79
0
VERTEX
8
L4D0
10
-1.59
20
-1.79
0
VERTEX
8
L4D0
10
-1.59
20
-2.19
0
SEQEND
0
POLYLINE
8
L5D0
70
1
40
0
41
0
66
1
0
VERTEX
8
L5D0
10
-0.05
20
-0.05
0
VERTEX
8
L5D0
10
-0.05
20
0.05
0
VERTEX
8
L5D0
10
0.05
20
0.05
0
VERTEX
8
L5D0
10
0.05
20
-0.05
0
SEQEND
0
POLYLINE
8
L5D0
70
1
40
0
41
0
66
1
0
VERTEX
8
L5D0
10
0.411
20
0.141
0
VERTEX
8
L5D0
10
0.411
20
0.241
0
VERTEX
8
L5D0
10
0.511
20
0.241
0
VERTEX
8
L5D0
10
0.511
20
0.141
0
SEQEND
0
POLYLINE
8
L5D0
70
1
40
0
41
0
66
1
0
VERTEX
8
L5D0
10
0.141
20
0.411
0
VERTEX
8
L5D0
10
0.141
20
0.511
0
VERTEX
8
L5D0
10
0.241
20
0.511
0
VERTEX
8
L5D0
10
0.241
20
0.411
0
SEQEND
0
POLYLINE
8
L5D0
70
1
40
0
41
0
66
1
0
VERTEX
8
L5D0
10
-0.241
20
0.411
0
VERTEX
8
L5D0
10
-0.241
20
0.511
0
VERTEX
8
L5D0
10
-0.141
20
0.511
0
VERTEX
8
L5D0
10
-0.141
20
0.411
0
SEQEND
0
POLYLINE
8
L5D0
70
1
40
0
41
0
66
1
0
VERTEX
8
L5D0
10
-0.511
20
0.141
0
VERTEX
8
L5D0
10
-0.511
20
0.241
0
VERTEX
8
L5D0
10
-0.411
20
0.241
0
VERTEX
8
L5D0
10
-0.411
20
0.141
0
SEQEND
0
POLYLINE
8
L5D0
70
1
40
0
41
0
66
1
0
VERTEX
8
L5D0
10
-0.511
20
-0.241
0
VERTEX
8
L5D0
10
-0.511
20
-0.141
0
VERTEX
8
L5D0
10
-0.411
20
-0.141
0
VERTEX
8
L5D0
10
-0.411
20
-0.241
0
SEQEND
0
POLYLINE
8
L5D0
70
1
40
0
41
0
66
1
0
VERTEX
8
L5D0
10
-0.241
20
-0.511
0
VERTEX
8
L5D0
10
-0.241
20
-0.411
0
VERTEX
8
L5D0
10
-0.141
20
-0.411
0
VERTEX
8
L5D0
10
-0.141
20
-0.511
0
SEQEND
0
POLYLINE
8
L5D0
70
1
40
0
41
0
66
1
0
VERTEX
8
L5D0
10
0.141
20
-0.511
0
VERTEX
8
L5D0
10
0.141
20
-0.411
0
VERTEX
8
L5D0
10
0.241
20
-0.411
0
VERTEX
8
L5D0
10
0.241
20
-0.511
0
SEQEND
0
POLYLINE
8
L5D0
70
1
40
0
41
0
66
1
0
VERTEX
8
L5D0
10
0.411
20
-0.241
0
VERTEX
8
L5D0
10
0.411
20
-0.141
0
VERTEX
8
L5D0
10
0.511
20
-0.141
0
VERTEX
8
L5D0
10
0.511
20
-0.241
0
SEQEND
0
POLYLINE
8
L5D0
70
1
40
0
41
0
66
1
0
VERTEX
8
L5D0
10
0.93
20
0.145
0
VERTEX
8
L5D0
10
0.93
20
0.245
0
VERTEX
8
L5D0
10
1.03
20
0.245
0
VERTEX
8
L5D0
10
1.03
20
0.145
0
SEQEND
0
POLYLINE
8
L5D0
70
1
40
0
41
0
66
1
0
VERTEX
8
L5D0
10
0.781
20
0.505
0
VERTEX
8
L5D0
10
0.781
20
0.605
0
VERTEX
8
L5D0
10
0.881
20
0.605
0
VERTEX
8
L5D0
10
0.881
20
0.505
0
SEQEND
0
POLYLINE
8
L5D0
70
1
40
0
41
0
66
1
0
VERTEX
8
L5D0
10
0.505
20
0.781
0
VERTEX
8
L5D0
10
0.505
20
0.881
0
VERTEX
8
L5D0
10
0.605
20
0.881
0
VERTEX
8
L5D0
10
0.605
20
0.781
0
SEQEND
0
POLYLINE
8
L5D0
70
1
40
0
41
0
66
1
0
VERTEX
8
L5D0
10
0.145
20
0.93
0
VERTEX
8
L5D0
10
0.145
20
1.03
0
VERTEX
8
L5D0
10
0.245
20
1.03
0
VERTEX
8
L5D0
10
0.245
20
0.93
0
SEQEND
0
POLYLINE
8
L5D0
70
1
40
0
41
0
66
1
0
VERTEX
8
L5D0
10
-0.245
20
0.93
0
VERTEX
8
L5D0
10
-0.245
20
1.03
0
VERTEX
8
L5D0
10
-0.145
20
1.03
0
VERTEX
8
L5D0
10
-0.145
20
0.93
0
SEQEND
0
POLYLINE
8
L5D0
70
1
40
0
41
0
66
1
0
VERTEX
8
L5D0
10
-0.605
20
0.781
0
VERTEX
8
L5D0
10
-0.605
20
0.881
0
VERTEX
8
L5D0
10
-0.505
20
0.881
0
VERTEX
8
L5D0
10
-0.505
20
0.781
0
SEQEND
0
POLYLINE
8
L5D0
70
1
40
0
41
0
66
1
0
VERTEX
8
L5D0
10
-0.881
20
0.505
0
VERTEX
8
L5D0
10
-0.881
20
0.605
0
VERTEX
8
L5D0
10
-0.781
20
0.605
0
VERTEX
8
L5D0
10
-0.781
20
0.505
0
SEQEND
0
POLYLINE
8
L5D0
70
1
40
0
41
0
66
1
0
VERTEX
8
L5D0
10
-1.03
20
0.145
0
VERTEX
8
L5D0
10
-1.03
20
0.245
0
VERTEX
8
L5D0
10
-0.93
20
0.245
0
VERTEX
8
L5D0
10
-0.93
20
0.145
0
SEQEND
0
POLYLINE
8
L5D0
70
1
40
0
41
0
66
1
0
VERTEX
8
L5D0
10
-1.03
20
-0.245
0
VERTEX
8
L5D0
10
-1.03
20
-0.145
0
VERTEX
8
L5D0
10
-0.93
20
-0.145
0
VERTEX
8
L5D0
10
-0.93
20
-0.245
0
SEQEND
0
POLYLINE
8
L5D0
70
1
40
0
41
0
66
1
0
VERTEX
8
L5D0
10
-0.881
20
-0.605
0
VERTEX
8
L5D0
10
-0.881
20
-0.505
0
VERTEX
8
L5D0
10
-0.781
20
-0.505
0
VERTEX
8
L5D0
10
-0.781
20
-0.605
0
SEQEND
0
POLYLINE
8
L5D0
70
1
40
0
41
0
66
1
0
VERTEX
8
L5D0
10
-0.605
20
-0.881
0
VERTEX
8
L5D0
10
-0.605
20
-0.781
0
VERTEX
8
L5D0
10
-0.505
20
-0.781
0
VERTEX
8
L5D0
10
-0.505
20
-0.881
0
SEQEND
0
POLYLINE
8
L5D0
70
1
40
0
41
0
66
1
0
VERTEX
8
L5D0
10
-0.245
20
-1.03
0
VERTEX
8
L5D0
10
-0.245
20
-0.93
0
VERTEX
8
L5D0
10
-0.145
20
-0.93
0
VERTEX
8
L5D0
10
-0.145
20
-1.03
0
SEQEND
0
POLYLINE
8
L5D0
70
1
40
0
41
0
66
1
0
VERTEX
8
L5D0
10
0.145
20
-1.03
0
VERTEX
8
L5D0
10
0.145
20
-0.93
0
VERTEX
8
L5D0
10
0.245
20
-0.93
0
VERTEX
8
L5D0
10
0.245
20
-1.03
0
SEQEND
0
POLYLINE
8
L5D0
70
1
40
0
41
0
66
1
0
VERTEX
8
L5D0
10
0.505
20
-0.881
0
VERTEX
8
L5D0
10
0.505
20
-0.781
0
VERTEX
8
L5D0
10
0.605
20
-0.781
0
VERTEX
8
L5D0
10
0.605
20
-0.881
0
SEQEND
0
POLYLINE
8
L5D0
70
1
40
0
41
0
66
1
0
VERTEX
8
L5D0
10
0.781
20
-0.605
0
VERTEX
8
L5D0
10
0.781
20
-0.505
0
VERTEX
8
L5D0
10
0.881
20
-0.505
0
VERTEX
8
L5D0
10
0.881
20
-0.605
0
SEQEND
0
POLYLINE
8
L5D0
70
1
40
0
41
0
66
1
0
VERTEX
8
L5D0
10
0.93
20
-0.245
0
VERTEX
8
L5D0
10
0.93
20
-0.145
0
VERTEX
8
L5D0
10
1.03
20
-0.145
0
VERTEX
8
L5D0
10
1.03
20
-0.245
0
SEQEND
0
POLYLINE
8
L5D0
70
1
40
0
41
0
66
1
0
VERTEX
8
L5D0
10
1.14
20
0.863
0
VERTEX
8
L5D0
10
1.14
20
0.963
0
VERTEX
8
L5D0
10
1.24
20
0.963
0
VERTEX
8
L5D0
10
1.24
20
0.863
0
SEQEND
0
POLYLINE
8
L5D0
70
1
40
0
41
0
66
1
0
VERTEX
8
L5D0
10
0.863
20
1.14
0
VERTEX
8
L5D0
10
0.863
20
1.24
0
VERTEX
8
L5D0
10
0.963
20
1.24
0
VERTEX
8
L5D0
10
0.963
20
1.14
0
SEQEND
0
POLYLINE
8
L5D0
70
1
40
0
41
0
66
1
0
VERTEX
8
L5D0
10
-0.963
20
1.14
0
VERTEX
8
L5D0
10
-0.963
20
1.24
0
VERTEX
8
L5D0
10
-0.863
20
1.24
0
VERTEX
8
L5D0
10
-0.863
20
1.14
0
SEQEND
0
POLYLINE
8
L5D0
70
1
40
0
41
0
66
1
0
VERTEX
8
L5D0
10
-1.24
20
0.863
0
VERTEX
8
L5D0
10
-1.24
20
0.963
0
VERTEX
8
L5D0
10
-1.14
20
0.963
0
VERTEX
8
L5D0
10
-1.14
20
0.863
0
SEQEND
0
POLYLINE
8
L5D0
70
1
40
0
41
0
66
1
0
VERTEX
8
L5D0
10
-1.24
20
-0.963
0
VERTEX
8
L5D0
10
-1.24
20
-0.863
0
VERTEX
8
L5D0
10
-1.14
20
-0.863
0
VERTEX
8
L5D0
10
-1.14
20
-0.963
0
SEQEND
0
POLYLINE
8
L5D0
70
1
40
0
41
0
66
1
0
VERTEX
8
L5D0
10
-0.963
20
-1.24
0
VERTEX
8
L5D0
10
-0.963
20
-1.14
0
VERTEX
8
L5D0
10
-0.863
20
-1.14
0
VERTEX
8
L5D0
10
-0.863
20
-1.24
0
SEQEND
0
POLYLINE
8
L5D0
70
1
40
0
41
0
66
1
0
VERTEX
8
L5D0
10
0.863
20
-1.24
0
VERTEX
8
L5D0
10
0.863
20
-1.14
0
VERTEX
8
L5D0
10
0.963
20
-1.14
0
VERTEX
8
L5D0
10
0.963
20
-1.24
0
SEQEND
0
POLYLINE
8
L5D0
70
1
40
0
41
0
66
1
0
VERTEX
8
L5D0
10
1.14
20
-0.963
0
VERTEX
8
L5D0
10
1.14
20
-0.863
0
VERTEX
8
L5D0
10
1.24
20
-0.863
0
VERTEX
8
L5D0
10
1.24
20
-0.963
0
SEQEND
0
POLYLINE
8
L6D0
70
1
40
0
41
0
66
1
0
VERTEX
8
L6D0
10
1.69
20
1.69
0
VERTEX
8
L6D0
10
1.69
20
2.09
0
VERTEX
8
L6D0
10
2.09
20
2.09
0
VERTEX
8
L6D0
10
2.09
20
1.69
0
SEQEND
0
POLYLINE
8
L6D0
70
1
40
0
41
0
66
1
0
VERTEX
8
L6D0
10
-2.09
20
1.69
0
VERTEX
8
L6D0
10
-2.09
20
2.09
0
VERTEX
8
L6D0
10
-1.69
20
2.09
0
VERTEX
8
L6D0
10
-1.69
20
1.69
0
SEQEND
0
POLYLINE
8
L6D0
70
1
40
0
41
0
66
1
0
VERTEX
8
L6D0
10
-2.09
20
-2.09
0
VERTEX
8
L6D0
10
-2.09
20
-1.69
0
VERTEX
8
L6D0
10
-1.69
20
-1.69
0
VERTEX
8
L6D0
10
-1.69
20
-2.09
0
SEQEND
0
POLYLINE
8
L6D0
70
1
40
0
41
0
66
1
0
VERTEX
8
L6D0
10
1.69
20
-2.09
0
VERTEX
8
L6D0
10
1.69
20
-1.69
0
VERTEX
8
L6D0
10
2.09
20
-1.69
0
VERTEX
8
L6D0
10
2.09
20
-2.09
0
SEQEND
0
POLYLINE
8
L6D0
70
1
40
0
41
0
66
1
0
VERTEX
8
L6D0
10
-1.39
20
-1.39
0
VERTEX
8
L6D0
10
-1.39
20
1.39
0
VERTEX
8
L6D0
10
1.39
20
1.39
0
VERTEX
8
L6D0
10
1.39
20
-1.39
0
SEQEND
0
POLYLINE
8
L7D0
70
1
40
0
41
0
66
1
0
VERTEX
8
L7D0
10
-0.855
20
-0.219
0
VERTEX
8
L7D0
10
-0.855
20
0.031
0
VERTEX
8
L7D0
10
-0.605
20
0.031
0
VERTEX
8
L7D0
10
-0.605
20
-0.219
0
SEQEND
0
POLYLINE
8
L7D0
70
1
40
0
41
0
66
1
0
VERTEX
8
L7D0
10
-0.691
20
-0.574
0
VERTEX
8
L7D0
10
-0.691
20
-0.324
0
VERTEX
8
L7D0
10
-0.441
20
-0.324
0
VERTEX
8
L7D0
10
-0.441
20
-0.574
0
SEQEND
0
POLYLINE
8
L7D0
70
1
40
0
41
0
66
1
0
VERTEX
8
L7D0
10
-0.843
20
-0.862
0
VERTEX
8
L7D0
10
-0.843
20
-0.612
0
VERTEX
8
L7D0
10
-0.593
20
-0.612
0
VERTEX
8
L7D0
10
-0.593
20
-0.862
0
SEQEND
0
POLYLINE
8
L7D0
70
1
40
0
41
0
66
1
0
VERTEX
8
L7D0
10
-0.113
20
-1.149
0
VERTEX
8
L7D0
10
-0.113
20
-0.899
0
VERTEX
8
L7D0
10
0.137
20
-0.899
0
VERTEX
8
L7D0
10
0.137
20
-1.149
0
SEQEND
0
POLYLINE
8
L7D0
70
1
40
0
41
0
66
1
0
VERTEX
8
L7D0
10
-0.008
20
-0.847
0
VERTEX
8
L7D0
10
-0.008
20
-0.597
0
VERTEX
8
L7D0
10
0.242
20
-0.597
0
VERTEX
8
L7D0
10
0.242
20
-0.847
0
SEQEND
0
POLYLINE
8
L7D0
70
1
40
0
41
0
66
1
0
VERTEX
8
L7D0
10
0.351
20
-0.695
0
VERTEX
8
L7D0
10
0.351
20
-0.445
0
VERTEX
8
L7D0
10
0.601
20
-0.445
0
VERTEX
8
L7D0
10
0.601
20
-0.695
0
SEQEND
0
POLYLINE
8
L7D0
70
1
40
0
41
0
66
1
0
VERTEX
8
L7D0
10
0.635
20
-0.858
0
VERTEX
8
L7D0
10
0.635
20
-0.608
0
VERTEX
8
L7D0
10
0.885
20
-0.608
0
VERTEX
8
L7D0
10
0.885
20
-0.858
0
SEQEND
0
POLYLINE
8
L7D0
70
1
40
0
41
0
66
1
0
VERTEX
8
L7D0
10
0.898
20
-0.119
0
VERTEX
8
L7D0
10
0.898
20
0.131
0
VERTEX
8
L7D0
10
1.148
20
0.131
0
VERTEX
8
L7D0
10
1.148
20
-0.119
0
SEQEND
0
POLYLINE
8
L7D0
70
1
40
0
41
0
66
1
0
VERTEX
8
L7D0
10
0.594
20
-0.012
0
VERTEX
8
L7D0
10
0.594
20
0.238
0
VERTEX
8
L7D0
10
0.844
20
0.238
0
VERTEX
8
L7D0
10
0.844
20
-0.012
0
SEQEND
0
POLYLINE
8
L7D0
70
1
40
0
41
0
66
1
0
VERTEX
8
L7D0
10
0.441
20
0.345
0
VERTEX
8
L7D0
10
0.441
20
0.595
0
VERTEX
8
L7D0
10
0.691
20
0.595
0
VERTEX
8
L7D0
10
0.691
20
0.345
0
SEQEND
0
POLYLINE
8
L7D0
70
1
40
0
41
0
66
1
0
VERTEX
8
L7D0
10
0.602
20
0.632
0
VERTEX
8
L7D0
10
0.602
20
0.882
0
VERTEX
8
L7D0
10
0.852
20
0.882
0
VERTEX
8
L7D0
10
0.852
20
0.632
0
SEQEND
0
POLYLINE
8
L7D0
70
1
40
0
41
0
66
1
0
VERTEX
8
L7D0
10
-0.133
20
0.894
0
VERTEX
8
L7D0
10
-0.133
20
1.144
0
VERTEX
8
L7D0
10
0.117
20
1.144
0
VERTEX
8
L7D0
10
0.117
20
0.894
0
SEQEND
0
POLYLINE
8
L7D0
70
1
40
0
41
0
66
1
0
VERTEX
8
L7D0
10
-0.243
20
0.587
0
VERTEX
8
L7D0
10
-0.243
20
0.837
0
VERTEX
8
L7D0
10
0.007
20
0.837
0
VERTEX
8
L7D0
10
0.007
20
0.587
0
SEQEND
0
POLYLINE
8
L7D0
70
1
40
0
41
0
66
1
0
VERTEX
8
L7D0
10
-0.601
20
0.439
0
VERTEX
8
L7D0
10
-0.601
20
0.689
0
VERTEX
8
L7D0
10
-0.351
20
0.689
0
VERTEX
8
L7D0
10
-0.351
20
0.439
0
SEQEND
0
POLYLINE
8
L7D0
70
1
40
0
41
0
66
1
0
VERTEX
8
L7D0
10
-0.886
20
0.605
0
VERTEX
8
L7D0
10
-0.886
20
0.855
0
VERTEX
8
L7D0
10
-0.636
20
0.855
0
VERTEX
8
L7D0
10
-0.636
20
0.605
0
SEQEND
0
POLYLINE
8
L7D0
70
1
40
0
41
0
66
1
0
VERTEX
8
L7D0
10
-1.161
20
-0.125
0
VERTEX
8
L7D0
10
-1.161
20
0.125
0
VERTEX
8
L7D0
10
-0.911
20
0.125
0
VERTEX
8
L7D0
10
-0.911
20
-0.125
0
SEQEND
0
POLYLINE
8
L8D0
70
1
40
0
41
0
66
1
0
VERTEX
8
L8D0
10
-0.805
20
-0.169
0
VERTEX
8
L8D0
10
-0.805
20
-0.019
0
VERTEX
8
L8D0
10
-0.655
20
-0.019
0
VERTEX
8
L8D0
10
-0.655
20
-0.169
0
SEQEND
0
POLYLINE
8
L8D0
70
1
40
0
41
0
66
1
0
VERTEX
8
L8D0
10
-0.641
20
-0.524
0
VERTEX
8
L8D0
10
-0.641
20
-0.374
0
VERTEX
8
L8D0
10
-0.491
20
-0.374
0
VERTEX
8
L8D0
10
-0.491
20
-0.524
0
SEQEND
0
POLYLINE
8
L8D0
70
1
40
0
41
0
66
1
0
VERTEX
8
L8D0
10
-0.793
20
-0.812
0
VERTEX
8
L8D0
10
-0.793
20
-0.662
0
VERTEX
8
L8D0
10
-0.643
20
-0.662
0
VERTEX
8
L8D0
10
-0.643
20
-0.812
0
SEQEND
0
POLYLINE
8
L8D0
70
1
40
0
41
0
66
1
0
VERTEX
8
L8D0
10
-0.063
20
-1.099
0
VERTEX
8
L8D0
10
-0.063
20
-0.949
0
VERTEX
8
L8D0
10
0.087
20
-0.949
0
VERTEX
8
L8D0
10
0.087
20
-1.099
0
SEQEND
0
POLYLINE
8
L8D0
70
1
40
0
41
0
66
1
0
VERTEX
8
L8D0
10
0.042
20
-0.797
0
VERTEX
8
L8D0
10
0.042
20
-0.647
0
VERTEX
8
L8D0
10
0.192
20
-0.647
0
VERTEX
8
L8D0
10
0.192
20
-0.797
0
SEQEND
0
POLYLINE
8
L8D0
70
1
40
0
41
0
66
1
0
VERTEX
8
L8D0
10
0.401
20
-0.645
0
VERTEX
8
L8D0
10
0.401
20
-0.495
0
VERTEX
8
L8D0
10
0.551
20
-0.495
0
VERTEX
8
L8D0
10
0.551
20
-0.645
0
SEQEND
0
POLYLINE
8
L8D0
70
1
40
0
41
0
66
1
0
VERTEX
8
L8D0
10
0.685
20
-0.808
0
VERTEX
8
L8D0
10
0.685
20
-0.658
0
VERTEX
8
L8D0
10
0.835
20
-0.658
0
VERTEX
8
L8D0
10
0.835
20
-0.808
0
SEQEND
0
POLYLINE
8
L8D0
70
1
40
0
41
0
66
1
0
VERTEX
8
L8D0
10
0.948
20
-0.069
0
VERTEX
8
L8D0
10
0.948
20
0.081
0
VERTEX
8
L8D0
10
1.098
20
0.081
0
VERTEX
8
L8D0
10
1.098
20
-0.069
0
SEQEND
0
POLYLINE
8
L8D0
70
1
40
0
41
0
66
1
0
VERTEX
8
L8D0
10
0.644
20
0.038
0
VERTEX
8
L8D0
10
0.644
20
0.188
0
VERTEX
8
L8D0
10
0.794
20
0.188
0
VERTEX
8
L8D0
10
0.794
20
0.038
0
SEQEND
0
POLYLINE
8
L8D0
70
1
40
0
41
0
66
1
0
VERTEX
8
L8D0
10
0.491
20
0.395
0
VERTEX
8
L8D0
10
0.491
20
0.545
0
VERTEX
8
L8D0
10
0.641
20
0.545
0
VERTEX
8
L8D0
10
0.641
20
0.395
0
SEQEND
0
POLYLINE
8
L8D0
70
1
40
0
41
0
66
1
0
VERTEX
8
L8D0
10
0.652
20
0.682
0
VERTEX
8
L8D0
10
0.652
20
0.832
0
VERTEX
8
L8D0
10
0.802
20
0.832
0
VERTEX
8
L8D0
10
0.802
20
0.682
0
SEQEND
0
POLYLINE
8
L8D0
70
1
40
0
41
0
66
1
0
VERTEX
8
L8D0
10
-0.083
20
0.944
0
VERTEX
8
L8D0
10
-0.083
20
1.094
0
VERTEX
8
L8D0
10
0.067
20
1.094
0
VERTEX
8
L8D0
10
0.067
20
0.944
0
SEQEND
0
POLYLINE
8
L8D0
70
1
40
0
41
0
66
1
0
VERTEX
8
L8D0
10
-0.193
20
0.637
0
VERTEX
8
L8D0
10
-0.193
20
0.787
0
VERTEX
8
L8D0
10
-0.043
20
0.787
0
VERTEX
8
L8D0
10
-0.043
20
0.637
0
SEQEND
0
POLYLINE
8
L8D0
70
1
40
0
41
0
66
1
0
VERTEX
8
L8D0
10
-0.551
20
0.489
0
VERTEX
8
L8D0
10
-0.551
20
0.639
0
VERTEX
8
L8D0
10
-0.401
20
0.639
0
VERTEX
8
L8D0
10
-0.401
20
0.489
0
SEQEND
0
POLYLINE
8
L8D0
70
1
40
0
41
0
66
1
0
VERTEX
8
L8D0
10
-0.836
20
0.655
0
VERTEX
8
L8D0
10
-0.836
20
0.805
0
VERTEX
8
L8D0
10
-0.686
20
0.805
0
VERTEX
8
L8D0
10
-0.686
20
0.655
0
SEQEND
0
POLYLINE
8
L8D0
70
1
40
0
41
0
66
1
0
VERTEX
8
L8D0
10
-1.111
20
-0.075
0
VERTEX
8
L8D0
10
-1.111
20
0.075
0
VERTEX
8
L8D0
10
-0.961
20
0.075
0
VERTEX
8
L8D0
10
-0.961
20
-0.075
0
SEQEND
0
ENDSEC
0
EOF
