0
SECTION
2
HEADER
9
$ACADVER
1
AC1006
0
ENDSEC
0
SECTION
2
TABLES
0
TABLE
2
LAYER
70
8
0
LAYER
70
0
62
1
6
CONTINUOUS
2
L1D0
0
LAYER
70
0
62
2
6
CONTINUOUS
2
L2D0
0
LAYER
70
0
62
3
6
CONTINUOUS
2
L3D0
0
LAYER
70
0
62
4
6
CONTINUOUS
2
L4D0
0
LAYER
70
0
62
5
6
CONTINUOUS
2
L5D0
0
LAYER
70
0
62
6
6
CONTINUOUS
2
L6D0
0
LAYER
70
0
62
7
6
CONTINUOUS
2
L7D0
0
LAYER
70
0
62
8
6
CONTINUOUS
2
L8D0
0
ENDTAB
0
ENDSEC
0
SECTION
2
BLOCKS
0
ENDSEC
0
SECTION
2
ENTITIES
0
POLYLINE
8
L1D0
70
1
40
0
41
0
66
1
0
VERTEX
8
L1D0
10
1.8
20
1.8
0
VERTEX
8
L1D0
10
1.8
20
2.2
0
VERTEX
8
L1D0
10
2.2
20
2.2
0
VERTEX
8
L1D0
10
2.2
20
1.8
0
SEQEND
0
POLYLINE
8
L1D0
70
1
40
0
41
0
66
1
0
VERTEX
8
L1D0
10
-2.2
20
1.8
0
VERTEX
8
L1D0
10
-2.2
20
2.2
0
VERTEX
8
L1D0
10
-1.8
20
2.2
0
VERTEX
8
L1D0
10
-1.8
20
1.8
0
SEQEND
0
POLYLINE
8
L1D0
70
1
40
0
41
0
66
1
0
VERTEX
8
L1D0
10
-2.2
20
-2.2
0
VERTEX
8
L1D0
10
-2.2
20
-1.8
0
VERTEX
8
L1D0
10
-1.8
20
-1.8
0
VERTEX
8
L1D0
10
-1.8
20
-2.2
0
SEQEND
0
POLYLINE
8
L1D0
70
1
40
0
41
0
66
1
0
VERTEX
8
L1D0
10
1.8
20
-2.2
0
VERTEX
8
L1D0
10
1.8
20
-1.8
0
VERTEX
8
L1D0
10
2.2
20
-1.8
0
VERTEX
8
L1D0
10
2.2
20
-2.2
0
SEQEND
0
POLYLINE
8
L2D0
70
1
40
0
41
0
66
1
0
VERTEX
8
L2D0
10
-0.81
20
-0.595
0
VERTEX
8
L2D0
10
-0.984
20
-0.118
0
VERTEX
8
L2D0
10
-0.844
20
-0.067
0
VERTEX
8
L2D0
10
-0.67
20
-0.544
0
SEQEND
0
POLYLINE
8
L2D0
70
1
40
0
41
0
66
1
0
VERTEX
8
L2D0
10
-0.133
20
-0.861
0
VERTEX
8
L2D0
10
-0.536
20
-0.689
0
VERTEX
8
L2D0
10
-0.477
20
-0.551
0
VERTEX
8
L2D0
10
-0.074
20
-0.723
0
SEQEND
0
POLYLINE
8
L2D0
70
1
40
0
41
0
66
1
0
VERTEX
8
L2D0
10
0.123
20
-1.002
0
VERTEX
8
L2D0
10
0.068
20
-0.862
0
VERTEX
8
L2D0
10
0.551
20
-0.67
0
VERTEX
8
L2D0
10
0.606
20
-0.81
0
SEQEND
0
POLYLINE
8
L2D0
70
1
40
0
41
0
66
1
0
VERTEX
8
L2D0
10
0.696
20
-0.535
0
VERTEX
8
L2D0
10
0.558
20
-0.476
0
VERTEX
8
L2D0
10
0.732
20
-0.071
0
VERTEX
8
L2D0
10
0.87
20
-0.13
0
SEQEND
0
POLYLINE
8
L2D0
70
1
40
0
41
0
66
1
0
VERTEX
8
L2D0
10
0.867
20
0.067
0
VERTEX
8
L2D0
10
0.66
20
0.525
0
VERTEX
8
L2D0
10
0.797
20
0.587
0
VERTEX
8
L2D0
10
1.004
20
0.129
0
SEQEND
0
POLYLINE
8
L2D0
70
1
40
0
41
0
66
1
0
VERTEX
8
L2D0
10
0.466
20
0.541
0
VERTEX
8
L2D0
10
0.065
20
0.706
0
VERTEX
8
L2D0
10
0.122
20
0.845
0
VERTEX
8
L2D0
10
0.523
20
0.68
0
SEQEND
0
POLYLINE
8
L2D0
70
1
40
0
41
0
66
1
0
VERTEX
8
L2D0
10
-0.504
20
0.664
0
VERTEX
8
L2D0
10
-0.559
20
0.804
0
VERTEX
8
L2D0
10
-0.144
20
0.968
0
VERTEX
8
L2D0
10
-0.089
20
0.828
0
SEQEND
0
POLYLINE
8
L2D0
70
1
40
0
41
0
66
1
0
VERTEX
8
L2D0
10
-0.71
20
0.074
0
VERTEX
8
L2D0
10
-0.846
20
0.136
0
VERTEX
8
L2D0
10
-0.666
20
0.534
0
VERTEX
8
L2D0
10
-0.53
20
0.472
0
SEQEND
0
POLYLINE
8
L3D0
70
1
40
0
41
0
66
1
0
VERTEX
8
L3D0
10
-0.989
20
-0.167
0
VERTEX
8
L3D0
10
-0.989
20
-0.017
0
VERTEX
8
L3D0
10
-0.839
20
-0.017
0
VERTEX
8
L3D0
10
-0.839
20
-0.167
0
SEQEND
0
POLYLINE
8
L3D0
70
1
40
0
41
0
66
1
0
VERTEX
8
L3D0
10
-0.815
20
-0.645
0
VERTEX
8
L3D0
10
-0.815
20
-0.495
0
VERTEX
8
L3D0
10
-0.665
20
-0.495
0
VERTEX
8
L3D0
10
-0.665
20
-0.645
0
SEQEND
0
POLYLINE
8
L3D0
70
1
40
0
41
0
66
1
0
VERTEX
8
L3D0
10
-0.582
20
-0.696
0
VERTEX
8
L3D0
10
-0.582
20
-0.546
0
VERTEX
8
L3D0
10
-0.432
20
-0.546
0
VERTEX
8
L3D0
10
-0.432
20
-0.696
0
SEQEND
0
POLYLINE
8
L3D0
70
1
40
0
41
0
66
1
0
VERTEX
8
L3D0
10
-0.179
20
-0.867
0
VERTEX
8
L3D0
10
-0.179
20
-0.717
0
VERTEX
8
L3D0
10
-0.029
20
-0.717
0
VERTEX
8
L3D0
10
-0.029
20
-0.867
0
SEQEND
0
POLYLINE
8
L3D0
70
1
40
0
41
0
66
1
0
VERTEX
8
L3D0
10
0.019
20
-1.007
0
VERTEX
8
L3D0
10
0.019
20
-0.857
0
VERTEX
8
L3D0
10
0.169
20
-0.857
0
VERTEX
8
L3D0
10
0.169
20
-1.007
0
SEQEND
0
POLYLINE
8
L3D0
70
1
40
0
41
0
66
1
0
VERTEX
8
L3D0
10
0.504
20
-0.815
0
VERTEX
8
L3D0
10
0.504
20
-0.665
0
VERTEX
8
L3D0
10
0.654
20
-0.665
0
VERTEX
8
L3D0
10
0.654
20
-0.815
0
SEQEND
0
POLYLINE
8
L3D0
70
1
40
0
41
0
66
1
0
VERTEX
8
L3D0
10
0.552
20
-0.581
0
VERTEX
8
L3D0
10
0.552
20
-0.431
0
VERTEX
8
L3D0
10
0.702
20
-0.431
0
VERTEX
8
L3D0
10
0.702
20
-0.581
0
SEQEND
0
POLYLINE
8
L3D0
70
1
40
0
41
0
66
1
0
VERTEX
8
L3D0
10
0.726
20
-0.176
0
VERTEX
8
L3D0
10
0.726
20
-0.026
0
VERTEX
8
L3D0
10
0.876
20
-0.026
0
VERTEX
8
L3D0
10
0.876
20
-0.176
0
SEQEND
0
POLYLINE
8
L3D0
70
1
40
0
41
0
66
1
0
VERTEX
8
L3D0
10
0.86
20
0.023
0
VERTEX
8
L3D0
10
0.86
20
0.173
0
VERTEX
8
L3D0
10
1.01
20
0.173
0
VERTEX
8
L3D0
10
1.01
20
0.023
0
SEQEND
0
POLYLINE
8
L3D0
70
1
40
0
41
0
66
1
0
VERTEX
8
L3D0
10
0.653
20
0.482
0
VERTEX
8
L3D0
10
0.653
20
0.632
0
VERTEX
8
L3D0
10
0.803
20
0.632
0
VERTEX
8
L3D0
10
0.803
20
0.482
0
SEQEND
0
POLYLINE
8
L3D0
70
1
40
0
41
0
66
1
0
VERTEX
8
L3D0
10
0.42
20
0.535
0
VERTEX
8
L3D0
10
0.42
20
0.685
0
VERTEX
8
L3D0
10
0.57
20
0.685
0
VERTEX
8
L3D0
10
0.57
20
0.535
0
SEQEND
0
POLYLINE
8
L3D0
70
1
40
0
41
0
66
1
0
VERTEX
8
L3D0
10
0.017
20
0.7
0
VERTEX
8
L3D0
10
0.017
20
0.85
0
VERTEX
8
L3D0
10
0.167
20
0.85
0
VERTEX
8
L3D0
10
0.167
20
0.7
0
SEQEND
0
POLYLINE
8
L3D0
70
1
40
0
41
0
66
1
0
VERTEX
8
L3D0
10
-0.191
20
0.823
0
VERTEX
8
L3D0
10
-0.191
20
0.973
0
VERTEX
8
L3D0
10
-0.041
20
0.973
0
VERTEX
8
L3D0
10
-0.041
20
0.823
0
SEQEND
0
POLYLINE
8
L3D0
70
1
40
0
41
0
66
1
0
VERTEX
8
L3D0
10
-0.607
20
0.659
0
VERTEX
8
L3D0
10
-0.607
20
0.809
0
VERTEX
8
L3D0
10
-0.457
20
0.809
0
VERTEX
8
L3D0
10
-0.457
20
0.659
0
SEQEND
0
POLYLINE
8
L3D0
70
1
40
0
41
0
66
1
0
VERTEX
8
L3D0
10
-0.672
20
0.428
0
VERTEX
8
L3D0
10
-0.672
20
0.578
0
VERTEX
8
L3D0
10
-0.522
20
0.578
0
VERTEX
8
L3D0
10
-0.522
20
0.428
0
SEQEND
0
POLYLINE
8
L3D0
70
1
40
0
41
0
66
1
0
VERTEX
8
L3D0
10
-0.853
20
0.029
0
VERTEX
8
L3D0
10
-0.853
20
0.179
0
VERTEX
8
L3D0
10
-0.703
20
0.179
0
VERTEX
8
L3D0
10
-0.703
20
0.029
0
SEQEND
0
POLYLINE
8
L4D0
70
1
40
0
41
0
66
1
0
VERTEX
8
L4D0
10
-2.3
20
-2.3
0
VERTEX
8
L4D0
10
-2.3
20
-1.7
0
VERTEX
8
L4D0
10
1.3
20
-1.7
0
VERTEX
8
L4D0
10
1.3
20
-1.5
0
VERTEX
8
L4D0
10
-1.9
20
-1.5
0
VERTEX
8
L4D0
10
-1.9
20
1.7
0
VERTEX
8
L4D0
10
-2.3
20
1.7
0
VERTEX
8
L4D0
10
-2.3
20
2.3
0
VERTEX
8
L4D0
10
-1.7
20
2.3
0
VERTEX
8
L4D0
10
-1.7
20
-1.3
0
VERTEX
8
L4D0
10
-1.5
20
-1.3
0
VERTEX
8
L4D0
10
-1.5
20
1.9
0
VERTEX
8
L4D0
10
1.7
20
1.9
0
VERTEX
8
L4D0
10
1.7
20
2.3
0
VERTEX
8
L4D0
10
2.3
20
2.3
0
VERTEX
8
L4D0
10
2.3
20
1.7
0
VERTEX
8
L4D0
10
-1.3
20
1.7
0
VERTEX
8
L4D0
10
-1.3
20
1.5
0
VERTEX
8
L4D0
10
1.9
20
1.5
0
VERTEX
8
L4D0
10
1.9
20
-1.7
0
VERTEX
8
L4D0
10
2.3
20
-1.7
0
VERTEX
8
L4D0
10
2.3
20
-2.3
0
VERTEX
8
L4D0
10
1.7
20
-2.3
0
VERTEX
8
L4D0
10
1.7
20
1.3
0
VERTEX
8
L4D0
10
1.5
20
1.3
0
VERTEX
8
L4D0
10
1.5
20
-1.9
0
VERTEX
8
L4D0
10
-1.7
20
-1.9
0
VERTEX
8
L4D0
10
-1.7
20
-2.3
0
SEQEND
0
POLYLINE
8
L5D0
70
1
40
0
41
0
66
1
0
VERTEX
8
L5D0
10
-0.05
20
-0.05
0
VERTEX
8
L5D0
10
-0.05
20
0.05
0
VERTEX
8
L5D0
10
0.05
20
0.05
0
VERTEX
8
L5D0
10
0.05
20
-0.05
0
SEQEND
0
POLYLINE
8
L5D0
70
1
40
0
41
0
66
1
0
VERTEX
8
L5D0
10
0.535
20
-0.05
0
VERTEX
8
L5D0
10
0.535
20
0.05
0
VERTEX
8
L5D0
10
0.635
20
0.05
0
VERTEX
8
L5D0
10
0.635
20
-0.05
0
SEQEND
0
POLYLINE
8
L5D0
70
1
40
0
41
0
66
1
0
VERTEX
8
L5D0
10
0.363
20
0.363
0
VERTEX
8
L5D0
10
0.363
20
0.463
0
VERTEX
8
L5D0
10
0.463
20
0.463
0
VERTEX
8
L5D0
10
0.463
20
0.363
0
SEQEND
0
POLYLINE
8
L5D0
70
1
40
0
41
0
66
1
0
VERTEX
8
L5D0
10
-0.05
20
0.535
0
VERTEX
8
L5D0
10
-0.05
20
0.635
0
VERTEX
8
L5D0
10
0.05
20
0.635
0
VERTEX
8
L5D0
10
0.05
20
0.535
0
SEQEND
0
POLYLINE
8
L5D0
70
1
40
0
41
0
66
1
0
VERTEX
8
L5D0
10
-0.463
20
0.363
0
VERTEX
8
L5D0
10
-0.463
20
0.463
0
VERTEX
8
L5D0
10
-0.363
20
0.463
0
VERTEX
8
L5D0
10
-0.363
20
0.363
0
SEQEND
0
POLYLINE
8
L5D0
70
1
40
0
41
0
66
1
0
VERTEX
8
L5D0
10
-0.635
20
-0.05
0
VERTEX
8
L5D0
10
-0.635
20
0.05
0
VERTEX
8
L5D0
10
-0.535
20
0.05
0
VERTEX
8
L5D0
10
-0.535
20
-0.05
0
SEQEND
0
POLYLINE
8
L5D0
70
1
40
0
41
0
66
1
0
VERTEX
8
L5D0
10
-0.463
20
-0.463
0
VERTEX
8
L5D0
10
-0.463
20
-0.363
0
VERTEX
8
L5D0
10
-0.363
20
-0.363
0
VERTEX
8
L5D0
10
-0.363
20
-0.463
0
SEQEND
0
POLYLINE
8
L5D0
70
1
40
0
41
0
66
1
0
VERTEX
8
L5D0
10
-0.05
20
-0.635
0
VERTEX
8
L5D0
10
-0.05
20
-0.535
0
VERTEX
8
L5D0
10
0.05
20
-0.535
0
VERTEX
8
L5D0
10
0.05
20
-0.635
0
SEQEND
0
POLYLINE
8
L5D0
70
1
40
0
41
0
66
1
0
VERTEX
8
L5D0
10
0.363
20
-0.463
0
VERTEX
8
L5D0
10
0.363
20
-0.363
0
VERTEX
8
L5D0
10
0.463
20
-0.363
0
VERTEX
8
L5D0
10
0.463
20
-0.463
0
SEQEND
0
POLYLINE
8
L5D0
70
1
40
0
41
0
66
1
0
VERTEX
8
L5D0
10
1.12
20
-0.05
0
VERTEX
8
L5D0
10
1.12
20
0.05
0
VERTEX
8
L5D0
10
1.22
20
0.05
0
VERTEX
8
L5D0
10
1.22
20
-0.05
0
SEQEND
0
POLYLINE
8
L5D0
70
1
40
0
41
0
66
1
0
VERTEX
8
L5D0
10
1.03
20
0.397
0
VERTEX
8
L5D0
10
1.03
20
0.497
0
VERTEX
8
L5D0
10
1.13
20
0.497
0
VERTEX
8
L5D0
10
1.13
20
0.397
0
SEQEND
0
POLYLINE
8
L5D0
70
1
40
0
41
0
66
1
0
VERTEX
8
L5D0
10
0.777
20
0.777
0
VERTEX
8
L5D0
10
0.777
20
0.877
0
VERTEX
8
L5D0
10
0.877
20
0.877
0
VERTEX
8
L5D0
10
0.877
20
0.777
0
SEQEND
0
POLYLINE
8
L5D0
70
1
40
0
41
0
66
1
0
VERTEX
8
L5D0
10
0.397
20
1.03
0
VERTEX
8
L5D0
10
0.397
20
1.13
0
VERTEX
8
L5D0
10
0.497
20
1.13
0
VERTEX
8
L5D0
10
0.497
20
1.03
0
SEQEND
0
POLYLINE
8
L5D0
70
1
40
0
41
0
66
1
0
VERTEX
8
L5D0
10
-0.05
20
1.12
0
VERTEX
8
L5D0
10
-0.05
20
1.22
0
VERTEX
8
L5D0
10
0.05
20
1.22
0
VERTEX
8
L5D0
10
0.05
20
1.12
0
SEQEND
0
POLYLINE
8
L5D0
70
1
40
0
41
0
66
1
0
VERTEX
8
L5D0
10
-0.497
20
1.03
0
VERTEX
8
L5D0
10
-0.497
20
1.13
0
VERTEX
8
L5D0
10
-0.397
20
1.13
0
VERTEX
8
L5D0
10
-0.397
20
1.03
0
SEQEND
0
POLYLINE
8
L5D0
70
1
40
0
41
0
66
1
0
VERTEX
8
L5D0
10
-0.877
20
0.777
0
VERTEX
8
L5D0
10
-0.877
20
0.877
0
VERTEX
8
L5D0
10
-0.777
20
0.877
0
VERTEX
8
L5D0
10
-0.777
20
0.777
0
SEQEND
0
POLYLINE
8
L5D0
70
1
40
0
41
0
66
1
0
VERTEX
8
L5D0
10
-1.13
20
0.397
0
VERTEX
8
L5D0
10
-1.13
20
0.497
0
VERTEX
8
L5D0
10
-1.03
20
0.497
0
VERTEX
8
L5D0
10
-1.03
20
0.397
0
SEQEND
0
POLYLINE
8
L5D0
70
1
40
0
41
0
66
1
0
VERTEX
8
L5D0
10
-1.22
20
-0.05
0
VERTEX
8
L5D0
10
-1.22
20
0.05
0
VERTEX
8
L5D0
10
-1.12
20
0.05
0
VERTEX
8
L5D0
10
-1.12
20
-0.05
0
SEQEND
0
POLYLINE
8
L5D0
70
1
40
0
41
0
66
1
0
VERTEX
8
L5D0
10
-1.13
20
-0.497
0
VERTEX
8
L5D0
10
-1.13
20
-0.397
0
VERTEX
8
L5D0
10
-1.03
20
-0.397
0
VERTEX
8
L5D0
10
-1.03
20
-0.497
0
SEQEND
0
POLYLINE
8
L5D0
70
1
40
0
41
0
66
1
0
VERTEX
8
L5D0
10
-0.877
20
-0.877
0
VERTEX
8
L5D0
10
-0.877
20
-0.777
0
VERTEX
8
L5D0
10
-0.777
20
-0.777
0
VERTEX
8
L5D0
10
-0.777
20
-0.877
0
SEQEND
0
POLYLINE
8
L5D0
70
1
40
0
41
0
66
1
0
VERTEX
8
L5D0
10
-0.497
20
-1.13
0
VERTEX
8
L5D0
10
-0.497
20
-1.03
0
VERTEX
8
L5D0
10
-0.397
20
-1.03
0
VERTEX
8
L5D0
10
-0.397
20
-1.13
0
SEQEND
0
POLYLINE
8
L5D0
70
1
40
0
41
0
66
1
0
VERTEX
8
L5D0
10
-0.05
20
-1.22
0
VERTEX
8
L5D0
10
-0.05
20
-1.12
0
VERTEX
8
L5D0
10
0.05
20
-1.12
0
VERTEX
8
L5D0
10
0.05
20
-1.22
0
SEQEND
0
POLYLINE
8
L5D0
70
1
40
0
41
0
66
1
0
VERTEX
8
L5D0
10
0.397
20
-1.13
0
VERTEX
8
L5D0
10
0.397
20
-1.03
0
VERTEX
8
L5D0
10
0.497
20
-1.03
0
VERTEX
8
L5D0
10
0.497
20
-1.13
0
SEQEND
0
POLYLINE
8
L5D0
70
1
40
0
41
0
66
1
0
VERTEX
8
L5D0
10
0.777
20
-0.877
0
VERTEX
8
L5D0
10
0.777
20
-0.777
0
VERTEX
8
L5D0
10
0.877
20
-0.777
0
VERTEX
8
L5D0
10
0.877
20
-0.877
0
SEQEND
0
POLYLINE
8
L5D0
70
1
40
0
41
0
66
1
0
VERTEX
8
L5D0
10
1.03
20
-0.497
0
VERTEX
8
L5D0
10
1.03
20
-0.397
0
VERTEX
8
L5D0
10
1.13
20
-0.397
0
VERTEX
8
L5D0
10
1.13
20
-0.497
0
SEQEND
0
POLYLINE
8
L5D0
70
1
40
0
41
0
66
1
0
VERTEX
8
L5D0
10
1.19
20
1.19
0
VERTEX
8
L5D0
10
1.19
20
1.29
0
VERTEX
8
L5D0
10
1.29
20
1.29
0
VERTEX
8
L5D0
10
1.29
20
1.19
0
SEQEND
0
POLYLINE
8
L5D0
70
1
40
0
41
0
66
1
0
VERTEX
8
L5D0
10
-1.29
20
1.19
0
VERTEX
8
L5D0
10
-1.29
20
1.29
0
VERTEX
8
L5D0
10
-1.19
20
1.29
0
VERTEX
8
L5D0
10
-1.19
20
1.19
0
SEQEND
0
POLYLINE
8
L5D0
70
1
40
0
41
0
66
1
0
VERTEX
8
L5D0
10
-1.29
20
-1.29
0
VERTEX
8
L5D0
10
-1.29
20
-1.19
0
VERTEX
8
L5D0
10
-1.19
20
-1.19
0
VERTEX
8
L5D0
10
-1.19
20
-1.29
0
SEQEND
0
POLYLINE
8
L5D0
70
1
40
0
41
0
66
1
0
VERTEX
8
L5D0
10
1.19
20
-1.29
0
VERTEX
8
L5D0
10
1.19
20
-1.19
0
VERTEX
8
L5D0
10
1.29
20
-1.19
0
VERTEX
8
L5D0
10
1.29
20
-1.29
0
SEQEND
0
POLYLINE
8
L6D0
70
1
40
0
41
0
66
1
0
VERTEX
8
L6D0
10
1.8
20
1.8
0
VERTEX
8
L6D0
10
1.8
20
2.2
0
VERTEX
8
L6D0
10
2.2
20
2.2
0
VERTEX
8
L6D0
10
2.2
20
1.8
0
SEQEND
0
POLYLINE
8
L6D0
70
1
40
0
41
0
66
1
0
VERTEX
8
L6D0
10
-2.2
20
1.8
0
VERTEX
8
L6D0
10
-2.2
20
2.2
0
VERTEX
8
L6D0
10
-1.8
20
2.2
0
VERTEX
8
L6D0
10
-1.8
20
1.8
0
SEQEND
0
POLYLINE
8
L6D0
70
1
40
0
41
0
66
1
0
VERTEX
8
L6D0
10
-2.2
20
-2.2
0
VERTEX
8
L6D0
10
-2.2
20
-1.8
0
VERTEX
8
L6D0
10
-1.8
20
-1.8
0
VERTEX
8
L6D0
10
-1.8
20
-2.2
0
SEQEND
0
POLYLINE
8
L6D0
70
1
40
0
41
0
66
1
0
VERTEX
8
L6D0
10
1.8
20
-2.2
0
VERTEX
8
L6D0
10
1.8
20
-1.8
0
VERTEX
8
L6D0
10
2.2
20
-1.8
0
VERTEX
8
L6D0
10
2.2
20
-2.2
0
SEQEND
0
POLYLINE
8
L6D0
70
1
40
0
41
0
66
1
0
VERTEX
8
L6D0
10
-1.5
20
-1.5
0
VERTEX
8
L6D0
10
-1.5
20
1.5
0
VERTEX
8
L6D0
10
1.5
20
1.5
0
VERTEX
8
L6D0
10
1.5
20
-1.5
0
SEQEND
0
POLYLINE
8
L7D0
70
1
40
0
41
0
66
1
0
VERTEX
8
L7D0
10
-1.039
20
-0.217
0
VERTEX
8
L7D0
10
-1.039
20
0.033
0
VERTEX
8
L7D0
10
-0.789
20
0.033
0
VERTEX
8
L7D0
10
-0.789
20
-0.217
0
SEQEND
0
POLYLINE
8
L7D0
70
1
40
0
41
0
66
1
0
VERTEX
8
L7D0
10
-0.865
20
-0.695
0
VERTEX
8
L7D0
10
-0.865
20
-0.445
0
VERTEX
8
L7D0
10
-0.615
20
-0.445
0
VERTEX
8
L7D0
10
-0.615
20
-0.695
0
SEQEND
0
POLYLINE
8
L7D0
70
1
40
0
41
0
66
1
0
VERTEX
8
L7D0
10
-0.632
20
-0.746
0
VERTEX
8
L7D0
10
-0.632
20
-0.496
0
VERTEX
8
L7D0
10
-0.382
20
-0.496
0
VERTEX
8
L7D0
10
-0.382
20
-0.746
0
SEQEND
0
POLYLINE
8
L7D0
70
1
40
0
41
0
66
1
0
VERTEX
8
L7D0
10
-0.229
20
-0.917
0
VERTEX
8
L7D0
10
-0.229
20
-0.667
0
VERTEX
8
L7D0
10
0.021
20
-0.667
0
VERTEX
8
L7D0
10
0.021
20
-0.917
0
SEQEND
0
POLYLINE
8
L7D0
70
1
40
0
41
0
66
1
0
VERTEX
8
L7D0
10
-0.031
20
-1.057
0
VERTEX
8
L7D0
10
-0.031
20
-0.807
0
VERTEX
8
L7D0
10
0.219
20
-0.807
0
VERTEX
8
L7D0
10
0.219
20
-1.057
0
SEQEND
0
POLYLINE
8
L7D0
70
1
40
0
41
0
66
1
0
VERTEX
8
L7D0
10
0.454
20
-0.865
0
VERTEX
8
L7D0
10
0.454
20
-0.615
0
VERTEX
8
L7D0
10
0.704
20
-0.615
0
VERTEX
8
L7D0
10
0.704
20
-0.865
0
SEQEND
0
POLYLINE
8
L7D0
70
1
40
0
41
0
66
1
0
VERTEX
8
L7D0
10
0.502
20
-0.631
0
VERTEX
8
L7D0
10
0.502
20
-0.381
0
VERTEX
8
L7D0
10
0.752
20
-0.381
0
VERTEX
8
L7D0
10
0.752
20
-0.631
0
SEQEND
0
POLYLINE
8
L7D0
70
1
40
0
41
0
66
1
0
VERTEX
8
L7D0
10
0.676
20
-0.226
0
VERTEX
8
L7D0
10
0.676
20
0.024
0
VERTEX
8
L7D0
10
0.926
20
0.024
0
VERTEX
8
L7D0
10
0.926
20
-0.226
0
SEQEND
0
POLYLINE
8
L7D0
70
1
40
0
41
0
66
1
0
VERTEX
8
L7D0
10
0.81
20
-0.027
0
VERTEX
8
L7D0
10
0.81
20
0.223
0
VERTEX
8
L7D0
10
1.06
20
0.223
0
VERTEX
8
L7D0
10
1.06
20
-0.027
0
SEQEND
0
POLYLINE
8
L7D0
70
1
40
0
41
0
66
1
0
VERTEX
8
L7D0
10
0.603
20
0.432
0
VERTEX
8
L7D0
10
0.603
20
0.682
0
VERTEX
8
L7D0
10
0.853
20
0.682
0
VERTEX
8
L7D0
10
0.853
20
0.432
0
SEQEND
0
POLYLINE
8
L7D0
70
1
40
0
41
0
66
1
0
VERTEX
8
L7D0
10
0.37
20
0.485
0
VERTEX
8
L7D0
10
0.37
20
0.735
0
VERTEX
8
L7D0
10
0.62
20
0.735
0
VERTEX
8
L7D0
10
0.62
20
0.485
0
SEQEND
0
POLYLINE
8
L7D0
70
1
40
0
41
0
66
1
0
VERTEX
8
L7D0
10
-0.033
20
0.65
0
VERTEX
8
L7D0
10
-0.033
20
0.9
0
VERTEX
8
L7D0
10
0.217
20
0.9
0
VERTEX
8
L7D0
10
0.217
20
0.65
0
SEQEND
0
POLYLINE
8
L7D0
70
1
40
0
41
0
66
1
0
VERTEX
8
L7D0
10
-0.241
20
0.773
0
VERTEX
8
L7D0
10
-0.241
20
1.023
0
VERTEX
8
L7D0
10
0.009
20
1.023
0
VERTEX
8
L7D0
10
0.009
20
0.773
0
SEQEND
0
POLYLINE
8
L7D0
70
1
40
0
41
0
66
1
0
VERTEX
8
L7D0
10
-0.657
20
0.609
0
VERTEX
8
L7D0
10
-0.657
20
0.859
0
VERTEX
8
L7D0
10
-0.407
20
0.859
0
VERTEX
8
L7D0
10
-0.407
20
0.609
0
SEQEND
0
POLYLINE
8
L7D0
70
1
40
0
41
0
66
1
0
VERTEX
8
L7D0
10
-0.722
20
0.378
0
VERTEX
8
L7D0
10
-0.722
20
0.628
0
VERTEX
8
L7D0
10
-0.472
20
0.628
0
VERTEX
8
L7D0
10
-0.472
20
0.378
0
SEQEND
0
POLYLINE
8
L7D0
70
1
40
0
41
0
66
1
0
VERTEX
8
L7D0
10
-0.903
20
-0.021
0
VERTEX
8
L7D0
10
-0.903
20
0.229
0
VERTEX
8
L7D0
10
-0.653
20
0.229
0
VERTEX
8
L7D0
10
-0.653
20
-0.021
0
SEQEND
0
POLYLINE
8
L8D0
70
1
40
0
41
0
66
1
0
VERTEX
8
L8D0
10
-0.989
20
-0.167
0
VERTEX
8
L8D0
10
-0.989
20
-0.017
0
VERTEX
8
L8D0
10
-0.839
20
-0.017
0
VERTEX
8
L8D0
10
-0.839
20
-0.167
0
SEQEND
0
POLYLINE
8
L8D0
70
1
40
0
41
0
66
1
0
VERTEX
8
L8D0
10
-0.815
20
-0.645
0
VERTEX
8
L8D0
10
-0.815
20
-0.495
0
VERTEX
8
L8D0
10
-0.665
20
-0.495
0
VERTEX
8
L8D0
10
-0.665
20
-0.645
0
SEQEND
0
POLYLINE
8
L8D0
70
1
40
0
41
0
66
1
0
VERTEX
8
L8D0
10
-0.582
20
-0.696
0
VERTEX
8
L8D0
10
-0.582
20
-0.546
0
VERTEX
8
L8D0
10
-0.432
20
-0.546
0
VERTEX
8
L8D0
10
-0.432
20
-0.696
0
SEQEND
0
POLYLINE
8
L8D0
70
1
40
0
41
0
66
1
0
VERTEX
8
L8D0
10
-0.179
20
-0.867
0
VERTEX
8
L8D0
10
-0.179
20
-0.717
0
VERTEX
8
L8D0
10
-0.029
20
-0.717
0
VERTEX
8
L8D0
10
-0.029
20
-0.867
0
SEQEND
0
POLYLINE
8
L8D0
70
1
40
0
41
0
66
1
0
VERTEX
8
L8D0
10
0.019
20
-1.007
0
VERTEX
8
L8D0
10
0.019
20
-0.857
0
VERTEX
8
L8D0
10
0.169
20
-0.857
0
VERTEX
8
L8D0
10
0.169
20
-1.007
0
SEQEND
0
POLYLINE
8
L8D0
70
1
40
0
41
0
66
1
0
VERTEX
8
L8D0
10
0.504
20
-0.815
0
VERTEX
8
L8D0
10
0.504
20
-0.665
0
VERTEX
8
L8D0
10
0.654
20
-0.665
0
VERTEX
8
L8D0
10
0.654
20
-0.815
0
SEQEND
0
POLYLINE
8
L8D0
70
1
40
0
41
0
66
1
0
VERTEX
8
L8D0
10
0.552
20
-0.581
0
VERTEX
8
L8D0
10
0.552
20
-0.431
0
VERTEX
8
L8D0
10
0.702
20
-0.431
0
VERTEX
8
L8D0
10
0.702
20
-0.581
0
SEQEND
0
POLYLINE
8
L8D0
70
1
40
0
41
0
66
1
0
VERTEX
8
L8D0
10
0.726
20
-0.176
0
VERTEX
8
L8D0
10
0.726
20
-0.026
0
VERTEX
8
L8D0
10
0.876
20
-0.026
0
VERTEX
8
L8D0
10
0.876
20
-0.176
0
SEQEND
0
POLYLINE
8
L8D0
70
1
40
0
41
0
66
1
0
VERTEX
8
L8D0
10
0.86
20
0.023
0
VERTEX
8
L8D0
10
0.86
20
0.173
0
VERTEX
8
L8D0
10
1.01
20
0.173
0
VERTEX
8
L8D0
10
1.01
20
0.023
0
SEQEND
0
POLYLINE
8
L8D0
70
1
40
0
41
0
66
1
0
VERTEX
8
L8D0
10
0.653
20
0.482
0
VERTEX
8
L8D0
10
0.653
20
0.632
0
VERTEX
8
L8D0
10
0.803
20
0.632
0
VERTEX
8
L8D0
10
0.803
20
0.482
0
SEQEND
0
POLYLINE
8
L8D0
70
1
40
0
41
0
66
1
0
VERTEX
8
L8D0
10
0.42
20
0.535
0
VERTEX
8
L8D0
10
0.42
20
0.685
0
VERTEX
8
L8D0
10
0.57
20
0.685
0
VERTEX
8
L8D0
10
0.57
20
0.535
0
SEQEND
0
POLYLINE
8
L8D0
70
1
40
0
41
0
66
1
0
VERTEX
8
L8D0
10
0.017
20
0.7
0
VERTEX
8
L8D0
10
0.017
20
0.85
0
VERTEX
8
L8D0
10
0.167
20
0.85
0
VERTEX
8
L8D0
10
0.167
20
0.7
0
SEQEND
0
POLYLINE
8
L8D0
70
1
40
0
41
0
66
1
0
VERTEX
8
L8D0
10
-0.191
20
0.823
0
VERTEX
8
L8D0
10
-0.191
20
0.973
0
VERTEX
8
L8D0
10
-0.041
20
0.973
0
VERTEX
8
L8D0
10
-0.041
20
0.823
0
SEQEND
0
POLYLINE
8
L8D0
70
1
40
0
41
0
66
1
0
VERTEX
8
L8D0
10
-0.607
20
0.659
0
VERTEX
8
L8D0
10
-0.607
20
0.809
0
VERTEX
8
L8D0
10
-0.457
20
0.809
0
VERTEX
8
L8D0
10
-0.457
20
0.659
0
SEQEND
0
POLYLINE
8
L8D0
70
1
40
0
41
0
66
1
0
VERTEX
8
L8D0
10
-0.672
20
0.428
0
VERTEX
8
L8D0
10
-0.672
20
0.578
0
VERTEX
8
L8D0
10
-0.522
20
0.578
0
VERTEX
8
L8D0
10
-0.522
20
0.428
0
SEQEND
0
POLYLINE
8
L8D0
70
1
40
0
41
0
66
1
0
VERTEX
8
L8D0
10
-0.853
20
0.029
0
VERTEX
8
L8D0
10
-0.853
20
0.179
0
VERTEX
8
L8D0
10
-0.703
20
0.179
0
VERTEX
8
L8D0
10
-0.703
20
0.029
0
SEQEND
0
ENDSEC
0
EOF
