0
SECTION
2
HEADER
9
$ACADVER
1
AC1006
0
ENDSEC
0
SECTION
2
TABLES
0
TABLE
2
LAYER
70
8
0
LAYER
70
0
62
1
6
CONTINUOUS
2
L1D0
0
LAYER
70
0
62
2
6
CONTINUOUS
2
L2D0
0
LAYER
70
0
62
3
6
CONTINUOUS
2
L3D0
0
LAYER
70
0
62
4
6
CONTINUOUS
2
L4D0
0
LAYER
70
0
62
5
6
CONTINUOUS
2
L5D0
0
LAYER
70
0
62
6
6
CONTINUOUS
2
L6D0
0
LAYER
70
0
62
7
6
CONTINUOUS
2
L7D0
0
LAYER
70
0
62
8
6
CONTINUOUS
2
L8D0
0
ENDTAB
0
ENDSEC
0
SECTION
2
BLOCKS
0
ENDSEC
0
SECTION
2
ENTITIES
0
POLYLINE
8
L1D0
70
1
40
0
41
0
66
1
0
VERTEX
8
L1D0
10
1.8
20
1.8
0
VERTEX
8
L1D0
10
1.8
20
2.2
0
VERTEX
8
L1D0
10
2.2
20
2.2
0
VERTEX
8
L1D0
10
2.2
20
1.8
0
SEQEND
0
POLYLINE
8
L1D0
70
1
40
0
41
0
66
1
0
VERTEX
8
L1D0
10
-2.2
20
1.8
0
VERTEX
8
L1D0
10
-2.2
20
2.2
0
VERTEX
8
L1D0
10
-1.8
20
2.2
0
VERTEX
8
L1D0
10
-1.8
20
1.8
0
SEQEND
0
POLYLINE
8
L1D0
70
1
40
0
41
0
66
1
0
VERTEX
8
L1D0
10
-2.2
20
-2.2
0
VERTEX
8
L1D0
10
-2.2
20
-1.8
0
VERTEX
8
L1D0
10
-1.8
20
-1.8
0
VERTEX
8
L1D0
10
-1.8
20
-2.2
0
SEQEND
0
POLYLINE
8
L1D0
70
1
40
0
41
0
66
1
0
VERTEX
8
L1D0
10
1.8
20
-2.2
0
VERTEX
8
L1D0
10
1.8
20
-1.8
0
VERTEX
8
L1D0
10
2.2
20
-1.8
0
VERTEX
8
L1D0
10
2.2
20
-2.2
0
SEQEND
0
POLYLINE
8
L2D0
70
1
40
0
41
0
66
1
0
VERTEX
8
L2D0
10
-0.796
20
-0.685
0
VERTEX
8
L2D0
10
-1.072
20
-0.077
0
VERTEX
8
L2D0
10
-0.936
20
-0.015
0
VERTEX
8
L2D0
10
-0.66
20
-0.623
0
SEQEND
0
POLYLINE
8
L2D0
70
1
40
0
41
0
66
1
0
VERTEX
8
L2D0
10
-0.122
20
-0.846
0
VERTEX
8
L2D0
10
-0.513
20
-0.677
0
VERTEX
8
L2D0
10
-0.454
20
-0.54
0
VERTEX
8
L2D0
10
-0.063
20
-0.709
0
SEQEND
0
POLYLINE
8
L2D0
70
1
40
0
41
0
66
1
0
VERTEX
8
L2D0
10
0.069
20
-1.054
0
VERTEX
8
L2D0
10
0.01
20
-0.916
0
VERTEX
8
L2D0
10
0.617
20
-0.652
0
VERTEX
8
L2D0
10
0.676
20
-0.79
0
SEQEND
0
POLYLINE
8
L2D0
70
1
40
0
41
0
66
1
0
VERTEX
8
L2D0
10
0.682
20
-0.513
0
VERTEX
8
L2D0
10
0.545
20
-0.452
0
VERTEX
8
L2D0
10
0.72
20
-0.059
0
VERTEX
8
L2D0
10
0.857
20
-0.12
0
SEQEND
0
POLYLINE
8
L2D0
70
1
40
0
41
0
66
1
0
VERTEX
8
L2D0
10
0.929
20
0.013
0
VERTEX
8
L2D0
10
0.677
20
0.619
0
VERTEX
8
L2D0
10
0.815
20
0.677
0
VERTEX
8
L2D0
10
1.067
20
0.071
0
SEQEND
0
POLYLINE
8
L2D0
70
1
40
0
41
0
66
1
0
VERTEX
8
L2D0
10
0.475
20
0.535
0
VERTEX
8
L2D0
10
0.086
20
0.683
0
VERTEX
8
L2D0
10
0.139
20
0.823
0
VERTEX
8
L2D0
10
0.528
20
0.675
0
SEQEND
0
POLYLINE
8
L2D0
70
1
40
0
41
0
66
1
0
VERTEX
8
L2D0
10
-0.61
20
0.633
0
VERTEX
8
L2D0
10
-0.669
20
0.771
0
VERTEX
8
L2D0
10
-0.056
20
1.033
0
VERTEX
8
L2D0
10
0.003
20
0.895
0
SEQEND
0
POLYLINE
8
L2D0
70
1
40
0
41
0
66
1
0
VERTEX
8
L2D0
10
-0.724
20
0.045
0
VERTEX
8
L2D0
10
-0.859
20
0.11
0
VERTEX
8
L2D0
10
-0.672
20
0.493
0
VERTEX
8
L2D0
10
-0.537
20
0.428
0
SEQEND
0
POLYLINE
8
L3D0
70
1
40
0
41
0
66
1
0
VERTEX
8
L3D0
10
-1.079
20
-0.12
0
VERTEX
8
L3D0
10
-1.079
20
0.03
0
VERTEX
8
L3D0
10
-0.929
20
0.03
0
VERTEX
8
L3D0
10
-0.929
20
-0.12
0
SEQEND
0
POLYLINE
8
L3D0
70
1
40
0
41
0
66
1
0
VERTEX
8
L3D0
10
-0.802
20
-0.73
0
VERTEX
8
L3D0
10
-0.802
20
-0.58
0
VERTEX
8
L3D0
10
-0.652
20
-0.58
0
VERTEX
8
L3D0
10
-0.652
20
-0.73
0
SEQEND
0
POLYLINE
8
L3D0
70
1
40
0
41
0
66
1
0
VERTEX
8
L3D0
10
-0.559
20
-0.684
0
VERTEX
8
L3D0
10
-0.559
20
-0.534
0
VERTEX
8
L3D0
10
-0.409
20
-0.534
0
VERTEX
8
L3D0
10
-0.409
20
-0.684
0
SEQEND
0
POLYLINE
8
L3D0
70
1
40
0
41
0
66
1
0
VERTEX
8
L3D0
10
-0.166
20
-0.853
0
VERTEX
8
L3D0
10
-0.166
20
-0.703
0
VERTEX
8
L3D0
10
-0.016
20
-0.703
0
VERTEX
8
L3D0
10
-0.016
20
-0.853
0
SEQEND
0
POLYLINE
8
L3D0
70
1
40
0
41
0
66
1
0
VERTEX
8
L3D0
10
-0.036
20
-1.06
0
VERTEX
8
L3D0
10
-0.036
20
-0.91
0
VERTEX
8
L3D0
10
0.114
20
-0.91
0
VERTEX
8
L3D0
10
0.114
20
-1.06
0
SEQEND
0
POLYLINE
8
L3D0
70
1
40
0
41
0
66
1
0
VERTEX
8
L3D0
10
0.573
20
-0.795
0
VERTEX
8
L3D0
10
0.573
20
-0.645
0
VERTEX
8
L3D0
10
0.723
20
-0.645
0
VERTEX
8
L3D0
10
0.723
20
-0.795
0
SEQEND
0
POLYLINE
8
L3D0
70
1
40
0
41
0
66
1
0
VERTEX
8
L3D0
10
0.538
20
-0.558
0
VERTEX
8
L3D0
10
0.538
20
-0.408
0
VERTEX
8
L3D0
10
0.688
20
-0.408
0
VERTEX
8
L3D0
10
0.688
20
-0.558
0
SEQEND
0
POLYLINE
8
L3D0
70
1
40
0
41
0
66
1
0
VERTEX
8
L3D0
10
0.714
20
-0.164
0
VERTEX
8
L3D0
10
0.714
20
-0.014
0
VERTEX
8
L3D0
10
0.864
20
-0.014
0
VERTEX
8
L3D0
10
0.864
20
-0.164
0
SEQEND
0
POLYLINE
8
L3D0
70
1
40
0
41
0
66
1
0
VERTEX
8
L3D0
10
0.923
20
-0.033
0
VERTEX
8
L3D0
10
0.923
20
0.117
0
VERTEX
8
L3D0
10
1.073
20
0.117
0
VERTEX
8
L3D0
10
1.073
20
-0.033
0
SEQEND
0
POLYLINE
8
L3D0
70
1
40
0
41
0
66
1
0
VERTEX
8
L3D0
10
0.671
20
0.573
0
VERTEX
8
L3D0
10
0.671
20
0.723
0
VERTEX
8
L3D0
10
0.821
20
0.723
0
VERTEX
8
L3D0
10
0.821
20
0.573
0
SEQEND
0
POLYLINE
8
L3D0
70
1
40
0
41
0
66
1
0
VERTEX
8
L3D0
10
0.427
20
0.529
0
VERTEX
8
L3D0
10
0.427
20
0.679
0
VERTEX
8
L3D0
10
0.577
20
0.679
0
VERTEX
8
L3D0
10
0.577
20
0.529
0
SEQEND
0
POLYLINE
8
L3D0
70
1
40
0
41
0
66
1
0
VERTEX
8
L3D0
10
0.038
20
0.678
0
VERTEX
8
L3D0
10
0.038
20
0.828
0
VERTEX
8
L3D0
10
0.188
20
0.828
0
VERTEX
8
L3D0
10
0.188
20
0.678
0
SEQEND
0
POLYLINE
8
L3D0
70
1
40
0
41
0
66
1
0
VERTEX
8
L3D0
10
-0.101
20
0.889
0
VERTEX
8
L3D0
10
-0.101
20
1.039
0
VERTEX
8
L3D0
10
0.049
20
1.039
0
VERTEX
8
L3D0
10
0.049
20
0.889
0
SEQEND
0
POLYLINE
8
L3D0
70
1
40
0
41
0
66
1
0
VERTEX
8
L3D0
10
-0.715
20
0.627
0
VERTEX
8
L3D0
10
-0.715
20
0.777
0
VERTEX
8
L3D0
10
-0.565
20
0.777
0
VERTEX
8
L3D0
10
-0.565
20
0.627
0
SEQEND
0
POLYLINE
8
L3D0
70
1
40
0
41
0
66
1
0
VERTEX
8
L3D0
10
-0.679
20
0.386
0
VERTEX
8
L3D0
10
-0.679
20
0.536
0
VERTEX
8
L3D0
10
-0.529
20
0.536
0
VERTEX
8
L3D0
10
-0.529
20
0.386
0
SEQEND
0
POLYLINE
8
L3D0
70
1
40
0
41
0
66
1
0
VERTEX
8
L3D0
10
-0.866
20
0.002
0
VERTEX
8
L3D0
10
-0.866
20
0.152
0
VERTEX
8
L3D0
10
-0.716
20
0.152
0
VERTEX
8
L3D0
10
-0.716
20
0.002
0
SEQEND
0
POLYLINE
8
L4D0
70
1
40
0
41
0
66
1
0
VERTEX
8
L4D0
10
-2.3
20
-2.3
0
VERTEX
8
L4D0
10
-2.3
20
-1.7
0
VERTEX
8
L4D0
10
1.3
20
-1.7
0
VERTEX
8
L4D0
10
1.3
20
-1.5
0
VERTEX
8
L4D0
10
-1.9
20
-1.5
0
VERTEX
8
L4D0
10
-1.9
20
1.7
0
VERTEX
8
L4D0
10
-2.3
20
1.7
0
VERTEX
8
L4D0
10
-2.3
20
2.3
0
VERTEX
8
L4D0
10
-1.7
20
2.3
0
VERTEX
8
L4D0
10
-1.7
20
-1.3
0
VERTEX
8
L4D0
10
-1.5
20
-1.3
0
VERTEX
8
L4D0
10
-1.5
20
1.9
0
VERTEX
8
L4D0
10
1.7
20
1.9
0
VERTEX
8
L4D0
10
1.7
20
2.3
0
VERTEX
8
L4D0
10
2.3
20
2.3
0
VERTEX
8
L4D0
10
2.3
20
1.7
0
VERTEX
8
L4D0
10
-1.3
20
1.7
0
VERTEX
8
L4D0
10
-1.3
20
1.5
0
VERTEX
8
L4D0
10
1.9
20
1.5
0
VERTEX
8
L4D0
10
1.9
20
-1.7
0
VERTEX
8
L4D0
10
2.3
20
-1.7
0
VERTEX
8
L4D0
10
2.3
20
-2.3
0
VERTEX
8
L4D0
10
1.7
20
-2.3
0
VERTEX
8
L4D0
10
1.7
20
1.3
0
VERTEX
8
L4D0
10
1.5
20
1.3
0
VERTEX
8
L4D0
10
1.5
20
-1.9
0
VERTEX
8
L4D0
10
-1.7
20
-1.9
0
VERTEX
8
L4D0
10
-1.7
20
-2.3
0
SEQEND
0
POLYLINE
8
L5D0
70
1
40
0
41
0
66
1
0
VERTEX
8
L5D0
10
-0.05
20
-0.05
0
VERTEX
8
L5D0
10
-0.05
20
0.05
0
VERTEX
8
L5D0
10
0.05
20
0.05
0
VERTEX
8
L5D0
10
0.05
20
-0.05
0
SEQEND
0
POLYLINE
8
L5D0
70
1
40
0
41
0
66
1
0
VERTEX
8
L5D0
10
0.535
20
-0.05
0
VERTEX
8
L5D0
10
0.535
20
0.05
0
VERTEX
8
L5D0
10
0.635
20
0.05
0
VERTEX
8
L5D0
10
0.635
20
-0.05
0
SEQEND
0
POLYLINE
8
L5D0
70
1
40
0
41
0
66
1
0
VERTEX
8
L5D0
10
0.363
20
0.363
0
VERTEX
8
L5D0
10
0.363
20
0.463
0
VERTEX
8
L5D0
10
0.463
20
0.463
0
VERTEX
8
L5D0
10
0.463
20
0.363
0
SEQEND
0
POLYLINE
8
L5D0
70
1
40
0
41
0
66
1
0
VERTEX
8
L5D0
10
-0.05
20
0.535
0
VERTEX
8
L5D0
10
-0.05
20
0.635
0
VERTEX
8
L5D0
10
0.05
20
0.635
0
VERTEX
8
L5D0
10
0.05
20
0.535
0
SEQEND
0
POLYLINE
8
L5D0
70
1
40
0
41
0
66
1
0
VERTEX
8
L5D0
10
-0.463
20
0.363
0
VERTEX
8
L5D0
10
-0.463
20
0.463
0
VERTEX
8
L5D0
10
-0.363
20
0.463
0
VERTEX
8
L5D0
10
-0.363
20
0.363
0
SEQEND
0
POLYLINE
8
L5D0
70
1
40
0
41
0
66
1
0
VERTEX
8
L5D0
10
-0.635
20
-0.05
0
VERTEX
8
L5D0
10
-0.635
20
0.05
0
VERTEX
8
L5D0
10
-0.535
20
0.05
0
VERTEX
8
L5D0
10
-0.535
20
-0.05
0
SEQEND
0
POLYLINE
8
L5D0
70
1
40
0
41
0
66
1
0
VERTEX
8
L5D0
10
-0.463
20
-0.463
0
VERTEX
8
L5D0
10
-0.463
20
-0.363
0
VERTEX
8
L5D0
10
-0.363
20
-0.363
0
VERTEX
8
L5D0
10
-0.363
20
-0.463
0
SEQEND
0
POLYLINE
8
L5D0
70
1
40
0
41
0
66
1
0
VERTEX
8
L5D0
10
-0.05
20
-0.635
0
VERTEX
8
L5D0
10
-0.05
20
-0.535
0
VERTEX
8
L5D0
10
0.05
20
-0.535
0
VERTEX
8
L5D0
10
0.05
20
-0.635
0
SEQEND
0
POLYLINE
8
L5D0
70
1
40
0
41
0
66
1
0
VERTEX
8
L5D0
10
0.363
20
-0.463
0
VERTEX
8
L5D0
10
0.363
20
-0.363
0
VERTEX
8
L5D0
10
0.463
20
-0.363
0
VERTEX
8
L5D0
10
0.463
20
-0.463
0
SEQEND
0
POLYLINE
8
L5D0
70
1
40
0
41
0
66
1
0
VERTEX
8
L5D0
10
1.12
20
-0.05
0
VERTEX
8
L5D0
10
1.12
20
0.05
0
VERTEX
8
L5D0
10
1.22
20
0.05
0
VERTEX
8
L5D0
10
1.22
20
-0.05
0
SEQEND
0
POLYLINE
8
L5D0
70
1
40
0
41
0
66
1
0
VERTEX
8
L5D0
10
1.03
20
0.397
0
VERTEX
8
L5D0
10
1.03
20
0.497
0
VERTEX
8
L5D0
10
1.13
20
0.497
0
VERTEX
8
L5D0
10
1.13
20
0.397
0
SEQEND
0
POLYLINE
8
L5D0
70
1
40
0
41
0
66
1
0
VERTEX
8
L5D0
10
0.777
20
0.777
0
VERTEX
8
L5D0
10
0.777
20
0.877
0
VERTEX
8
L5D0
10
0.877
20
0.877
0
VERTEX
8
L5D0
10
0.877
20
0.777
0
SEQEND
0
POLYLINE
8
L5D0
70
1
40
0
41
0
66
1
0
VERTEX
8
L5D0
10
0.397
20
1.03
0
VERTEX
8
L5D0
10
0.397
20
1.13
0
VERTEX
8
L5D0
10
0.497
20
1.13
0
VERTEX
8
L5D0
10
0.497
20
1.03
0
SEQEND
0
POLYLINE
8
L5D0
70
1
40
0
41
0
66
1
0
VERTEX
8
L5D0
10
-0.05
20
1.12
0
VERTEX
8
L5D0
10
-0.05
20
1.22
0
VERTEX
8
L5D0
10
0.05
20
1.22
0
VERTEX
8
L5D0
10
0.05
20
1.12
0
SEQEND
0
POLYLINE
8
L5D0
70
1
40
0
41
0
66
1
0
VERTEX
8
L5D0
10
-0.497
20
1.03
0
VERTEX
8
L5D0
10
-0.497
20
1.13
0
VERTEX
8
L5D0
10
-0.397
20
1.13
0
VERTEX
8
L5D0
10
-0.397
20
1.03
0
SEQEND
0
POLYLINE
8
L5D0
70
1
40
0
41
0
66
1
0
VERTEX
8
L5D0
10
-0.877
20
0.777
0
VERTEX
8
L5D0
10
-0.877
20
0.877
0
VERTEX
8
L5D0
10
-0.777
20
0.877
0
VERTEX
8
L5D0
10
-0.777
20
0.777
0
SEQEND
0
POLYLINE
8
L5D0
70
1
40
0
41
0
66
1
0
VERTEX
8
L5D0
10
-1.13
20
0.397
0
VERTEX
8
L5D0
10
-1.13
20
0.497
0
VERTEX
8
L5D0
10
-1.03
20
0.497
0
VERTEX
8
L5D0
10
-1.03
20
0.397
0
SEQEND
0
POLYLINE
8
L5D0
70
1
40
0
41
0
66
1
0
VERTEX
8
L5D0
10
-1.22
20
-0.05
0
VERTEX
8
L5D0
10
-1.22
20
0.05
0
VERTEX
8
L5D0
10
-1.12
20
0.05
0
VERTEX
8
L5D0
10
-1.12
20
-0.05
0
SEQEND
0
POLYLINE
8
L5D0
70
1
40
0
41
0
66
1
0
VERTEX
8
L5D0
10
-1.13
20
-0.497
0
VERTEX
8
L5D0
10
-1.13
20
-0.397
0
VERTEX
8
L5D0
10
-1.03
20
-0.397
0
VERTEX
8
L5D0
10
-1.03
20
-0.497
0
SEQEND
0
POLYLINE
8
L5D0
70
1
40
0
41
0
66
1
0
VERTEX
8
L5D0
10
-0.877
20
-0.877
0
VERTEX
8
L5D0
10
-0.877
20
-0.777
0
VERTEX
8
L5D0
10
-0.777
20
-0.777
0
VERTEX
8
L5D0
10
-0.777
20
-0.877
0
SEQEND
0
POLYLINE
8
L5D0
70
1
40
0
41
0
66
1
0
VERTEX
8
L5D0
10
-0.497
20
-1.13
0
VERTEX
8
L5D0
10
-0.497
20
-1.03
0
VERTEX
8
L5D0
10
-0.397
20
-1.03
0
VERTEX
8
L5D0
10
-0.397
20
-1.13
0
SEQEND
0
POLYLINE
8
L5D0
70
1
40
0
41
0
66
1
0
VERTEX
8
L5D0
10
-0.05
20
-1.22
0
VERTEX
8
L5D0
10
-0.05
20
-1.12
0
VERTEX
8
L5D0
10
0.05
20
-1.12
0
VERTEX
8
L5D0
10
0.05
20
-1.22
0
SEQEND
0
POLYLINE
8
L5D0
70
1
40
0
41
0
66
1
0
VERTEX
8
L5D0
10
0.397
20
-1.13
0
VERTEX
8
L5D0
10
0.397
20
-1.03
0
VERTEX
8
L5D0
10
0.497
20
-1.03
0
VERTEX
8
L5D0
10
0.497
20
-1.13
0
SEQEND
0
POLYLINE
8
L5D0
70
1
40
0
41
0
66
1
0
VERTEX
8
L5D0
10
0.777
20
-0.877
0
VERTEX
8
L5D0
10
0.777
20
-0.777
0
VERTEX
8
L5D0
10
0.877
20
-0.777
0
VERTEX
8
L5D0
10
0.877
20
-0.877
0
SEQEND
0
POLYLINE
8
L5D0
70
1
40
0
41
0
66
1
0
VERTEX
8
L5D0
10
1.03
20
-0.497
0
VERTEX
8
L5D0
10
1.03
20
-0.397
0
VERTEX
8
L5D0
10
1.13
20
-0.397
0
VERTEX
8
L5D0
10
1.13
20
-0.497
0
SEQEND
0
POLYLINE
8
L5D0
70
1
40
0
41
0
66
1
0
VERTEX
8
L5D0
10
1.19
20
1.19
0
VERTEX
8
L5D0
10
1.19
20
1.29
0
VERTEX
8
L5D0
10
1.29
20
1.29
0
VERTEX
8
L5D0
10
1.29
20
1.19
0
SEQEND
0
POLYLINE
8
L5D0
70
1
40
0
41
0
66
1
0
VERTEX
8
L5D0
10
-1.29
20
1.19
0
VERTEX
8
L5D0
10
-1.29
20
1.29
0
VERTEX
8
L5D0
10
-1.19
20
1.29
0
VERTEX
8
L5D0
10
-1.19
20
1.19
0
SEQEND
0
POLYLINE
8
L5D0
70
1
40
0
41
0
66
1
0
VERTEX
8
L5D0
10
-1.29
20
-1.29
0
VERTEX
8
L5D0
10
-1.29
20
-1.19
0
VERTEX
8
L5D0
10
-1.19
20
-1.19
0
VERTEX
8
L5D0
10
-1.19
20
-1.29
0
SEQEND
0
POLYLINE
8
L5D0
70
1
40
0
41
0
66
1
0
VERTEX
8
L5D0
10
1.19
20
-1.29
0
VERTEX
8
L5D0
10
1.19
20
-1.19
0
VERTEX
8
L5D0
10
1.29
20
-1.19
0
VERTEX
8
L5D0
10
1.29
20
-1.29
0
SEQEND
0
POLYLINE
8
L6D0
70
1
40
0
41
0
66
1
0
VERTEX
8
L6D0
10
1.8
20
1.8
0
VERTEX
8
L6D0
10
1.8
20
2.2
0
VERTEX
8
L6D0
10
2.2
20
2.2
0
VERTEX
8
L6D0
10
2.2
20
1.8
0
SEQEND
0
POLYLINE
8
L6D0
70
1
40
0
41
0
66
1
0
VERTEX
8
L6D0
10
-2.2
20
1.8
0
VERTEX
8
L6D0
10
-2.2
20
2.2
0
VERTEX
8
L6D0
10
-1.8
20
2.2
0
VERTEX
8
L6D0
10
-1.8
20
1.8
0
SEQEND
0
POLYLINE
8
L6D0
70
1
40
0
41
0
66
1
0
VERTEX
8
L6D0
10
-2.2
20
-2.2
0
VERTEX
8
L6D0
10
-2.2
20
-1.8
0
VERTEX
8
L6D0
10
-1.8
20
-1.8
0
VERTEX
8
L6D0
10
-1.8
20
-2.2
0
SEQEND
0
POLYLINE
8
L6D0
70
1
40
0
41
0
66
1
0
VERTEX
8
L6D0
10
1.8
20
-2.2
0
VERTEX
8
L6D0
10
1.8
20
-1.8
0
VERTEX
8
L6D0
10
2.2
20
-1.8
0
VERTEX
8
L6D0
10
2.2
20
-2.2
0
SEQEND
0
POLYLINE
8
L6D0
70
1
40
0
41
0
66
1
0
VERTEX
8
L6D0
10
-1.5
20
-1.5
0
VERTEX
8
L6D0
10
-1.5
20
1.5
0
VERTEX
8
L6D0
10
1.5
20
1.5
0
VERTEX
8
L6D0
10
1.5
20
-1.5
0
SEQEND
0
POLYLINE
8
L7D0
70
1
40
0
41
0
66
1
0
VERTEX
8
L7D0
10
-1.129
20
-0.17
0
VERTEX
8
L7D0
10
-1.129
20
0.08
0
VERTEX
8
L7D0
10
-0.879
20
0.08
0
VERTEX
8
L7D0
10
-0.879
20
-0.17
0
SEQEND
0
POLYLINE
8
L7D0
70
1
40
0
41
0
66
1
0
VERTEX
8
L7D0
10
-0.852
20
-0.78
0
VERTEX
8
L7D0
10
-0.852
20
-0.53
0
VERTEX
8
L7D0
10
-0.602
20
-0.53
0
VERTEX
8
L7D0
10
-0.602
20
-0.78
0
SEQEND
0
POLYLINE
8
L7D0
70
1
40
0
41
0
66
1
0
VERTEX
8
L7D0
10
-0.609
20
-0.734
0
VERTEX
8
L7D0
10
-0.609
20
-0.484
0
VERTEX
8
L7D0
10
-0.359
20
-0.484
0
VERTEX
8
L7D0
10
-0.359
20
-0.734
0
SEQEND
0
POLYLINE
8
L7D0
70
1
40
0
41
0
66
1
0
VERTEX
8
L7D0
10
-0.216
20
-0.903
0
VERTEX
8
L7D0
10
-0.216
20
-0.653
0
VERTEX
8
L7D0
10
0.034
20
-0.653
0
VERTEX
8
L7D0
10
0.034
20
-0.903
0
SEQEND
0
POLYLINE
8
L7D0
70
1
40
0
41
0
66
1
0
VERTEX
8
L7D0
10
-0.086
20
-1.11
0
VERTEX
8
L7D0
10
-0.086
20
-0.86
0
VERTEX
8
L7D0
10
0.164
20
-0.86
0
VERTEX
8
L7D0
10
0.164
20
-1.11
0
SEQEND
0
POLYLINE
8
L7D0
70
1
40
0
41
0
66
1
0
VERTEX
8
L7D0
10
0.523
20
-0.845
0
VERTEX
8
L7D0
10
0.523
20
-0.595
0
VERTEX
8
L7D0
10
0.773
20
-0.595
0
VERTEX
8
L7D0
10
0.773
20
-0.845
0
SEQEND
0
POLYLINE
8
L7D0
70
1
40
0
41
0
66
1
0
VERTEX
8
L7D0
10
0.488
20
-0.608
0
VERTEX
8
L7D0
10
0.488
20
-0.358
0
VERTEX
8
L7D0
10
0.738
20
-0.358
0
VERTEX
8
L7D0
10
0.738
20
-0.608
0
SEQEND
0
POLYLINE
8
L7D0
70
1
40
0
41
0
66
1
0
VERTEX
8
L7D0
10
0.664
20
-0.214
0
VERTEX
8
L7D0
10
0.664
20
0.036
0
VERTEX
8
L7D0
10
0.914
20
0.036
0
VERTEX
8
L7D0
10
0.914
20
-0.214
0
SEQEND
0
POLYLINE
8
L7D0
70
1
40
0
41
0
66
1
0
VERTEX
8
L7D0
10
0.873
20
-0.083
0
VERTEX
8
L7D0
10
0.873
20
0.167
0
VERTEX
8
L7D0
10
1.123
20
0.167
0
VERTEX
8
L7D0
10
1.123
20
-0.083
0
SEQEND
0
POLYLINE
8
L7D0
70
1
40
0
41
0
66
1
0
VERTEX
8
L7D0
10
0.621
20
0.523
0
VERTEX
8
L7D0
10
0.621
20
0.773
0
VERTEX
8
L7D0
10
0.871
20
0.773
0
VERTEX
8
L7D0
10
0.871
20
0.523
0
SEQEND
0
POLYLINE
8
L7D0
70
1
40
0
41
0
66
1
0
VERTEX
8
L7D0
10
0.377
20
0.479
0
VERTEX
8
L7D0
10
0.377
20
0.729
0
VERTEX
8
L7D0
10
0.627
20
0.729
0
VERTEX
8
L7D0
10
0.627
20
0.479
0
SEQEND
0
POLYLINE
8
L7D0
70
1
40
0
41
0
66
1
0
VERTEX
8
L7D0
10
-0.012
20
0.628
0
VERTEX
8
L7D0
10
-0.012
20
0.878
0
VERTEX
8
L7D0
10
0.238
20
0.878
0
VERTEX
8
L7D0
10
0.238
20
0.628
0
SEQEND
0
POLYLINE
8
L7D0
70
1
40
0
41
0
66
1
0
VERTEX
8
L7D0
10
-0.151
20
0.839
0
VERTEX
8
L7D0
10
-0.151
20
1.089
0
VERTEX
8
L7D0
10
0.099
20
1.089
0
VERTEX
8
L7D0
10
0.099
20
0.839
0
SEQEND
0
POLYLINE
8
L7D0
70
1
40
0
41
0
66
1
0
VERTEX
8
L7D0
10
-0.765
20
0.577
0
VERTEX
8
L7D0
10
-0.765
20
0.827
0
VERTEX
8
L7D0
10
-0.515
20
0.827
0
VERTEX
8
L7D0
10
-0.515
20
0.577
0
SEQEND
0
POLYLINE
8
L7D0
70
1
40
0
41
0
66
1
0
VERTEX
8
L7D0
10
-0.729
20
0.336
0
VERTEX
8
L7D0
10
-0.729
20
0.586
0
VERTEX
8
L7D0
10
-0.479
20
0.586
0
VERTEX
8
L7D0
10
-0.479
20
0.336
0
SEQEND
0
POLYLINE
8
L7D0
70
1
40
0
41
0
66
1
0
VERTEX
8
L7D0
10
-0.916
20
-0.048
0
VERTEX
8
L7D0
10
-0.916
20
0.202
0
VERTEX
8
L7D0
10
-0.666
20
0.202
0
VERTEX
8
L7D0
10
-0.666
20
-0.048
0
SEQEND
0
POLYLINE
8
L8D0
70
1
40
0
41
0
66
1
0
VERTEX
8
L8D0
10
-1.079
20
-0.12
0
VERTEX
8
L8D0
10
-1.079
20
0.03
0
VERTEX
8
L8D0
10
-0.929
20
0.03
0
VERTEX
8
L8D0
10
-0.929
20
-0.12
0
SEQEND
0
POLYLINE
8
L8D0
70
1
40
0
41
0
66
1
0
VERTEX
8
L8D0
10
-0.802
20
-0.73
0
VERTEX
8
L8D0
10
-0.802
20
-0.58
0
VERTEX
8
L8D0
10
-0.652
20
-0.58
0
VERTEX
8
L8D0
10
-0.652
20
-0.73
0
SEQEND
0
POLYLINE
8
L8D0
70
1
40
0
41
0
66
1
0
VERTEX
8
L8D0
10
-0.559
20
-0.684
0
VERTEX
8
L8D0
10
-0.559
20
-0.534
0
VERTEX
8
L8D0
10
-0.409
20
-0.534
0
VERTEX
8
L8D0
10
-0.409
20
-0.684
0
SEQEND
0
POLYLINE
8
L8D0
70
1
40
0
41
0
66
1
0
VERTEX
8
L8D0
10
-0.166
20
-0.853
0
VERTEX
8
L8D0
10
-0.166
20
-0.703
0
VERTEX
8
L8D0
10
-0.016
20
-0.703
0
VERTEX
8
L8D0
10
-0.016
20
-0.853
0
SEQEND
0
POLYLINE
8
L8D0
70
1
40
0
41
0
66
1
0
VERTEX
8
L8D0
10
-0.036
20
-1.06
0
VERTEX
8
L8D0
10
-0.036
20
-0.91
0
VERTEX
8
L8D0
10
0.114
20
-0.91
0
VERTEX
8
L8D0
10
0.114
20
-1.06
0
SEQEND
0
POLYLINE
8
L8D0
70
1
40
0
41
0
66
1
0
VERTEX
8
L8D0
10
0.573
20
-0.795
0
VERTEX
8
L8D0
10
0.573
20
-0.645
0
VERTEX
8
L8D0
10
0.723
20
-0.645
0
VERTEX
8
L8D0
10
0.723
20
-0.795
0
SEQEND
0
POLYLINE
8
L8D0
70
1
40
0
41
0
66
1
0
VERTEX
8
L8D0
10
0.538
20
-0.558
0
VERTEX
8
L8D0
10
0.538
20
-0.408
0
VERTEX
8
L8D0
10
0.688
20
-0.408
0
VERTEX
8
L8D0
10
0.688
20
-0.558
0
SEQEND
0
POLYLINE
8
L8D0
70
1
40
0
41
0
66
1
0
VERTEX
8
L8D0
10
0.714
20
-0.164
0
VERTEX
8
L8D0
10
0.714
20
-0.014
0
VERTEX
8
L8D0
10
0.864
20
-0.014
0
VERTEX
8
L8D0
10
0.864
20
-0.164
0
SEQEND
0
POLYLINE
8
L8D0
70
1
40
0
41
0
66
1
0
VERTEX
8
L8D0
10
0.923
20
-0.033
0
VERTEX
8
L8D0
10
0.923
20
0.117
0
VERTEX
8
L8D0
10
1.073
20
0.117
0
VERTEX
8
L8D0
10
1.073
20
-0.033
0
SEQEND
0
POLYLINE
8
L8D0
70
1
40
0
41
0
66
1
0
VERTEX
8
L8D0
10
0.671
20
0.573
0
VERTEX
8
L8D0
10
0.671
20
0.723
0
VERTEX
8
L8D0
10
0.821
20
0.723
0
VERTEX
8
L8D0
10
0.821
20
0.573
0
SEQEND
0
POLYLINE
8
L8D0
70
1
40
0
41
0
66
1
0
VERTEX
8
L8D0
10
0.427
20
0.529
0
VERTEX
8
L8D0
10
0.427
20
0.679
0
VERTEX
8
L8D0
10
0.577
20
0.679
0
VERTEX
8
L8D0
10
0.577
20
0.529
0
SEQEND
0
POLYLINE
8
L8D0
70
1
40
0
41
0
66
1
0
VERTEX
8
L8D0
10
0.038
20
0.678
0
VERTEX
8
L8D0
10
0.038
20
0.828
0
VERTEX
8
L8D0
10
0.188
20
0.828
0
VERTEX
8
L8D0
10
0.188
20
0.678
0
SEQEND
0
POLYLINE
8
L8D0
70
1
40
0
41
0
66
1
0
VERTEX
8
L8D0
10
-0.101
20
0.889
0
VERTEX
8
L8D0
10
-0.101
20
1.039
0
VERTEX
8
L8D0
10
0.049
20
1.039
0
VERTEX
8
L8D0
10
0.049
20
0.889
0
SEQEND
0
POLYLINE
8
L8D0
70
1
40
0
41
0
66
1
0
VERTEX
8
L8D0
10
-0.715
20
0.627
0
VERTEX
8
L8D0
10
-0.715
20
0.777
0
VERTEX
8
L8D0
10
-0.565
20
0.777
0
VERTEX
8
L8D0
10
-0.565
20
0.627
0
SEQEND
0
POLYLINE
8
L8D0
70
1
40
0
41
0
66
1
0
VERTEX
8
L8D0
10
-0.679
20
0.386
0
VERTEX
8
L8D0
10
-0.679
20
0.536
0
VERTEX
8
L8D0
10
-0.529
20
0.536
0
VERTEX
8
L8D0
10
-0.529
20
0.386
0
SEQEND
0
POLYLINE
8
L8D0
70
1
40
0
41
0
66
1
0
VERTEX
8
L8D0
10
-0.866
20
0.002
0
VERTEX
8
L8D0
10
-0.866
20
0.152
0
VERTEX
8
L8D0
10
-0.716
20
0.152
0
VERTEX
8
L8D0
10
-0.716
20
0.002
0
SEQEND
0
ENDSEC
0
EOF
