solid OpenSCAD_Model
  facet normal 1 -0 0
    outer loop
      vertex 0.00295 -0.00275 0.000304999
      vertex 0.00295 -0.002 0.000105001
      vertex 0.00295 -0.002 0.000304999
    endloop
  endfacet
  facet normal 1 0 0
    outer loop
      vertex 0.00295 -0.002 0.000105001
      vertex 0.00295 -0.00275 0.000304999
      vertex 0.00295 -0.00275 0.000105001
    endloop
  endfacet
  facet normal -0 0 1
    outer loop
      vertex -0.002825 0.002125 0.000304999
      vertex -0.0024 0.002 0.000304999
      vertex -0.002325 0.002125 0.000304999
    endloop
  endfacet
  facet normal 0 0 1
    outer loop
      vertex -0.002825 0.002125 0.000304999
      vertex -0.00295 0.002 0.000304999
      vertex -0.0024 0.002 0.000304999
    endloop
  endfacet
  facet normal 0 0 1
    outer loop
      vertex -0.00295 0.002 0.000304999
      vertex -0.002825 0.002125 0.000304999
      vertex -0.00295 0.00275 0.000304999
    endloop
  endfacet
  facet normal 0 0 1
    outer loop
      vertex -0.0022 0.00275 0.000304999
      vertex -0.002325 0.002625 0.000304999
      vertex -0.0022 0.002 0.000304999
    endloop
  endfacet
  facet normal 0 0 1
    outer loop
      vertex -0.0022 0.00275 0.000304999
      vertex -0.002825 0.002625 0.000304999
      vertex -0.002325 0.002625 0.000304999
    endloop
  endfacet
  facet normal 0 0 1
    outer loop
      vertex -0.002825 0.002625 0.000304999
      vertex -0.00295 0.00275 0.000304999
      vertex -0.002825 0.002125 0.000304999
    endloop
  endfacet
  facet normal -0 0 1
    outer loop
      vertex -0.00295 0.00275 0.000304999
      vertex -0.002825 0.002625 0.000304999
      vertex -0.0022 0.00275 0.000304999
    endloop
  endfacet
  facet normal -0 0 1
    outer loop
      vertex 0.0022 0.0018 0.000304999
      vertex 0.0024 -0.002 0.000304999
      vertex 0.0024 0.002 0.000304999
    endloop
  endfacet
  facet normal 0 0 1
    outer loop
      vertex 0.002325 -0.002125 0.000304999
      vertex 0.0022 -0.002 0.000304999
      vertex 0.002325 -0.002625 0.000304999
    endloop
  endfacet
  facet normal 0 0 1
    outer loop
      vertex 0.0022 -0.002 0.000304999
      vertex 0.0024 -0.002 0.000304999
      vertex 0.0022 0.0018 0.000304999
    endloop
  endfacet
  facet normal 0 0 1
    outer loop
      vertex 0.0024 -0.002 0.000304999
      vertex 0.0022 -0.002 0.000304999
      vertex 0.002325 -0.002125 0.000304999
    endloop
  endfacet
  facet normal 0 0 1
    outer loop
      vertex 0.0024 0.002 0.000304999
      vertex 0.002 0.0018 0.000304999
      vertex 0.0022 0.0018 0.000304999
    endloop
  endfacet
  facet normal 0 0 1
    outer loop
      vertex 0.002 0.0018 0.000304999
      vertex 0.0018 -0.002 0.000304999
      vertex 0.002 -0.0024 0.000304999
    endloop
  endfacet
  facet normal -0 0 1
    outer loop
      vertex -0.0018 0.002 0.000304999
      vertex 0.002 0.0018 0.000304999
      vertex 0.0024 0.002 0.000304999
    endloop
  endfacet
  facet normal 0 0 1
    outer loop
      vertex -0.0018 0.002 0.000304999
      vertex 0.0018 -0.002 0.000304999
      vertex 0.002 0.0018 0.000304999
    endloop
  endfacet
  facet normal 0 0 1
    outer loop
      vertex -0.002 -0.0018 0.000304999
      vertex -0.0018 0.002 0.000304999
      vertex -0.002 0.0024 0.000304999
    endloop
  endfacet
  facet normal -0 0 1
    outer loop
      vertex -0.002 -0.0018 0.000304999
      vertex 0.0018 -0.002 0.000304999
      vertex -0.0018 0.002 0.000304999
    endloop
  endfacet
  facet normal 0 0 1
    outer loop
      vertex -0.0024 -0.002 0.000304999
      vertex -0.002 -0.0018 0.000304999
      vertex -0.0022 -0.0018 0.000304999
    endloop
  endfacet
  facet normal -0 0 1
    outer loop
      vertex -0.002325 0.002125 0.000304999
      vertex -0.0022 0.002 0.000304999
      vertex -0.002325 0.002625 0.000304999
    endloop
  endfacet
  facet normal 0 0 1
    outer loop
      vertex -0.0024 0.002 0.000304999
      vertex -0.0022 0.002 0.000304999
      vertex -0.002325 0.002125 0.000304999
    endloop
  endfacet
  facet normal 0 0 1
    outer loop
      vertex -0.0022 0.002 0.000304999
      vertex -0.0024 0.002 0.000304999
      vertex -0.0022 -0.0018 0.000304999
    endloop
  endfacet
  facet normal 0 0 1
    outer loop
      vertex -0.002 -0.0018 0.000304999
      vertex -0.0024 -0.002 0.000304999
      vertex 0.0018 -0.002 0.000304999
    endloop
  endfacet
  facet normal 0 0 1
    outer loop
      vertex -0.0024 -0.002 0.000304999
      vertex -0.0022 -0.0018 0.000304999
      vertex -0.0024 0.002 0.000304999
    endloop
  endfacet
  facet normal 0 0 1
    outer loop
      vertex 0.00295 -0.002 0.000304999
      vertex 0.002825 -0.002125 0.000304999
      vertex 0.00295 -0.00275 0.000304999
    endloop
  endfacet
  facet normal -0 0 1
    outer loop
      vertex 0.0024 -0.002 0.000304999
      vertex 0.002825 -0.002125 0.000304999
      vertex 0.00295 -0.002 0.000304999
    endloop
  endfacet
  facet normal 0 0 1
    outer loop
      vertex 0.002825 -0.002125 0.000304999
      vertex 0.0024 -0.002 0.000304999
      vertex 0.002325 -0.002125 0.000304999
    endloop
  endfacet
  facet normal -0 0 1
    outer loop
      vertex 0.002825 -0.002625 0.000304999
      vertex 0.00295 -0.00275 0.000304999
      vertex 0.002825 -0.002125 0.000304999
    endloop
  endfacet
  facet normal -0 0 1
    outer loop
      vertex 0.002325 -0.002625 0.000304999
      vertex 0.00295 -0.00275 0.000304999
      vertex 0.002825 -0.002625 0.000304999
    endloop
  endfacet
  facet normal 0 0 1
    outer loop
      vertex 0.002325 -0.002625 0.000304999
      vertex 0.0022 -0.00275 0.000304999
      vertex 0.00295 -0.00275 0.000304999
    endloop
  endfacet
  facet normal 0 0 1
    outer loop
      vertex 0.0022 -0.00275 0.000304999
      vertex 0.002325 -0.002625 0.000304999
      vertex 0.0022 -0.002 0.000304999
    endloop
  endfacet
  facet normal -0 0 1
    outer loop
      vertex 0.0018 -0.0022 0.000304999
      vertex 0.002 -0.0024 0.000304999
      vertex 0.0018 -0.002 0.000304999
    endloop
  endfacet
  facet normal 0 0 1
    outer loop
      vertex -0.002 -0.0024 0.000304999
      vertex 0.0018 -0.0022 0.000304999
      vertex -0.002 -0.0022 0.000304999
    endloop
  endfacet
  facet normal 0 0 1
    outer loop
      vertex 0.0018 -0.0022 0.000304999
      vertex -0.002 -0.0024 0.000304999
      vertex 0.002 -0.0024 0.000304999
    endloop
  endfacet
  facet normal -0 0 1
    outer loop
      vertex -0.002125 -0.002325 0.000304999
      vertex -0.002 -0.0024 0.000304999
      vertex -0.002 -0.0022 0.000304999
    endloop
  endfacet
  facet normal 0 0 1
    outer loop
      vertex -0.002125 -0.002825 0.000304999
      vertex -0.002 -0.0024 0.000304999
      vertex -0.002125 -0.002325 0.000304999
    endloop
  endfacet
  facet normal 0 0 1
    outer loop
      vertex -0.002 -0.0022 0.000304999
      vertex -0.002625 -0.002325 0.000304999
      vertex -0.002125 -0.002325 0.000304999
    endloop
  endfacet
  facet normal 0 0 1
    outer loop
      vertex -0.002625 -0.002325 0.000304999
      vertex -0.00275 -0.0022 0.000304999
      vertex -0.002625 -0.002825 0.000304999
    endloop
  endfacet
  facet normal -0 0 1
    outer loop
      vertex -0.00275 -0.0022 0.000304999
      vertex -0.002625 -0.002325 0.000304999
      vertex -0.002 -0.0022 0.000304999
    endloop
  endfacet
  facet normal 0 0 1
    outer loop
      vertex -0.002 -0.0024 0.000304999
      vertex -0.002125 -0.002825 0.000304999
      vertex -0.002 -0.00295 0.000304999
    endloop
  endfacet
  facet normal -0 0 1
    outer loop
      vertex -0.002625 -0.002825 0.000304999
      vertex -0.002 -0.00295 0.000304999
      vertex -0.002125 -0.002825 0.000304999
    endloop
  endfacet
  facet normal 0 0 1
    outer loop
      vertex -0.002625 -0.002825 0.000304999
      vertex -0.00275 -0.00295 0.000304999
      vertex -0.002 -0.00295 0.000304999
    endloop
  endfacet
  facet normal 0 0 1
    outer loop
      vertex -0.00275 -0.00295 0.000304999
      vertex -0.002625 -0.002825 0.000304999
      vertex -0.00275 -0.0022 0.000304999
    endloop
  endfacet
  facet normal 0 0 1
    outer loop
      vertex 0.00275 0.00295 0.000304999
      vertex 0.002625 0.002825 0.000304999
      vertex 0.00275 0.0022 0.000304999
    endloop
  endfacet
  facet normal 0 0 1
    outer loop
      vertex 0.00275 0.00295 0.000304999
      vertex 0.002125 0.002825 0.000304999
      vertex 0.002625 0.002825 0.000304999
    endloop
  endfacet
  facet normal 0 0 1
    outer loop
      vertex 0.002 0.0024 0.000304999
      vertex 0.002125 0.002825 0.000304999
      vertex 0.002 0.00295 0.000304999
    endloop
  endfacet
  facet normal -0 0 1
    outer loop
      vertex 0.002 0.00295 0.000304999
      vertex 0.002125 0.002825 0.000304999
      vertex 0.00275 0.00295 0.000304999
    endloop
  endfacet
  facet normal -0 0 1
    outer loop
      vertex 0.002625 0.002325 0.000304999
      vertex 0.00275 0.0022 0.000304999
      vertex 0.002625 0.002825 0.000304999
    endloop
  endfacet
  facet normal -0 0 1
    outer loop
      vertex 0.002125 0.002325 0.000304999
      vertex 0.00275 0.0022 0.000304999
      vertex 0.002625 0.002325 0.000304999
    endloop
  endfacet
  facet normal 0 0 1
    outer loop
      vertex 0.002125 0.002825 0.000304999
      vertex 0.002 0.0024 0.000304999
      vertex 0.002125 0.002325 0.000304999
    endloop
  endfacet
  facet normal 0 0 1
    outer loop
      vertex 0.002125 0.002325 0.000304999
      vertex 0.002 0.0022 0.000304999
      vertex 0.00275 0.0022 0.000304999
    endloop
  endfacet
  facet normal 0 0 1
    outer loop
      vertex 0.002 0.0024 0.000304999
      vertex 0.002 0.0022 0.000304999
      vertex 0.002125 0.002325 0.000304999
    endloop
  endfacet
  facet normal 0 0 1
    outer loop
      vertex -0.0018 0.0022 0.000304999
      vertex 0.002 0.0022 0.000304999
      vertex 0.002 0.0024 0.000304999
    endloop
  endfacet
  facet normal 0 0 1
    outer loop
      vertex -0.0018 0.0022 0.000304999
      vertex -0.002 0.0024 0.000304999
      vertex -0.0018 0.002 0.000304999
    endloop
  endfacet
  facet normal -0 0 1
    outer loop
      vertex -0.002 0.0024 0.000304999
      vertex -0.0018 0.0022 0.000304999
      vertex 0.002 0.0024 0.000304999
    endloop
  endfacet
  facet normal 0 0 -1
    outer loop
      vertex 0.0018 -0.002 0.000105001
      vertex 0.002 -0.0024 0.000105001
      vertex 0.0018 -0.0022 0.000105001
    endloop
  endfacet
  facet normal 0 0 -1
    outer loop
      vertex -0.002 -0.0024 0.000105001
      vertex 0.0018 -0.0022 0.000105001
      vertex 0.002 -0.0024 0.000105001
    endloop
  endfacet
  facet normal 0 0 -1
    outer loop
      vertex -0.002 -0.0022 0.000105001
      vertex 0.0018 -0.0022 0.000105001
      vertex -0.002 -0.0024 0.000105001
    endloop
  endfacet
  facet normal 0 0 -1
    outer loop
      vertex 0.002 0.0022 0.000105001
      vertex -0.0018 0.0022 0.000105001
      vertex 0.002 0.0024 0.000105001
    endloop
  endfacet
  facet normal 0 0 -1
    outer loop
      vertex -0.0018 0.0022 0.000105001
      vertex -0.002 0.0024 0.000105001
      vertex 0.002 0.0024 0.000105001
    endloop
  endfacet
  facet normal 0 0 -1
    outer loop
      vertex -0.0018 0.002 0.000105001
      vertex -0.002 0.0024 0.000105001
      vertex -0.0018 0.0022 0.000105001
    endloop
  endfacet
  facet normal 0 0 -1
    outer loop
      vertex -0.002125 -0.002825 0.000105001
      vertex -0.002 -0.0024 0.000105001
      vertex -0.002 -0.00295 0.000105001
    endloop
  endfacet
  facet normal 0 0 -1
    outer loop
      vertex -0.002125 -0.002325 0.000105001
      vertex -0.002 -0.0024 0.000105001
      vertex -0.002125 -0.002825 0.000105001
    endloop
  endfacet
  facet normal 0 0 -1
    outer loop
      vertex -0.002 -0.00295 0.000105001
      vertex -0.002625 -0.002825 0.000105001
      vertex -0.002125 -0.002825 0.000105001
    endloop
  endfacet
  facet normal -0 0 -1
    outer loop
      vertex -0.002625 -0.002825 0.000105001
      vertex -0.00275 -0.00295 0.000105001
      vertex -0.002625 -0.002325 0.000105001
    endloop
  endfacet
  facet normal 0 0 -1
    outer loop
      vertex -0.00275 -0.00295 0.000105001
      vertex -0.002625 -0.002825 0.000105001
      vertex -0.002 -0.00295 0.000105001
    endloop
  endfacet
  facet normal 0 0 -1
    outer loop
      vertex -0.002 -0.0024 0.000105001
      vertex -0.002125 -0.002325 0.000105001
      vertex -0.002 -0.0022 0.000105001
    endloop
  endfacet
  facet normal 0 0 -1
    outer loop
      vertex -0.002625 -0.002325 0.000105001
      vertex -0.002 -0.0022 0.000105001
      vertex -0.002125 -0.002325 0.000105001
    endloop
  endfacet
  facet normal 0 0 -1
    outer loop
      vertex -0.002625 -0.002325 0.000105001
      vertex -0.00275 -0.0022 0.000105001
      vertex -0.002 -0.0022 0.000105001
    endloop
  endfacet
  facet normal 0 0 -1
    outer loop
      vertex -0.00275 -0.0022 0.000105001
      vertex -0.002625 -0.002325 0.000105001
      vertex -0.00275 -0.00295 0.000105001
    endloop
  endfacet
  facet normal 0 0 -1
    outer loop
      vertex -0.002325 0.002625 0.000105001
      vertex -0.0022 0.00275 0.000105001
      vertex -0.002325 0.002125 0.000105001
    endloop
  endfacet
  facet normal 0 0 -1
    outer loop
      vertex -0.002825 0.002625 0.000105001
      vertex -0.0022 0.00275 0.000105001
      vertex -0.002325 0.002625 0.000105001
    endloop
  endfacet
  facet normal 0 0 -1
    outer loop
      vertex -0.002825 0.002625 0.000105001
      vertex -0.00295 0.00275 0.000105001
      vertex -0.0022 0.00275 0.000105001
    endloop
  endfacet
  facet normal 0 0 -1
    outer loop
      vertex -0.00295 0.00275 0.000105001
      vertex -0.002825 0.002625 0.000105001
      vertex -0.00295 0.002 0.000105001
    endloop
  endfacet
  facet normal 0 0 -1
    outer loop
      vertex 0.00275 0.0022 0.000105001
      vertex 0.002625 0.002325 0.000105001
      vertex 0.00275 0.00295 0.000105001
    endloop
  endfacet
  facet normal 0 0 -1
    outer loop
      vertex 0.00275 0.0022 0.000105001
      vertex 0.002125 0.002325 0.000105001
      vertex 0.002625 0.002325 0.000105001
    endloop
  endfacet
  facet normal 0 0 -1
    outer loop
      vertex 0.002 0.0024 0.000105001
      vertex 0.002125 0.002325 0.000105001
      vertex 0.002 0.0022 0.000105001
    endloop
  endfacet
  facet normal 0 0 -1
    outer loop
      vertex 0.002 0.0022 0.000105001
      vertex 0.002125 0.002325 0.000105001
      vertex 0.00275 0.0022 0.000105001
    endloop
  endfacet
  facet normal 0 0 -1
    outer loop
      vertex 0.002625 0.002825 0.000105001
      vertex 0.00275 0.00295 0.000105001
      vertex 0.002625 0.002325 0.000105001
    endloop
  endfacet
  facet normal 0 0 -1
    outer loop
      vertex 0.002125 0.002825 0.000105001
      vertex 0.00275 0.00295 0.000105001
      vertex 0.002625 0.002825 0.000105001
    endloop
  endfacet
  facet normal 0 0 -1
    outer loop
      vertex 0.002125 0.002325 0.000105001
      vertex 0.002 0.0024 0.000105001
      vertex 0.002125 0.002825 0.000105001
    endloop
  endfacet
  facet normal 0 0 -1
    outer loop
      vertex 0.002125 0.002825 0.000105001
      vertex 0.002 0.00295 0.000105001
      vertex 0.00275 0.00295 0.000105001
    endloop
  endfacet
  facet normal 0 0 -1
    outer loop
      vertex 0.002 0.00295 0.000105001
      vertex 0.002125 0.002825 0.000105001
      vertex 0.002 0.0024 0.000105001
    endloop
  endfacet
  facet normal 0 0 -1
    outer loop
      vertex 0.00295 -0.00275 0.000105001
      vertex 0.002825 -0.002625 0.000105001
      vertex 0.00295 -0.002 0.000105001
    endloop
  endfacet
  facet normal 0 0 -1
    outer loop
      vertex 0.00295 -0.00275 0.000105001
      vertex 0.002325 -0.002625 0.000105001
      vertex 0.002825 -0.002625 0.000105001
    endloop
  endfacet
  facet normal -0 0 -1
    outer loop
      vertex 0.002325 -0.002625 0.000105001
      vertex 0.0022 -0.00275 0.000105001
      vertex 0.002325 -0.002125 0.000105001
    endloop
  endfacet
  facet normal 0 0 -1
    outer loop
      vertex 0.0022 -0.00275 0.000105001
      vertex 0.002325 -0.002625 0.000105001
      vertex 0.00295 -0.00275 0.000105001
    endloop
  endfacet
  facet normal 0 0 -1
    outer loop
      vertex 0.002825 -0.002125 0.000105001
      vertex 0.00295 -0.002 0.000105001
      vertex 0.002825 -0.002625 0.000105001
    endloop
  endfacet
  facet normal 0 0 -1
    outer loop
      vertex 0.002825 -0.002125 0.000105001
      vertex 0.0024 -0.002 0.000105001
      vertex 0.00295 -0.002 0.000105001
    endloop
  endfacet
  facet normal 0 0 -1
    outer loop
      vertex 0.002325 -0.002125 0.000105001
      vertex 0.0024 -0.002 0.000105001
      vertex 0.002825 -0.002125 0.000105001
    endloop
  endfacet
  facet normal 0 0 -1
    outer loop
      vertex 0.0022 -0.002 0.000105001
      vertex 0.0024 -0.002 0.000105001
      vertex 0.002325 -0.002125 0.000105001
    endloop
  endfacet
  facet normal 0 0 -1
    outer loop
      vertex 0.0022 -0.002 0.000105001
      vertex 0.002325 -0.002125 0.000105001
      vertex 0.0022 -0.00275 0.000105001
    endloop
  endfacet
  facet normal 0 0 -1
    outer loop
      vertex 0.0024 -0.002 0.000105001
      vertex 0.0022 -0.002 0.000105001
      vertex 0.0022 0.0018 0.000105001
    endloop
  endfacet
  facet normal 0 0 -1
    outer loop
      vertex 0.0024 -0.002 0.000105001
      vertex 0.0022 0.0018 0.000105001
      vertex 0.0024 0.002 0.000105001
    endloop
  endfacet
  facet normal 0 0 -1
    outer loop
      vertex 0.002 0.0018 0.000105001
      vertex 0.0024 0.002 0.000105001
      vertex 0.0022 0.0018 0.000105001
    endloop
  endfacet
  facet normal 0 0 -1
    outer loop
      vertex 0.002 -0.0024 0.000105001
      vertex 0.0018 -0.002 0.000105001
      vertex 0.002 0.0018 0.000105001
    endloop
  endfacet
  facet normal 0 0 -1
    outer loop
      vertex 0.002 0.0018 0.000105001
      vertex -0.0018 0.002 0.000105001
      vertex 0.0024 0.002 0.000105001
    endloop
  endfacet
  facet normal 0 0 -1
    outer loop
      vertex 0.0018 -0.002 0.000105001
      vertex -0.0018 0.002 0.000105001
      vertex 0.002 0.0018 0.000105001
    endloop
  endfacet
  facet normal 0 0 -1
    outer loop
      vertex -0.002 0.0024 0.000105001
      vertex -0.0018 0.002 0.000105001
      vertex -0.002 -0.0018 0.000105001
    endloop
  endfacet
  facet normal 0 0 -1
    outer loop
      vertex 0.0018 -0.002 0.000105001
      vertex -0.002 -0.0018 0.000105001
      vertex -0.0018 0.002 0.000105001
    endloop
  endfacet
  facet normal 0 0 -1
    outer loop
      vertex -0.0024 -0.002 0.000105001
      vertex -0.002 -0.0018 0.000105001
      vertex 0.0018 -0.002 0.000105001
    endloop
  endfacet
  facet normal 0 0 -1
    outer loop
      vertex -0.0022 0.002 0.000105001
      vertex -0.002325 0.002125 0.000105001
      vertex -0.0022 0.00275 0.000105001
    endloop
  endfacet
  facet normal 0 0 -1
    outer loop
      vertex -0.0024 0.002 0.000105001
      vertex -0.0022 0.002 0.000105001
      vertex -0.0022 -0.0018 0.000105001
    endloop
  endfacet
  facet normal -0 0 -1
    outer loop
      vertex -0.002 -0.0018 0.000105001
      vertex -0.0024 -0.002 0.000105001
      vertex -0.0022 -0.0018 0.000105001
    endloop
  endfacet
  facet normal 0 0 -1
    outer loop
      vertex -0.0024 0.002 0.000105001
      vertex -0.0022 -0.0018 0.000105001
      vertex -0.0024 -0.002 0.000105001
    endloop
  endfacet
  facet normal 0 0 -1
    outer loop
      vertex -0.0022 0.002 0.000105001
      vertex -0.0024 0.002 0.000105001
      vertex -0.002325 0.002125 0.000105001
    endloop
  endfacet
  facet normal 0 0 -1
    outer loop
      vertex -0.0024 0.002 0.000105001
      vertex -0.002825 0.002125 0.000105001
      vertex -0.002325 0.002125 0.000105001
    endloop
  endfacet
  facet normal -0 0 -1
    outer loop
      vertex -0.002825 0.002125 0.000105001
      vertex -0.00295 0.002 0.000105001
      vertex -0.002825 0.002625 0.000105001
    endloop
  endfacet
  facet normal 0 0 -1
    outer loop
      vertex -0.00295 0.002 0.000105001
      vertex -0.002825 0.002125 0.000105001
      vertex -0.0024 0.002 0.000105001
    endloop
  endfacet
  facet normal -1 0 0
    outer loop
      vertex 0.0022 -0.00275 0.000105001
      vertex 0.0022 -0.002 0.000304999
      vertex 0.0022 -0.002 0.000105001
    endloop
  endfacet
  facet normal -1 -0 0
    outer loop
      vertex 0.0022 -0.002 0.000304999
      vertex 0.0022 -0.00275 0.000105001
      vertex 0.0022 -0.00275 0.000304999
    endloop
  endfacet
  facet normal 0 1 -0
    outer loop
      vertex 0.00295 -0.002 0.000105001
      vertex 0.0024 -0.002 0.000304999
      vertex 0.00295 -0.002 0.000304999
    endloop
  endfacet
  facet normal 0 1 0
    outer loop
      vertex 0.0024 -0.002 0.000304999
      vertex 0.00295 -0.002 0.000105001
      vertex 0.0024 -0.002 0.000105001
    endloop
  endfacet
  facet normal 0 -1 0
    outer loop
      vertex 0.0022 -0.00275 0.000105001
      vertex 0.00295 -0.00275 0.000304999
      vertex 0.0022 -0.00275 0.000304999
    endloop
  endfacet
  facet normal 0 -1 -0
    outer loop
      vertex 0.00295 -0.00275 0.000304999
      vertex 0.0022 -0.00275 0.000105001
      vertex 0.00295 -0.00275 0.000105001
    endloop
  endfacet
  facet normal -1 0 0
    outer loop
      vertex 0.002825 -0.002625 0.000105001
      vertex 0.002825 -0.002125 0.000304999
      vertex 0.002825 -0.002125 0.000105001
    endloop
  endfacet
  facet normal -1 -0 0
    outer loop
      vertex 0.002825 -0.002125 0.000304999
      vertex 0.002825 -0.002625 0.000105001
      vertex 0.002825 -0.002625 0.000304999
    endloop
  endfacet
  facet normal 1 -0 0
    outer loop
      vertex 0.002325 -0.002625 0.000304999
      vertex 0.002325 -0.002125 0.000105001
      vertex 0.002325 -0.002125 0.000304999
    endloop
  endfacet
  facet normal 1 0 0
    outer loop
      vertex 0.002325 -0.002125 0.000105001
      vertex 0.002325 -0.002625 0.000304999
      vertex 0.002325 -0.002625 0.000105001
    endloop
  endfacet
  facet normal 0 -1 0
    outer loop
      vertex 0.002325 -0.002125 0.000105001
      vertex 0.002825 -0.002125 0.000304999
      vertex 0.002325 -0.002125 0.000304999
    endloop
  endfacet
  facet normal 0 -1 -0
    outer loop
      vertex 0.002825 -0.002125 0.000304999
      vertex 0.002325 -0.002125 0.000105001
      vertex 0.002825 -0.002125 0.000105001
    endloop
  endfacet
  facet normal 0 1 -0
    outer loop
      vertex 0.002825 -0.002625 0.000105001
      vertex 0.002325 -0.002625 0.000304999
      vertex 0.002825 -0.002625 0.000304999
    endloop
  endfacet
  facet normal 0 1 0
    outer loop
      vertex 0.002325 -0.002625 0.000304999
      vertex 0.002825 -0.002625 0.000105001
      vertex 0.002325 -0.002625 0.000105001
    endloop
  endfacet
  facet normal 1 -0 0
    outer loop
      vertex 0.0024 -0.002 0.000304999
      vertex 0.0024 0.002 0.000105001
      vertex 0.0024 0.002 0.000304999
    endloop
  endfacet
  facet normal 1 0 0
    outer loop
      vertex 0.0024 0.002 0.000105001
      vertex 0.0024 -0.002 0.000304999
      vertex 0.0024 -0.002 0.000105001
    endloop
  endfacet
  facet normal -1 0 0
    outer loop
      vertex 0.0022 -0.002 0.000105001
      vertex 0.0022 0.0018 0.000304999
      vertex 0.0022 0.0018 0.000105001
    endloop
  endfacet
  facet normal -1 -0 0
    outer loop
      vertex 0.0022 0.0018 0.000304999
      vertex 0.0022 -0.002 0.000105001
      vertex 0.0022 -0.002 0.000304999
    endloop
  endfacet
  facet normal 0 1 -0
    outer loop
      vertex 0.0024 0.002 0.000105001
      vertex -0.0018 0.002 0.000304999
      vertex 0.0024 0.002 0.000304999
    endloop
  endfacet
  facet normal 0 1 0
    outer loop
      vertex -0.0018 0.002 0.000304999
      vertex 0.0024 0.002 0.000105001
      vertex -0.0018 0.002 0.000105001
    endloop
  endfacet
  facet normal 1 -0 0
    outer loop
      vertex 0.002 -0.0024 0.000304999
      vertex 0.002 0.0018 0.000105001
      vertex 0.002 0.0018 0.000304999
    endloop
  endfacet
  facet normal 1 0 0
    outer loop
      vertex 0.002 0.0018 0.000105001
      vertex 0.002 -0.0024 0.000304999
      vertex 0.002 -0.0024 0.000105001
    endloop
  endfacet
  facet normal 0 -1 0
    outer loop
      vertex 0.002 0.0018 0.000105001
      vertex 0.0022 0.0018 0.000304999
      vertex 0.002 0.0018 0.000304999
    endloop
  endfacet
  facet normal 0 -1 -0
    outer loop
      vertex 0.0022 0.0018 0.000304999
      vertex 0.002 0.0018 0.000105001
      vertex 0.0022 0.0018 0.000105001
    endloop
  endfacet
  facet normal 0 1 -0
    outer loop
      vertex 0.00275 0.00295 0.000105001
      vertex 0.002 0.00295 0.000304999
      vertex 0.00275 0.00295 0.000304999
    endloop
  endfacet
  facet normal 0 1 0
    outer loop
      vertex 0.002 0.00295 0.000304999
      vertex 0.00275 0.00295 0.000105001
      vertex 0.002 0.00295 0.000105001
    endloop
  endfacet
  facet normal 0 -1 0
    outer loop
      vertex 0.002 0.0022 0.000105001
      vertex 0.00275 0.0022 0.000304999
      vertex 0.002 0.0022 0.000304999
    endloop
  endfacet
  facet normal 0 -1 -0
    outer loop
      vertex 0.00275 0.0022 0.000304999
      vertex 0.002 0.0022 0.000105001
      vertex 0.00275 0.0022 0.000105001
    endloop
  endfacet
  facet normal -1 0 0
    outer loop
      vertex 0.002 0.0024 0.000105001
      vertex 0.002 0.00295 0.000304999
      vertex 0.002 0.00295 0.000105001
    endloop
  endfacet
  facet normal -1 -0 0
    outer loop
      vertex 0.002 0.00295 0.000304999
      vertex 0.002 0.0024 0.000105001
      vertex 0.002 0.0024 0.000304999
    endloop
  endfacet
  facet normal 1 -0 0
    outer loop
      vertex 0.00275 0.0022 0.000304999
      vertex 0.00275 0.00295 0.000105001
      vertex 0.00275 0.00295 0.000304999
    endloop
  endfacet
  facet normal 1 0 0
    outer loop
      vertex 0.00275 0.00295 0.000105001
      vertex 0.00275 0.0022 0.000304999
      vertex 0.00275 0.0022 0.000105001
    endloop
  endfacet
  facet normal 0 -1 0
    outer loop
      vertex 0.002125 0.002825 0.000105001
      vertex 0.002625 0.002825 0.000304999
      vertex 0.002125 0.002825 0.000304999
    endloop
  endfacet
  facet normal 0 -1 -0
    outer loop
      vertex 0.002625 0.002825 0.000304999
      vertex 0.002125 0.002825 0.000105001
      vertex 0.002625 0.002825 0.000105001
    endloop
  endfacet
  facet normal 0 1 -0
    outer loop
      vertex 0.002625 0.002325 0.000105001
      vertex 0.002125 0.002325 0.000304999
      vertex 0.002625 0.002325 0.000304999
    endloop
  endfacet
  facet normal 0 1 0
    outer loop
      vertex 0.002125 0.002325 0.000304999
      vertex 0.002625 0.002325 0.000105001
      vertex 0.002125 0.002325 0.000105001
    endloop
  endfacet
  facet normal 1 -0 0
    outer loop
      vertex 0.002125 0.002325 0.000304999
      vertex 0.002125 0.002825 0.000105001
      vertex 0.002125 0.002825 0.000304999
    endloop
  endfacet
  facet normal 1 0 0
    outer loop
      vertex 0.002125 0.002825 0.000105001
      vertex 0.002125 0.002325 0.000304999
      vertex 0.002125 0.002325 0.000105001
    endloop
  endfacet
  facet normal -1 0 0
    outer loop
      vertex 0.002625 0.002325 0.000105001
      vertex 0.002625 0.002825 0.000304999
      vertex 0.002625 0.002825 0.000105001
    endloop
  endfacet
  facet normal -1 -0 0
    outer loop
      vertex 0.002625 0.002825 0.000304999
      vertex 0.002625 0.002325 0.000105001
      vertex 0.002625 0.002325 0.000304999
    endloop
  endfacet
  facet normal 0 1 -0
    outer loop
      vertex 0.002 0.0024 0.000105001
      vertex -0.002 0.0024 0.000304999
      vertex 0.002 0.0024 0.000304999
    endloop
  endfacet
  facet normal 0 1 0
    outer loop
      vertex -0.002 0.0024 0.000304999
      vertex 0.002 0.0024 0.000105001
      vertex -0.002 0.0024 0.000105001
    endloop
  endfacet
  facet normal 0 -1 0
    outer loop
      vertex -0.0018 0.0022 0.000105001
      vertex 0.002 0.0022 0.000304999
      vertex -0.0018 0.0022 0.000304999
    endloop
  endfacet
  facet normal 0 -1 -0
    outer loop
      vertex 0.002 0.0022 0.000304999
      vertex -0.0018 0.0022 0.000105001
      vertex 0.002 0.0022 0.000105001
    endloop
  endfacet
  facet normal -1 0 0
    outer loop
      vertex -0.002 -0.0018 0.000105001
      vertex -0.002 0.0024 0.000304999
      vertex -0.002 0.0024 0.000105001
    endloop
  endfacet
  facet normal -1 -0 0
    outer loop
      vertex -0.002 0.0024 0.000304999
      vertex -0.002 -0.0018 0.000105001
      vertex -0.002 -0.0018 0.000304999
    endloop
  endfacet
  facet normal 1 -0 0
    outer loop
      vertex -0.0018 0.002 0.000304999
      vertex -0.0018 0.0022 0.000105001
      vertex -0.0018 0.0022 0.000304999
    endloop
  endfacet
  facet normal 1 0 0
    outer loop
      vertex -0.0018 0.0022 0.000105001
      vertex -0.0018 0.002 0.000304999
      vertex -0.0018 0.002 0.000105001
    endloop
  endfacet
  facet normal -1 0 0
    outer loop
      vertex -0.00295 0.002 0.000105001
      vertex -0.00295 0.00275 0.000304999
      vertex -0.00295 0.00275 0.000105001
    endloop
  endfacet
  facet normal -1 -0 0
    outer loop
      vertex -0.00295 0.00275 0.000304999
      vertex -0.00295 0.002 0.000105001
      vertex -0.00295 0.002 0.000304999
    endloop
  endfacet
  facet normal 1 -0 0
    outer loop
      vertex -0.0022 0.002 0.000304999
      vertex -0.0022 0.00275 0.000105001
      vertex -0.0022 0.00275 0.000304999
    endloop
  endfacet
  facet normal 1 0 0
    outer loop
      vertex -0.0022 0.00275 0.000105001
      vertex -0.0022 0.002 0.000304999
      vertex -0.0022 0.002 0.000105001
    endloop
  endfacet
  facet normal 0 -1 0
    outer loop
      vertex -0.00295 0.002 0.000105001
      vertex -0.0024 0.002 0.000304999
      vertex -0.00295 0.002 0.000304999
    endloop
  endfacet
  facet normal 0 -1 -0
    outer loop
      vertex -0.0024 0.002 0.000304999
      vertex -0.00295 0.002 0.000105001
      vertex -0.0024 0.002 0.000105001
    endloop
  endfacet
  facet normal 0 1 -0
    outer loop
      vertex -0.0022 0.00275 0.000105001
      vertex -0.00295 0.00275 0.000304999
      vertex -0.0022 0.00275 0.000304999
    endloop
  endfacet
  facet normal 0 1 0
    outer loop
      vertex -0.00295 0.00275 0.000304999
      vertex -0.0022 0.00275 0.000105001
      vertex -0.00295 0.00275 0.000105001
    endloop
  endfacet
  facet normal 1 -0 0
    outer loop
      vertex -0.002825 0.002125 0.000304999
      vertex -0.002825 0.002625 0.000105001
      vertex -0.002825 0.002625 0.000304999
    endloop
  endfacet
  facet normal 1 0 0
    outer loop
      vertex -0.002825 0.002625 0.000105001
      vertex -0.002825 0.002125 0.000304999
      vertex -0.002825 0.002125 0.000105001
    endloop
  endfacet
  facet normal -1 0 0
    outer loop
      vertex -0.002325 0.002125 0.000105001
      vertex -0.002325 0.002625 0.000304999
      vertex -0.002325 0.002625 0.000105001
    endloop
  endfacet
  facet normal -1 -0 0
    outer loop
      vertex -0.002325 0.002625 0.000304999
      vertex -0.002325 0.002125 0.000105001
      vertex -0.002325 0.002125 0.000304999
    endloop
  endfacet
  facet normal 0 1 -0
    outer loop
      vertex -0.002325 0.002125 0.000105001
      vertex -0.002825 0.002125 0.000304999
      vertex -0.002325 0.002125 0.000304999
    endloop
  endfacet
  facet normal 0 1 0
    outer loop
      vertex -0.002825 0.002125 0.000304999
      vertex -0.002325 0.002125 0.000105001
      vertex -0.002825 0.002125 0.000105001
    endloop
  endfacet
  facet normal 0 -1 0
    outer loop
      vertex -0.002825 0.002625 0.000105001
      vertex -0.002325 0.002625 0.000304999
      vertex -0.002825 0.002625 0.000304999
    endloop
  endfacet
  facet normal 0 -1 -0
    outer loop
      vertex -0.002325 0.002625 0.000304999
      vertex -0.002825 0.002625 0.000105001
      vertex -0.002325 0.002625 0.000105001
    endloop
  endfacet
  facet normal -1 0 0
    outer loop
      vertex -0.0024 -0.002 0.000105001
      vertex -0.0024 0.002 0.000304999
      vertex -0.0024 0.002 0.000105001
    endloop
  endfacet
  facet normal -1 -0 0
    outer loop
      vertex -0.0024 0.002 0.000304999
      vertex -0.0024 -0.002 0.000105001
      vertex -0.0024 -0.002 0.000304999
    endloop
  endfacet
  facet normal 1 -0 0
    outer loop
      vertex -0.0022 -0.0018 0.000304999
      vertex -0.0022 0.002 0.000105001
      vertex -0.0022 0.002 0.000304999
    endloop
  endfacet
  facet normal 1 0 0
    outer loop
      vertex -0.0022 0.002 0.000105001
      vertex -0.0022 -0.0018 0.000304999
      vertex -0.0022 -0.0018 0.000105001
    endloop
  endfacet
  facet normal 0 -1 0
    outer loop
      vertex -0.0024 -0.002 0.000105001
      vertex 0.0018 -0.002 0.000304999
      vertex -0.0024 -0.002 0.000304999
    endloop
  endfacet
  facet normal 0 -1 -0
    outer loop
      vertex 0.0018 -0.002 0.000304999
      vertex -0.0024 -0.002 0.000105001
      vertex 0.0018 -0.002 0.000105001
    endloop
  endfacet
  facet normal 0 1 -0
    outer loop
      vertex -0.002 -0.0018 0.000105001
      vertex -0.0022 -0.0018 0.000304999
      vertex -0.002 -0.0018 0.000304999
    endloop
  endfacet
  facet normal 0 1 0
    outer loop
      vertex -0.0022 -0.0018 0.000304999
      vertex -0.002 -0.0018 0.000105001
      vertex -0.0022 -0.0018 0.000105001
    endloop
  endfacet
  facet normal 0 -1 0
    outer loop
      vertex -0.00275 -0.00295 0.000105001
      vertex -0.002 -0.00295 0.000304999
      vertex -0.00275 -0.00295 0.000304999
    endloop
  endfacet
  facet normal 0 -1 -0
    outer loop
      vertex -0.002 -0.00295 0.000304999
      vertex -0.00275 -0.00295 0.000105001
      vertex -0.002 -0.00295 0.000105001
    endloop
  endfacet
  facet normal 0 1 -0
    outer loop
      vertex -0.002 -0.0022 0.000105001
      vertex -0.00275 -0.0022 0.000304999
      vertex -0.002 -0.0022 0.000304999
    endloop
  endfacet
  facet normal 0 1 0
    outer loop
      vertex -0.00275 -0.0022 0.000304999
      vertex -0.002 -0.0022 0.000105001
      vertex -0.00275 -0.0022 0.000105001
    endloop
  endfacet
  facet normal 1 -0 0
    outer loop
      vertex -0.002 -0.00295 0.000304999
      vertex -0.002 -0.0024 0.000105001
      vertex -0.002 -0.0024 0.000304999
    endloop
  endfacet
  facet normal 1 0 0
    outer loop
      vertex -0.002 -0.0024 0.000105001
      vertex -0.002 -0.00295 0.000304999
      vertex -0.002 -0.00295 0.000105001
    endloop
  endfacet
  facet normal -1 0 0
    outer loop
      vertex -0.00275 -0.00295 0.000105001
      vertex -0.00275 -0.0022 0.000304999
      vertex -0.00275 -0.0022 0.000105001
    endloop
  endfacet
  facet normal -1 -0 0
    outer loop
      vertex -0.00275 -0.0022 0.000304999
      vertex -0.00275 -0.00295 0.000105001
      vertex -0.00275 -0.00295 0.000304999
    endloop
  endfacet
  facet normal 0 1 -0
    outer loop
      vertex -0.002125 -0.002825 0.000105001
      vertex -0.002625 -0.002825 0.000304999
      vertex -0.002125 -0.002825 0.000304999
    endloop
  endfacet
  facet normal 0 1 0
    outer loop
      vertex -0.002625 -0.002825 0.000304999
      vertex -0.002125 -0.002825 0.000105001
      vertex -0.002625 -0.002825 0.000105001
    endloop
  endfacet
  facet normal 0 -1 0
    outer loop
      vertex -0.002625 -0.002325 0.000105001
      vertex -0.002125 -0.002325 0.000304999
      vertex -0.002625 -0.002325 0.000304999
    endloop
  endfacet
  facet normal 0 -1 -0
    outer loop
      vertex -0.002125 -0.002325 0.000304999
      vertex -0.002625 -0.002325 0.000105001
      vertex -0.002125 -0.002325 0.000105001
    endloop
  endfacet
  facet normal -1 0 0
    outer loop
      vertex -0.002125 -0.002825 0.000105001
      vertex -0.002125 -0.002325 0.000304999
      vertex -0.002125 -0.002325 0.000105001
    endloop
  endfacet
  facet normal -1 -0 0
    outer loop
      vertex -0.002125 -0.002325 0.000304999
      vertex -0.002125 -0.002825 0.000105001
      vertex -0.002125 -0.002825 0.000304999
    endloop
  endfacet
  facet normal 1 -0 0
    outer loop
      vertex -0.002625 -0.002825 0.000304999
      vertex -0.002625 -0.002325 0.000105001
      vertex -0.002625 -0.002325 0.000304999
    endloop
  endfacet
  facet normal 1 0 0
    outer loop
      vertex -0.002625 -0.002325 0.000105001
      vertex -0.002625 -0.002825 0.000304999
      vertex -0.002625 -0.002825 0.000105001
    endloop
  endfacet
  facet normal 0 -1 0
    outer loop
      vertex -0.002 -0.0024 0.000105001
      vertex 0.002 -0.0024 0.000304999
      vertex -0.002 -0.0024 0.000304999
    endloop
  endfacet
  facet normal 0 -1 -0
    outer loop
      vertex 0.002 -0.0024 0.000304999
      vertex -0.002 -0.0024 0.000105001
      vertex 0.002 -0.0024 0.000105001
    endloop
  endfacet
  facet normal 0 1 -0
    outer loop
      vertex 0.0018 -0.0022 0.000105001
      vertex -0.002 -0.0022 0.000304999
      vertex 0.0018 -0.0022 0.000304999
    endloop
  endfacet
  facet normal 0 1 0
    outer loop
      vertex -0.002 -0.0022 0.000304999
      vertex 0.0018 -0.0022 0.000105001
      vertex -0.002 -0.0022 0.000105001
    endloop
  endfacet
  facet normal -1 0 0
    outer loop
      vertex 0.0018 -0.0022 0.000105001
      vertex 0.0018 -0.002 0.000304999
      vertex 0.0018 -0.002 0.000105001
    endloop
  endfacet
  facet normal -1 -0 0
    outer loop
      vertex 0.0018 -0.002 0.000304999
      vertex 0.0018 -0.0022 0.000105001
      vertex 0.0018 -0.0022 0.000304999
    endloop
  endfacet
endsolid OpenSCAD_Model
