solid OpenSCAD_Model
  facet normal 1 -0 0
    outer loop
      vertex 0.00395 -0.00375 0.000304999
      vertex 0.00395 -0.003 0.000105001
      vertex 0.00395 -0.003 0.000304999
    endloop
  endfacet
  facet normal 1 0 0
    outer loop
      vertex 0.00395 -0.003 0.000105001
      vertex 0.00395 -0.00375 0.000304999
      vertex 0.00395 -0.00375 0.000105001
    endloop
  endfacet
  facet normal -0 0 1
    outer loop
      vertex -0.003825 0.003125 0.000304999
      vertex -0.0034 0.003 0.000304999
      vertex -0.003325 0.003125 0.000304999
    endloop
  endfacet
  facet normal 0 0 1
    outer loop
      vertex -0.003825 0.003125 0.000304999
      vertex -0.00395 0.003 0.000304999
      vertex -0.0034 0.003 0.000304999
    endloop
  endfacet
  facet normal 0 0 1
    outer loop
      vertex -0.00395 0.003 0.000304999
      vertex -0.003825 0.003125 0.000304999
      vertex -0.00395 0.00375 0.000304999
    endloop
  endfacet
  facet normal -0 0 1
    outer loop
      vertex -0.003325 0.003125 0.000304999
      vertex -0.0032 0.003 0.000304999
      vertex -0.0032 0.00375 0.000304999
    endloop
  endfacet
  facet normal 0 0 1
    outer loop
      vertex -0.003325 0.003125 0.000304999
      vertex -0.0032 0.00375 0.000304999
      vertex -0.003325 0.003625 0.000304999
    endloop
  endfacet
  facet normal 0 0 1
    outer loop
      vertex -0.0032 0.00375 0.000304999
      vertex -0.003825 0.003625 0.000304999
      vertex -0.003325 0.003625 0.000304999
    endloop
  endfacet
  facet normal 0 0 1
    outer loop
      vertex -0.003825 0.003625 0.000304999
      vertex -0.00395 0.00375 0.000304999
      vertex -0.003825 0.003125 0.000304999
    endloop
  endfacet
  facet normal -0 0 1
    outer loop
      vertex -0.00395 0.00375 0.000304999
      vertex -0.003825 0.003625 0.000304999
      vertex -0.0032 0.00375 0.000304999
    endloop
  endfacet
  facet normal -0 0 1
    outer loop
      vertex 0.0032 0.0028 0.000304999
      vertex 0.0034 -0.003 0.000304999
      vertex 0.0034 0.003 0.000304999
    endloop
  endfacet
  facet normal 0 0 1
    outer loop
      vertex 0.0034 -0.003 0.000304999
      vertex 0.0032 -0.003 0.000304999
      vertex 0.003325 -0.003125 0.000304999
    endloop
  endfacet
  facet normal 0 0 1
    outer loop
      vertex 0.0032 -0.003 0.000304999
      vertex 0.0034 -0.003 0.000304999
      vertex 0.0032 0.0028 0.000304999
    endloop
  endfacet
  facet normal 0 0 1
    outer loop
      vertex 0.0034 0.003 0.000304999
      vertex 0.003 0.0028 0.000304999
      vertex 0.0032 0.0028 0.000304999
    endloop
  endfacet
  facet normal 0 0 1
    outer loop
      vertex 0.003 0.0028 0.000304999
      vertex 0.0028 -0.003 0.000304999
      vertex 0.003 -0.0034 0.000304999
    endloop
  endfacet
  facet normal -0 0 1
    outer loop
      vertex -0.0028 0.003 0.000304999
      vertex 0.003 0.0028 0.000304999
      vertex 0.0034 0.003 0.000304999
    endloop
  endfacet
  facet normal 0 0 1
    outer loop
      vertex -0.0028 0.003 0.000304999
      vertex 0.0028 -0.003 0.000304999
      vertex 0.003 0.0028 0.000304999
    endloop
  endfacet
  facet normal 0 0 1
    outer loop
      vertex -0.003 -0.0028 0.000304999
      vertex -0.0028 0.003 0.000304999
      vertex -0.003 0.0034 0.000304999
    endloop
  endfacet
  facet normal -0 0 1
    outer loop
      vertex -0.003 -0.0028 0.000304999
      vertex 0.0028 -0.003 0.000304999
      vertex -0.0028 0.003 0.000304999
    endloop
  endfacet
  facet normal 0 0 1
    outer loop
      vertex -0.0034 -0.003 0.000304999
      vertex -0.003 -0.0028 0.000304999
      vertex -0.0032 -0.0028 0.000304999
    endloop
  endfacet
  facet normal 0 0 1
    outer loop
      vertex -0.0034 0.003 0.000304999
      vertex -0.0032 0.003 0.000304999
      vertex -0.003325 0.003125 0.000304999
    endloop
  endfacet
  facet normal 0 0 1
    outer loop
      vertex -0.0032 0.003 0.000304999
      vertex -0.0034 0.003 0.000304999
      vertex -0.0032 -0.0028 0.000304999
    endloop
  endfacet
  facet normal 0 0 1
    outer loop
      vertex -0.003 -0.0028 0.000304999
      vertex -0.0034 -0.003 0.000304999
      vertex 0.0028 -0.003 0.000304999
    endloop
  endfacet
  facet normal 0 0 1
    outer loop
      vertex -0.0034 -0.003 0.000304999
      vertex -0.0032 -0.0028 0.000304999
      vertex -0.0034 0.003 0.000304999
    endloop
  endfacet
  facet normal 0 0 1
    outer loop
      vertex 0.00395 -0.003 0.000304999
      vertex 0.003825 -0.003125 0.000304999
      vertex 0.00395 -0.00375 0.000304999
    endloop
  endfacet
  facet normal -0 0 1
    outer loop
      vertex 0.0034 -0.003 0.000304999
      vertex 0.003825 -0.003125 0.000304999
      vertex 0.00395 -0.003 0.000304999
    endloop
  endfacet
  facet normal 0 0 1
    outer loop
      vertex 0.003825 -0.003125 0.000304999
      vertex 0.0034 -0.003 0.000304999
      vertex 0.003325 -0.003125 0.000304999
    endloop
  endfacet
  facet normal -0 0 1
    outer loop
      vertex 0.003825 -0.003625 0.000304999
      vertex 0.00395 -0.00375 0.000304999
      vertex 0.003825 -0.003125 0.000304999
    endloop
  endfacet
  facet normal -0 0 1
    outer loop
      vertex 0.003325 -0.003625 0.000304999
      vertex 0.00395 -0.00375 0.000304999
      vertex 0.003825 -0.003625 0.000304999
    endloop
  endfacet
  facet normal 0 0 1
    outer loop
      vertex 0.003325 -0.003125 0.000304999
      vertex 0.0032 -0.003 0.000304999
      vertex 0.003325 -0.003625 0.000304999
    endloop
  endfacet
  facet normal 0 0 1
    outer loop
      vertex 0.003325 -0.003625 0.000304999
      vertex 0.0032 -0.00375 0.000304999
      vertex 0.00395 -0.00375 0.000304999
    endloop
  endfacet
  facet normal 0 0 1
    outer loop
      vertex 0.0032 -0.00375 0.000304999
      vertex 0.003325 -0.003625 0.000304999
      vertex 0.0032 -0.003 0.000304999
    endloop
  endfacet
  facet normal -0 0 1
    outer loop
      vertex 0.0028 -0.0032 0.000304999
      vertex 0.003 -0.0034 0.000304999
      vertex 0.0028 -0.003 0.000304999
    endloop
  endfacet
  facet normal 0 0 1
    outer loop
      vertex -0.003 -0.0034 0.000304999
      vertex 0.0028 -0.0032 0.000304999
      vertex -0.003 -0.0032 0.000304999
    endloop
  endfacet
  facet normal 0 0 1
    outer loop
      vertex 0.0028 -0.0032 0.000304999
      vertex -0.003 -0.0034 0.000304999
      vertex 0.003 -0.0034 0.000304999
    endloop
  endfacet
  facet normal -0 0 1
    outer loop
      vertex -0.003125 -0.003325 0.000304999
      vertex -0.003 -0.0034 0.000304999
      vertex -0.003 -0.0032 0.000304999
    endloop
  endfacet
  facet normal 0 0 1
    outer loop
      vertex -0.003125 -0.003825 0.000304999
      vertex -0.003 -0.0034 0.000304999
      vertex -0.003125 -0.003325 0.000304999
    endloop
  endfacet
  facet normal 0 0 1
    outer loop
      vertex -0.003 -0.0032 0.000304999
      vertex -0.003625 -0.003325 0.000304999
      vertex -0.003125 -0.003325 0.000304999
    endloop
  endfacet
  facet normal 0 0 1
    outer loop
      vertex -0.003625 -0.003325 0.000304999
      vertex -0.00375 -0.0032 0.000304999
      vertex -0.003625 -0.003825 0.000304999
    endloop
  endfacet
  facet normal -0 0 1
    outer loop
      vertex -0.00375 -0.0032 0.000304999
      vertex -0.003625 -0.003325 0.000304999
      vertex -0.003 -0.0032 0.000304999
    endloop
  endfacet
  facet normal 0 0 1
    outer loop
      vertex -0.003 -0.0034 0.000304999
      vertex -0.003125 -0.003825 0.000304999
      vertex -0.003 -0.00395 0.000304999
    endloop
  endfacet
  facet normal -0 0 1
    outer loop
      vertex -0.003625 -0.003825 0.000304999
      vertex -0.003 -0.00395 0.000304999
      vertex -0.003125 -0.003825 0.000304999
    endloop
  endfacet
  facet normal 0 0 1
    outer loop
      vertex -0.003625 -0.003825 0.000304999
      vertex -0.00375 -0.00395 0.000304999
      vertex -0.003 -0.00395 0.000304999
    endloop
  endfacet
  facet normal 0 0 1
    outer loop
      vertex -0.00375 -0.00395 0.000304999
      vertex -0.003625 -0.003825 0.000304999
      vertex -0.00375 -0.0032 0.000304999
    endloop
  endfacet
  facet normal 0 0 1
    outer loop
      vertex 0.00375 0.00395 0.000304999
      vertex 0.003625 0.003825 0.000304999
      vertex 0.00375 0.0032 0.000304999
    endloop
  endfacet
  facet normal 0 0 1
    outer loop
      vertex 0.00375 0.00395 0.000304999
      vertex 0.003125 0.003825 0.000304999
      vertex 0.003625 0.003825 0.000304999
    endloop
  endfacet
  facet normal 0 0 1
    outer loop
      vertex 0.003 0.0034 0.000304999
      vertex 0.003125 0.003825 0.000304999
      vertex 0.003 0.00395 0.000304999
    endloop
  endfacet
  facet normal -0 0 1
    outer loop
      vertex 0.003 0.00395 0.000304999
      vertex 0.003125 0.003825 0.000304999
      vertex 0.00375 0.00395 0.000304999
    endloop
  endfacet
  facet normal -0 0 1
    outer loop
      vertex 0.003625 0.003325 0.000304999
      vertex 0.00375 0.0032 0.000304999
      vertex 0.003625 0.003825 0.000304999
    endloop
  endfacet
  facet normal -0 0 1
    outer loop
      vertex 0.003125 0.003325 0.000304999
      vertex 0.00375 0.0032 0.000304999
      vertex 0.003625 0.003325 0.000304999
    endloop
  endfacet
  facet normal 0 0 1
    outer loop
      vertex 0.003125 0.003825 0.000304999
      vertex 0.003 0.0034 0.000304999
      vertex 0.003125 0.003325 0.000304999
    endloop
  endfacet
  facet normal 0 0 1
    outer loop
      vertex 0.003125 0.003325 0.000304999
      vertex 0.003 0.0032 0.000304999
      vertex 0.00375 0.0032 0.000304999
    endloop
  endfacet
  facet normal 0 0 1
    outer loop
      vertex 0.003 0.0034 0.000304999
      vertex 0.003 0.0032 0.000304999
      vertex 0.003125 0.003325 0.000304999
    endloop
  endfacet
  facet normal 0 0 1
    outer loop
      vertex 0.003 0.0034 0.000304999
      vertex -0.0028 0.0032 0.000304999
      vertex 0.003 0.0032 0.000304999
    endloop
  endfacet
  facet normal 0 0 1
    outer loop
      vertex -0.0028 0.0032 0.000304999
      vertex -0.003 0.0034 0.000304999
      vertex -0.0028 0.003 0.000304999
    endloop
  endfacet
  facet normal -0 0 1
    outer loop
      vertex -0.003 0.0034 0.000304999
      vertex -0.0028 0.0032 0.000304999
      vertex 0.003 0.0034 0.000304999
    endloop
  endfacet
  facet normal 0 0 -1
    outer loop
      vertex 0.0028 -0.003 0.000105001
      vertex 0.003 -0.0034 0.000105001
      vertex 0.0028 -0.0032 0.000105001
    endloop
  endfacet
  facet normal 0 0 -1
    outer loop
      vertex -0.003 -0.0034 0.000105001
      vertex 0.0028 -0.0032 0.000105001
      vertex 0.003 -0.0034 0.000105001
    endloop
  endfacet
  facet normal -0 0 -1
    outer loop
      vertex 0.0028 -0.0032 0.000105001
      vertex -0.003 -0.0034 0.000105001
      vertex -0.003 -0.0032 0.000105001
    endloop
  endfacet
  facet normal 0 0 -1
    outer loop
      vertex -0.0028 0.0032 0.000105001
      vertex 0.003 0.0034 0.000105001
      vertex 0.003 0.0032 0.000105001
    endloop
  endfacet
  facet normal 0 0 -1
    outer loop
      vertex -0.0028 0.0032 0.000105001
      vertex -0.003 0.0034 0.000105001
      vertex 0.003 0.0034 0.000105001
    endloop
  endfacet
  facet normal 0 0 -1
    outer loop
      vertex -0.0028 0.003 0.000105001
      vertex -0.003 0.0034 0.000105001
      vertex -0.0028 0.0032 0.000105001
    endloop
  endfacet
  facet normal 0 0 -1
    outer loop
      vertex -0.003125 -0.003825 0.000105001
      vertex -0.003 -0.0034 0.000105001
      vertex -0.003 -0.00395 0.000105001
    endloop
  endfacet
  facet normal 0 0 -1
    outer loop
      vertex -0.003125 -0.003325 0.000105001
      vertex -0.003 -0.0034 0.000105001
      vertex -0.003125 -0.003825 0.000105001
    endloop
  endfacet
  facet normal 0 0 -1
    outer loop
      vertex -0.003 -0.00395 0.000105001
      vertex -0.003625 -0.003825 0.000105001
      vertex -0.003125 -0.003825 0.000105001
    endloop
  endfacet
  facet normal -0 0 -1
    outer loop
      vertex -0.003625 -0.003825 0.000105001
      vertex -0.00375 -0.00395 0.000105001
      vertex -0.003625 -0.003325 0.000105001
    endloop
  endfacet
  facet normal 0 0 -1
    outer loop
      vertex -0.00375 -0.00395 0.000105001
      vertex -0.003625 -0.003825 0.000105001
      vertex -0.003 -0.00395 0.000105001
    endloop
  endfacet
  facet normal 0 0 -1
    outer loop
      vertex -0.003 -0.0034 0.000105001
      vertex -0.003125 -0.003325 0.000105001
      vertex -0.003 -0.0032 0.000105001
    endloop
  endfacet
  facet normal 0 0 -1
    outer loop
      vertex -0.003625 -0.003325 0.000105001
      vertex -0.003 -0.0032 0.000105001
      vertex -0.003125 -0.003325 0.000105001
    endloop
  endfacet
  facet normal 0 0 -1
    outer loop
      vertex -0.003625 -0.003325 0.000105001
      vertex -0.00375 -0.0032 0.000105001
      vertex -0.003 -0.0032 0.000105001
    endloop
  endfacet
  facet normal 0 0 -1
    outer loop
      vertex -0.00375 -0.0032 0.000105001
      vertex -0.003625 -0.003325 0.000105001
      vertex -0.00375 -0.00395 0.000105001
    endloop
  endfacet
  facet normal 0 0 -1
    outer loop
      vertex -0.003325 0.003625 0.000105001
      vertex -0.0032 0.00375 0.000105001
      vertex -0.003325 0.003125 0.000105001
    endloop
  endfacet
  facet normal 0 0 -1
    outer loop
      vertex -0.003825 0.003625 0.000105001
      vertex -0.0032 0.00375 0.000105001
      vertex -0.003325 0.003625 0.000105001
    endloop
  endfacet
  facet normal 0 0 -1
    outer loop
      vertex -0.003825 0.003625 0.000105001
      vertex -0.00395 0.00375 0.000105001
      vertex -0.0032 0.00375 0.000105001
    endloop
  endfacet
  facet normal 0 0 -1
    outer loop
      vertex -0.00395 0.00375 0.000105001
      vertex -0.003825 0.003625 0.000105001
      vertex -0.00395 0.003 0.000105001
    endloop
  endfacet
  facet normal 0 0 -1
    outer loop
      vertex 0.00375 0.0032 0.000105001
      vertex 0.003625 0.003325 0.000105001
      vertex 0.00375 0.00395 0.000105001
    endloop
  endfacet
  facet normal 0 0 -1
    outer loop
      vertex 0.00375 0.0032 0.000105001
      vertex 0.003125 0.003325 0.000105001
      vertex 0.003625 0.003325 0.000105001
    endloop
  endfacet
  facet normal 0 0 -1
    outer loop
      vertex 0.003 0.0034 0.000105001
      vertex 0.003125 0.003325 0.000105001
      vertex 0.003 0.0032 0.000105001
    endloop
  endfacet
  facet normal 0 0 -1
    outer loop
      vertex 0.003 0.0032 0.000105001
      vertex 0.003125 0.003325 0.000105001
      vertex 0.00375 0.0032 0.000105001
    endloop
  endfacet
  facet normal 0 0 -1
    outer loop
      vertex 0.003625 0.003825 0.000105001
      vertex 0.00375 0.00395 0.000105001
      vertex 0.003625 0.003325 0.000105001
    endloop
  endfacet
  facet normal 0 0 -1
    outer loop
      vertex 0.003125 0.003825 0.000105001
      vertex 0.00375 0.00395 0.000105001
      vertex 0.003625 0.003825 0.000105001
    endloop
  endfacet
  facet normal 0 0 -1
    outer loop
      vertex 0.003125 0.003325 0.000105001
      vertex 0.003 0.0034 0.000105001
      vertex 0.003125 0.003825 0.000105001
    endloop
  endfacet
  facet normal 0 0 -1
    outer loop
      vertex 0.003125 0.003825 0.000105001
      vertex 0.003 0.00395 0.000105001
      vertex 0.00375 0.00395 0.000105001
    endloop
  endfacet
  facet normal 0 0 -1
    outer loop
      vertex 0.003 0.00395 0.000105001
      vertex 0.003125 0.003825 0.000105001
      vertex 0.003 0.0034 0.000105001
    endloop
  endfacet
  facet normal 0 0 -1
    outer loop
      vertex 0.00395 -0.00375 0.000105001
      vertex 0.003825 -0.003625 0.000105001
      vertex 0.00395 -0.003 0.000105001
    endloop
  endfacet
  facet normal 0 0 -1
    outer loop
      vertex 0.00395 -0.00375 0.000105001
      vertex 0.003325 -0.003625 0.000105001
      vertex 0.003825 -0.003625 0.000105001
    endloop
  endfacet
  facet normal -0 0 -1
    outer loop
      vertex 0.003325 -0.003625 0.000105001
      vertex 0.0032 -0.00375 0.000105001
      vertex 0.003325 -0.003125 0.000105001
    endloop
  endfacet
  facet normal 0 0 -1
    outer loop
      vertex 0.0032 -0.00375 0.000105001
      vertex 0.003325 -0.003625 0.000105001
      vertex 0.00395 -0.00375 0.000105001
    endloop
  endfacet
  facet normal 0 0 -1
    outer loop
      vertex 0.003825 -0.003125 0.000105001
      vertex 0.00395 -0.003 0.000105001
      vertex 0.003825 -0.003625 0.000105001
    endloop
  endfacet
  facet normal 0 0 -1
    outer loop
      vertex 0.003825 -0.003125 0.000105001
      vertex 0.0034 -0.003 0.000105001
      vertex 0.00395 -0.003 0.000105001
    endloop
  endfacet
  facet normal 0 0 -1
    outer loop
      vertex 0.003325 -0.003125 0.000105001
      vertex 0.0034 -0.003 0.000105001
      vertex 0.003825 -0.003125 0.000105001
    endloop
  endfacet
  facet normal 0 0 -1
    outer loop
      vertex 0.0032 -0.003 0.000105001
      vertex 0.0034 -0.003 0.000105001
      vertex 0.003325 -0.003125 0.000105001
    endloop
  endfacet
  facet normal 0 0 -1
    outer loop
      vertex 0.0032 -0.003 0.000105001
      vertex 0.003325 -0.003125 0.000105001
      vertex 0.0032 -0.00375 0.000105001
    endloop
  endfacet
  facet normal 0 0 -1
    outer loop
      vertex 0.0034 -0.003 0.000105001
      vertex 0.0032 -0.003 0.000105001
      vertex 0.0032 0.0028 0.000105001
    endloop
  endfacet
  facet normal 0 0 -1
    outer loop
      vertex 0.0034 -0.003 0.000105001
      vertex 0.0032 0.0028 0.000105001
      vertex 0.0034 0.003 0.000105001
    endloop
  endfacet
  facet normal 0 0 -1
    outer loop
      vertex 0.003 0.0028 0.000105001
      vertex 0.0034 0.003 0.000105001
      vertex 0.0032 0.0028 0.000105001
    endloop
  endfacet
  facet normal 0 0 -1
    outer loop
      vertex 0.003 -0.0034 0.000105001
      vertex 0.0028 -0.003 0.000105001
      vertex 0.003 0.0028 0.000105001
    endloop
  endfacet
  facet normal 0 0 -1
    outer loop
      vertex 0.003 0.0028 0.000105001
      vertex -0.0028 0.003 0.000105001
      vertex 0.0034 0.003 0.000105001
    endloop
  endfacet
  facet normal 0 0 -1
    outer loop
      vertex 0.0028 -0.003 0.000105001
      vertex -0.0028 0.003 0.000105001
      vertex 0.003 0.0028 0.000105001
    endloop
  endfacet
  facet normal 0 0 -1
    outer loop
      vertex -0.003 0.0034 0.000105001
      vertex -0.0028 0.003 0.000105001
      vertex -0.003 -0.0028 0.000105001
    endloop
  endfacet
  facet normal 0 0 -1
    outer loop
      vertex 0.0028 -0.003 0.000105001
      vertex -0.003 -0.0028 0.000105001
      vertex -0.0028 0.003 0.000105001
    endloop
  endfacet
  facet normal 0 0 -1
    outer loop
      vertex -0.0034 -0.003 0.000105001
      vertex -0.003 -0.0028 0.000105001
      vertex 0.0028 -0.003 0.000105001
    endloop
  endfacet
  facet normal 0 0 -1
    outer loop
      vertex -0.0034 0.003 0.000105001
      vertex -0.0032 0.003 0.000105001
      vertex -0.0032 -0.0028 0.000105001
    endloop
  endfacet
  facet normal 0 0 -1
    outer loop
      vertex -0.0032 0.003 0.000105001
      vertex -0.003325 0.003125 0.000105001
      vertex -0.0032 0.00375 0.000105001
    endloop
  endfacet
  facet normal -0 0 -1
    outer loop
      vertex -0.003 -0.0028 0.000105001
      vertex -0.0034 -0.003 0.000105001
      vertex -0.0032 -0.0028 0.000105001
    endloop
  endfacet
  facet normal 0 0 -1
    outer loop
      vertex -0.0034 0.003 0.000105001
      vertex -0.0032 -0.0028 0.000105001
      vertex -0.0034 -0.003 0.000105001
    endloop
  endfacet
  facet normal 0 0 -1
    outer loop
      vertex -0.0032 0.003 0.000105001
      vertex -0.0034 0.003 0.000105001
      vertex -0.003325 0.003125 0.000105001
    endloop
  endfacet
  facet normal 0 0 -1
    outer loop
      vertex -0.0034 0.003 0.000105001
      vertex -0.003825 0.003125 0.000105001
      vertex -0.003325 0.003125 0.000105001
    endloop
  endfacet
  facet normal -0 0 -1
    outer loop
      vertex -0.003825 0.003125 0.000105001
      vertex -0.00395 0.003 0.000105001
      vertex -0.003825 0.003625 0.000105001
    endloop
  endfacet
  facet normal 0 0 -1
    outer loop
      vertex -0.00395 0.003 0.000105001
      vertex -0.003825 0.003125 0.000105001
      vertex -0.0034 0.003 0.000105001
    endloop
  endfacet
  facet normal -1 0 0
    outer loop
      vertex 0.0032 -0.00375 0.000105001
      vertex 0.0032 -0.003 0.000304999
      vertex 0.0032 -0.003 0.000105001
    endloop
  endfacet
  facet normal -1 -0 0
    outer loop
      vertex 0.0032 -0.003 0.000304999
      vertex 0.0032 -0.00375 0.000105001
      vertex 0.0032 -0.00375 0.000304999
    endloop
  endfacet
  facet normal 0 1 -0
    outer loop
      vertex 0.00395 -0.003 0.000105001
      vertex 0.0034 -0.003 0.000304999
      vertex 0.00395 -0.003 0.000304999
    endloop
  endfacet
  facet normal 0 1 0
    outer loop
      vertex 0.0034 -0.003 0.000304999
      vertex 0.00395 -0.003 0.000105001
      vertex 0.0034 -0.003 0.000105001
    endloop
  endfacet
  facet normal 0 -1 0
    outer loop
      vertex 0.0032 -0.00375 0.000105001
      vertex 0.00395 -0.00375 0.000304999
      vertex 0.0032 -0.00375 0.000304999
    endloop
  endfacet
  facet normal 0 -1 -0
    outer loop
      vertex 0.00395 -0.00375 0.000304999
      vertex 0.0032 -0.00375 0.000105001
      vertex 0.00395 -0.00375 0.000105001
    endloop
  endfacet
  facet normal -1 0 0
    outer loop
      vertex 0.003825 -0.003625 0.000105001
      vertex 0.003825 -0.003125 0.000304999
      vertex 0.003825 -0.003125 0.000105001
    endloop
  endfacet
  facet normal -1 -0 0
    outer loop
      vertex 0.003825 -0.003125 0.000304999
      vertex 0.003825 -0.003625 0.000105001
      vertex 0.003825 -0.003625 0.000304999
    endloop
  endfacet
  facet normal 1 -0 0
    outer loop
      vertex 0.003325 -0.003625 0.000304999
      vertex 0.003325 -0.003125 0.000105001
      vertex 0.003325 -0.003125 0.000304999
    endloop
  endfacet
  facet normal 1 0 0
    outer loop
      vertex 0.003325 -0.003125 0.000105001
      vertex 0.003325 -0.003625 0.000304999
      vertex 0.003325 -0.003625 0.000105001
    endloop
  endfacet
  facet normal 0 -1 0
    outer loop
      vertex 0.003325 -0.003125 0.000105001
      vertex 0.003825 -0.003125 0.000304999
      vertex 0.003325 -0.003125 0.000304999
    endloop
  endfacet
  facet normal 0 -1 -0
    outer loop
      vertex 0.003825 -0.003125 0.000304999
      vertex 0.003325 -0.003125 0.000105001
      vertex 0.003825 -0.003125 0.000105001
    endloop
  endfacet
  facet normal 0 1 -0
    outer loop
      vertex 0.003825 -0.003625 0.000105001
      vertex 0.003325 -0.003625 0.000304999
      vertex 0.003825 -0.003625 0.000304999
    endloop
  endfacet
  facet normal 0 1 0
    outer loop
      vertex 0.003325 -0.003625 0.000304999
      vertex 0.003825 -0.003625 0.000105001
      vertex 0.003325 -0.003625 0.000105001
    endloop
  endfacet
  facet normal 1 -0 0
    outer loop
      vertex 0.0034 -0.003 0.000304999
      vertex 0.0034 0.003 0.000105001
      vertex 0.0034 0.003 0.000304999
    endloop
  endfacet
  facet normal 1 0 0
    outer loop
      vertex 0.0034 0.003 0.000105001
      vertex 0.0034 -0.003 0.000304999
      vertex 0.0034 -0.003 0.000105001
    endloop
  endfacet
  facet normal -1 0 0
    outer loop
      vertex 0.0032 -0.003 0.000105001
      vertex 0.0032 0.0028 0.000304999
      vertex 0.0032 0.0028 0.000105001
    endloop
  endfacet
  facet normal -1 -0 0
    outer loop
      vertex 0.0032 0.0028 0.000304999
      vertex 0.0032 -0.003 0.000105001
      vertex 0.0032 -0.003 0.000304999
    endloop
  endfacet
  facet normal 0 1 -0
    outer loop
      vertex 0.0034 0.003 0.000105001
      vertex -0.0028 0.003 0.000304999
      vertex 0.0034 0.003 0.000304999
    endloop
  endfacet
  facet normal 0 1 0
    outer loop
      vertex -0.0028 0.003 0.000304999
      vertex 0.0034 0.003 0.000105001
      vertex -0.0028 0.003 0.000105001
    endloop
  endfacet
  facet normal 1 -0 0
    outer loop
      vertex 0.003 -0.0034 0.000304999
      vertex 0.003 0.0028 0.000105001
      vertex 0.003 0.0028 0.000304999
    endloop
  endfacet
  facet normal 1 0 0
    outer loop
      vertex 0.003 0.0028 0.000105001
      vertex 0.003 -0.0034 0.000304999
      vertex 0.003 -0.0034 0.000105001
    endloop
  endfacet
  facet normal 0 -1 0
    outer loop
      vertex 0.003 0.0028 0.000105001
      vertex 0.0032 0.0028 0.000304999
      vertex 0.003 0.0028 0.000304999
    endloop
  endfacet
  facet normal 0 -1 -0
    outer loop
      vertex 0.0032 0.0028 0.000304999
      vertex 0.003 0.0028 0.000105001
      vertex 0.0032 0.0028 0.000105001
    endloop
  endfacet
  facet normal 0 1 -0
    outer loop
      vertex 0.00375 0.00395 0.000105001
      vertex 0.003 0.00395 0.000304999
      vertex 0.00375 0.00395 0.000304999
    endloop
  endfacet
  facet normal 0 1 0
    outer loop
      vertex 0.003 0.00395 0.000304999
      vertex 0.00375 0.00395 0.000105001
      vertex 0.003 0.00395 0.000105001
    endloop
  endfacet
  facet normal 0 -1 0
    outer loop
      vertex 0.003 0.0032 0.000105001
      vertex 0.00375 0.0032 0.000304999
      vertex 0.003 0.0032 0.000304999
    endloop
  endfacet
  facet normal 0 -1 -0
    outer loop
      vertex 0.00375 0.0032 0.000304999
      vertex 0.003 0.0032 0.000105001
      vertex 0.00375 0.0032 0.000105001
    endloop
  endfacet
  facet normal -1 0 0
    outer loop
      vertex 0.003 0.0034 0.000105001
      vertex 0.003 0.00395 0.000304999
      vertex 0.003 0.00395 0.000105001
    endloop
  endfacet
  facet normal -1 -0 0
    outer loop
      vertex 0.003 0.00395 0.000304999
      vertex 0.003 0.0034 0.000105001
      vertex 0.003 0.0034 0.000304999
    endloop
  endfacet
  facet normal 1 -0 0
    outer loop
      vertex 0.00375 0.0032 0.000304999
      vertex 0.00375 0.00395 0.000105001
      vertex 0.00375 0.00395 0.000304999
    endloop
  endfacet
  facet normal 1 0 0
    outer loop
      vertex 0.00375 0.00395 0.000105001
      vertex 0.00375 0.0032 0.000304999
      vertex 0.00375 0.0032 0.000105001
    endloop
  endfacet
  facet normal 0 -1 0
    outer loop
      vertex 0.003125 0.003825 0.000105001
      vertex 0.003625 0.003825 0.000304999
      vertex 0.003125 0.003825 0.000304999
    endloop
  endfacet
  facet normal 0 -1 -0
    outer loop
      vertex 0.003625 0.003825 0.000304999
      vertex 0.003125 0.003825 0.000105001
      vertex 0.003625 0.003825 0.000105001
    endloop
  endfacet
  facet normal 0 1 -0
    outer loop
      vertex 0.003625 0.003325 0.000105001
      vertex 0.003125 0.003325 0.000304999
      vertex 0.003625 0.003325 0.000304999
    endloop
  endfacet
  facet normal 0 1 0
    outer loop
      vertex 0.003125 0.003325 0.000304999
      vertex 0.003625 0.003325 0.000105001
      vertex 0.003125 0.003325 0.000105001
    endloop
  endfacet
  facet normal 1 -0 0
    outer loop
      vertex 0.003125 0.003325 0.000304999
      vertex 0.003125 0.003825 0.000105001
      vertex 0.003125 0.003825 0.000304999
    endloop
  endfacet
  facet normal 1 0 0
    outer loop
      vertex 0.003125 0.003825 0.000105001
      vertex 0.003125 0.003325 0.000304999
      vertex 0.003125 0.003325 0.000105001
    endloop
  endfacet
  facet normal -1 0 0
    outer loop
      vertex 0.003625 0.003325 0.000105001
      vertex 0.003625 0.003825 0.000304999
      vertex 0.003625 0.003825 0.000105001
    endloop
  endfacet
  facet normal -1 -0 0
    outer loop
      vertex 0.003625 0.003825 0.000304999
      vertex 0.003625 0.003325 0.000105001
      vertex 0.003625 0.003325 0.000304999
    endloop
  endfacet
  facet normal 0 1 -0
    outer loop
      vertex 0.003 0.0034 0.000105001
      vertex -0.003 0.0034 0.000304999
      vertex 0.003 0.0034 0.000304999
    endloop
  endfacet
  facet normal 0 1 0
    outer loop
      vertex -0.003 0.0034 0.000304999
      vertex 0.003 0.0034 0.000105001
      vertex -0.003 0.0034 0.000105001
    endloop
  endfacet
  facet normal 0 -1 0
    outer loop
      vertex -0.0028 0.0032 0.000105001
      vertex 0.003 0.0032 0.000304999
      vertex -0.0028 0.0032 0.000304999
    endloop
  endfacet
  facet normal 0 -1 -0
    outer loop
      vertex 0.003 0.0032 0.000304999
      vertex -0.0028 0.0032 0.000105001
      vertex 0.003 0.0032 0.000105001
    endloop
  endfacet
  facet normal -1 0 0
    outer loop
      vertex -0.003 -0.0028 0.000105001
      vertex -0.003 0.0034 0.000304999
      vertex -0.003 0.0034 0.000105001
    endloop
  endfacet
  facet normal -1 -0 0
    outer loop
      vertex -0.003 0.0034 0.000304999
      vertex -0.003 -0.0028 0.000105001
      vertex -0.003 -0.0028 0.000304999
    endloop
  endfacet
  facet normal 1 -0 0
    outer loop
      vertex -0.0028 0.003 0.000304999
      vertex -0.0028 0.0032 0.000105001
      vertex -0.0028 0.0032 0.000304999
    endloop
  endfacet
  facet normal 1 0 0
    outer loop
      vertex -0.0028 0.0032 0.000105001
      vertex -0.0028 0.003 0.000304999
      vertex -0.0028 0.003 0.000105001
    endloop
  endfacet
  facet normal -1 0 0
    outer loop
      vertex -0.00395 0.003 0.000105001
      vertex -0.00395 0.00375 0.000304999
      vertex -0.00395 0.00375 0.000105001
    endloop
  endfacet
  facet normal -1 -0 0
    outer loop
      vertex -0.00395 0.00375 0.000304999
      vertex -0.00395 0.003 0.000105001
      vertex -0.00395 0.003 0.000304999
    endloop
  endfacet
  facet normal 1 -0 0
    outer loop
      vertex -0.0032 0.003 0.000304999
      vertex -0.0032 0.00375 0.000105001
      vertex -0.0032 0.00375 0.000304999
    endloop
  endfacet
  facet normal 1 0 0
    outer loop
      vertex -0.0032 0.00375 0.000105001
      vertex -0.0032 0.003 0.000304999
      vertex -0.0032 0.003 0.000105001
    endloop
  endfacet
  facet normal 0 -1 0
    outer loop
      vertex -0.00395 0.003 0.000105001
      vertex -0.0034 0.003 0.000304999
      vertex -0.00395 0.003 0.000304999
    endloop
  endfacet
  facet normal 0 -1 -0
    outer loop
      vertex -0.0034 0.003 0.000304999
      vertex -0.00395 0.003 0.000105001
      vertex -0.0034 0.003 0.000105001
    endloop
  endfacet
  facet normal 0 1 -0
    outer loop
      vertex -0.0032 0.00375 0.000105001
      vertex -0.00395 0.00375 0.000304999
      vertex -0.0032 0.00375 0.000304999
    endloop
  endfacet
  facet normal 0 1 0
    outer loop
      vertex -0.00395 0.00375 0.000304999
      vertex -0.0032 0.00375 0.000105001
      vertex -0.00395 0.00375 0.000105001
    endloop
  endfacet
  facet normal 1 -0 0
    outer loop
      vertex -0.003825 0.003125 0.000304999
      vertex -0.003825 0.003625 0.000105001
      vertex -0.003825 0.003625 0.000304999
    endloop
  endfacet
  facet normal 1 0 0
    outer loop
      vertex -0.003825 0.003625 0.000105001
      vertex -0.003825 0.003125 0.000304999
      vertex -0.003825 0.003125 0.000105001
    endloop
  endfacet
  facet normal -1 0 0
    outer loop
      vertex -0.003325 0.003125 0.000105001
      vertex -0.003325 0.003625 0.000304999
      vertex -0.003325 0.003625 0.000105001
    endloop
  endfacet
  facet normal -1 -0 0
    outer loop
      vertex -0.003325 0.003625 0.000304999
      vertex -0.003325 0.003125 0.000105001
      vertex -0.003325 0.003125 0.000304999
    endloop
  endfacet
  facet normal 0 1 -0
    outer loop
      vertex -0.003325 0.003125 0.000105001
      vertex -0.003825 0.003125 0.000304999
      vertex -0.003325 0.003125 0.000304999
    endloop
  endfacet
  facet normal 0 1 0
    outer loop
      vertex -0.003825 0.003125 0.000304999
      vertex -0.003325 0.003125 0.000105001
      vertex -0.003825 0.003125 0.000105001
    endloop
  endfacet
  facet normal 0 -1 0
    outer loop
      vertex -0.003825 0.003625 0.000105001
      vertex -0.003325 0.003625 0.000304999
      vertex -0.003825 0.003625 0.000304999
    endloop
  endfacet
  facet normal 0 -1 -0
    outer loop
      vertex -0.003325 0.003625 0.000304999
      vertex -0.003825 0.003625 0.000105001
      vertex -0.003325 0.003625 0.000105001
    endloop
  endfacet
  facet normal -1 0 0
    outer loop
      vertex -0.0034 -0.003 0.000105001
      vertex -0.0034 0.003 0.000304999
      vertex -0.0034 0.003 0.000105001
    endloop
  endfacet
  facet normal -1 -0 0
    outer loop
      vertex -0.0034 0.003 0.000304999
      vertex -0.0034 -0.003 0.000105001
      vertex -0.0034 -0.003 0.000304999
    endloop
  endfacet
  facet normal 1 -0 0
    outer loop
      vertex -0.0032 -0.0028 0.000304999
      vertex -0.0032 0.003 0.000105001
      vertex -0.0032 0.003 0.000304999
    endloop
  endfacet
  facet normal 1 0 0
    outer loop
      vertex -0.0032 0.003 0.000105001
      vertex -0.0032 -0.0028 0.000304999
      vertex -0.0032 -0.0028 0.000105001
    endloop
  endfacet
  facet normal 0 -1 0
    outer loop
      vertex -0.0034 -0.003 0.000105001
      vertex 0.0028 -0.003 0.000304999
      vertex -0.0034 -0.003 0.000304999
    endloop
  endfacet
  facet normal 0 -1 -0
    outer loop
      vertex 0.0028 -0.003 0.000304999
      vertex -0.0034 -0.003 0.000105001
      vertex 0.0028 -0.003 0.000105001
    endloop
  endfacet
  facet normal 0 1 -0
    outer loop
      vertex -0.003 -0.0028 0.000105001
      vertex -0.0032 -0.0028 0.000304999
      vertex -0.003 -0.0028 0.000304999
    endloop
  endfacet
  facet normal 0 1 0
    outer loop
      vertex -0.0032 -0.0028 0.000304999
      vertex -0.003 -0.0028 0.000105001
      vertex -0.0032 -0.0028 0.000105001
    endloop
  endfacet
  facet normal 0 -1 0
    outer loop
      vertex -0.00375 -0.00395 0.000105001
      vertex -0.003 -0.00395 0.000304999
      vertex -0.00375 -0.00395 0.000304999
    endloop
  endfacet
  facet normal 0 -1 -0
    outer loop
      vertex -0.003 -0.00395 0.000304999
      vertex -0.00375 -0.00395 0.000105001
      vertex -0.003 -0.00395 0.000105001
    endloop
  endfacet
  facet normal 0 1 -0
    outer loop
      vertex -0.003 -0.0032 0.000105001
      vertex -0.00375 -0.0032 0.000304999
      vertex -0.003 -0.0032 0.000304999
    endloop
  endfacet
  facet normal 0 1 0
    outer loop
      vertex -0.00375 -0.0032 0.000304999
      vertex -0.003 -0.0032 0.000105001
      vertex -0.00375 -0.0032 0.000105001
    endloop
  endfacet
  facet normal 1 -0 0
    outer loop
      vertex -0.003 -0.00395 0.000304999
      vertex -0.003 -0.0034 0.000105001
      vertex -0.003 -0.0034 0.000304999
    endloop
  endfacet
  facet normal 1 0 0
    outer loop
      vertex -0.003 -0.0034 0.000105001
      vertex -0.003 -0.00395 0.000304999
      vertex -0.003 -0.00395 0.000105001
    endloop
  endfacet
  facet normal -1 0 0
    outer loop
      vertex -0.00375 -0.00395 0.000105001
      vertex -0.00375 -0.0032 0.000304999
      vertex -0.00375 -0.0032 0.000105001
    endloop
  endfacet
  facet normal -1 -0 0
    outer loop
      vertex -0.00375 -0.0032 0.000304999
      vertex -0.00375 -0.00395 0.000105001
      vertex -0.00375 -0.00395 0.000304999
    endloop
  endfacet
  facet normal 0 1 -0
    outer loop
      vertex -0.003125 -0.003825 0.000105001
      vertex -0.003625 -0.003825 0.000304999
      vertex -0.003125 -0.003825 0.000304999
    endloop
  endfacet
  facet normal 0 1 0
    outer loop
      vertex -0.003625 -0.003825 0.000304999
      vertex -0.003125 -0.003825 0.000105001
      vertex -0.003625 -0.003825 0.000105001
    endloop
  endfacet
  facet normal 0 -1 0
    outer loop
      vertex -0.003625 -0.003325 0.000105001
      vertex -0.003125 -0.003325 0.000304999
      vertex -0.003625 -0.003325 0.000304999
    endloop
  endfacet
  facet normal 0 -1 -0
    outer loop
      vertex -0.003125 -0.003325 0.000304999
      vertex -0.003625 -0.003325 0.000105001
      vertex -0.003125 -0.003325 0.000105001
    endloop
  endfacet
  facet normal -1 0 0
    outer loop
      vertex -0.003125 -0.003825 0.000105001
      vertex -0.003125 -0.003325 0.000304999
      vertex -0.003125 -0.003325 0.000105001
    endloop
  endfacet
  facet normal -1 -0 0
    outer loop
      vertex -0.003125 -0.003325 0.000304999
      vertex -0.003125 -0.003825 0.000105001
      vertex -0.003125 -0.003825 0.000304999
    endloop
  endfacet
  facet normal 1 -0 0
    outer loop
      vertex -0.003625 -0.003825 0.000304999
      vertex -0.003625 -0.003325 0.000105001
      vertex -0.003625 -0.003325 0.000304999
    endloop
  endfacet
  facet normal 1 0 0
    outer loop
      vertex -0.003625 -0.003325 0.000105001
      vertex -0.003625 -0.003825 0.000304999
      vertex -0.003625 -0.003825 0.000105001
    endloop
  endfacet
  facet normal 0 -1 0
    outer loop
      vertex -0.003 -0.0034 0.000105001
      vertex 0.003 -0.0034 0.000304999
      vertex -0.003 -0.0034 0.000304999
    endloop
  endfacet
  facet normal 0 -1 -0
    outer loop
      vertex 0.003 -0.0034 0.000304999
      vertex -0.003 -0.0034 0.000105001
      vertex 0.003 -0.0034 0.000105001
    endloop
  endfacet
  facet normal 0 1 -0
    outer loop
      vertex 0.0028 -0.0032 0.000105001
      vertex -0.003 -0.0032 0.000304999
      vertex 0.0028 -0.0032 0.000304999
    endloop
  endfacet
  facet normal 0 1 0
    outer loop
      vertex -0.003 -0.0032 0.000304999
      vertex 0.0028 -0.0032 0.000105001
      vertex -0.003 -0.0032 0.000105001
    endloop
  endfacet
  facet normal -1 0 0
    outer loop
      vertex 0.0028 -0.0032 0.000105001
      vertex 0.0028 -0.003 0.000304999
      vertex 0.0028 -0.003 0.000105001
    endloop
  endfacet
  facet normal -1 -0 0
    outer loop
      vertex 0.0028 -0.003 0.000304999
      vertex 0.0028 -0.0032 0.000105001
      vertex 0.0028 -0.0032 0.000304999
    endloop
  endfacet
endsolid OpenSCAD_Model
