solid OpenSCAD_Model
  facet normal 1 -0 0
    outer loop
      vertex 0.00245 -0.00225 0.000304999
      vertex 0.00245 -0.0015 0.000105001
      vertex 0.00245 -0.0015 0.000304999
    endloop
  endfacet
  facet normal 1 0 0
    outer loop
      vertex 0.00245 -0.0015 0.000105001
      vertex 0.00245 -0.00225 0.000304999
      vertex 0.00245 -0.00225 0.000105001
    endloop
  endfacet
  facet normal -0 0 1
    outer loop
      vertex -0.002325 0.001625 0.000304999
      vertex -0.0019 0.0015 0.000304999
      vertex -0.001825 0.001625 0.000304999
    endloop
  endfacet
  facet normal 0 0 1
    outer loop
      vertex -0.002325 0.001625 0.000304999
      vertex -0.00245 0.0015 0.000304999
      vertex -0.0019 0.0015 0.000304999
    endloop
  endfacet
  facet normal 0 0 1
    outer loop
      vertex -0.00245 0.0015 0.000304999
      vertex -0.002325 0.001625 0.000304999
      vertex -0.00245 0.00225 0.000304999
    endloop
  endfacet
  facet normal 0 0 1
    outer loop
      vertex -0.0017 0.00225 0.000304999
      vertex -0.001825 0.002125 0.000304999
      vertex -0.0017 0.0015 0.000304999
    endloop
  endfacet
  facet normal 0 0 1
    outer loop
      vertex -0.0017 0.00225 0.000304999
      vertex -0.002325 0.002125 0.000304999
      vertex -0.001825 0.002125 0.000304999
    endloop
  endfacet
  facet normal 0 0 1
    outer loop
      vertex -0.002325 0.002125 0.000304999
      vertex -0.00245 0.00225 0.000304999
      vertex -0.002325 0.001625 0.000304999
    endloop
  endfacet
  facet normal -0 0 1
    outer loop
      vertex -0.00245 0.00225 0.000304999
      vertex -0.002325 0.002125 0.000304999
      vertex -0.0017 0.00225 0.000304999
    endloop
  endfacet
  facet normal -0 0 1
    outer loop
      vertex 0.0017 0.0013 0.000304999
      vertex 0.0019 -0.0015 0.000304999
      vertex 0.0019 0.0015 0.000304999
    endloop
  endfacet
  facet normal 0 0 1
    outer loop
      vertex 0.001825 -0.001625 0.000304999
      vertex 0.0017 -0.0015 0.000304999
      vertex 0.001825 -0.002125 0.000304999
    endloop
  endfacet
  facet normal 0 0 1
    outer loop
      vertex 0.0017 -0.0015 0.000304999
      vertex 0.0019 -0.0015 0.000304999
      vertex 0.0017 0.0013 0.000304999
    endloop
  endfacet
  facet normal 0 0 1
    outer loop
      vertex 0.0019 -0.0015 0.000304999
      vertex 0.0017 -0.0015 0.000304999
      vertex 0.001825 -0.001625 0.000304999
    endloop
  endfacet
  facet normal 0 0 1
    outer loop
      vertex 0.0019 0.0015 0.000304999
      vertex 0.0015 0.0013 0.000304999
      vertex 0.0017 0.0013 0.000304999
    endloop
  endfacet
  facet normal 0 0 1
    outer loop
      vertex 0.0015 0.0013 0.000304999
      vertex 0.0013 -0.0015 0.000304999
      vertex 0.0015 -0.0019 0.000304999
    endloop
  endfacet
  facet normal -0 0 1
    outer loop
      vertex -0.0013 0.0015 0.000304999
      vertex 0.0015 0.0013 0.000304999
      vertex 0.0019 0.0015 0.000304999
    endloop
  endfacet
  facet normal 0 0 1
    outer loop
      vertex -0.0013 0.0015 0.000304999
      vertex 0.0013 -0.0015 0.000304999
      vertex 0.0015 0.0013 0.000304999
    endloop
  endfacet
  facet normal 0 0 1
    outer loop
      vertex -0.0015 -0.0013 0.000304999
      vertex -0.0013 0.0015 0.000304999
      vertex -0.0015 0.0019 0.000304999
    endloop
  endfacet
  facet normal -0 0 1
    outer loop
      vertex -0.0015 -0.0013 0.000304999
      vertex 0.0013 -0.0015 0.000304999
      vertex -0.0013 0.0015 0.000304999
    endloop
  endfacet
  facet normal 0 0 1
    outer loop
      vertex -0.0019 -0.0015 0.000304999
      vertex -0.0015 -0.0013 0.000304999
      vertex -0.0017 -0.0013 0.000304999
    endloop
  endfacet
  facet normal -0 0 1
    outer loop
      vertex -0.001825 0.001625 0.000304999
      vertex -0.0017 0.0015 0.000304999
      vertex -0.001825 0.002125 0.000304999
    endloop
  endfacet
  facet normal 0 0 1
    outer loop
      vertex -0.0019 0.0015 0.000304999
      vertex -0.0017 0.0015 0.000304999
      vertex -0.001825 0.001625 0.000304999
    endloop
  endfacet
  facet normal 0 0 1
    outer loop
      vertex -0.0017 0.0015 0.000304999
      vertex -0.0019 0.0015 0.000304999
      vertex -0.0017 -0.0013 0.000304999
    endloop
  endfacet
  facet normal 0 0 1
    outer loop
      vertex -0.0015 -0.0013 0.000304999
      vertex -0.0019 -0.0015 0.000304999
      vertex 0.0013 -0.0015 0.000304999
    endloop
  endfacet
  facet normal 0 0 1
    outer loop
      vertex -0.0019 -0.0015 0.000304999
      vertex -0.0017 -0.0013 0.000304999
      vertex -0.0019 0.0015 0.000304999
    endloop
  endfacet
  facet normal 0 0 1
    outer loop
      vertex 0.00245 -0.0015 0.000304999
      vertex 0.002325 -0.001625 0.000304999
      vertex 0.00245 -0.00225 0.000304999
    endloop
  endfacet
  facet normal -0 0 1
    outer loop
      vertex 0.0019 -0.0015 0.000304999
      vertex 0.002325 -0.001625 0.000304999
      vertex 0.00245 -0.0015 0.000304999
    endloop
  endfacet
  facet normal 0 0 1
    outer loop
      vertex 0.002325 -0.001625 0.000304999
      vertex 0.0019 -0.0015 0.000304999
      vertex 0.001825 -0.001625 0.000304999
    endloop
  endfacet
  facet normal -0 0 1
    outer loop
      vertex 0.002325 -0.002125 0.000304999
      vertex 0.00245 -0.00225 0.000304999
      vertex 0.002325 -0.001625 0.000304999
    endloop
  endfacet
  facet normal -0 0 1
    outer loop
      vertex 0.001825 -0.002125 0.000304999
      vertex 0.00245 -0.00225 0.000304999
      vertex 0.002325 -0.002125 0.000304999
    endloop
  endfacet
  facet normal 0 0 1
    outer loop
      vertex 0.001825 -0.002125 0.000304999
      vertex 0.0017 -0.00225 0.000304999
      vertex 0.00245 -0.00225 0.000304999
    endloop
  endfacet
  facet normal 0 0 1
    outer loop
      vertex 0.0017 -0.00225 0.000304999
      vertex 0.001825 -0.002125 0.000304999
      vertex 0.0017 -0.0015 0.000304999
    endloop
  endfacet
  facet normal -0 0 1
    outer loop
      vertex 0.0013 -0.0017 0.000304999
      vertex 0.0015 -0.0019 0.000304999
      vertex 0.0013 -0.0015 0.000304999
    endloop
  endfacet
  facet normal 0 0 1
    outer loop
      vertex -0.0015 -0.0019 0.000304999
      vertex 0.0013 -0.0017 0.000304999
      vertex -0.0015 -0.0017 0.000304999
    endloop
  endfacet
  facet normal 0 0 1
    outer loop
      vertex 0.0013 -0.0017 0.000304999
      vertex -0.0015 -0.0019 0.000304999
      vertex 0.0015 -0.0019 0.000304999
    endloop
  endfacet
  facet normal -0 0 1
    outer loop
      vertex -0.001625 -0.001825 0.000304999
      vertex -0.0015 -0.0019 0.000304999
      vertex -0.0015 -0.0017 0.000304999
    endloop
  endfacet
  facet normal 0 0 1
    outer loop
      vertex -0.001625 -0.002325 0.000304999
      vertex -0.0015 -0.0019 0.000304999
      vertex -0.001625 -0.001825 0.000304999
    endloop
  endfacet
  facet normal 0 0 1
    outer loop
      vertex -0.0015 -0.0017 0.000304999
      vertex -0.002125 -0.001825 0.000304999
      vertex -0.001625 -0.001825 0.000304999
    endloop
  endfacet
  facet normal 0 0 1
    outer loop
      vertex -0.002125 -0.001825 0.000304999
      vertex -0.00225 -0.0017 0.000304999
      vertex -0.002125 -0.002325 0.000304999
    endloop
  endfacet
  facet normal -0 0 1
    outer loop
      vertex -0.00225 -0.0017 0.000304999
      vertex -0.002125 -0.001825 0.000304999
      vertex -0.0015 -0.0017 0.000304999
    endloop
  endfacet
  facet normal 0 0 1
    outer loop
      vertex -0.0015 -0.0019 0.000304999
      vertex -0.001625 -0.002325 0.000304999
      vertex -0.0015 -0.00245 0.000304999
    endloop
  endfacet
  facet normal -0 0 1
    outer loop
      vertex -0.002125 -0.002325 0.000304999
      vertex -0.0015 -0.00245 0.000304999
      vertex -0.001625 -0.002325 0.000304999
    endloop
  endfacet
  facet normal 0 0 1
    outer loop
      vertex -0.002125 -0.002325 0.000304999
      vertex -0.00225 -0.00245 0.000304999
      vertex -0.0015 -0.00245 0.000304999
    endloop
  endfacet
  facet normal 0 0 1
    outer loop
      vertex -0.00225 -0.00245 0.000304999
      vertex -0.002125 -0.002325 0.000304999
      vertex -0.00225 -0.0017 0.000304999
    endloop
  endfacet
  facet normal 0 0 1
    outer loop
      vertex 0.00225 0.00245 0.000304999
      vertex 0.002125 0.002325 0.000304999
      vertex 0.00225 0.0017 0.000304999
    endloop
  endfacet
  facet normal 0 0 1
    outer loop
      vertex 0.00225 0.00245 0.000304999
      vertex 0.001625 0.002325 0.000304999
      vertex 0.002125 0.002325 0.000304999
    endloop
  endfacet
  facet normal 0 0 1
    outer loop
      vertex 0.0015 0.0019 0.000304999
      vertex 0.001625 0.002325 0.000304999
      vertex 0.0015 0.00245 0.000304999
    endloop
  endfacet
  facet normal -0 0 1
    outer loop
      vertex 0.0015 0.00245 0.000304999
      vertex 0.001625 0.002325 0.000304999
      vertex 0.00225 0.00245 0.000304999
    endloop
  endfacet
  facet normal -0 0 1
    outer loop
      vertex 0.002125 0.001825 0.000304999
      vertex 0.00225 0.0017 0.000304999
      vertex 0.002125 0.002325 0.000304999
    endloop
  endfacet
  facet normal -0 0 1
    outer loop
      vertex 0.001625 0.001825 0.000304999
      vertex 0.00225 0.0017 0.000304999
      vertex 0.002125 0.001825 0.000304999
    endloop
  endfacet
  facet normal 0 0 1
    outer loop
      vertex 0.001625 0.002325 0.000304999
      vertex 0.0015 0.0019 0.000304999
      vertex 0.001625 0.001825 0.000304999
    endloop
  endfacet
  facet normal 0 0 1
    outer loop
      vertex 0.001625 0.001825 0.000304999
      vertex 0.0015 0.0017 0.000304999
      vertex 0.00225 0.0017 0.000304999
    endloop
  endfacet
  facet normal 0 0 1
    outer loop
      vertex 0.0015 0.0019 0.000304999
      vertex 0.0015 0.0017 0.000304999
      vertex 0.001625 0.001825 0.000304999
    endloop
  endfacet
  facet normal 0 0 1
    outer loop
      vertex -0.0013 0.0017 0.000304999
      vertex 0.0015 0.0017 0.000304999
      vertex 0.0015 0.0019 0.000304999
    endloop
  endfacet
  facet normal 0 0 1
    outer loop
      vertex -0.0013 0.0017 0.000304999
      vertex -0.0015 0.0019 0.000304999
      vertex -0.0013 0.0015 0.000304999
    endloop
  endfacet
  facet normal -0 0 1
    outer loop
      vertex -0.0015 0.0019 0.000304999
      vertex -0.0013 0.0017 0.000304999
      vertex 0.0015 0.0019 0.000304999
    endloop
  endfacet
  facet normal 0 0 -1
    outer loop
      vertex 0.0013 -0.0015 0.000105001
      vertex 0.0015 -0.0019 0.000105001
      vertex 0.0013 -0.0017 0.000105001
    endloop
  endfacet
  facet normal 0 0 -1
    outer loop
      vertex -0.0015 -0.0019 0.000105001
      vertex 0.0013 -0.0017 0.000105001
      vertex 0.0015 -0.0019 0.000105001
    endloop
  endfacet
  facet normal 0 0 -1
    outer loop
      vertex -0.0015 -0.0017 0.000105001
      vertex 0.0013 -0.0017 0.000105001
      vertex -0.0015 -0.0019 0.000105001
    endloop
  endfacet
  facet normal 0 0 -1
    outer loop
      vertex 0.0015 0.0017 0.000105001
      vertex -0.0013 0.0017 0.000105001
      vertex 0.0015 0.0019 0.000105001
    endloop
  endfacet
  facet normal 0 0 -1
    outer loop
      vertex -0.0013 0.0017 0.000105001
      vertex -0.0015 0.0019 0.000105001
      vertex 0.0015 0.0019 0.000105001
    endloop
  endfacet
  facet normal 0 0 -1
    outer loop
      vertex -0.0013 0.0015 0.000105001
      vertex -0.0015 0.0019 0.000105001
      vertex -0.0013 0.0017 0.000105001
    endloop
  endfacet
  facet normal 0 0 -1
    outer loop
      vertex -0.001625 -0.002325 0.000105001
      vertex -0.0015 -0.0019 0.000105001
      vertex -0.0015 -0.00245 0.000105001
    endloop
  endfacet
  facet normal 0 0 -1
    outer loop
      vertex -0.001625 -0.001825 0.000105001
      vertex -0.0015 -0.0019 0.000105001
      vertex -0.001625 -0.002325 0.000105001
    endloop
  endfacet
  facet normal 0 0 -1
    outer loop
      vertex -0.0015 -0.00245 0.000105001
      vertex -0.002125 -0.002325 0.000105001
      vertex -0.001625 -0.002325 0.000105001
    endloop
  endfacet
  facet normal -0 0 -1
    outer loop
      vertex -0.002125 -0.002325 0.000105001
      vertex -0.00225 -0.00245 0.000105001
      vertex -0.002125 -0.001825 0.000105001
    endloop
  endfacet
  facet normal 0 0 -1
    outer loop
      vertex -0.00225 -0.00245 0.000105001
      vertex -0.002125 -0.002325 0.000105001
      vertex -0.0015 -0.00245 0.000105001
    endloop
  endfacet
  facet normal 0 0 -1
    outer loop
      vertex -0.0015 -0.0019 0.000105001
      vertex -0.001625 -0.001825 0.000105001
      vertex -0.0015 -0.0017 0.000105001
    endloop
  endfacet
  facet normal 0 0 -1
    outer loop
      vertex -0.002125 -0.001825 0.000105001
      vertex -0.0015 -0.0017 0.000105001
      vertex -0.001625 -0.001825 0.000105001
    endloop
  endfacet
  facet normal 0 0 -1
    outer loop
      vertex -0.002125 -0.001825 0.000105001
      vertex -0.00225 -0.0017 0.000105001
      vertex -0.0015 -0.0017 0.000105001
    endloop
  endfacet
  facet normal 0 0 -1
    outer loop
      vertex -0.00225 -0.0017 0.000105001
      vertex -0.002125 -0.001825 0.000105001
      vertex -0.00225 -0.00245 0.000105001
    endloop
  endfacet
  facet normal 0 0 -1
    outer loop
      vertex -0.001825 0.002125 0.000105001
      vertex -0.0017 0.00225 0.000105001
      vertex -0.001825 0.001625 0.000105001
    endloop
  endfacet
  facet normal 0 0 -1
    outer loop
      vertex -0.002325 0.002125 0.000105001
      vertex -0.0017 0.00225 0.000105001
      vertex -0.001825 0.002125 0.000105001
    endloop
  endfacet
  facet normal 0 0 -1
    outer loop
      vertex -0.002325 0.002125 0.000105001
      vertex -0.00245 0.00225 0.000105001
      vertex -0.0017 0.00225 0.000105001
    endloop
  endfacet
  facet normal 0 0 -1
    outer loop
      vertex -0.00245 0.00225 0.000105001
      vertex -0.002325 0.002125 0.000105001
      vertex -0.00245 0.0015 0.000105001
    endloop
  endfacet
  facet normal 0 0 -1
    outer loop
      vertex 0.00225 0.0017 0.000105001
      vertex 0.002125 0.001825 0.000105001
      vertex 0.00225 0.00245 0.000105001
    endloop
  endfacet
  facet normal 0 0 -1
    outer loop
      vertex 0.00225 0.0017 0.000105001
      vertex 0.001625 0.001825 0.000105001
      vertex 0.002125 0.001825 0.000105001
    endloop
  endfacet
  facet normal 0 0 -1
    outer loop
      vertex 0.0015 0.0019 0.000105001
      vertex 0.001625 0.001825 0.000105001
      vertex 0.0015 0.0017 0.000105001
    endloop
  endfacet
  facet normal 0 0 -1
    outer loop
      vertex 0.0015 0.0017 0.000105001
      vertex 0.001625 0.001825 0.000105001
      vertex 0.00225 0.0017 0.000105001
    endloop
  endfacet
  facet normal 0 0 -1
    outer loop
      vertex 0.002125 0.002325 0.000105001
      vertex 0.00225 0.00245 0.000105001
      vertex 0.002125 0.001825 0.000105001
    endloop
  endfacet
  facet normal 0 0 -1
    outer loop
      vertex 0.001625 0.002325 0.000105001
      vertex 0.00225 0.00245 0.000105001
      vertex 0.002125 0.002325 0.000105001
    endloop
  endfacet
  facet normal 0 0 -1
    outer loop
      vertex 0.001625 0.001825 0.000105001
      vertex 0.0015 0.0019 0.000105001
      vertex 0.001625 0.002325 0.000105001
    endloop
  endfacet
  facet normal 0 0 -1
    outer loop
      vertex 0.001625 0.002325 0.000105001
      vertex 0.0015 0.00245 0.000105001
      vertex 0.00225 0.00245 0.000105001
    endloop
  endfacet
  facet normal 0 0 -1
    outer loop
      vertex 0.0015 0.00245 0.000105001
      vertex 0.001625 0.002325 0.000105001
      vertex 0.0015 0.0019 0.000105001
    endloop
  endfacet
  facet normal 0 0 -1
    outer loop
      vertex 0.00245 -0.00225 0.000105001
      vertex 0.002325 -0.002125 0.000105001
      vertex 0.00245 -0.0015 0.000105001
    endloop
  endfacet
  facet normal 0 0 -1
    outer loop
      vertex 0.00245 -0.00225 0.000105001
      vertex 0.001825 -0.002125 0.000105001
      vertex 0.002325 -0.002125 0.000105001
    endloop
  endfacet
  facet normal -0 0 -1
    outer loop
      vertex 0.001825 -0.002125 0.000105001
      vertex 0.0017 -0.00225 0.000105001
      vertex 0.001825 -0.001625 0.000105001
    endloop
  endfacet
  facet normal 0 0 -1
    outer loop
      vertex 0.0017 -0.00225 0.000105001
      vertex 0.001825 -0.002125 0.000105001
      vertex 0.00245 -0.00225 0.000105001
    endloop
  endfacet
  facet normal 0 0 -1
    outer loop
      vertex 0.002325 -0.001625 0.000105001
      vertex 0.00245 -0.0015 0.000105001
      vertex 0.002325 -0.002125 0.000105001
    endloop
  endfacet
  facet normal 0 0 -1
    outer loop
      vertex 0.002325 -0.001625 0.000105001
      vertex 0.0019 -0.0015 0.000105001
      vertex 0.00245 -0.0015 0.000105001
    endloop
  endfacet
  facet normal 0 0 -1
    outer loop
      vertex 0.001825 -0.001625 0.000105001
      vertex 0.0019 -0.0015 0.000105001
      vertex 0.002325 -0.001625 0.000105001
    endloop
  endfacet
  facet normal 0 0 -1
    outer loop
      vertex 0.0017 -0.0015 0.000105001
      vertex 0.0019 -0.0015 0.000105001
      vertex 0.001825 -0.001625 0.000105001
    endloop
  endfacet
  facet normal 0 0 -1
    outer loop
      vertex 0.0017 -0.0015 0.000105001
      vertex 0.001825 -0.001625 0.000105001
      vertex 0.0017 -0.00225 0.000105001
    endloop
  endfacet
  facet normal 0 0 -1
    outer loop
      vertex 0.0019 -0.0015 0.000105001
      vertex 0.0017 -0.0015 0.000105001
      vertex 0.0017 0.0013 0.000105001
    endloop
  endfacet
  facet normal 0 0 -1
    outer loop
      vertex 0.0019 -0.0015 0.000105001
      vertex 0.0017 0.0013 0.000105001
      vertex 0.0019 0.0015 0.000105001
    endloop
  endfacet
  facet normal 0 0 -1
    outer loop
      vertex 0.0015 0.0013 0.000105001
      vertex 0.0019 0.0015 0.000105001
      vertex 0.0017 0.0013 0.000105001
    endloop
  endfacet
  facet normal 0 0 -1
    outer loop
      vertex 0.0015 -0.0019 0.000105001
      vertex 0.0013 -0.0015 0.000105001
      vertex 0.0015 0.0013 0.000105001
    endloop
  endfacet
  facet normal 0 0 -1
    outer loop
      vertex 0.0015 0.0013 0.000105001
      vertex -0.0013 0.0015 0.000105001
      vertex 0.0019 0.0015 0.000105001
    endloop
  endfacet
  facet normal 0 0 -1
    outer loop
      vertex 0.0013 -0.0015 0.000105001
      vertex -0.0013 0.0015 0.000105001
      vertex 0.0015 0.0013 0.000105001
    endloop
  endfacet
  facet normal 0 0 -1
    outer loop
      vertex -0.0015 0.0019 0.000105001
      vertex -0.0013 0.0015 0.000105001
      vertex -0.0015 -0.0013 0.000105001
    endloop
  endfacet
  facet normal 0 0 -1
    outer loop
      vertex 0.0013 -0.0015 0.000105001
      vertex -0.0015 -0.0013 0.000105001
      vertex -0.0013 0.0015 0.000105001
    endloop
  endfacet
  facet normal 0 0 -1
    outer loop
      vertex -0.0019 -0.0015 0.000105001
      vertex -0.0015 -0.0013 0.000105001
      vertex 0.0013 -0.0015 0.000105001
    endloop
  endfacet
  facet normal 0 0 -1
    outer loop
      vertex -0.0017 0.0015 0.000105001
      vertex -0.001825 0.001625 0.000105001
      vertex -0.0017 0.00225 0.000105001
    endloop
  endfacet
  facet normal 0 0 -1
    outer loop
      vertex -0.0019 0.0015 0.000105001
      vertex -0.0017 0.0015 0.000105001
      vertex -0.0017 -0.0013 0.000105001
    endloop
  endfacet
  facet normal -0 0 -1
    outer loop
      vertex -0.0015 -0.0013 0.000105001
      vertex -0.0019 -0.0015 0.000105001
      vertex -0.0017 -0.0013 0.000105001
    endloop
  endfacet
  facet normal 0 0 -1
    outer loop
      vertex -0.0019 0.0015 0.000105001
      vertex -0.0017 -0.0013 0.000105001
      vertex -0.0019 -0.0015 0.000105001
    endloop
  endfacet
  facet normal 0 0 -1
    outer loop
      vertex -0.0017 0.0015 0.000105001
      vertex -0.0019 0.0015 0.000105001
      vertex -0.001825 0.001625 0.000105001
    endloop
  endfacet
  facet normal 0 0 -1
    outer loop
      vertex -0.0019 0.0015 0.000105001
      vertex -0.002325 0.001625 0.000105001
      vertex -0.001825 0.001625 0.000105001
    endloop
  endfacet
  facet normal -0 0 -1
    outer loop
      vertex -0.002325 0.001625 0.000105001
      vertex -0.00245 0.0015 0.000105001
      vertex -0.002325 0.002125 0.000105001
    endloop
  endfacet
  facet normal 0 0 -1
    outer loop
      vertex -0.00245 0.0015 0.000105001
      vertex -0.002325 0.001625 0.000105001
      vertex -0.0019 0.0015 0.000105001
    endloop
  endfacet
  facet normal -1 0 0
    outer loop
      vertex 0.0017 -0.00225 0.000105001
      vertex 0.0017 -0.0015 0.000304999
      vertex 0.0017 -0.0015 0.000105001
    endloop
  endfacet
  facet normal -1 -0 0
    outer loop
      vertex 0.0017 -0.0015 0.000304999
      vertex 0.0017 -0.00225 0.000105001
      vertex 0.0017 -0.00225 0.000304999
    endloop
  endfacet
  facet normal 0 1 -0
    outer loop
      vertex 0.00245 -0.0015 0.000105001
      vertex 0.0019 -0.0015 0.000304999
      vertex 0.00245 -0.0015 0.000304999
    endloop
  endfacet
  facet normal 0 1 0
    outer loop
      vertex 0.0019 -0.0015 0.000304999
      vertex 0.00245 -0.0015 0.000105001
      vertex 0.0019 -0.0015 0.000105001
    endloop
  endfacet
  facet normal 0 -1 0
    outer loop
      vertex 0.0017 -0.00225 0.000105001
      vertex 0.00245 -0.00225 0.000304999
      vertex 0.0017 -0.00225 0.000304999
    endloop
  endfacet
  facet normal 0 -1 -0
    outer loop
      vertex 0.00245 -0.00225 0.000304999
      vertex 0.0017 -0.00225 0.000105001
      vertex 0.00245 -0.00225 0.000105001
    endloop
  endfacet
  facet normal -1 0 0
    outer loop
      vertex 0.002325 -0.002125 0.000105001
      vertex 0.002325 -0.001625 0.000304999
      vertex 0.002325 -0.001625 0.000105001
    endloop
  endfacet
  facet normal -1 -0 0
    outer loop
      vertex 0.002325 -0.001625 0.000304999
      vertex 0.002325 -0.002125 0.000105001
      vertex 0.002325 -0.002125 0.000304999
    endloop
  endfacet
  facet normal 1 -0 0
    outer loop
      vertex 0.001825 -0.002125 0.000304999
      vertex 0.001825 -0.001625 0.000105001
      vertex 0.001825 -0.001625 0.000304999
    endloop
  endfacet
  facet normal 1 0 0
    outer loop
      vertex 0.001825 -0.001625 0.000105001
      vertex 0.001825 -0.002125 0.000304999
      vertex 0.001825 -0.002125 0.000105001
    endloop
  endfacet
  facet normal 0 -1 0
    outer loop
      vertex 0.001825 -0.001625 0.000105001
      vertex 0.002325 -0.001625 0.000304999
      vertex 0.001825 -0.001625 0.000304999
    endloop
  endfacet
  facet normal 0 -1 -0
    outer loop
      vertex 0.002325 -0.001625 0.000304999
      vertex 0.001825 -0.001625 0.000105001
      vertex 0.002325 -0.001625 0.000105001
    endloop
  endfacet
  facet normal 0 1 -0
    outer loop
      vertex 0.002325 -0.002125 0.000105001
      vertex 0.001825 -0.002125 0.000304999
      vertex 0.002325 -0.002125 0.000304999
    endloop
  endfacet
  facet normal 0 1 0
    outer loop
      vertex 0.001825 -0.002125 0.000304999
      vertex 0.002325 -0.002125 0.000105001
      vertex 0.001825 -0.002125 0.000105001
    endloop
  endfacet
  facet normal 1 -0 0
    outer loop
      vertex 0.0019 -0.0015 0.000304999
      vertex 0.0019 0.0015 0.000105001
      vertex 0.0019 0.0015 0.000304999
    endloop
  endfacet
  facet normal 1 0 0
    outer loop
      vertex 0.0019 0.0015 0.000105001
      vertex 0.0019 -0.0015 0.000304999
      vertex 0.0019 -0.0015 0.000105001
    endloop
  endfacet
  facet normal -1 0 0
    outer loop
      vertex 0.0017 -0.0015 0.000105001
      vertex 0.0017 0.0013 0.000304999
      vertex 0.0017 0.0013 0.000105001
    endloop
  endfacet
  facet normal -1 -0 0
    outer loop
      vertex 0.0017 0.0013 0.000304999
      vertex 0.0017 -0.0015 0.000105001
      vertex 0.0017 -0.0015 0.000304999
    endloop
  endfacet
  facet normal 0 1 -0
    outer loop
      vertex 0.0019 0.0015 0.000105001
      vertex -0.0013 0.0015 0.000304999
      vertex 0.0019 0.0015 0.000304999
    endloop
  endfacet
  facet normal 0 1 0
    outer loop
      vertex -0.0013 0.0015 0.000304999
      vertex 0.0019 0.0015 0.000105001
      vertex -0.0013 0.0015 0.000105001
    endloop
  endfacet
  facet normal 1 -0 0
    outer loop
      vertex 0.0015 -0.0019 0.000304999
      vertex 0.0015 0.0013 0.000105001
      vertex 0.0015 0.0013 0.000304999
    endloop
  endfacet
  facet normal 1 0 0
    outer loop
      vertex 0.0015 0.0013 0.000105001
      vertex 0.0015 -0.0019 0.000304999
      vertex 0.0015 -0.0019 0.000105001
    endloop
  endfacet
  facet normal 0 -1 0
    outer loop
      vertex 0.0015 0.0013 0.000105001
      vertex 0.0017 0.0013 0.000304999
      vertex 0.0015 0.0013 0.000304999
    endloop
  endfacet
  facet normal 0 -1 -0
    outer loop
      vertex 0.0017 0.0013 0.000304999
      vertex 0.0015 0.0013 0.000105001
      vertex 0.0017 0.0013 0.000105001
    endloop
  endfacet
  facet normal 0 1 -0
    outer loop
      vertex 0.00225 0.00245 0.000105001
      vertex 0.0015 0.00245 0.000304999
      vertex 0.00225 0.00245 0.000304999
    endloop
  endfacet
  facet normal 0 1 0
    outer loop
      vertex 0.0015 0.00245 0.000304999
      vertex 0.00225 0.00245 0.000105001
      vertex 0.0015 0.00245 0.000105001
    endloop
  endfacet
  facet normal 0 -1 0
    outer loop
      vertex 0.0015 0.0017 0.000105001
      vertex 0.00225 0.0017 0.000304999
      vertex 0.0015 0.0017 0.000304999
    endloop
  endfacet
  facet normal 0 -1 -0
    outer loop
      vertex 0.00225 0.0017 0.000304999
      vertex 0.0015 0.0017 0.000105001
      vertex 0.00225 0.0017 0.000105001
    endloop
  endfacet
  facet normal -1 0 0
    outer loop
      vertex 0.0015 0.0019 0.000105001
      vertex 0.0015 0.00245 0.000304999
      vertex 0.0015 0.00245 0.000105001
    endloop
  endfacet
  facet normal -1 -0 0
    outer loop
      vertex 0.0015 0.00245 0.000304999
      vertex 0.0015 0.0019 0.000105001
      vertex 0.0015 0.0019 0.000304999
    endloop
  endfacet
  facet normal 1 -0 0
    outer loop
      vertex 0.00225 0.0017 0.000304999
      vertex 0.00225 0.00245 0.000105001
      vertex 0.00225 0.00245 0.000304999
    endloop
  endfacet
  facet normal 1 0 0
    outer loop
      vertex 0.00225 0.00245 0.000105001
      vertex 0.00225 0.0017 0.000304999
      vertex 0.00225 0.0017 0.000105001
    endloop
  endfacet
  facet normal 0 -1 0
    outer loop
      vertex 0.001625 0.002325 0.000105001
      vertex 0.002125 0.002325 0.000304999
      vertex 0.001625 0.002325 0.000304999
    endloop
  endfacet
  facet normal 0 -1 -0
    outer loop
      vertex 0.002125 0.002325 0.000304999
      vertex 0.001625 0.002325 0.000105001
      vertex 0.002125 0.002325 0.000105001
    endloop
  endfacet
  facet normal 0 1 -0
    outer loop
      vertex 0.002125 0.001825 0.000105001
      vertex 0.001625 0.001825 0.000304999
      vertex 0.002125 0.001825 0.000304999
    endloop
  endfacet
  facet normal 0 1 0
    outer loop
      vertex 0.001625 0.001825 0.000304999
      vertex 0.002125 0.001825 0.000105001
      vertex 0.001625 0.001825 0.000105001
    endloop
  endfacet
  facet normal 1 -0 0
    outer loop
      vertex 0.001625 0.001825 0.000304999
      vertex 0.001625 0.002325 0.000105001
      vertex 0.001625 0.002325 0.000304999
    endloop
  endfacet
  facet normal 1 0 0
    outer loop
      vertex 0.001625 0.002325 0.000105001
      vertex 0.001625 0.001825 0.000304999
      vertex 0.001625 0.001825 0.000105001
    endloop
  endfacet
  facet normal -1 0 0
    outer loop
      vertex 0.002125 0.001825 0.000105001
      vertex 0.002125 0.002325 0.000304999
      vertex 0.002125 0.002325 0.000105001
    endloop
  endfacet
  facet normal -1 -0 0
    outer loop
      vertex 0.002125 0.002325 0.000304999
      vertex 0.002125 0.001825 0.000105001
      vertex 0.002125 0.001825 0.000304999
    endloop
  endfacet
  facet normal 0 1 -0
    outer loop
      vertex 0.0015 0.0019 0.000105001
      vertex -0.0015 0.0019 0.000304999
      vertex 0.0015 0.0019 0.000304999
    endloop
  endfacet
  facet normal 0 1 0
    outer loop
      vertex -0.0015 0.0019 0.000304999
      vertex 0.0015 0.0019 0.000105001
      vertex -0.0015 0.0019 0.000105001
    endloop
  endfacet
  facet normal 0 -1 0
    outer loop
      vertex -0.0013 0.0017 0.000105001
      vertex 0.0015 0.0017 0.000304999
      vertex -0.0013 0.0017 0.000304999
    endloop
  endfacet
  facet normal 0 -1 -0
    outer loop
      vertex 0.0015 0.0017 0.000304999
      vertex -0.0013 0.0017 0.000105001
      vertex 0.0015 0.0017 0.000105001
    endloop
  endfacet
  facet normal -1 0 0
    outer loop
      vertex -0.0015 -0.0013 0.000105001
      vertex -0.0015 0.0019 0.000304999
      vertex -0.0015 0.0019 0.000105001
    endloop
  endfacet
  facet normal -1 -0 0
    outer loop
      vertex -0.0015 0.0019 0.000304999
      vertex -0.0015 -0.0013 0.000105001
      vertex -0.0015 -0.0013 0.000304999
    endloop
  endfacet
  facet normal 1 -0 0
    outer loop
      vertex -0.0013 0.0015 0.000304999
      vertex -0.0013 0.0017 0.000105001
      vertex -0.0013 0.0017 0.000304999
    endloop
  endfacet
  facet normal 1 0 0
    outer loop
      vertex -0.0013 0.0017 0.000105001
      vertex -0.0013 0.0015 0.000304999
      vertex -0.0013 0.0015 0.000105001
    endloop
  endfacet
  facet normal -1 0 0
    outer loop
      vertex -0.00245 0.0015 0.000105001
      vertex -0.00245 0.00225 0.000304999
      vertex -0.00245 0.00225 0.000105001
    endloop
  endfacet
  facet normal -1 -0 0
    outer loop
      vertex -0.00245 0.00225 0.000304999
      vertex -0.00245 0.0015 0.000105001
      vertex -0.00245 0.0015 0.000304999
    endloop
  endfacet
  facet normal 1 -0 0
    outer loop
      vertex -0.0017 0.0015 0.000304999
      vertex -0.0017 0.00225 0.000105001
      vertex -0.0017 0.00225 0.000304999
    endloop
  endfacet
  facet normal 1 0 0
    outer loop
      vertex -0.0017 0.00225 0.000105001
      vertex -0.0017 0.0015 0.000304999
      vertex -0.0017 0.0015 0.000105001
    endloop
  endfacet
  facet normal 0 -1 0
    outer loop
      vertex -0.00245 0.0015 0.000105001
      vertex -0.0019 0.0015 0.000304999
      vertex -0.00245 0.0015 0.000304999
    endloop
  endfacet
  facet normal 0 -1 -0
    outer loop
      vertex -0.0019 0.0015 0.000304999
      vertex -0.00245 0.0015 0.000105001
      vertex -0.0019 0.0015 0.000105001
    endloop
  endfacet
  facet normal 0 1 -0
    outer loop
      vertex -0.0017 0.00225 0.000105001
      vertex -0.00245 0.00225 0.000304999
      vertex -0.0017 0.00225 0.000304999
    endloop
  endfacet
  facet normal 0 1 0
    outer loop
      vertex -0.00245 0.00225 0.000304999
      vertex -0.0017 0.00225 0.000105001
      vertex -0.00245 0.00225 0.000105001
    endloop
  endfacet
  facet normal 1 -0 0
    outer loop
      vertex -0.002325 0.001625 0.000304999
      vertex -0.002325 0.002125 0.000105001
      vertex -0.002325 0.002125 0.000304999
    endloop
  endfacet
  facet normal 1 0 0
    outer loop
      vertex -0.002325 0.002125 0.000105001
      vertex -0.002325 0.001625 0.000304999
      vertex -0.002325 0.001625 0.000105001
    endloop
  endfacet
  facet normal -1 0 0
    outer loop
      vertex -0.001825 0.001625 0.000105001
      vertex -0.001825 0.002125 0.000304999
      vertex -0.001825 0.002125 0.000105001
    endloop
  endfacet
  facet normal -1 -0 0
    outer loop
      vertex -0.001825 0.002125 0.000304999
      vertex -0.001825 0.001625 0.000105001
      vertex -0.001825 0.001625 0.000304999
    endloop
  endfacet
  facet normal 0 1 -0
    outer loop
      vertex -0.001825 0.001625 0.000105001
      vertex -0.002325 0.001625 0.000304999
      vertex -0.001825 0.001625 0.000304999
    endloop
  endfacet
  facet normal 0 1 0
    outer loop
      vertex -0.002325 0.001625 0.000304999
      vertex -0.001825 0.001625 0.000105001
      vertex -0.002325 0.001625 0.000105001
    endloop
  endfacet
  facet normal 0 -1 0
    outer loop
      vertex -0.002325 0.002125 0.000105001
      vertex -0.001825 0.002125 0.000304999
      vertex -0.002325 0.002125 0.000304999
    endloop
  endfacet
  facet normal 0 -1 -0
    outer loop
      vertex -0.001825 0.002125 0.000304999
      vertex -0.002325 0.002125 0.000105001
      vertex -0.001825 0.002125 0.000105001
    endloop
  endfacet
  facet normal -1 0 0
    outer loop
      vertex -0.0019 -0.0015 0.000105001
      vertex -0.0019 0.0015 0.000304999
      vertex -0.0019 0.0015 0.000105001
    endloop
  endfacet
  facet normal -1 -0 0
    outer loop
      vertex -0.0019 0.0015 0.000304999
      vertex -0.0019 -0.0015 0.000105001
      vertex -0.0019 -0.0015 0.000304999
    endloop
  endfacet
  facet normal 1 -0 0
    outer loop
      vertex -0.0017 -0.0013 0.000304999
      vertex -0.0017 0.0015 0.000105001
      vertex -0.0017 0.0015 0.000304999
    endloop
  endfacet
  facet normal 1 0 0
    outer loop
      vertex -0.0017 0.0015 0.000105001
      vertex -0.0017 -0.0013 0.000304999
      vertex -0.0017 -0.0013 0.000105001
    endloop
  endfacet
  facet normal 0 -1 0
    outer loop
      vertex -0.0019 -0.0015 0.000105001
      vertex 0.0013 -0.0015 0.000304999
      vertex -0.0019 -0.0015 0.000304999
    endloop
  endfacet
  facet normal 0 -1 -0
    outer loop
      vertex 0.0013 -0.0015 0.000304999
      vertex -0.0019 -0.0015 0.000105001
      vertex 0.0013 -0.0015 0.000105001
    endloop
  endfacet
  facet normal 0 1 -0
    outer loop
      vertex -0.0015 -0.0013 0.000105001
      vertex -0.0017 -0.0013 0.000304999
      vertex -0.0015 -0.0013 0.000304999
    endloop
  endfacet
  facet normal 0 1 0
    outer loop
      vertex -0.0017 -0.0013 0.000304999
      vertex -0.0015 -0.0013 0.000105001
      vertex -0.0017 -0.0013 0.000105001
    endloop
  endfacet
  facet normal 0 -1 0
    outer loop
      vertex -0.00225 -0.00245 0.000105001
      vertex -0.0015 -0.00245 0.000304999
      vertex -0.00225 -0.00245 0.000304999
    endloop
  endfacet
  facet normal 0 -1 -0
    outer loop
      vertex -0.0015 -0.00245 0.000304999
      vertex -0.00225 -0.00245 0.000105001
      vertex -0.0015 -0.00245 0.000105001
    endloop
  endfacet
  facet normal 0 1 -0
    outer loop
      vertex -0.0015 -0.0017 0.000105001
      vertex -0.00225 -0.0017 0.000304999
      vertex -0.0015 -0.0017 0.000304999
    endloop
  endfacet
  facet normal 0 1 0
    outer loop
      vertex -0.00225 -0.0017 0.000304999
      vertex -0.0015 -0.0017 0.000105001
      vertex -0.00225 -0.0017 0.000105001
    endloop
  endfacet
  facet normal 1 -0 0
    outer loop
      vertex -0.0015 -0.00245 0.000304999
      vertex -0.0015 -0.0019 0.000105001
      vertex -0.0015 -0.0019 0.000304999
    endloop
  endfacet
  facet normal 1 0 0
    outer loop
      vertex -0.0015 -0.0019 0.000105001
      vertex -0.0015 -0.00245 0.000304999
      vertex -0.0015 -0.00245 0.000105001
    endloop
  endfacet
  facet normal -1 0 0
    outer loop
      vertex -0.00225 -0.00245 0.000105001
      vertex -0.00225 -0.0017 0.000304999
      vertex -0.00225 -0.0017 0.000105001
    endloop
  endfacet
  facet normal -1 -0 0
    outer loop
      vertex -0.00225 -0.0017 0.000304999
      vertex -0.00225 -0.00245 0.000105001
      vertex -0.00225 -0.00245 0.000304999
    endloop
  endfacet
  facet normal 0 1 -0
    outer loop
      vertex -0.001625 -0.002325 0.000105001
      vertex -0.002125 -0.002325 0.000304999
      vertex -0.001625 -0.002325 0.000304999
    endloop
  endfacet
  facet normal 0 1 0
    outer loop
      vertex -0.002125 -0.002325 0.000304999
      vertex -0.001625 -0.002325 0.000105001
      vertex -0.002125 -0.002325 0.000105001
    endloop
  endfacet
  facet normal 0 -1 0
    outer loop
      vertex -0.002125 -0.001825 0.000105001
      vertex -0.001625 -0.001825 0.000304999
      vertex -0.002125 -0.001825 0.000304999
    endloop
  endfacet
  facet normal 0 -1 -0
    outer loop
      vertex -0.001625 -0.001825 0.000304999
      vertex -0.002125 -0.001825 0.000105001
      vertex -0.001625 -0.001825 0.000105001
    endloop
  endfacet
  facet normal -1 0 0
    outer loop
      vertex -0.001625 -0.002325 0.000105001
      vertex -0.001625 -0.001825 0.000304999
      vertex -0.001625 -0.001825 0.000105001
    endloop
  endfacet
  facet normal -1 -0 0
    outer loop
      vertex -0.001625 -0.001825 0.000304999
      vertex -0.001625 -0.002325 0.000105001
      vertex -0.001625 -0.002325 0.000304999
    endloop
  endfacet
  facet normal 1 -0 0
    outer loop
      vertex -0.002125 -0.002325 0.000304999
      vertex -0.002125 -0.001825 0.000105001
      vertex -0.002125 -0.001825 0.000304999
    endloop
  endfacet
  facet normal 1 0 0
    outer loop
      vertex -0.002125 -0.001825 0.000105001
      vertex -0.002125 -0.002325 0.000304999
      vertex -0.002125 -0.002325 0.000105001
    endloop
  endfacet
  facet normal 0 -1 0
    outer loop
      vertex -0.0015 -0.0019 0.000105001
      vertex 0.0015 -0.0019 0.000304999
      vertex -0.0015 -0.0019 0.000304999
    endloop
  endfacet
  facet normal 0 -1 -0
    outer loop
      vertex 0.0015 -0.0019 0.000304999
      vertex -0.0015 -0.0019 0.000105001
      vertex 0.0015 -0.0019 0.000105001
    endloop
  endfacet
  facet normal 0 1 -0
    outer loop
      vertex 0.0013 -0.0017 0.000105001
      vertex -0.0015 -0.0017 0.000304999
      vertex 0.0013 -0.0017 0.000304999
    endloop
  endfacet
  facet normal 0 1 0
    outer loop
      vertex -0.0015 -0.0017 0.000304999
      vertex 0.0013 -0.0017 0.000105001
      vertex -0.0015 -0.0017 0.000105001
    endloop
  endfacet
  facet normal -1 0 0
    outer loop
      vertex 0.0013 -0.0017 0.000105001
      vertex 0.0013 -0.0015 0.000304999
      vertex 0.0013 -0.0015 0.000105001
    endloop
  endfacet
  facet normal -1 -0 0
    outer loop
      vertex 0.0013 -0.0015 0.000304999
      vertex 0.0013 -0.0017 0.000105001
      vertex 0.0013 -0.0017 0.000304999
    endloop
  endfacet
endsolid OpenSCAD_Model
