solid OpenSCAD_Model
  facet normal 1 -0 0
    outer loop
      vertex 0.00595 -0.00575 0.000304999
      vertex 0.00595 -0.005 0.000105001
      vertex 0.00595 -0.005 0.000304999
    endloop
  endfacet
  facet normal 1 0 0
    outer loop
      vertex 0.00595 -0.005 0.000105001
      vertex 0.00595 -0.00575 0.000304999
      vertex 0.00595 -0.00575 0.000105001
    endloop
  endfacet
  facet normal -0 0 1
    outer loop
      vertex -0.005825 0.005125 0.000304999
      vertex -0.0054 0.005 0.000304999
      vertex -0.005325 0.005125 0.000304999
    endloop
  endfacet
  facet normal 0 0 1
    outer loop
      vertex -0.005825 0.005125 0.000304999
      vertex -0.00595 0.005 0.000304999
      vertex -0.0054 0.005 0.000304999
    endloop
  endfacet
  facet normal 0 0 1
    outer loop
      vertex -0.00595 0.005 0.000304999
      vertex -0.005825 0.005125 0.000304999
      vertex -0.00595 0.00575 0.000304999
    endloop
  endfacet
  facet normal -0 0 1
    outer loop
      vertex -0.005325 0.005125 0.000304999
      vertex -0.0052 0.005 0.000304999
      vertex -0.0052 0.00575 0.000304999
    endloop
  endfacet
  facet normal 0 0 1
    outer loop
      vertex -0.005325 0.005125 0.000304999
      vertex -0.0052 0.00575 0.000304999
      vertex -0.005325 0.005625 0.000304999
    endloop
  endfacet
  facet normal 0 0 1
    outer loop
      vertex -0.0052 0.00575 0.000304999
      vertex -0.005825 0.005625 0.000304999
      vertex -0.005325 0.005625 0.000304999
    endloop
  endfacet
  facet normal 0 0 1
    outer loop
      vertex -0.005825 0.005625 0.000304999
      vertex -0.00595 0.00575 0.000304999
      vertex -0.005825 0.005125 0.000304999
    endloop
  endfacet
  facet normal -0 0 1
    outer loop
      vertex -0.00595 0.00575 0.000304999
      vertex -0.005825 0.005625 0.000304999
      vertex -0.0052 0.00575 0.000304999
    endloop
  endfacet
  facet normal -0 0 1
    outer loop
      vertex 0.0052 0.0048 0.000304999
      vertex 0.0054 -0.005 0.000304999
      vertex 0.0054 0.005 0.000304999
    endloop
  endfacet
  facet normal 0 0 1
    outer loop
      vertex 0.0054 -0.005 0.000304999
      vertex 0.0052 -0.005 0.000304999
      vertex 0.005325 -0.005125 0.000304999
    endloop
  endfacet
  facet normal 0 0 1
    outer loop
      vertex 0.0052 -0.005 0.000304999
      vertex 0.0054 -0.005 0.000304999
      vertex 0.0052 0.0048 0.000304999
    endloop
  endfacet
  facet normal 0 0 1
    outer loop
      vertex 0.0054 0.005 0.000304999
      vertex 0.005 0.0048 0.000304999
      vertex 0.0052 0.0048 0.000304999
    endloop
  endfacet
  facet normal 0 0 1
    outer loop
      vertex 0.005 0.0048 0.000304999
      vertex 0.0048 -0.005 0.000304999
      vertex 0.005 -0.0054 0.000304999
    endloop
  endfacet
  facet normal -0 0 1
    outer loop
      vertex -0.0048 0.005 0.000304999
      vertex 0.005 0.0048 0.000304999
      vertex 0.0054 0.005 0.000304999
    endloop
  endfacet
  facet normal 0 0 1
    outer loop
      vertex -0.0048 0.005 0.000304999
      vertex 0.0048 -0.005 0.000304999
      vertex 0.005 0.0048 0.000304999
    endloop
  endfacet
  facet normal 0 0 1
    outer loop
      vertex -0.005 -0.0048 0.000304999
      vertex -0.0048 0.005 0.000304999
      vertex -0.005 0.0054 0.000304999
    endloop
  endfacet
  facet normal -0 0 1
    outer loop
      vertex -0.005 -0.0048 0.000304999
      vertex 0.0048 -0.005 0.000304999
      vertex -0.0048 0.005 0.000304999
    endloop
  endfacet
  facet normal 0 0 1
    outer loop
      vertex -0.0054 -0.005 0.000304999
      vertex -0.005 -0.0048 0.000304999
      vertex -0.0052 -0.0048 0.000304999
    endloop
  endfacet
  facet normal 0 0 1
    outer loop
      vertex -0.0054 0.005 0.000304999
      vertex -0.0052 0.005 0.000304999
      vertex -0.005325 0.005125 0.000304999
    endloop
  endfacet
  facet normal 0 0 1
    outer loop
      vertex -0.0052 0.005 0.000304999
      vertex -0.0054 0.005 0.000304999
      vertex -0.0052 -0.0048 0.000304999
    endloop
  endfacet
  facet normal 0 0 1
    outer loop
      vertex -0.005 -0.0048 0.000304999
      vertex -0.0054 -0.005 0.000304999
      vertex 0.0048 -0.005 0.000304999
    endloop
  endfacet
  facet normal 0 0 1
    outer loop
      vertex -0.0054 -0.005 0.000304999
      vertex -0.0052 -0.0048 0.000304999
      vertex -0.0054 0.005 0.000304999
    endloop
  endfacet
  facet normal 0 0 1
    outer loop
      vertex 0.00595 -0.005 0.000304999
      vertex 0.005825 -0.005125 0.000304999
      vertex 0.00595 -0.00575 0.000304999
    endloop
  endfacet
  facet normal -0 0 1
    outer loop
      vertex 0.0054 -0.005 0.000304999
      vertex 0.005825 -0.005125 0.000304999
      vertex 0.00595 -0.005 0.000304999
    endloop
  endfacet
  facet normal 0 0 1
    outer loop
      vertex 0.005825 -0.005125 0.000304999
      vertex 0.0054 -0.005 0.000304999
      vertex 0.005325 -0.005125 0.000304999
    endloop
  endfacet
  facet normal -0 0 1
    outer loop
      vertex 0.005825 -0.005625 0.000304999
      vertex 0.00595 -0.00575 0.000304999
      vertex 0.005825 -0.005125 0.000304999
    endloop
  endfacet
  facet normal -0 0 1
    outer loop
      vertex 0.005325 -0.005625 0.000304999
      vertex 0.00595 -0.00575 0.000304999
      vertex 0.005825 -0.005625 0.000304999
    endloop
  endfacet
  facet normal 0 0 1
    outer loop
      vertex 0.005325 -0.005125 0.000304999
      vertex 0.0052 -0.005 0.000304999
      vertex 0.005325 -0.005625 0.000304999
    endloop
  endfacet
  facet normal 0 0 1
    outer loop
      vertex 0.005325 -0.005625 0.000304999
      vertex 0.0052 -0.00575 0.000304999
      vertex 0.00595 -0.00575 0.000304999
    endloop
  endfacet
  facet normal 0 0 1
    outer loop
      vertex 0.0052 -0.00575 0.000304999
      vertex 0.005325 -0.005625 0.000304999
      vertex 0.0052 -0.005 0.000304999
    endloop
  endfacet
  facet normal -0 0 1
    outer loop
      vertex 0.0048 -0.0052 0.000304999
      vertex 0.005 -0.0054 0.000304999
      vertex 0.0048 -0.005 0.000304999
    endloop
  endfacet
  facet normal 0 0 1
    outer loop
      vertex -0.005 -0.0054 0.000304999
      vertex 0.0048 -0.0052 0.000304999
      vertex -0.005 -0.0052 0.000304999
    endloop
  endfacet
  facet normal 0 0 1
    outer loop
      vertex 0.0048 -0.0052 0.000304999
      vertex -0.005 -0.0054 0.000304999
      vertex 0.005 -0.0054 0.000304999
    endloop
  endfacet
  facet normal -0 0 1
    outer loop
      vertex -0.005125 -0.005325 0.000304999
      vertex -0.005 -0.0054 0.000304999
      vertex -0.005 -0.0052 0.000304999
    endloop
  endfacet
  facet normal 0 0 1
    outer loop
      vertex -0.005125 -0.005825 0.000304999
      vertex -0.005 -0.0054 0.000304999
      vertex -0.005125 -0.005325 0.000304999
    endloop
  endfacet
  facet normal 0 0 1
    outer loop
      vertex -0.005 -0.0052 0.000304999
      vertex -0.005625 -0.005325 0.000304999
      vertex -0.005125 -0.005325 0.000304999
    endloop
  endfacet
  facet normal 0 0 1
    outer loop
      vertex -0.005625 -0.005325 0.000304999
      vertex -0.00575 -0.0052 0.000304999
      vertex -0.005625 -0.005825 0.000304999
    endloop
  endfacet
  facet normal -0 0 1
    outer loop
      vertex -0.00575 -0.0052 0.000304999
      vertex -0.005625 -0.005325 0.000304999
      vertex -0.005 -0.0052 0.000304999
    endloop
  endfacet
  facet normal 0 0 1
    outer loop
      vertex -0.005 -0.0054 0.000304999
      vertex -0.005125 -0.005825 0.000304999
      vertex -0.005 -0.00595 0.000304999
    endloop
  endfacet
  facet normal -0 0 1
    outer loop
      vertex -0.005625 -0.005825 0.000304999
      vertex -0.005 -0.00595 0.000304999
      vertex -0.005125 -0.005825 0.000304999
    endloop
  endfacet
  facet normal 0 0 1
    outer loop
      vertex -0.005625 -0.005825 0.000304999
      vertex -0.00575 -0.00595 0.000304999
      vertex -0.005 -0.00595 0.000304999
    endloop
  endfacet
  facet normal 0 0 1
    outer loop
      vertex -0.00575 -0.00595 0.000304999
      vertex -0.005625 -0.005825 0.000304999
      vertex -0.00575 -0.0052 0.000304999
    endloop
  endfacet
  facet normal 0 0 1
    outer loop
      vertex 0.00575 0.00595 0.000304999
      vertex 0.005625 0.005825 0.000304999
      vertex 0.00575 0.0052 0.000304999
    endloop
  endfacet
  facet normal 0 0 1
    outer loop
      vertex 0.00575 0.00595 0.000304999
      vertex 0.005125 0.005825 0.000304999
      vertex 0.005625 0.005825 0.000304999
    endloop
  endfacet
  facet normal 0 0 1
    outer loop
      vertex 0.005 0.0054 0.000304999
      vertex 0.005125 0.005825 0.000304999
      vertex 0.005 0.00595 0.000304999
    endloop
  endfacet
  facet normal -0 0 1
    outer loop
      vertex 0.005 0.00595 0.000304999
      vertex 0.005125 0.005825 0.000304999
      vertex 0.00575 0.00595 0.000304999
    endloop
  endfacet
  facet normal -0 0 1
    outer loop
      vertex 0.005625 0.005325 0.000304999
      vertex 0.00575 0.0052 0.000304999
      vertex 0.005625 0.005825 0.000304999
    endloop
  endfacet
  facet normal -0 0 1
    outer loop
      vertex 0.005125 0.005325 0.000304999
      vertex 0.00575 0.0052 0.000304999
      vertex 0.005625 0.005325 0.000304999
    endloop
  endfacet
  facet normal 0 0 1
    outer loop
      vertex 0.005125 0.005825 0.000304999
      vertex 0.005 0.0054 0.000304999
      vertex 0.005125 0.005325 0.000304999
    endloop
  endfacet
  facet normal 0 0 1
    outer loop
      vertex 0.005125 0.005325 0.000304999
      vertex 0.005 0.0052 0.000304999
      vertex 0.00575 0.0052 0.000304999
    endloop
  endfacet
  facet normal 0 0 1
    outer loop
      vertex 0.005 0.0054 0.000304999
      vertex 0.005 0.0052 0.000304999
      vertex 0.005125 0.005325 0.000304999
    endloop
  endfacet
  facet normal 0 0 1
    outer loop
      vertex 0.005 0.0054 0.000304999
      vertex -0.0048 0.0052 0.000304999
      vertex 0.005 0.0052 0.000304999
    endloop
  endfacet
  facet normal 0 0 1
    outer loop
      vertex -0.0048 0.0052 0.000304999
      vertex -0.005 0.0054 0.000304999
      vertex -0.0048 0.005 0.000304999
    endloop
  endfacet
  facet normal -0 0 1
    outer loop
      vertex -0.005 0.0054 0.000304999
      vertex -0.0048 0.0052 0.000304999
      vertex 0.005 0.0054 0.000304999
    endloop
  endfacet
  facet normal 0 0 -1
    outer loop
      vertex 0.0048 -0.005 0.000105001
      vertex 0.005 -0.0054 0.000105001
      vertex 0.0048 -0.0052 0.000105001
    endloop
  endfacet
  facet normal 0 0 -1
    outer loop
      vertex -0.005 -0.0054 0.000105001
      vertex 0.0048 -0.0052 0.000105001
      vertex 0.005 -0.0054 0.000105001
    endloop
  endfacet
  facet normal -0 0 -1
    outer loop
      vertex 0.0048 -0.0052 0.000105001
      vertex -0.005 -0.0054 0.000105001
      vertex -0.005 -0.0052 0.000105001
    endloop
  endfacet
  facet normal 0 0 -1
    outer loop
      vertex -0.0048 0.0052 0.000105001
      vertex 0.005 0.0054 0.000105001
      vertex 0.005 0.0052 0.000105001
    endloop
  endfacet
  facet normal 0 0 -1
    outer loop
      vertex -0.0048 0.0052 0.000105001
      vertex -0.005 0.0054 0.000105001
      vertex 0.005 0.0054 0.000105001
    endloop
  endfacet
  facet normal 0 0 -1
    outer loop
      vertex -0.0048 0.005 0.000105001
      vertex -0.005 0.0054 0.000105001
      vertex -0.0048 0.0052 0.000105001
    endloop
  endfacet
  facet normal 0 0 -1
    outer loop
      vertex -0.005125 -0.005825 0.000105001
      vertex -0.005 -0.0054 0.000105001
      vertex -0.005 -0.00595 0.000105001
    endloop
  endfacet
  facet normal 0 0 -1
    outer loop
      vertex -0.005125 -0.005325 0.000105001
      vertex -0.005 -0.0054 0.000105001
      vertex -0.005125 -0.005825 0.000105001
    endloop
  endfacet
  facet normal 0 0 -1
    outer loop
      vertex -0.005 -0.00595 0.000105001
      vertex -0.005625 -0.005825 0.000105001
      vertex -0.005125 -0.005825 0.000105001
    endloop
  endfacet
  facet normal -0 0 -1
    outer loop
      vertex -0.005625 -0.005825 0.000105001
      vertex -0.00575 -0.00595 0.000105001
      vertex -0.005625 -0.005325 0.000105001
    endloop
  endfacet
  facet normal 0 0 -1
    outer loop
      vertex -0.00575 -0.00595 0.000105001
      vertex -0.005625 -0.005825 0.000105001
      vertex -0.005 -0.00595 0.000105001
    endloop
  endfacet
  facet normal 0 0 -1
    outer loop
      vertex -0.005 -0.0054 0.000105001
      vertex -0.005125 -0.005325 0.000105001
      vertex -0.005 -0.0052 0.000105001
    endloop
  endfacet
  facet normal 0 0 -1
    outer loop
      vertex -0.005625 -0.005325 0.000105001
      vertex -0.005 -0.0052 0.000105001
      vertex -0.005125 -0.005325 0.000105001
    endloop
  endfacet
  facet normal 0 0 -1
    outer loop
      vertex -0.005625 -0.005325 0.000105001
      vertex -0.00575 -0.0052 0.000105001
      vertex -0.005 -0.0052 0.000105001
    endloop
  endfacet
  facet normal 0 0 -1
    outer loop
      vertex -0.00575 -0.0052 0.000105001
      vertex -0.005625 -0.005325 0.000105001
      vertex -0.00575 -0.00595 0.000105001
    endloop
  endfacet
  facet normal 0 0 -1
    outer loop
      vertex -0.005325 0.005625 0.000105001
      vertex -0.0052 0.00575 0.000105001
      vertex -0.005325 0.005125 0.000105001
    endloop
  endfacet
  facet normal 0 0 -1
    outer loop
      vertex -0.005825 0.005625 0.000105001
      vertex -0.0052 0.00575 0.000105001
      vertex -0.005325 0.005625 0.000105001
    endloop
  endfacet
  facet normal 0 0 -1
    outer loop
      vertex -0.005825 0.005625 0.000105001
      vertex -0.00595 0.00575 0.000105001
      vertex -0.0052 0.00575 0.000105001
    endloop
  endfacet
  facet normal 0 0 -1
    outer loop
      vertex -0.00595 0.00575 0.000105001
      vertex -0.005825 0.005625 0.000105001
      vertex -0.00595 0.005 0.000105001
    endloop
  endfacet
  facet normal 0 0 -1
    outer loop
      vertex 0.00575 0.0052 0.000105001
      vertex 0.005625 0.005325 0.000105001
      vertex 0.00575 0.00595 0.000105001
    endloop
  endfacet
  facet normal 0 0 -1
    outer loop
      vertex 0.00575 0.0052 0.000105001
      vertex 0.005125 0.005325 0.000105001
      vertex 0.005625 0.005325 0.000105001
    endloop
  endfacet
  facet normal 0 0 -1
    outer loop
      vertex 0.005 0.0054 0.000105001
      vertex 0.005125 0.005325 0.000105001
      vertex 0.005 0.0052 0.000105001
    endloop
  endfacet
  facet normal 0 0 -1
    outer loop
      vertex 0.005 0.0052 0.000105001
      vertex 0.005125 0.005325 0.000105001
      vertex 0.00575 0.0052 0.000105001
    endloop
  endfacet
  facet normal 0 0 -1
    outer loop
      vertex 0.005625 0.005825 0.000105001
      vertex 0.00575 0.00595 0.000105001
      vertex 0.005625 0.005325 0.000105001
    endloop
  endfacet
  facet normal 0 0 -1
    outer loop
      vertex 0.005125 0.005825 0.000105001
      vertex 0.00575 0.00595 0.000105001
      vertex 0.005625 0.005825 0.000105001
    endloop
  endfacet
  facet normal 0 0 -1
    outer loop
      vertex 0.005125 0.005325 0.000105001
      vertex 0.005 0.0054 0.000105001
      vertex 0.005125 0.005825 0.000105001
    endloop
  endfacet
  facet normal 0 0 -1
    outer loop
      vertex 0.005125 0.005825 0.000105001
      vertex 0.005 0.00595 0.000105001
      vertex 0.00575 0.00595 0.000105001
    endloop
  endfacet
  facet normal 0 0 -1
    outer loop
      vertex 0.005 0.00595 0.000105001
      vertex 0.005125 0.005825 0.000105001
      vertex 0.005 0.0054 0.000105001
    endloop
  endfacet
  facet normal 0 0 -1
    outer loop
      vertex 0.00595 -0.00575 0.000105001
      vertex 0.005825 -0.005625 0.000105001
      vertex 0.00595 -0.005 0.000105001
    endloop
  endfacet
  facet normal 0 0 -1
    outer loop
      vertex 0.00595 -0.00575 0.000105001
      vertex 0.005325 -0.005625 0.000105001
      vertex 0.005825 -0.005625 0.000105001
    endloop
  endfacet
  facet normal -0 0 -1
    outer loop
      vertex 0.005325 -0.005625 0.000105001
      vertex 0.0052 -0.00575 0.000105001
      vertex 0.005325 -0.005125 0.000105001
    endloop
  endfacet
  facet normal 0 0 -1
    outer loop
      vertex 0.0052 -0.00575 0.000105001
      vertex 0.005325 -0.005625 0.000105001
      vertex 0.00595 -0.00575 0.000105001
    endloop
  endfacet
  facet normal 0 0 -1
    outer loop
      vertex 0.005825 -0.005125 0.000105001
      vertex 0.00595 -0.005 0.000105001
      vertex 0.005825 -0.005625 0.000105001
    endloop
  endfacet
  facet normal 0 0 -1
    outer loop
      vertex 0.005825 -0.005125 0.000105001
      vertex 0.0054 -0.005 0.000105001
      vertex 0.00595 -0.005 0.000105001
    endloop
  endfacet
  facet normal 0 0 -1
    outer loop
      vertex 0.005325 -0.005125 0.000105001
      vertex 0.0054 -0.005 0.000105001
      vertex 0.005825 -0.005125 0.000105001
    endloop
  endfacet
  facet normal 0 0 -1
    outer loop
      vertex 0.0052 -0.005 0.000105001
      vertex 0.0054 -0.005 0.000105001
      vertex 0.005325 -0.005125 0.000105001
    endloop
  endfacet
  facet normal 0 0 -1
    outer loop
      vertex 0.0052 -0.005 0.000105001
      vertex 0.005325 -0.005125 0.000105001
      vertex 0.0052 -0.00575 0.000105001
    endloop
  endfacet
  facet normal 0 0 -1
    outer loop
      vertex 0.0052 0.0048 0.000105001
      vertex 0.0054 -0.005 0.000105001
      vertex 0.0052 -0.005 0.000105001
    endloop
  endfacet
  facet normal 0 0 -1
    outer loop
      vertex 0.0054 -0.005 0.000105001
      vertex 0.0052 0.0048 0.000105001
      vertex 0.0054 0.005 0.000105001
    endloop
  endfacet
  facet normal 0 0 -1
    outer loop
      vertex 0.005 0.0048 0.000105001
      vertex 0.0054 0.005 0.000105001
      vertex 0.0052 0.0048 0.000105001
    endloop
  endfacet
  facet normal 0 0 -1
    outer loop
      vertex 0.005 -0.0054 0.000105001
      vertex 0.0048 -0.005 0.000105001
      vertex 0.005 0.0048 0.000105001
    endloop
  endfacet
  facet normal 0 0 -1
    outer loop
      vertex 0.005 0.0048 0.000105001
      vertex -0.0048 0.005 0.000105001
      vertex 0.0054 0.005 0.000105001
    endloop
  endfacet
  facet normal 0 0 -1
    outer loop
      vertex 0.0048 -0.005 0.000105001
      vertex -0.0048 0.005 0.000105001
      vertex 0.005 0.0048 0.000105001
    endloop
  endfacet
  facet normal 0 0 -1
    outer loop
      vertex -0.005 0.0054 0.000105001
      vertex -0.0048 0.005 0.000105001
      vertex -0.005 -0.0048 0.000105001
    endloop
  endfacet
  facet normal 0 0 -1
    outer loop
      vertex 0.0048 -0.005 0.000105001
      vertex -0.005 -0.0048 0.000105001
      vertex -0.0048 0.005 0.000105001
    endloop
  endfacet
  facet normal 0 0 -1
    outer loop
      vertex -0.0054 -0.005 0.000105001
      vertex -0.005 -0.0048 0.000105001
      vertex 0.0048 -0.005 0.000105001
    endloop
  endfacet
  facet normal 0 0 -1
    outer loop
      vertex -0.0054 0.005 0.000105001
      vertex -0.0052 0.005 0.000105001
      vertex -0.0052 -0.0048 0.000105001
    endloop
  endfacet
  facet normal 0 0 -1
    outer loop
      vertex -0.0052 0.005 0.000105001
      vertex -0.005325 0.005125 0.000105001
      vertex -0.0052 0.00575 0.000105001
    endloop
  endfacet
  facet normal -0 0 -1
    outer loop
      vertex -0.005 -0.0048 0.000105001
      vertex -0.0054 -0.005 0.000105001
      vertex -0.0052 -0.0048 0.000105001
    endloop
  endfacet
  facet normal 0 0 -1
    outer loop
      vertex -0.0054 0.005 0.000105001
      vertex -0.0052 -0.0048 0.000105001
      vertex -0.0054 -0.005 0.000105001
    endloop
  endfacet
  facet normal 0 0 -1
    outer loop
      vertex -0.0052 0.005 0.000105001
      vertex -0.0054 0.005 0.000105001
      vertex -0.005325 0.005125 0.000105001
    endloop
  endfacet
  facet normal 0 0 -1
    outer loop
      vertex -0.0054 0.005 0.000105001
      vertex -0.005825 0.005125 0.000105001
      vertex -0.005325 0.005125 0.000105001
    endloop
  endfacet
  facet normal -0 0 -1
    outer loop
      vertex -0.005825 0.005125 0.000105001
      vertex -0.00595 0.005 0.000105001
      vertex -0.005825 0.005625 0.000105001
    endloop
  endfacet
  facet normal 0 0 -1
    outer loop
      vertex -0.00595 0.005 0.000105001
      vertex -0.005825 0.005125 0.000105001
      vertex -0.0054 0.005 0.000105001
    endloop
  endfacet
  facet normal -1 0 0
    outer loop
      vertex 0.0052 -0.00575 0.000105001
      vertex 0.0052 -0.005 0.000304999
      vertex 0.0052 -0.005 0.000105001
    endloop
  endfacet
  facet normal -1 -0 0
    outer loop
      vertex 0.0052 -0.005 0.000304999
      vertex 0.0052 -0.00575 0.000105001
      vertex 0.0052 -0.00575 0.000304999
    endloop
  endfacet
  facet normal 0 1 -0
    outer loop
      vertex 0.00595 -0.005 0.000105001
      vertex 0.0054 -0.005 0.000304999
      vertex 0.00595 -0.005 0.000304999
    endloop
  endfacet
  facet normal 0 1 0
    outer loop
      vertex 0.0054 -0.005 0.000304999
      vertex 0.00595 -0.005 0.000105001
      vertex 0.0054 -0.005 0.000105001
    endloop
  endfacet
  facet normal 0 -1 0
    outer loop
      vertex 0.0052 -0.00575 0.000105001
      vertex 0.00595 -0.00575 0.000304999
      vertex 0.0052 -0.00575 0.000304999
    endloop
  endfacet
  facet normal 0 -1 -0
    outer loop
      vertex 0.00595 -0.00575 0.000304999
      vertex 0.0052 -0.00575 0.000105001
      vertex 0.00595 -0.00575 0.000105001
    endloop
  endfacet
  facet normal -1 0 0
    outer loop
      vertex 0.005825 -0.005625 0.000105001
      vertex 0.005825 -0.005125 0.000304999
      vertex 0.005825 -0.005125 0.000105001
    endloop
  endfacet
  facet normal -1 -0 0
    outer loop
      vertex 0.005825 -0.005125 0.000304999
      vertex 0.005825 -0.005625 0.000105001
      vertex 0.005825 -0.005625 0.000304999
    endloop
  endfacet
  facet normal 1 -0 0
    outer loop
      vertex 0.005325 -0.005625 0.000304999
      vertex 0.005325 -0.005125 0.000105001
      vertex 0.005325 -0.005125 0.000304999
    endloop
  endfacet
  facet normal 1 0 0
    outer loop
      vertex 0.005325 -0.005125 0.000105001
      vertex 0.005325 -0.005625 0.000304999
      vertex 0.005325 -0.005625 0.000105001
    endloop
  endfacet
  facet normal 0 -1 0
    outer loop
      vertex 0.005325 -0.005125 0.000105001
      vertex 0.005825 -0.005125 0.000304999
      vertex 0.005325 -0.005125 0.000304999
    endloop
  endfacet
  facet normal 0 -1 -0
    outer loop
      vertex 0.005825 -0.005125 0.000304999
      vertex 0.005325 -0.005125 0.000105001
      vertex 0.005825 -0.005125 0.000105001
    endloop
  endfacet
  facet normal 0 1 -0
    outer loop
      vertex 0.005825 -0.005625 0.000105001
      vertex 0.005325 -0.005625 0.000304999
      vertex 0.005825 -0.005625 0.000304999
    endloop
  endfacet
  facet normal 0 1 0
    outer loop
      vertex 0.005325 -0.005625 0.000304999
      vertex 0.005825 -0.005625 0.000105001
      vertex 0.005325 -0.005625 0.000105001
    endloop
  endfacet
  facet normal 1 -0 0
    outer loop
      vertex 0.0054 -0.005 0.000304999
      vertex 0.0054 0.005 0.000105001
      vertex 0.0054 0.005 0.000304999
    endloop
  endfacet
  facet normal 1 0 0
    outer loop
      vertex 0.0054 0.005 0.000105001
      vertex 0.0054 -0.005 0.000304999
      vertex 0.0054 -0.005 0.000105001
    endloop
  endfacet
  facet normal -1 0 0
    outer loop
      vertex 0.0052 -0.005 0.000105001
      vertex 0.0052 0.0048 0.000304999
      vertex 0.0052 0.0048 0.000105001
    endloop
  endfacet
  facet normal -1 -0 0
    outer loop
      vertex 0.0052 0.0048 0.000304999
      vertex 0.0052 -0.005 0.000105001
      vertex 0.0052 -0.005 0.000304999
    endloop
  endfacet
  facet normal 0 1 -0
    outer loop
      vertex 0.0054 0.005 0.000105001
      vertex -0.0048 0.005 0.000304999
      vertex 0.0054 0.005 0.000304999
    endloop
  endfacet
  facet normal 0 1 0
    outer loop
      vertex -0.0048 0.005 0.000304999
      vertex 0.0054 0.005 0.000105001
      vertex -0.0048 0.005 0.000105001
    endloop
  endfacet
  facet normal 1 -0 0
    outer loop
      vertex 0.005 -0.0054 0.000304999
      vertex 0.005 0.0048 0.000105001
      vertex 0.005 0.0048 0.000304999
    endloop
  endfacet
  facet normal 1 0 0
    outer loop
      vertex 0.005 0.0048 0.000105001
      vertex 0.005 -0.0054 0.000304999
      vertex 0.005 -0.0054 0.000105001
    endloop
  endfacet
  facet normal 0 -1 0
    outer loop
      vertex 0.005 0.0048 0.000105001
      vertex 0.0052 0.0048 0.000304999
      vertex 0.005 0.0048 0.000304999
    endloop
  endfacet
  facet normal 0 -1 -0
    outer loop
      vertex 0.0052 0.0048 0.000304999
      vertex 0.005 0.0048 0.000105001
      vertex 0.0052 0.0048 0.000105001
    endloop
  endfacet
  facet normal 0 1 -0
    outer loop
      vertex 0.00575 0.00595 0.000105001
      vertex 0.005 0.00595 0.000304999
      vertex 0.00575 0.00595 0.000304999
    endloop
  endfacet
  facet normal 0 1 0
    outer loop
      vertex 0.005 0.00595 0.000304999
      vertex 0.00575 0.00595 0.000105001
      vertex 0.005 0.00595 0.000105001
    endloop
  endfacet
  facet normal 0 -1 0
    outer loop
      vertex 0.005 0.0052 0.000105001
      vertex 0.00575 0.0052 0.000304999
      vertex 0.005 0.0052 0.000304999
    endloop
  endfacet
  facet normal 0 -1 -0
    outer loop
      vertex 0.00575 0.0052 0.000304999
      vertex 0.005 0.0052 0.000105001
      vertex 0.00575 0.0052 0.000105001
    endloop
  endfacet
  facet normal -1 0 0
    outer loop
      vertex 0.005 0.0054 0.000105001
      vertex 0.005 0.00595 0.000304999
      vertex 0.005 0.00595 0.000105001
    endloop
  endfacet
  facet normal -1 -0 0
    outer loop
      vertex 0.005 0.00595 0.000304999
      vertex 0.005 0.0054 0.000105001
      vertex 0.005 0.0054 0.000304999
    endloop
  endfacet
  facet normal 1 -0 0
    outer loop
      vertex 0.00575 0.0052 0.000304999
      vertex 0.00575 0.00595 0.000105001
      vertex 0.00575 0.00595 0.000304999
    endloop
  endfacet
  facet normal 1 0 0
    outer loop
      vertex 0.00575 0.00595 0.000105001
      vertex 0.00575 0.0052 0.000304999
      vertex 0.00575 0.0052 0.000105001
    endloop
  endfacet
  facet normal 0 -1 0
    outer loop
      vertex 0.005125 0.005825 0.000105001
      vertex 0.005625 0.005825 0.000304999
      vertex 0.005125 0.005825 0.000304999
    endloop
  endfacet
  facet normal 0 -1 -0
    outer loop
      vertex 0.005625 0.005825 0.000304999
      vertex 0.005125 0.005825 0.000105001
      vertex 0.005625 0.005825 0.000105001
    endloop
  endfacet
  facet normal 0 1 -0
    outer loop
      vertex 0.005625 0.005325 0.000105001
      vertex 0.005125 0.005325 0.000304999
      vertex 0.005625 0.005325 0.000304999
    endloop
  endfacet
  facet normal 0 1 0
    outer loop
      vertex 0.005125 0.005325 0.000304999
      vertex 0.005625 0.005325 0.000105001
      vertex 0.005125 0.005325 0.000105001
    endloop
  endfacet
  facet normal 1 -0 0
    outer loop
      vertex 0.005125 0.005325 0.000304999
      vertex 0.005125 0.005825 0.000105001
      vertex 0.005125 0.005825 0.000304999
    endloop
  endfacet
  facet normal 1 0 0
    outer loop
      vertex 0.005125 0.005825 0.000105001
      vertex 0.005125 0.005325 0.000304999
      vertex 0.005125 0.005325 0.000105001
    endloop
  endfacet
  facet normal -1 0 0
    outer loop
      vertex 0.005625 0.005325 0.000105001
      vertex 0.005625 0.005825 0.000304999
      vertex 0.005625 0.005825 0.000105001
    endloop
  endfacet
  facet normal -1 -0 0
    outer loop
      vertex 0.005625 0.005825 0.000304999
      vertex 0.005625 0.005325 0.000105001
      vertex 0.005625 0.005325 0.000304999
    endloop
  endfacet
  facet normal 0 1 -0
    outer loop
      vertex 0.005 0.0054 0.000105001
      vertex -0.005 0.0054 0.000304999
      vertex 0.005 0.0054 0.000304999
    endloop
  endfacet
  facet normal 0 1 0
    outer loop
      vertex -0.005 0.0054 0.000304999
      vertex 0.005 0.0054 0.000105001
      vertex -0.005 0.0054 0.000105001
    endloop
  endfacet
  facet normal 0 -1 0
    outer loop
      vertex -0.0048 0.0052 0.000105001
      vertex 0.005 0.0052 0.000304999
      vertex -0.0048 0.0052 0.000304999
    endloop
  endfacet
  facet normal 0 -1 -0
    outer loop
      vertex 0.005 0.0052 0.000304999
      vertex -0.0048 0.0052 0.000105001
      vertex 0.005 0.0052 0.000105001
    endloop
  endfacet
  facet normal -1 0 0
    outer loop
      vertex -0.005 -0.0048 0.000105001
      vertex -0.005 0.0054 0.000304999
      vertex -0.005 0.0054 0.000105001
    endloop
  endfacet
  facet normal -1 -0 0
    outer loop
      vertex -0.005 0.0054 0.000304999
      vertex -0.005 -0.0048 0.000105001
      vertex -0.005 -0.0048 0.000304999
    endloop
  endfacet
  facet normal 1 -0 0
    outer loop
      vertex -0.0048 0.005 0.000304999
      vertex -0.0048 0.0052 0.000105001
      vertex -0.0048 0.0052 0.000304999
    endloop
  endfacet
  facet normal 1 0 0
    outer loop
      vertex -0.0048 0.0052 0.000105001
      vertex -0.0048 0.005 0.000304999
      vertex -0.0048 0.005 0.000105001
    endloop
  endfacet
  facet normal -1 0 0
    outer loop
      vertex -0.00595 0.005 0.000105001
      vertex -0.00595 0.00575 0.000304999
      vertex -0.00595 0.00575 0.000105001
    endloop
  endfacet
  facet normal -1 -0 0
    outer loop
      vertex -0.00595 0.00575 0.000304999
      vertex -0.00595 0.005 0.000105001
      vertex -0.00595 0.005 0.000304999
    endloop
  endfacet
  facet normal 1 -0 0
    outer loop
      vertex -0.0052 0.005 0.000304999
      vertex -0.0052 0.00575 0.000105001
      vertex -0.0052 0.00575 0.000304999
    endloop
  endfacet
  facet normal 1 0 0
    outer loop
      vertex -0.0052 0.00575 0.000105001
      vertex -0.0052 0.005 0.000304999
      vertex -0.0052 0.005 0.000105001
    endloop
  endfacet
  facet normal 0 -1 0
    outer loop
      vertex -0.00595 0.005 0.000105001
      vertex -0.0054 0.005 0.000304999
      vertex -0.00595 0.005 0.000304999
    endloop
  endfacet
  facet normal 0 -1 -0
    outer loop
      vertex -0.0054 0.005 0.000304999
      vertex -0.00595 0.005 0.000105001
      vertex -0.0054 0.005 0.000105001
    endloop
  endfacet
  facet normal 0 1 -0
    outer loop
      vertex -0.0052 0.00575 0.000105001
      vertex -0.00595 0.00575 0.000304999
      vertex -0.0052 0.00575 0.000304999
    endloop
  endfacet
  facet normal 0 1 0
    outer loop
      vertex -0.00595 0.00575 0.000304999
      vertex -0.0052 0.00575 0.000105001
      vertex -0.00595 0.00575 0.000105001
    endloop
  endfacet
  facet normal 1 -0 0
    outer loop
      vertex -0.005825 0.005125 0.000304999
      vertex -0.005825 0.005625 0.000105001
      vertex -0.005825 0.005625 0.000304999
    endloop
  endfacet
  facet normal 1 0 0
    outer loop
      vertex -0.005825 0.005625 0.000105001
      vertex -0.005825 0.005125 0.000304999
      vertex -0.005825 0.005125 0.000105001
    endloop
  endfacet
  facet normal -1 0 0
    outer loop
      vertex -0.005325 0.005125 0.000105001
      vertex -0.005325 0.005625 0.000304999
      vertex -0.005325 0.005625 0.000105001
    endloop
  endfacet
  facet normal -1 -0 0
    outer loop
      vertex -0.005325 0.005625 0.000304999
      vertex -0.005325 0.005125 0.000105001
      vertex -0.005325 0.005125 0.000304999
    endloop
  endfacet
  facet normal 0 1 -0
    outer loop
      vertex -0.005325 0.005125 0.000105001
      vertex -0.005825 0.005125 0.000304999
      vertex -0.005325 0.005125 0.000304999
    endloop
  endfacet
  facet normal 0 1 0
    outer loop
      vertex -0.005825 0.005125 0.000304999
      vertex -0.005325 0.005125 0.000105001
      vertex -0.005825 0.005125 0.000105001
    endloop
  endfacet
  facet normal 0 -1 0
    outer loop
      vertex -0.005825 0.005625 0.000105001
      vertex -0.005325 0.005625 0.000304999
      vertex -0.005825 0.005625 0.000304999
    endloop
  endfacet
  facet normal 0 -1 -0
    outer loop
      vertex -0.005325 0.005625 0.000304999
      vertex -0.005825 0.005625 0.000105001
      vertex -0.005325 0.005625 0.000105001
    endloop
  endfacet
  facet normal -1 0 0
    outer loop
      vertex -0.0054 -0.005 0.000105001
      vertex -0.0054 0.005 0.000304999
      vertex -0.0054 0.005 0.000105001
    endloop
  endfacet
  facet normal -1 -0 0
    outer loop
      vertex -0.0054 0.005 0.000304999
      vertex -0.0054 -0.005 0.000105001
      vertex -0.0054 -0.005 0.000304999
    endloop
  endfacet
  facet normal 1 -0 0
    outer loop
      vertex -0.0052 -0.0048 0.000304999
      vertex -0.0052 0.005 0.000105001
      vertex -0.0052 0.005 0.000304999
    endloop
  endfacet
  facet normal 1 0 0
    outer loop
      vertex -0.0052 0.005 0.000105001
      vertex -0.0052 -0.0048 0.000304999
      vertex -0.0052 -0.0048 0.000105001
    endloop
  endfacet
  facet normal 0 -1 0
    outer loop
      vertex -0.0054 -0.005 0.000105001
      vertex 0.0048 -0.005 0.000304999
      vertex -0.0054 -0.005 0.000304999
    endloop
  endfacet
  facet normal 0 -1 -0
    outer loop
      vertex 0.0048 -0.005 0.000304999
      vertex -0.0054 -0.005 0.000105001
      vertex 0.0048 -0.005 0.000105001
    endloop
  endfacet
  facet normal 0 1 -0
    outer loop
      vertex -0.005 -0.0048 0.000105001
      vertex -0.0052 -0.0048 0.000304999
      vertex -0.005 -0.0048 0.000304999
    endloop
  endfacet
  facet normal 0 1 0
    outer loop
      vertex -0.0052 -0.0048 0.000304999
      vertex -0.005 -0.0048 0.000105001
      vertex -0.0052 -0.0048 0.000105001
    endloop
  endfacet
  facet normal 0 -1 0
    outer loop
      vertex -0.00575 -0.00595 0.000105001
      vertex -0.005 -0.00595 0.000304999
      vertex -0.00575 -0.00595 0.000304999
    endloop
  endfacet
  facet normal 0 -1 -0
    outer loop
      vertex -0.005 -0.00595 0.000304999
      vertex -0.00575 -0.00595 0.000105001
      vertex -0.005 -0.00595 0.000105001
    endloop
  endfacet
  facet normal 0 1 -0
    outer loop
      vertex -0.005 -0.0052 0.000105001
      vertex -0.00575 -0.0052 0.000304999
      vertex -0.005 -0.0052 0.000304999
    endloop
  endfacet
  facet normal 0 1 0
    outer loop
      vertex -0.00575 -0.0052 0.000304999
      vertex -0.005 -0.0052 0.000105001
      vertex -0.00575 -0.0052 0.000105001
    endloop
  endfacet
  facet normal 1 -0 0
    outer loop
      vertex -0.005 -0.00595 0.000304999
      vertex -0.005 -0.0054 0.000105001
      vertex -0.005 -0.0054 0.000304999
    endloop
  endfacet
  facet normal 1 0 0
    outer loop
      vertex -0.005 -0.0054 0.000105001
      vertex -0.005 -0.00595 0.000304999
      vertex -0.005 -0.00595 0.000105001
    endloop
  endfacet
  facet normal -1 0 0
    outer loop
      vertex -0.00575 -0.00595 0.000105001
      vertex -0.00575 -0.0052 0.000304999
      vertex -0.00575 -0.0052 0.000105001
    endloop
  endfacet
  facet normal -1 -0 0
    outer loop
      vertex -0.00575 -0.0052 0.000304999
      vertex -0.00575 -0.00595 0.000105001
      vertex -0.00575 -0.00595 0.000304999
    endloop
  endfacet
  facet normal 0 1 -0
    outer loop
      vertex -0.005125 -0.005825 0.000105001
      vertex -0.005625 -0.005825 0.000304999
      vertex -0.005125 -0.005825 0.000304999
    endloop
  endfacet
  facet normal 0 1 0
    outer loop
      vertex -0.005625 -0.005825 0.000304999
      vertex -0.005125 -0.005825 0.000105001
      vertex -0.005625 -0.005825 0.000105001
    endloop
  endfacet
  facet normal 0 -1 0
    outer loop
      vertex -0.005625 -0.005325 0.000105001
      vertex -0.005125 -0.005325 0.000304999
      vertex -0.005625 -0.005325 0.000304999
    endloop
  endfacet
  facet normal 0 -1 -0
    outer loop
      vertex -0.005125 -0.005325 0.000304999
      vertex -0.005625 -0.005325 0.000105001
      vertex -0.005125 -0.005325 0.000105001
    endloop
  endfacet
  facet normal -1 0 0
    outer loop
      vertex -0.005125 -0.005825 0.000105001
      vertex -0.005125 -0.005325 0.000304999
      vertex -0.005125 -0.005325 0.000105001
    endloop
  endfacet
  facet normal -1 -0 0
    outer loop
      vertex -0.005125 -0.005325 0.000304999
      vertex -0.005125 -0.005825 0.000105001
      vertex -0.005125 -0.005825 0.000304999
    endloop
  endfacet
  facet normal 1 -0 0
    outer loop
      vertex -0.005625 -0.005825 0.000304999
      vertex -0.005625 -0.005325 0.000105001
      vertex -0.005625 -0.005325 0.000304999
    endloop
  endfacet
  facet normal 1 0 0
    outer loop
      vertex -0.005625 -0.005325 0.000105001
      vertex -0.005625 -0.005825 0.000304999
      vertex -0.005625 -0.005825 0.000105001
    endloop
  endfacet
  facet normal 0 -1 0
    outer loop
      vertex -0.005 -0.0054 0.000105001
      vertex 0.005 -0.0054 0.000304999
      vertex -0.005 -0.0054 0.000304999
    endloop
  endfacet
  facet normal 0 -1 -0
    outer loop
      vertex 0.005 -0.0054 0.000304999
      vertex -0.005 -0.0054 0.000105001
      vertex 0.005 -0.0054 0.000105001
    endloop
  endfacet
  facet normal 0 1 -0
    outer loop
      vertex 0.0048 -0.0052 0.000105001
      vertex -0.005 -0.0052 0.000304999
      vertex 0.0048 -0.0052 0.000304999
    endloop
  endfacet
  facet normal 0 1 0
    outer loop
      vertex -0.005 -0.0052 0.000304999
      vertex 0.0048 -0.0052 0.000105001
      vertex -0.005 -0.0052 0.000105001
    endloop
  endfacet
  facet normal -1 0 0
    outer loop
      vertex 0.0048 -0.0052 0.000105001
      vertex 0.0048 -0.005 0.000304999
      vertex 0.0048 -0.005 0.000105001
    endloop
  endfacet
  facet normal -1 -0 0
    outer loop
      vertex 0.0048 -0.005 0.000304999
      vertex 0.0048 -0.0052 0.000105001
      vertex 0.0048 -0.0052 0.000304999
    endloop
  endfacet
endsolid OpenSCAD_Model
