solid OpenSCAD_Model
  facet normal 1 -0 0
    outer loop
      vertex 0.00495 -0.00475 0.000304999
      vertex 0.00495 -0.004 0.000105001
      vertex 0.00495 -0.004 0.000304999
    endloop
  endfacet
  facet normal 1 0 0
    outer loop
      vertex 0.00495 -0.004 0.000105001
      vertex 0.00495 -0.00475 0.000304999
      vertex 0.00495 -0.00475 0.000105001
    endloop
  endfacet
  facet normal -0 0 1
    outer loop
      vertex -0.004825 0.004125 0.000304999
      vertex -0.0044 0.004 0.000304999
      vertex -0.004325 0.004125 0.000304999
    endloop
  endfacet
  facet normal 0 0 1
    outer loop
      vertex -0.004825 0.004125 0.000304999
      vertex -0.00495 0.004 0.000304999
      vertex -0.0044 0.004 0.000304999
    endloop
  endfacet
  facet normal 0 0 1
    outer loop
      vertex -0.00495 0.004 0.000304999
      vertex -0.004825 0.004125 0.000304999
      vertex -0.00495 0.00475 0.000304999
    endloop
  endfacet
  facet normal -0 0 1
    outer loop
      vertex -0.004325 0.004125 0.000304999
      vertex -0.0042 0.004 0.000304999
      vertex -0.0042 0.00475 0.000304999
    endloop
  endfacet
  facet normal 0 0 1
    outer loop
      vertex -0.004325 0.004125 0.000304999
      vertex -0.0042 0.00475 0.000304999
      vertex -0.004325 0.004625 0.000304999
    endloop
  endfacet
  facet normal 0 0 1
    outer loop
      vertex -0.0042 0.00475 0.000304999
      vertex -0.004825 0.004625 0.000304999
      vertex -0.004325 0.004625 0.000304999
    endloop
  endfacet
  facet normal 0 0 1
    outer loop
      vertex -0.004825 0.004625 0.000304999
      vertex -0.00495 0.00475 0.000304999
      vertex -0.004825 0.004125 0.000304999
    endloop
  endfacet
  facet normal -0 0 1
    outer loop
      vertex -0.00495 0.00475 0.000304999
      vertex -0.004825 0.004625 0.000304999
      vertex -0.0042 0.00475 0.000304999
    endloop
  endfacet
  facet normal -0 0 1
    outer loop
      vertex 0.0042 0.0038 0.000304999
      vertex 0.0044 -0.004 0.000304999
      vertex 0.0044 0.004 0.000304999
    endloop
  endfacet
  facet normal 0 0 1
    outer loop
      vertex 0.0044 -0.004 0.000304999
      vertex 0.0042 -0.004 0.000304999
      vertex 0.004325 -0.004125 0.000304999
    endloop
  endfacet
  facet normal 0 0 1
    outer loop
      vertex 0.0042 -0.004 0.000304999
      vertex 0.0044 -0.004 0.000304999
      vertex 0.0042 0.0038 0.000304999
    endloop
  endfacet
  facet normal 0 0 1
    outer loop
      vertex 0.0044 0.004 0.000304999
      vertex 0.004 0.0038 0.000304999
      vertex 0.0042 0.0038 0.000304999
    endloop
  endfacet
  facet normal 0 0 1
    outer loop
      vertex 0.004 0.0038 0.000304999
      vertex 0.0038 -0.004 0.000304999
      vertex 0.004 -0.0044 0.000304999
    endloop
  endfacet
  facet normal -0 0 1
    outer loop
      vertex -0.0038 0.004 0.000304999
      vertex 0.004 0.0038 0.000304999
      vertex 0.0044 0.004 0.000304999
    endloop
  endfacet
  facet normal 0 0 1
    outer loop
      vertex -0.0038 0.004 0.000304999
      vertex 0.0038 -0.004 0.000304999
      vertex 0.004 0.0038 0.000304999
    endloop
  endfacet
  facet normal 0 0 1
    outer loop
      vertex -0.004 -0.0038 0.000304999
      vertex -0.0038 0.004 0.000304999
      vertex -0.004 0.0044 0.000304999
    endloop
  endfacet
  facet normal -0 0 1
    outer loop
      vertex -0.004 -0.0038 0.000304999
      vertex 0.0038 -0.004 0.000304999
      vertex -0.0038 0.004 0.000304999
    endloop
  endfacet
  facet normal 0 0 1
    outer loop
      vertex -0.0044 -0.004 0.000304999
      vertex -0.004 -0.0038 0.000304999
      vertex -0.0042 -0.0038 0.000304999
    endloop
  endfacet
  facet normal 0 0 1
    outer loop
      vertex -0.0044 0.004 0.000304999
      vertex -0.0042 0.004 0.000304999
      vertex -0.004325 0.004125 0.000304999
    endloop
  endfacet
  facet normal 0 0 1
    outer loop
      vertex -0.0042 0.004 0.000304999
      vertex -0.0044 0.004 0.000304999
      vertex -0.0042 -0.0038 0.000304999
    endloop
  endfacet
  facet normal 0 0 1
    outer loop
      vertex -0.004 -0.0038 0.000304999
      vertex -0.0044 -0.004 0.000304999
      vertex 0.0038 -0.004 0.000304999
    endloop
  endfacet
  facet normal 0 0 1
    outer loop
      vertex -0.0044 -0.004 0.000304999
      vertex -0.0042 -0.0038 0.000304999
      vertex -0.0044 0.004 0.000304999
    endloop
  endfacet
  facet normal 0 0 1
    outer loop
      vertex 0.00495 -0.004 0.000304999
      vertex 0.004825 -0.004125 0.000304999
      vertex 0.00495 -0.00475 0.000304999
    endloop
  endfacet
  facet normal -0 0 1
    outer loop
      vertex 0.0044 -0.004 0.000304999
      vertex 0.004825 -0.004125 0.000304999
      vertex 0.00495 -0.004 0.000304999
    endloop
  endfacet
  facet normal 0 0 1
    outer loop
      vertex 0.004825 -0.004125 0.000304999
      vertex 0.0044 -0.004 0.000304999
      vertex 0.004325 -0.004125 0.000304999
    endloop
  endfacet
  facet normal -0 0 1
    outer loop
      vertex 0.004825 -0.004625 0.000304999
      vertex 0.00495 -0.00475 0.000304999
      vertex 0.004825 -0.004125 0.000304999
    endloop
  endfacet
  facet normal -0 0 1
    outer loop
      vertex 0.004325 -0.004625 0.000304999
      vertex 0.00495 -0.00475 0.000304999
      vertex 0.004825 -0.004625 0.000304999
    endloop
  endfacet
  facet normal 0 0 1
    outer loop
      vertex 0.004325 -0.004125 0.000304999
      vertex 0.0042 -0.004 0.000304999
      vertex 0.004325 -0.004625 0.000304999
    endloop
  endfacet
  facet normal 0 0 1
    outer loop
      vertex 0.004325 -0.004625 0.000304999
      vertex 0.0042 -0.00475 0.000304999
      vertex 0.00495 -0.00475 0.000304999
    endloop
  endfacet
  facet normal 0 0 1
    outer loop
      vertex 0.0042 -0.00475 0.000304999
      vertex 0.004325 -0.004625 0.000304999
      vertex 0.0042 -0.004 0.000304999
    endloop
  endfacet
  facet normal -0 0 1
    outer loop
      vertex 0.0038 -0.0042 0.000304999
      vertex 0.004 -0.0044 0.000304999
      vertex 0.0038 -0.004 0.000304999
    endloop
  endfacet
  facet normal 0 0 1
    outer loop
      vertex -0.004 -0.0044 0.000304999
      vertex 0.0038 -0.0042 0.000304999
      vertex -0.004 -0.0042 0.000304999
    endloop
  endfacet
  facet normal 0 0 1
    outer loop
      vertex 0.0038 -0.0042 0.000304999
      vertex -0.004 -0.0044 0.000304999
      vertex 0.004 -0.0044 0.000304999
    endloop
  endfacet
  facet normal -0 0 1
    outer loop
      vertex -0.004125 -0.004325 0.000304999
      vertex -0.004 -0.0044 0.000304999
      vertex -0.004 -0.0042 0.000304999
    endloop
  endfacet
  facet normal 0 0 1
    outer loop
      vertex -0.004125 -0.004825 0.000304999
      vertex -0.004 -0.0044 0.000304999
      vertex -0.004125 -0.004325 0.000304999
    endloop
  endfacet
  facet normal 0 0 1
    outer loop
      vertex -0.004 -0.0042 0.000304999
      vertex -0.004625 -0.004325 0.000304999
      vertex -0.004125 -0.004325 0.000304999
    endloop
  endfacet
  facet normal 0 0 1
    outer loop
      vertex -0.004625 -0.004325 0.000304999
      vertex -0.00475 -0.0042 0.000304999
      vertex -0.004625 -0.004825 0.000304999
    endloop
  endfacet
  facet normal -0 0 1
    outer loop
      vertex -0.00475 -0.0042 0.000304999
      vertex -0.004625 -0.004325 0.000304999
      vertex -0.004 -0.0042 0.000304999
    endloop
  endfacet
  facet normal 0 0 1
    outer loop
      vertex -0.004 -0.0044 0.000304999
      vertex -0.004125 -0.004825 0.000304999
      vertex -0.004 -0.00495 0.000304999
    endloop
  endfacet
  facet normal -0 0 1
    outer loop
      vertex -0.004625 -0.004825 0.000304999
      vertex -0.004 -0.00495 0.000304999
      vertex -0.004125 -0.004825 0.000304999
    endloop
  endfacet
  facet normal 0 0 1
    outer loop
      vertex -0.004625 -0.004825 0.000304999
      vertex -0.00475 -0.00495 0.000304999
      vertex -0.004 -0.00495 0.000304999
    endloop
  endfacet
  facet normal 0 0 1
    outer loop
      vertex -0.00475 -0.00495 0.000304999
      vertex -0.004625 -0.004825 0.000304999
      vertex -0.00475 -0.0042 0.000304999
    endloop
  endfacet
  facet normal 0 0 1
    outer loop
      vertex 0.00475 0.00495 0.000304999
      vertex 0.004625 0.004825 0.000304999
      vertex 0.00475 0.0042 0.000304999
    endloop
  endfacet
  facet normal 0 0 1
    outer loop
      vertex 0.00475 0.00495 0.000304999
      vertex 0.004125 0.004825 0.000304999
      vertex 0.004625 0.004825 0.000304999
    endloop
  endfacet
  facet normal 0 0 1
    outer loop
      vertex 0.004 0.0044 0.000304999
      vertex 0.004125 0.004825 0.000304999
      vertex 0.004 0.00495 0.000304999
    endloop
  endfacet
  facet normal -0 0 1
    outer loop
      vertex 0.004 0.00495 0.000304999
      vertex 0.004125 0.004825 0.000304999
      vertex 0.00475 0.00495 0.000304999
    endloop
  endfacet
  facet normal -0 0 1
    outer loop
      vertex 0.004625 0.004325 0.000304999
      vertex 0.00475 0.0042 0.000304999
      vertex 0.004625 0.004825 0.000304999
    endloop
  endfacet
  facet normal -0 0 1
    outer loop
      vertex 0.004125 0.004325 0.000304999
      vertex 0.00475 0.0042 0.000304999
      vertex 0.004625 0.004325 0.000304999
    endloop
  endfacet
  facet normal 0 0 1
    outer loop
      vertex 0.004125 0.004825 0.000304999
      vertex 0.004 0.0044 0.000304999
      vertex 0.004125 0.004325 0.000304999
    endloop
  endfacet
  facet normal 0 0 1
    outer loop
      vertex 0.004125 0.004325 0.000304999
      vertex 0.004 0.0042 0.000304999
      vertex 0.00475 0.0042 0.000304999
    endloop
  endfacet
  facet normal 0 0 1
    outer loop
      vertex 0.004 0.0044 0.000304999
      vertex 0.004 0.0042 0.000304999
      vertex 0.004125 0.004325 0.000304999
    endloop
  endfacet
  facet normal 0 0 1
    outer loop
      vertex 0.004 0.0044 0.000304999
      vertex -0.0038 0.0042 0.000304999
      vertex 0.004 0.0042 0.000304999
    endloop
  endfacet
  facet normal 0 0 1
    outer loop
      vertex -0.0038 0.0042 0.000304999
      vertex -0.004 0.0044 0.000304999
      vertex -0.0038 0.004 0.000304999
    endloop
  endfacet
  facet normal -0 0 1
    outer loop
      vertex -0.004 0.0044 0.000304999
      vertex -0.0038 0.0042 0.000304999
      vertex 0.004 0.0044 0.000304999
    endloop
  endfacet
  facet normal 0 0 -1
    outer loop
      vertex 0.0038 -0.004 0.000105001
      vertex 0.004 -0.0044 0.000105001
      vertex 0.0038 -0.0042 0.000105001
    endloop
  endfacet
  facet normal 0 0 -1
    outer loop
      vertex -0.004 -0.0044 0.000105001
      vertex 0.0038 -0.0042 0.000105001
      vertex 0.004 -0.0044 0.000105001
    endloop
  endfacet
  facet normal -0 0 -1
    outer loop
      vertex 0.0038 -0.0042 0.000105001
      vertex -0.004 -0.0044 0.000105001
      vertex -0.004 -0.0042 0.000105001
    endloop
  endfacet
  facet normal 0 0 -1
    outer loop
      vertex -0.0038 0.0042 0.000105001
      vertex 0.004 0.0044 0.000105001
      vertex 0.004 0.0042 0.000105001
    endloop
  endfacet
  facet normal 0 0 -1
    outer loop
      vertex -0.0038 0.0042 0.000105001
      vertex -0.004 0.0044 0.000105001
      vertex 0.004 0.0044 0.000105001
    endloop
  endfacet
  facet normal 0 0 -1
    outer loop
      vertex -0.0038 0.004 0.000105001
      vertex -0.004 0.0044 0.000105001
      vertex -0.0038 0.0042 0.000105001
    endloop
  endfacet
  facet normal 0 0 -1
    outer loop
      vertex -0.004125 -0.004825 0.000105001
      vertex -0.004 -0.0044 0.000105001
      vertex -0.004 -0.00495 0.000105001
    endloop
  endfacet
  facet normal 0 0 -1
    outer loop
      vertex -0.004125 -0.004325 0.000105001
      vertex -0.004 -0.0044 0.000105001
      vertex -0.004125 -0.004825 0.000105001
    endloop
  endfacet
  facet normal 0 0 -1
    outer loop
      vertex -0.004 -0.00495 0.000105001
      vertex -0.004625 -0.004825 0.000105001
      vertex -0.004125 -0.004825 0.000105001
    endloop
  endfacet
  facet normal -0 0 -1
    outer loop
      vertex -0.004625 -0.004825 0.000105001
      vertex -0.00475 -0.00495 0.000105001
      vertex -0.004625 -0.004325 0.000105001
    endloop
  endfacet
  facet normal 0 0 -1
    outer loop
      vertex -0.00475 -0.00495 0.000105001
      vertex -0.004625 -0.004825 0.000105001
      vertex -0.004 -0.00495 0.000105001
    endloop
  endfacet
  facet normal 0 0 -1
    outer loop
      vertex -0.004 -0.0044 0.000105001
      vertex -0.004125 -0.004325 0.000105001
      vertex -0.004 -0.0042 0.000105001
    endloop
  endfacet
  facet normal 0 0 -1
    outer loop
      vertex -0.004625 -0.004325 0.000105001
      vertex -0.004 -0.0042 0.000105001
      vertex -0.004125 -0.004325 0.000105001
    endloop
  endfacet
  facet normal 0 0 -1
    outer loop
      vertex -0.004625 -0.004325 0.000105001
      vertex -0.00475 -0.0042 0.000105001
      vertex -0.004 -0.0042 0.000105001
    endloop
  endfacet
  facet normal 0 0 -1
    outer loop
      vertex -0.00475 -0.0042 0.000105001
      vertex -0.004625 -0.004325 0.000105001
      vertex -0.00475 -0.00495 0.000105001
    endloop
  endfacet
  facet normal 0 0 -1
    outer loop
      vertex -0.004325 0.004625 0.000105001
      vertex -0.0042 0.00475 0.000105001
      vertex -0.004325 0.004125 0.000105001
    endloop
  endfacet
  facet normal 0 0 -1
    outer loop
      vertex -0.004825 0.004625 0.000105001
      vertex -0.0042 0.00475 0.000105001
      vertex -0.004325 0.004625 0.000105001
    endloop
  endfacet
  facet normal 0 0 -1
    outer loop
      vertex -0.004825 0.004625 0.000105001
      vertex -0.00495 0.00475 0.000105001
      vertex -0.0042 0.00475 0.000105001
    endloop
  endfacet
  facet normal 0 0 -1
    outer loop
      vertex -0.00495 0.00475 0.000105001
      vertex -0.004825 0.004625 0.000105001
      vertex -0.00495 0.004 0.000105001
    endloop
  endfacet
  facet normal 0 0 -1
    outer loop
      vertex 0.00475 0.0042 0.000105001
      vertex 0.004625 0.004325 0.000105001
      vertex 0.00475 0.00495 0.000105001
    endloop
  endfacet
  facet normal 0 0 -1
    outer loop
      vertex 0.00475 0.0042 0.000105001
      vertex 0.004125 0.004325 0.000105001
      vertex 0.004625 0.004325 0.000105001
    endloop
  endfacet
  facet normal 0 0 -1
    outer loop
      vertex 0.004 0.0044 0.000105001
      vertex 0.004125 0.004325 0.000105001
      vertex 0.004 0.0042 0.000105001
    endloop
  endfacet
  facet normal 0 0 -1
    outer loop
      vertex 0.004 0.0042 0.000105001
      vertex 0.004125 0.004325 0.000105001
      vertex 0.00475 0.0042 0.000105001
    endloop
  endfacet
  facet normal 0 0 -1
    outer loop
      vertex 0.004625 0.004825 0.000105001
      vertex 0.00475 0.00495 0.000105001
      vertex 0.004625 0.004325 0.000105001
    endloop
  endfacet
  facet normal 0 0 -1
    outer loop
      vertex 0.004125 0.004825 0.000105001
      vertex 0.00475 0.00495 0.000105001
      vertex 0.004625 0.004825 0.000105001
    endloop
  endfacet
  facet normal 0 0 -1
    outer loop
      vertex 0.004125 0.004325 0.000105001
      vertex 0.004 0.0044 0.000105001
      vertex 0.004125 0.004825 0.000105001
    endloop
  endfacet
  facet normal 0 0 -1
    outer loop
      vertex 0.004125 0.004825 0.000105001
      vertex 0.004 0.00495 0.000105001
      vertex 0.00475 0.00495 0.000105001
    endloop
  endfacet
  facet normal 0 0 -1
    outer loop
      vertex 0.004 0.00495 0.000105001
      vertex 0.004125 0.004825 0.000105001
      vertex 0.004 0.0044 0.000105001
    endloop
  endfacet
  facet normal 0 0 -1
    outer loop
      vertex 0.00495 -0.00475 0.000105001
      vertex 0.004825 -0.004625 0.000105001
      vertex 0.00495 -0.004 0.000105001
    endloop
  endfacet
  facet normal 0 0 -1
    outer loop
      vertex 0.00495 -0.00475 0.000105001
      vertex 0.004325 -0.004625 0.000105001
      vertex 0.004825 -0.004625 0.000105001
    endloop
  endfacet
  facet normal -0 0 -1
    outer loop
      vertex 0.004325 -0.004625 0.000105001
      vertex 0.0042 -0.00475 0.000105001
      vertex 0.004325 -0.004125 0.000105001
    endloop
  endfacet
  facet normal 0 0 -1
    outer loop
      vertex 0.0042 -0.00475 0.000105001
      vertex 0.004325 -0.004625 0.000105001
      vertex 0.00495 -0.00475 0.000105001
    endloop
  endfacet
  facet normal 0 0 -1
    outer loop
      vertex 0.004825 -0.004125 0.000105001
      vertex 0.00495 -0.004 0.000105001
      vertex 0.004825 -0.004625 0.000105001
    endloop
  endfacet
  facet normal 0 0 -1
    outer loop
      vertex 0.004825 -0.004125 0.000105001
      vertex 0.0044 -0.004 0.000105001
      vertex 0.00495 -0.004 0.000105001
    endloop
  endfacet
  facet normal 0 0 -1
    outer loop
      vertex 0.004325 -0.004125 0.000105001
      vertex 0.0044 -0.004 0.000105001
      vertex 0.004825 -0.004125 0.000105001
    endloop
  endfacet
  facet normal 0 0 -1
    outer loop
      vertex 0.0042 -0.004 0.000105001
      vertex 0.0044 -0.004 0.000105001
      vertex 0.004325 -0.004125 0.000105001
    endloop
  endfacet
  facet normal 0 0 -1
    outer loop
      vertex 0.0042 -0.004 0.000105001
      vertex 0.004325 -0.004125 0.000105001
      vertex 0.0042 -0.00475 0.000105001
    endloop
  endfacet
  facet normal 0 0 -1
    outer loop
      vertex 0.0042 0.0038 0.000105001
      vertex 0.0044 -0.004 0.000105001
      vertex 0.0042 -0.004 0.000105001
    endloop
  endfacet
  facet normal 0 0 -1
    outer loop
      vertex 0.0044 -0.004 0.000105001
      vertex 0.0042 0.0038 0.000105001
      vertex 0.0044 0.004 0.000105001
    endloop
  endfacet
  facet normal 0 0 -1
    outer loop
      vertex 0.004 0.0038 0.000105001
      vertex 0.0044 0.004 0.000105001
      vertex 0.0042 0.0038 0.000105001
    endloop
  endfacet
  facet normal 0 0 -1
    outer loop
      vertex 0.004 -0.0044 0.000105001
      vertex 0.0038 -0.004 0.000105001
      vertex 0.004 0.0038 0.000105001
    endloop
  endfacet
  facet normal 0 0 -1
    outer loop
      vertex 0.004 0.0038 0.000105001
      vertex -0.0038 0.004 0.000105001
      vertex 0.0044 0.004 0.000105001
    endloop
  endfacet
  facet normal 0 0 -1
    outer loop
      vertex 0.0038 -0.004 0.000105001
      vertex -0.0038 0.004 0.000105001
      vertex 0.004 0.0038 0.000105001
    endloop
  endfacet
  facet normal 0 0 -1
    outer loop
      vertex -0.004 0.0044 0.000105001
      vertex -0.0038 0.004 0.000105001
      vertex -0.004 -0.0038 0.000105001
    endloop
  endfacet
  facet normal 0 0 -1
    outer loop
      vertex 0.0038 -0.004 0.000105001
      vertex -0.004 -0.0038 0.000105001
      vertex -0.0038 0.004 0.000105001
    endloop
  endfacet
  facet normal 0 0 -1
    outer loop
      vertex -0.0044 -0.004 0.000105001
      vertex -0.004 -0.0038 0.000105001
      vertex 0.0038 -0.004 0.000105001
    endloop
  endfacet
  facet normal 0 0 -1
    outer loop
      vertex -0.0044 0.004 0.000105001
      vertex -0.0042 0.004 0.000105001
      vertex -0.0042 -0.0038 0.000105001
    endloop
  endfacet
  facet normal 0 0 -1
    outer loop
      vertex -0.0042 0.004 0.000105001
      vertex -0.004325 0.004125 0.000105001
      vertex -0.0042 0.00475 0.000105001
    endloop
  endfacet
  facet normal -0 0 -1
    outer loop
      vertex -0.004 -0.0038 0.000105001
      vertex -0.0044 -0.004 0.000105001
      vertex -0.0042 -0.0038 0.000105001
    endloop
  endfacet
  facet normal 0 0 -1
    outer loop
      vertex -0.0044 0.004 0.000105001
      vertex -0.0042 -0.0038 0.000105001
      vertex -0.0044 -0.004 0.000105001
    endloop
  endfacet
  facet normal 0 0 -1
    outer loop
      vertex -0.0042 0.004 0.000105001
      vertex -0.0044 0.004 0.000105001
      vertex -0.004325 0.004125 0.000105001
    endloop
  endfacet
  facet normal 0 0 -1
    outer loop
      vertex -0.0044 0.004 0.000105001
      vertex -0.004825 0.004125 0.000105001
      vertex -0.004325 0.004125 0.000105001
    endloop
  endfacet
  facet normal -0 0 -1
    outer loop
      vertex -0.004825 0.004125 0.000105001
      vertex -0.00495 0.004 0.000105001
      vertex -0.004825 0.004625 0.000105001
    endloop
  endfacet
  facet normal 0 0 -1
    outer loop
      vertex -0.00495 0.004 0.000105001
      vertex -0.004825 0.004125 0.000105001
      vertex -0.0044 0.004 0.000105001
    endloop
  endfacet
  facet normal -1 0 0
    outer loop
      vertex 0.0042 -0.00475 0.000105001
      vertex 0.0042 -0.004 0.000304999
      vertex 0.0042 -0.004 0.000105001
    endloop
  endfacet
  facet normal -1 -0 0
    outer loop
      vertex 0.0042 -0.004 0.000304999
      vertex 0.0042 -0.00475 0.000105001
      vertex 0.0042 -0.00475 0.000304999
    endloop
  endfacet
  facet normal 0 1 -0
    outer loop
      vertex 0.00495 -0.004 0.000105001
      vertex 0.0044 -0.004 0.000304999
      vertex 0.00495 -0.004 0.000304999
    endloop
  endfacet
  facet normal 0 1 0
    outer loop
      vertex 0.0044 -0.004 0.000304999
      vertex 0.00495 -0.004 0.000105001
      vertex 0.0044 -0.004 0.000105001
    endloop
  endfacet
  facet normal 0 -1 0
    outer loop
      vertex 0.0042 -0.00475 0.000105001
      vertex 0.00495 -0.00475 0.000304999
      vertex 0.0042 -0.00475 0.000304999
    endloop
  endfacet
  facet normal 0 -1 -0
    outer loop
      vertex 0.00495 -0.00475 0.000304999
      vertex 0.0042 -0.00475 0.000105001
      vertex 0.00495 -0.00475 0.000105001
    endloop
  endfacet
  facet normal -1 0 0
    outer loop
      vertex 0.004825 -0.004625 0.000105001
      vertex 0.004825 -0.004125 0.000304999
      vertex 0.004825 -0.004125 0.000105001
    endloop
  endfacet
  facet normal -1 -0 0
    outer loop
      vertex 0.004825 -0.004125 0.000304999
      vertex 0.004825 -0.004625 0.000105001
      vertex 0.004825 -0.004625 0.000304999
    endloop
  endfacet
  facet normal 1 -0 0
    outer loop
      vertex 0.004325 -0.004625 0.000304999
      vertex 0.004325 -0.004125 0.000105001
      vertex 0.004325 -0.004125 0.000304999
    endloop
  endfacet
  facet normal 1 0 0
    outer loop
      vertex 0.004325 -0.004125 0.000105001
      vertex 0.004325 -0.004625 0.000304999
      vertex 0.004325 -0.004625 0.000105001
    endloop
  endfacet
  facet normal 0 -1 0
    outer loop
      vertex 0.004325 -0.004125 0.000105001
      vertex 0.004825 -0.004125 0.000304999
      vertex 0.004325 -0.004125 0.000304999
    endloop
  endfacet
  facet normal 0 -1 -0
    outer loop
      vertex 0.004825 -0.004125 0.000304999
      vertex 0.004325 -0.004125 0.000105001
      vertex 0.004825 -0.004125 0.000105001
    endloop
  endfacet
  facet normal 0 1 -0
    outer loop
      vertex 0.004825 -0.004625 0.000105001
      vertex 0.004325 -0.004625 0.000304999
      vertex 0.004825 -0.004625 0.000304999
    endloop
  endfacet
  facet normal 0 1 0
    outer loop
      vertex 0.004325 -0.004625 0.000304999
      vertex 0.004825 -0.004625 0.000105001
      vertex 0.004325 -0.004625 0.000105001
    endloop
  endfacet
  facet normal 1 -0 0
    outer loop
      vertex 0.0044 -0.004 0.000304999
      vertex 0.0044 0.004 0.000105001
      vertex 0.0044 0.004 0.000304999
    endloop
  endfacet
  facet normal 1 0 0
    outer loop
      vertex 0.0044 0.004 0.000105001
      vertex 0.0044 -0.004 0.000304999
      vertex 0.0044 -0.004 0.000105001
    endloop
  endfacet
  facet normal -1 0 0
    outer loop
      vertex 0.0042 -0.004 0.000105001
      vertex 0.0042 0.0038 0.000304999
      vertex 0.0042 0.0038 0.000105001
    endloop
  endfacet
  facet normal -1 -0 0
    outer loop
      vertex 0.0042 0.0038 0.000304999
      vertex 0.0042 -0.004 0.000105001
      vertex 0.0042 -0.004 0.000304999
    endloop
  endfacet
  facet normal 0 1 -0
    outer loop
      vertex 0.0044 0.004 0.000105001
      vertex -0.0038 0.004 0.000304999
      vertex 0.0044 0.004 0.000304999
    endloop
  endfacet
  facet normal 0 1 0
    outer loop
      vertex -0.0038 0.004 0.000304999
      vertex 0.0044 0.004 0.000105001
      vertex -0.0038 0.004 0.000105001
    endloop
  endfacet
  facet normal 0 -1 0
    outer loop
      vertex 0.004 0.0038 0.000105001
      vertex 0.0042 0.0038 0.000304999
      vertex 0.004 0.0038 0.000304999
    endloop
  endfacet
  facet normal 0 -1 -0
    outer loop
      vertex 0.0042 0.0038 0.000304999
      vertex 0.004 0.0038 0.000105001
      vertex 0.0042 0.0038 0.000105001
    endloop
  endfacet
  facet normal 0 1 -0
    outer loop
      vertex 0.00475 0.00495 0.000105001
      vertex 0.004 0.00495 0.000304999
      vertex 0.00475 0.00495 0.000304999
    endloop
  endfacet
  facet normal 0 1 0
    outer loop
      vertex 0.004 0.00495 0.000304999
      vertex 0.00475 0.00495 0.000105001
      vertex 0.004 0.00495 0.000105001
    endloop
  endfacet
  facet normal 0 -1 0
    outer loop
      vertex 0.004 0.0042 0.000105001
      vertex 0.00475 0.0042 0.000304999
      vertex 0.004 0.0042 0.000304999
    endloop
  endfacet
  facet normal 0 -1 -0
    outer loop
      vertex 0.00475 0.0042 0.000304999
      vertex 0.004 0.0042 0.000105001
      vertex 0.00475 0.0042 0.000105001
    endloop
  endfacet
  facet normal -1 0 0
    outer loop
      vertex 0.004 0.0044 0.000105001
      vertex 0.004 0.00495 0.000304999
      vertex 0.004 0.00495 0.000105001
    endloop
  endfacet
  facet normal -1 -0 0
    outer loop
      vertex 0.004 0.00495 0.000304999
      vertex 0.004 0.0044 0.000105001
      vertex 0.004 0.0044 0.000304999
    endloop
  endfacet
  facet normal 1 -0 0
    outer loop
      vertex 0.00475 0.0042 0.000304999
      vertex 0.00475 0.00495 0.000105001
      vertex 0.00475 0.00495 0.000304999
    endloop
  endfacet
  facet normal 1 0 0
    outer loop
      vertex 0.00475 0.00495 0.000105001
      vertex 0.00475 0.0042 0.000304999
      vertex 0.00475 0.0042 0.000105001
    endloop
  endfacet
  facet normal 0 -1 0
    outer loop
      vertex 0.004125 0.004825 0.000105001
      vertex 0.004625 0.004825 0.000304999
      vertex 0.004125 0.004825 0.000304999
    endloop
  endfacet
  facet normal 0 -1 -0
    outer loop
      vertex 0.004625 0.004825 0.000304999
      vertex 0.004125 0.004825 0.000105001
      vertex 0.004625 0.004825 0.000105001
    endloop
  endfacet
  facet normal 0 1 -0
    outer loop
      vertex 0.004625 0.004325 0.000105001
      vertex 0.004125 0.004325 0.000304999
      vertex 0.004625 0.004325 0.000304999
    endloop
  endfacet
  facet normal 0 1 0
    outer loop
      vertex 0.004125 0.004325 0.000304999
      vertex 0.004625 0.004325 0.000105001
      vertex 0.004125 0.004325 0.000105001
    endloop
  endfacet
  facet normal 1 -0 0
    outer loop
      vertex 0.004125 0.004325 0.000304999
      vertex 0.004125 0.004825 0.000105001
      vertex 0.004125 0.004825 0.000304999
    endloop
  endfacet
  facet normal 1 0 0
    outer loop
      vertex 0.004125 0.004825 0.000105001
      vertex 0.004125 0.004325 0.000304999
      vertex 0.004125 0.004325 0.000105001
    endloop
  endfacet
  facet normal -1 0 0
    outer loop
      vertex 0.004625 0.004325 0.000105001
      vertex 0.004625 0.004825 0.000304999
      vertex 0.004625 0.004825 0.000105001
    endloop
  endfacet
  facet normal -1 -0 0
    outer loop
      vertex 0.004625 0.004825 0.000304999
      vertex 0.004625 0.004325 0.000105001
      vertex 0.004625 0.004325 0.000304999
    endloop
  endfacet
  facet normal 0 1 -0
    outer loop
      vertex 0.004 0.0044 0.000105001
      vertex -0.004 0.0044 0.000304999
      vertex 0.004 0.0044 0.000304999
    endloop
  endfacet
  facet normal 0 1 0
    outer loop
      vertex -0.004 0.0044 0.000304999
      vertex 0.004 0.0044 0.000105001
      vertex -0.004 0.0044 0.000105001
    endloop
  endfacet
  facet normal 0 -1 0
    outer loop
      vertex -0.0038 0.0042 0.000105001
      vertex 0.004 0.0042 0.000304999
      vertex -0.0038 0.0042 0.000304999
    endloop
  endfacet
  facet normal 0 -1 -0
    outer loop
      vertex 0.004 0.0042 0.000304999
      vertex -0.0038 0.0042 0.000105001
      vertex 0.004 0.0042 0.000105001
    endloop
  endfacet
  facet normal -1 0 0
    outer loop
      vertex -0.004 -0.0038 0.000105001
      vertex -0.004 0.0044 0.000304999
      vertex -0.004 0.0044 0.000105001
    endloop
  endfacet
  facet normal -1 -0 0
    outer loop
      vertex -0.004 0.0044 0.000304999
      vertex -0.004 -0.0038 0.000105001
      vertex -0.004 -0.0038 0.000304999
    endloop
  endfacet
  facet normal 1 -0 0
    outer loop
      vertex -0.0038 0.004 0.000304999
      vertex -0.0038 0.0042 0.000105001
      vertex -0.0038 0.0042 0.000304999
    endloop
  endfacet
  facet normal 1 0 0
    outer loop
      vertex -0.0038 0.0042 0.000105001
      vertex -0.0038 0.004 0.000304999
      vertex -0.0038 0.004 0.000105001
    endloop
  endfacet
  facet normal -1 0 0
    outer loop
      vertex -0.00495 0.004 0.000105001
      vertex -0.00495 0.00475 0.000304999
      vertex -0.00495 0.00475 0.000105001
    endloop
  endfacet
  facet normal -1 -0 0
    outer loop
      vertex -0.00495 0.00475 0.000304999
      vertex -0.00495 0.004 0.000105001
      vertex -0.00495 0.004 0.000304999
    endloop
  endfacet
  facet normal 1 -0 0
    outer loop
      vertex -0.0042 0.004 0.000304999
      vertex -0.0042 0.00475 0.000105001
      vertex -0.0042 0.00475 0.000304999
    endloop
  endfacet
  facet normal 1 0 0
    outer loop
      vertex -0.0042 0.00475 0.000105001
      vertex -0.0042 0.004 0.000304999
      vertex -0.0042 0.004 0.000105001
    endloop
  endfacet
  facet normal 0 -1 0
    outer loop
      vertex -0.00495 0.004 0.000105001
      vertex -0.0044 0.004 0.000304999
      vertex -0.00495 0.004 0.000304999
    endloop
  endfacet
  facet normal 0 -1 -0
    outer loop
      vertex -0.0044 0.004 0.000304999
      vertex -0.00495 0.004 0.000105001
      vertex -0.0044 0.004 0.000105001
    endloop
  endfacet
  facet normal 0 1 -0
    outer loop
      vertex -0.0042 0.00475 0.000105001
      vertex -0.00495 0.00475 0.000304999
      vertex -0.0042 0.00475 0.000304999
    endloop
  endfacet
  facet normal 0 1 0
    outer loop
      vertex -0.00495 0.00475 0.000304999
      vertex -0.0042 0.00475 0.000105001
      vertex -0.00495 0.00475 0.000105001
    endloop
  endfacet
  facet normal 1 -0 0
    outer loop
      vertex -0.004825 0.004125 0.000304999
      vertex -0.004825 0.004625 0.000105001
      vertex -0.004825 0.004625 0.000304999
    endloop
  endfacet
  facet normal 1 0 0
    outer loop
      vertex -0.004825 0.004625 0.000105001
      vertex -0.004825 0.004125 0.000304999
      vertex -0.004825 0.004125 0.000105001
    endloop
  endfacet
  facet normal -1 0 0
    outer loop
      vertex -0.004325 0.004125 0.000105001
      vertex -0.004325 0.004625 0.000304999
      vertex -0.004325 0.004625 0.000105001
    endloop
  endfacet
  facet normal -1 -0 0
    outer loop
      vertex -0.004325 0.004625 0.000304999
      vertex -0.004325 0.004125 0.000105001
      vertex -0.004325 0.004125 0.000304999
    endloop
  endfacet
  facet normal 0 1 -0
    outer loop
      vertex -0.004325 0.004125 0.000105001
      vertex -0.004825 0.004125 0.000304999
      vertex -0.004325 0.004125 0.000304999
    endloop
  endfacet
  facet normal 0 1 0
    outer loop
      vertex -0.004825 0.004125 0.000304999
      vertex -0.004325 0.004125 0.000105001
      vertex -0.004825 0.004125 0.000105001
    endloop
  endfacet
  facet normal 0 -1 0
    outer loop
      vertex -0.004825 0.004625 0.000105001
      vertex -0.004325 0.004625 0.000304999
      vertex -0.004825 0.004625 0.000304999
    endloop
  endfacet
  facet normal 0 -1 -0
    outer loop
      vertex -0.004325 0.004625 0.000304999
      vertex -0.004825 0.004625 0.000105001
      vertex -0.004325 0.004625 0.000105001
    endloop
  endfacet
  facet normal -1 0 0
    outer loop
      vertex -0.0044 -0.004 0.000105001
      vertex -0.0044 0.004 0.000304999
      vertex -0.0044 0.004 0.000105001
    endloop
  endfacet
  facet normal -1 -0 0
    outer loop
      vertex -0.0044 0.004 0.000304999
      vertex -0.0044 -0.004 0.000105001
      vertex -0.0044 -0.004 0.000304999
    endloop
  endfacet
  facet normal 1 -0 0
    outer loop
      vertex -0.0042 -0.0038 0.000304999
      vertex -0.0042 0.004 0.000105001
      vertex -0.0042 0.004 0.000304999
    endloop
  endfacet
  facet normal 1 0 0
    outer loop
      vertex -0.0042 0.004 0.000105001
      vertex -0.0042 -0.0038 0.000304999
      vertex -0.0042 -0.0038 0.000105001
    endloop
  endfacet
  facet normal 0 -1 0
    outer loop
      vertex -0.0044 -0.004 0.000105001
      vertex 0.0038 -0.004 0.000304999
      vertex -0.0044 -0.004 0.000304999
    endloop
  endfacet
  facet normal 0 -1 -0
    outer loop
      vertex 0.0038 -0.004 0.000304999
      vertex -0.0044 -0.004 0.000105001
      vertex 0.0038 -0.004 0.000105001
    endloop
  endfacet
  facet normal 0 1 -0
    outer loop
      vertex -0.004 -0.0038 0.000105001
      vertex -0.0042 -0.0038 0.000304999
      vertex -0.004 -0.0038 0.000304999
    endloop
  endfacet
  facet normal 0 1 0
    outer loop
      vertex -0.0042 -0.0038 0.000304999
      vertex -0.004 -0.0038 0.000105001
      vertex -0.0042 -0.0038 0.000105001
    endloop
  endfacet
  facet normal 0 -1 0
    outer loop
      vertex -0.00475 -0.00495 0.000105001
      vertex -0.004 -0.00495 0.000304999
      vertex -0.00475 -0.00495 0.000304999
    endloop
  endfacet
  facet normal 0 -1 -0
    outer loop
      vertex -0.004 -0.00495 0.000304999
      vertex -0.00475 -0.00495 0.000105001
      vertex -0.004 -0.00495 0.000105001
    endloop
  endfacet
  facet normal 0 1 -0
    outer loop
      vertex -0.004 -0.0042 0.000105001
      vertex -0.00475 -0.0042 0.000304999
      vertex -0.004 -0.0042 0.000304999
    endloop
  endfacet
  facet normal 0 1 0
    outer loop
      vertex -0.00475 -0.0042 0.000304999
      vertex -0.004 -0.0042 0.000105001
      vertex -0.00475 -0.0042 0.000105001
    endloop
  endfacet
  facet normal 1 -0 0
    outer loop
      vertex -0.004 -0.00495 0.000304999
      vertex -0.004 -0.0044 0.000105001
      vertex -0.004 -0.0044 0.000304999
    endloop
  endfacet
  facet normal 1 0 0
    outer loop
      vertex -0.004 -0.0044 0.000105001
      vertex -0.004 -0.00495 0.000304999
      vertex -0.004 -0.00495 0.000105001
    endloop
  endfacet
  facet normal -1 0 0
    outer loop
      vertex -0.00475 -0.00495 0.000105001
      vertex -0.00475 -0.0042 0.000304999
      vertex -0.00475 -0.0042 0.000105001
    endloop
  endfacet
  facet normal -1 -0 0
    outer loop
      vertex -0.00475 -0.0042 0.000304999
      vertex -0.00475 -0.00495 0.000105001
      vertex -0.00475 -0.00495 0.000304999
    endloop
  endfacet
  facet normal 0 1 -0
    outer loop
      vertex -0.004125 -0.004825 0.000105001
      vertex -0.004625 -0.004825 0.000304999
      vertex -0.004125 -0.004825 0.000304999
    endloop
  endfacet
  facet normal 0 1 0
    outer loop
      vertex -0.004625 -0.004825 0.000304999
      vertex -0.004125 -0.004825 0.000105001
      vertex -0.004625 -0.004825 0.000105001
    endloop
  endfacet
  facet normal 0 -1 0
    outer loop
      vertex -0.004625 -0.004325 0.000105001
      vertex -0.004125 -0.004325 0.000304999
      vertex -0.004625 -0.004325 0.000304999
    endloop
  endfacet
  facet normal 0 -1 -0
    outer loop
      vertex -0.004125 -0.004325 0.000304999
      vertex -0.004625 -0.004325 0.000105001
      vertex -0.004125 -0.004325 0.000105001
    endloop
  endfacet
  facet normal -1 0 0
    outer loop
      vertex -0.004125 -0.004825 0.000105001
      vertex -0.004125 -0.004325 0.000304999
      vertex -0.004125 -0.004325 0.000105001
    endloop
  endfacet
  facet normal -1 -0 0
    outer loop
      vertex -0.004125 -0.004325 0.000304999
      vertex -0.004125 -0.004825 0.000105001
      vertex -0.004125 -0.004825 0.000304999
    endloop
  endfacet
  facet normal 1 -0 0
    outer loop
      vertex -0.004625 -0.004825 0.000304999
      vertex -0.004625 -0.004325 0.000105001
      vertex -0.004625 -0.004325 0.000304999
    endloop
  endfacet
  facet normal 1 0 0
    outer loop
      vertex -0.004625 -0.004325 0.000105001
      vertex -0.004625 -0.004825 0.000304999
      vertex -0.004625 -0.004825 0.000105001
    endloop
  endfacet
  facet normal 0 -1 0
    outer loop
      vertex -0.004 -0.0044 0.000105001
      vertex 0.004 -0.0044 0.000304999
      vertex -0.004 -0.0044 0.000304999
    endloop
  endfacet
  facet normal 0 -1 -0
    outer loop
      vertex 0.004 -0.0044 0.000304999
      vertex -0.004 -0.0044 0.000105001
      vertex 0.004 -0.0044 0.000105001
    endloop
  endfacet
  facet normal 0 1 -0
    outer loop
      vertex 0.0038 -0.0042 0.000105001
      vertex -0.004 -0.0042 0.000304999
      vertex 0.0038 -0.0042 0.000304999
    endloop
  endfacet
  facet normal 0 1 0
    outer loop
      vertex -0.004 -0.0042 0.000304999
      vertex 0.0038 -0.0042 0.000105001
      vertex -0.004 -0.0042 0.000105001
    endloop
  endfacet
  facet normal 1 -0 0
    outer loop
      vertex 0.004 -0.0044 0.000304999
      vertex 0.004 0.0038 0.000105001
      vertex 0.004 0.0038 0.000304999
    endloop
  endfacet
  facet normal 1 0 0
    outer loop
      vertex 0.004 0.0038 0.000105001
      vertex 0.004 -0.0044 0.000304999
      vertex 0.004 -0.0044 0.000105001
    endloop
  endfacet
  facet normal -1 0 0
    outer loop
      vertex 0.0038 -0.0042 0.000105001
      vertex 0.0038 -0.004 0.000304999
      vertex 0.0038 -0.004 0.000105001
    endloop
  endfacet
  facet normal -1 -0 0
    outer loop
      vertex 0.0038 -0.004 0.000304999
      vertex 0.0038 -0.0042 0.000105001
      vertex 0.0038 -0.0042 0.000304999
    endloop
  endfacet
endsolid OpenSCAD_Model
