solid OpenSCAD_Model
  facet normal 1 -0 0
    outer loop
      vertex 0.00345 -0.00325 0.000905
      vertex 0.00345 -0.0025 0.000105
      vertex 0.00345 -0.0025 0.000905
    endloop
  endfacet
  facet normal 1 0 0
    outer loop
      vertex 0.00345 -0.0025 0.000105
      vertex 0.00345 -0.00325 0.000905
      vertex 0.00345 -0.00325 0.000105
    endloop
  endfacet
  facet normal -0 0 1
    outer loop
      vertex -0.003325 0.002625 0.000905
      vertex -0.0029 0.0025 0.000905
      vertex -0.002825 0.002625 0.000905
    endloop
  endfacet
  facet normal 0 0 1
    outer loop
      vertex -0.003325 0.002625 0.000905
      vertex -0.00345 0.0025 0.000905
      vertex -0.0029 0.0025 0.000905
    endloop
  endfacet
  facet normal 0 0 1
    outer loop
      vertex -0.00345 0.0025 0.000905
      vertex -0.003325 0.002625 0.000905
      vertex -0.00345 0.00325 0.000905
    endloop
  endfacet
  facet normal 0 0 1
    outer loop
      vertex -0.0027 0.00325 0.000905
      vertex -0.002825 0.003125 0.000905
      vertex -0.0027 0.0025 0.000905
    endloop
  endfacet
  facet normal 0 0 1
    outer loop
      vertex -0.0027 0.00325 0.000905
      vertex -0.003325 0.003125 0.000905
      vertex -0.002825 0.003125 0.000905
    endloop
  endfacet
  facet normal 0 0 1
    outer loop
      vertex -0.003325 0.003125 0.000905
      vertex -0.00345 0.00325 0.000905
      vertex -0.003325 0.002625 0.000905
    endloop
  endfacet
  facet normal -0 0 1
    outer loop
      vertex -0.00345 0.00325 0.000905
      vertex -0.003325 0.003125 0.000905
      vertex -0.0027 0.00325 0.000905
    endloop
  endfacet
  facet normal -0 0 1
    outer loop
      vertex 0.0027 0.0023 0.000905
      vertex 0.0029 -0.0025 0.000905
      vertex 0.0029 0.0025 0.000905
    endloop
  endfacet
  facet normal 0 0 1
    outer loop
      vertex 0.002825 -0.002625 0.000905
      vertex 0.0027 -0.0025 0.000905
      vertex 0.002825 -0.003125 0.000905
    endloop
  endfacet
  facet normal 0 0 1
    outer loop
      vertex 0.0027 -0.0025 0.000905
      vertex 0.0029 -0.0025 0.000905
      vertex 0.0027 0.0023 0.000905
    endloop
  endfacet
  facet normal 0 0 1
    outer loop
      vertex 0.0029 -0.0025 0.000905
      vertex 0.0027 -0.0025 0.000905
      vertex 0.002825 -0.002625 0.000905
    endloop
  endfacet
  facet normal 0 0 1
    outer loop
      vertex 0.0029 0.0025 0.000905
      vertex 0.0025 0.0023 0.000905
      vertex 0.0027 0.0023 0.000905
    endloop
  endfacet
  facet normal 0 0 1
    outer loop
      vertex 0.0025 0.0023 0.000905
      vertex 0.0023 -0.0025 0.000905
      vertex 0.0025 -0.0029 0.000905
    endloop
  endfacet
  facet normal -0 0 1
    outer loop
      vertex -0.0023 0.0025 0.000905
      vertex 0.0025 0.0023 0.000905
      vertex 0.0029 0.0025 0.000905
    endloop
  endfacet
  facet normal 0 0 1
    outer loop
      vertex -0.0023 0.0025 0.000905
      vertex 0.0023 -0.0025 0.000905
      vertex 0.0025 0.0023 0.000905
    endloop
  endfacet
  facet normal 0 0 1
    outer loop
      vertex -0.0025 -0.0023 0.000905
      vertex -0.0023 0.0025 0.000905
      vertex -0.0025 0.0029 0.000905
    endloop
  endfacet
  facet normal -0 0 1
    outer loop
      vertex -0.0025 -0.0023 0.000905
      vertex 0.0023 -0.0025 0.000905
      vertex -0.0023 0.0025 0.000905
    endloop
  endfacet
  facet normal 0 0 1
    outer loop
      vertex -0.0029 -0.0025 0.000905
      vertex -0.0025 -0.0023 0.000905
      vertex -0.0027 -0.0023 0.000905
    endloop
  endfacet
  facet normal -0 0 1
    outer loop
      vertex -0.002825 0.002625 0.000905
      vertex -0.0027 0.0025 0.000905
      vertex -0.002825 0.003125 0.000905
    endloop
  endfacet
  facet normal 0 0 1
    outer loop
      vertex -0.0029 0.0025 0.000905
      vertex -0.0027 0.0025 0.000905
      vertex -0.002825 0.002625 0.000905
    endloop
  endfacet
  facet normal 0 0 1
    outer loop
      vertex -0.0027 0.0025 0.000905
      vertex -0.0029 0.0025 0.000905
      vertex -0.0027 -0.0023 0.000905
    endloop
  endfacet
  facet normal 0 0 1
    outer loop
      vertex -0.0025 -0.0023 0.000905
      vertex -0.0029 -0.0025 0.000905
      vertex 0.0023 -0.0025 0.000905
    endloop
  endfacet
  facet normal 0 0 1
    outer loop
      vertex -0.0029 -0.0025 0.000905
      vertex -0.0027 -0.0023 0.000905
      vertex -0.0029 0.0025 0.000905
    endloop
  endfacet
  facet normal 0 0 1
    outer loop
      vertex 0.00345 -0.0025 0.000905
      vertex 0.003325 -0.002625 0.000905
      vertex 0.00345 -0.00325 0.000905
    endloop
  endfacet
  facet normal -0 0 1
    outer loop
      vertex 0.0029 -0.0025 0.000905
      vertex 0.003325 -0.002625 0.000905
      vertex 0.00345 -0.0025 0.000905
    endloop
  endfacet
  facet normal 0 0 1
    outer loop
      vertex 0.003325 -0.002625 0.000905
      vertex 0.0029 -0.0025 0.000905
      vertex 0.002825 -0.002625 0.000905
    endloop
  endfacet
  facet normal -0 0 1
    outer loop
      vertex 0.003325 -0.003125 0.000905
      vertex 0.00345 -0.00325 0.000905
      vertex 0.003325 -0.002625 0.000905
    endloop
  endfacet
  facet normal -0 0 1
    outer loop
      vertex 0.002825 -0.003125 0.000905
      vertex 0.00345 -0.00325 0.000905
      vertex 0.003325 -0.003125 0.000905
    endloop
  endfacet
  facet normal 0 0 1
    outer loop
      vertex 0.002825 -0.003125 0.000905
      vertex 0.0027 -0.00325 0.000905
      vertex 0.00345 -0.00325 0.000905
    endloop
  endfacet
  facet normal 0 0 1
    outer loop
      vertex 0.0027 -0.00325 0.000905
      vertex 0.002825 -0.003125 0.000905
      vertex 0.0027 -0.0025 0.000905
    endloop
  endfacet
  facet normal -0 0 1
    outer loop
      vertex 0.0023 -0.0027 0.000905
      vertex 0.0025 -0.0029 0.000905
      vertex 0.0023 -0.0025 0.000905
    endloop
  endfacet
  facet normal 0 0 1
    outer loop
      vertex -0.0025 -0.0029 0.000905
      vertex 0.0023 -0.0027 0.000905
      vertex -0.0025 -0.0027 0.000905
    endloop
  endfacet
  facet normal 0 0 1
    outer loop
      vertex 0.0023 -0.0027 0.000905
      vertex -0.0025 -0.0029 0.000905
      vertex 0.0025 -0.0029 0.000905
    endloop
  endfacet
  facet normal -0 0 1
    outer loop
      vertex -0.002625 -0.002825 0.000905
      vertex -0.0025 -0.0029 0.000905
      vertex -0.0025 -0.0027 0.000905
    endloop
  endfacet
  facet normal 0 0 1
    outer loop
      vertex -0.002625 -0.003325 0.000905
      vertex -0.0025 -0.0029 0.000905
      vertex -0.002625 -0.002825 0.000905
    endloop
  endfacet
  facet normal 0 0 1
    outer loop
      vertex -0.0025 -0.0027 0.000905
      vertex -0.003125 -0.002825 0.000905
      vertex -0.002625 -0.002825 0.000905
    endloop
  endfacet
  facet normal 0 0 1
    outer loop
      vertex -0.003125 -0.002825 0.000905
      vertex -0.00325 -0.0027 0.000905
      vertex -0.003125 -0.003325 0.000905
    endloop
  endfacet
  facet normal -0 0 1
    outer loop
      vertex -0.00325 -0.0027 0.000905
      vertex -0.003125 -0.002825 0.000905
      vertex -0.0025 -0.0027 0.000905
    endloop
  endfacet
  facet normal 0 0 1
    outer loop
      vertex -0.0025 -0.0029 0.000905
      vertex -0.002625 -0.003325 0.000905
      vertex -0.0025 -0.00345 0.000905
    endloop
  endfacet
  facet normal -0 0 1
    outer loop
      vertex -0.003125 -0.003325 0.000905
      vertex -0.0025 -0.00345 0.000905
      vertex -0.002625 -0.003325 0.000905
    endloop
  endfacet
  facet normal 0 0 1
    outer loop
      vertex -0.003125 -0.003325 0.000905
      vertex -0.00325 -0.00345 0.000905
      vertex -0.0025 -0.00345 0.000905
    endloop
  endfacet
  facet normal 0 0 1
    outer loop
      vertex -0.00325 -0.00345 0.000905
      vertex -0.003125 -0.003325 0.000905
      vertex -0.00325 -0.0027 0.000905
    endloop
  endfacet
  facet normal 0 0 1
    outer loop
      vertex 0.00325 0.00345 0.000905
      vertex 0.003125 0.003325 0.000905
      vertex 0.00325 0.0027 0.000905
    endloop
  endfacet
  facet normal 0 0 1
    outer loop
      vertex 0.00325 0.00345 0.000905
      vertex 0.002625 0.003325 0.000905
      vertex 0.003125 0.003325 0.000905
    endloop
  endfacet
  facet normal 0 0 1
    outer loop
      vertex 0.0025 0.0029 0.000905
      vertex 0.002625 0.003325 0.000905
      vertex 0.0025 0.00345 0.000905
    endloop
  endfacet
  facet normal -0 0 1
    outer loop
      vertex 0.0025 0.00345 0.000905
      vertex 0.002625 0.003325 0.000905
      vertex 0.00325 0.00345 0.000905
    endloop
  endfacet
  facet normal -0 0 1
    outer loop
      vertex 0.003125 0.002825 0.000905
      vertex 0.00325 0.0027 0.000905
      vertex 0.003125 0.003325 0.000905
    endloop
  endfacet
  facet normal -0 0 1
    outer loop
      vertex 0.002625 0.002825 0.000905
      vertex 0.00325 0.0027 0.000905
      vertex 0.003125 0.002825 0.000905
    endloop
  endfacet
  facet normal 0 0 1
    outer loop
      vertex 0.002625 0.003325 0.000905
      vertex 0.0025 0.0029 0.000905
      vertex 0.002625 0.002825 0.000905
    endloop
  endfacet
  facet normal 0 0 1
    outer loop
      vertex 0.002625 0.002825 0.000905
      vertex 0.0025 0.0027 0.000905
      vertex 0.00325 0.0027 0.000905
    endloop
  endfacet
  facet normal 0 0 1
    outer loop
      vertex 0.0025 0.0029 0.000905
      vertex 0.0025 0.0027 0.000905
      vertex 0.002625 0.002825 0.000905
    endloop
  endfacet
  facet normal 0 0 1
    outer loop
      vertex -0.0023 0.0027 0.000905
      vertex 0.0025 0.0027 0.000905
      vertex 0.0025 0.0029 0.000905
    endloop
  endfacet
  facet normal 0 0 1
    outer loop
      vertex -0.0023 0.0027 0.000905
      vertex -0.0025 0.0029 0.000905
      vertex -0.0023 0.0025 0.000905
    endloop
  endfacet
  facet normal -0 0 1
    outer loop
      vertex -0.0025 0.0029 0.000905
      vertex -0.0023 0.0027 0.000905
      vertex 0.0025 0.0029 0.000905
    endloop
  endfacet
  facet normal 0 0 -1
    outer loop
      vertex 0.0023 -0.0025 0.000105
      vertex 0.0025 -0.0029 0.000105
      vertex 0.0023 -0.0027 0.000105
    endloop
  endfacet
  facet normal 0 0 -1
    outer loop
      vertex -0.0025 -0.0029 0.000105
      vertex 0.0023 -0.0027 0.000105
      vertex 0.0025 -0.0029 0.000105
    endloop
  endfacet
  facet normal 0 0 -1
    outer loop
      vertex -0.0025 -0.0027 0.000105
      vertex 0.0023 -0.0027 0.000105
      vertex -0.0025 -0.0029 0.000105
    endloop
  endfacet
  facet normal 0 0 -1
    outer loop
      vertex 0.0025 0.0027 0.000105
      vertex -0.0023 0.0027 0.000105
      vertex 0.0025 0.0029 0.000105
    endloop
  endfacet
  facet normal 0 0 -1
    outer loop
      vertex -0.0023 0.0027 0.000105
      vertex -0.0025 0.0029 0.000105
      vertex 0.0025 0.0029 0.000105
    endloop
  endfacet
  facet normal 0 0 -1
    outer loop
      vertex -0.0023 0.0025 0.000105
      vertex -0.0025 0.0029 0.000105
      vertex -0.0023 0.0027 0.000105
    endloop
  endfacet
  facet normal 0 0 -1
    outer loop
      vertex -0.002625 -0.003325 0.000105
      vertex -0.0025 -0.0029 0.000105
      vertex -0.0025 -0.00345 0.000105
    endloop
  endfacet
  facet normal 0 0 -1
    outer loop
      vertex -0.002625 -0.002825 0.000105
      vertex -0.0025 -0.0029 0.000105
      vertex -0.002625 -0.003325 0.000105
    endloop
  endfacet
  facet normal 0 0 -1
    outer loop
      vertex -0.0025 -0.00345 0.000105
      vertex -0.003125 -0.003325 0.000105
      vertex -0.002625 -0.003325 0.000105
    endloop
  endfacet
  facet normal -0 0 -1
    outer loop
      vertex -0.003125 -0.003325 0.000105
      vertex -0.00325 -0.00345 0.000105
      vertex -0.003125 -0.002825 0.000105
    endloop
  endfacet
  facet normal 0 0 -1
    outer loop
      vertex -0.00325 -0.00345 0.000105
      vertex -0.003125 -0.003325 0.000105
      vertex -0.0025 -0.00345 0.000105
    endloop
  endfacet
  facet normal 0 0 -1
    outer loop
      vertex -0.0025 -0.0029 0.000105
      vertex -0.002625 -0.002825 0.000105
      vertex -0.0025 -0.0027 0.000105
    endloop
  endfacet
  facet normal 0 0 -1
    outer loop
      vertex -0.003125 -0.002825 0.000105
      vertex -0.0025 -0.0027 0.000105
      vertex -0.002625 -0.002825 0.000105
    endloop
  endfacet
  facet normal 0 0 -1
    outer loop
      vertex -0.003125 -0.002825 0.000105
      vertex -0.00325 -0.0027 0.000105
      vertex -0.0025 -0.0027 0.000105
    endloop
  endfacet
  facet normal 0 0 -1
    outer loop
      vertex -0.00325 -0.0027 0.000105
      vertex -0.003125 -0.002825 0.000105
      vertex -0.00325 -0.00345 0.000105
    endloop
  endfacet
  facet normal 0 0 -1
    outer loop
      vertex -0.002825 0.003125 0.000105
      vertex -0.0027 0.00325 0.000105
      vertex -0.002825 0.002625 0.000105
    endloop
  endfacet
  facet normal 0 0 -1
    outer loop
      vertex -0.003325 0.003125 0.000105
      vertex -0.0027 0.00325 0.000105
      vertex -0.002825 0.003125 0.000105
    endloop
  endfacet
  facet normal 0 0 -1
    outer loop
      vertex -0.003325 0.003125 0.000105
      vertex -0.00345 0.00325 0.000105
      vertex -0.0027 0.00325 0.000105
    endloop
  endfacet
  facet normal 0 0 -1
    outer loop
      vertex -0.00345 0.00325 0.000105
      vertex -0.003325 0.003125 0.000105
      vertex -0.00345 0.0025 0.000105
    endloop
  endfacet
  facet normal 0 0 -1
    outer loop
      vertex 0.00325 0.0027 0.000105
      vertex 0.003125 0.002825 0.000105
      vertex 0.00325 0.00345 0.000105
    endloop
  endfacet
  facet normal 0 0 -1
    outer loop
      vertex 0.00325 0.0027 0.000105
      vertex 0.002625 0.002825 0.000105
      vertex 0.003125 0.002825 0.000105
    endloop
  endfacet
  facet normal 0 0 -1
    outer loop
      vertex 0.0025 0.0029 0.000105
      vertex 0.002625 0.002825 0.000105
      vertex 0.0025 0.0027 0.000105
    endloop
  endfacet
  facet normal 0 0 -1
    outer loop
      vertex 0.0025 0.0027 0.000105
      vertex 0.002625 0.002825 0.000105
      vertex 0.00325 0.0027 0.000105
    endloop
  endfacet
  facet normal 0 0 -1
    outer loop
      vertex 0.003125 0.003325 0.000105
      vertex 0.00325 0.00345 0.000105
      vertex 0.003125 0.002825 0.000105
    endloop
  endfacet
  facet normal 0 0 -1
    outer loop
      vertex 0.002625 0.003325 0.000105
      vertex 0.00325 0.00345 0.000105
      vertex 0.003125 0.003325 0.000105
    endloop
  endfacet
  facet normal 0 0 -1
    outer loop
      vertex 0.002625 0.002825 0.000105
      vertex 0.0025 0.0029 0.000105
      vertex 0.002625 0.003325 0.000105
    endloop
  endfacet
  facet normal 0 0 -1
    outer loop
      vertex 0.002625 0.003325 0.000105
      vertex 0.0025 0.00345 0.000105
      vertex 0.00325 0.00345 0.000105
    endloop
  endfacet
  facet normal 0 0 -1
    outer loop
      vertex 0.0025 0.00345 0.000105
      vertex 0.002625 0.003325 0.000105
      vertex 0.0025 0.0029 0.000105
    endloop
  endfacet
  facet normal 0 0 -1
    outer loop
      vertex 0.00345 -0.00325 0.000105
      vertex 0.003325 -0.003125 0.000105
      vertex 0.00345 -0.0025 0.000105
    endloop
  endfacet
  facet normal 0 0 -1
    outer loop
      vertex 0.00345 -0.00325 0.000105
      vertex 0.002825 -0.003125 0.000105
      vertex 0.003325 -0.003125 0.000105
    endloop
  endfacet
  facet normal -0 0 -1
    outer loop
      vertex 0.002825 -0.003125 0.000105
      vertex 0.0027 -0.00325 0.000105
      vertex 0.002825 -0.002625 0.000105
    endloop
  endfacet
  facet normal 0 0 -1
    outer loop
      vertex 0.0027 -0.00325 0.000105
      vertex 0.002825 -0.003125 0.000105
      vertex 0.00345 -0.00325 0.000105
    endloop
  endfacet
  facet normal 0 0 -1
    outer loop
      vertex 0.003325 -0.002625 0.000105
      vertex 0.00345 -0.0025 0.000105
      vertex 0.003325 -0.003125 0.000105
    endloop
  endfacet
  facet normal 0 0 -1
    outer loop
      vertex 0.003325 -0.002625 0.000105
      vertex 0.0029 -0.0025 0.000105
      vertex 0.00345 -0.0025 0.000105
    endloop
  endfacet
  facet normal 0 0 -1
    outer loop
      vertex 0.002825 -0.002625 0.000105
      vertex 0.0029 -0.0025 0.000105
      vertex 0.003325 -0.002625 0.000105
    endloop
  endfacet
  facet normal 0 0 -1
    outer loop
      vertex 0.0027 -0.0025 0.000105
      vertex 0.0029 -0.0025 0.000105
      vertex 0.002825 -0.002625 0.000105
    endloop
  endfacet
  facet normal 0 0 -1
    outer loop
      vertex 0.0027 -0.0025 0.000105
      vertex 0.002825 -0.002625 0.000105
      vertex 0.0027 -0.00325 0.000105
    endloop
  endfacet
  facet normal 0 0 -1
    outer loop
      vertex 0.0029 -0.0025 0.000105
      vertex 0.0027 -0.0025 0.000105
      vertex 0.0027 0.0023 0.000105
    endloop
  endfacet
  facet normal 0 0 -1
    outer loop
      vertex 0.0029 -0.0025 0.000105
      vertex 0.0027 0.0023 0.000105
      vertex 0.0029 0.0025 0.000105
    endloop
  endfacet
  facet normal 0 0 -1
    outer loop
      vertex 0.0025 0.0023 0.000105
      vertex 0.0029 0.0025 0.000105
      vertex 0.0027 0.0023 0.000105
    endloop
  endfacet
  facet normal 0 0 -1
    outer loop
      vertex 0.0025 -0.0029 0.000105
      vertex 0.0023 -0.0025 0.000105
      vertex 0.0025 0.0023 0.000105
    endloop
  endfacet
  facet normal 0 0 -1
    outer loop
      vertex 0.0025 0.0023 0.000105
      vertex -0.0023 0.0025 0.000105
      vertex 0.0029 0.0025 0.000105
    endloop
  endfacet
  facet normal 0 0 -1
    outer loop
      vertex 0.0023 -0.0025 0.000105
      vertex -0.0023 0.0025 0.000105
      vertex 0.0025 0.0023 0.000105
    endloop
  endfacet
  facet normal 0 0 -1
    outer loop
      vertex -0.0025 0.0029 0.000105
      vertex -0.0023 0.0025 0.000105
      vertex -0.0025 -0.0023 0.000105
    endloop
  endfacet
  facet normal 0 0 -1
    outer loop
      vertex 0.0023 -0.0025 0.000105
      vertex -0.0025 -0.0023 0.000105
      vertex -0.0023 0.0025 0.000105
    endloop
  endfacet
  facet normal 0 0 -1
    outer loop
      vertex -0.0029 -0.0025 0.000105
      vertex -0.0025 -0.0023 0.000105
      vertex 0.0023 -0.0025 0.000105
    endloop
  endfacet
  facet normal 0 0 -1
    outer loop
      vertex -0.0027 0.0025 0.000105
      vertex -0.002825 0.002625 0.000105
      vertex -0.0027 0.00325 0.000105
    endloop
  endfacet
  facet normal 0 0 -1
    outer loop
      vertex -0.0029 0.0025 0.000105
      vertex -0.0027 0.0025 0.000105
      vertex -0.0027 -0.0023 0.000105
    endloop
  endfacet
  facet normal -0 0 -1
    outer loop
      vertex -0.0025 -0.0023 0.000105
      vertex -0.0029 -0.0025 0.000105
      vertex -0.0027 -0.0023 0.000105
    endloop
  endfacet
  facet normal 0 0 -1
    outer loop
      vertex -0.0029 0.0025 0.000105
      vertex -0.0027 -0.0023 0.000105
      vertex -0.0029 -0.0025 0.000105
    endloop
  endfacet
  facet normal 0 0 -1
    outer loop
      vertex -0.0027 0.0025 0.000105
      vertex -0.0029 0.0025 0.000105
      vertex -0.002825 0.002625 0.000105
    endloop
  endfacet
  facet normal 0 0 -1
    outer loop
      vertex -0.0029 0.0025 0.000105
      vertex -0.003325 0.002625 0.000105
      vertex -0.002825 0.002625 0.000105
    endloop
  endfacet
  facet normal -0 0 -1
    outer loop
      vertex -0.003325 0.002625 0.000105
      vertex -0.00345 0.0025 0.000105
      vertex -0.003325 0.003125 0.000105
    endloop
  endfacet
  facet normal 0 0 -1
    outer loop
      vertex -0.00345 0.0025 0.000105
      vertex -0.003325 0.002625 0.000105
      vertex -0.0029 0.0025 0.000105
    endloop
  endfacet
  facet normal -1 0 0
    outer loop
      vertex 0.0027 -0.00325 0.000105
      vertex 0.0027 -0.0025 0.000905
      vertex 0.0027 -0.0025 0.000105
    endloop
  endfacet
  facet normal -1 -0 0
    outer loop
      vertex 0.0027 -0.0025 0.000905
      vertex 0.0027 -0.00325 0.000105
      vertex 0.0027 -0.00325 0.000905
    endloop
  endfacet
  facet normal 0 1 -0
    outer loop
      vertex 0.00345 -0.0025 0.000105
      vertex 0.0029 -0.0025 0.000905
      vertex 0.00345 -0.0025 0.000905
    endloop
  endfacet
  facet normal 0 1 0
    outer loop
      vertex 0.0029 -0.0025 0.000905
      vertex 0.00345 -0.0025 0.000105
      vertex 0.0029 -0.0025 0.000105
    endloop
  endfacet
  facet normal 0 -1 0
    outer loop
      vertex 0.0027 -0.00325 0.000105
      vertex 0.00345 -0.00325 0.000905
      vertex 0.0027 -0.00325 0.000905
    endloop
  endfacet
  facet normal 0 -1 -0
    outer loop
      vertex 0.00345 -0.00325 0.000905
      vertex 0.0027 -0.00325 0.000105
      vertex 0.00345 -0.00325 0.000105
    endloop
  endfacet
  facet normal -1 0 0
    outer loop
      vertex 0.003325 -0.003125 0.000105
      vertex 0.003325 -0.002625 0.000905
      vertex 0.003325 -0.002625 0.000105
    endloop
  endfacet
  facet normal -1 -0 0
    outer loop
      vertex 0.003325 -0.002625 0.000905
      vertex 0.003325 -0.003125 0.000105
      vertex 0.003325 -0.003125 0.000905
    endloop
  endfacet
  facet normal 1 -0 0
    outer loop
      vertex 0.002825 -0.003125 0.000905
      vertex 0.002825 -0.002625 0.000105
      vertex 0.002825 -0.002625 0.000905
    endloop
  endfacet
  facet normal 1 0 0
    outer loop
      vertex 0.002825 -0.002625 0.000105
      vertex 0.002825 -0.003125 0.000905
      vertex 0.002825 -0.003125 0.000105
    endloop
  endfacet
  facet normal 0 -1 0
    outer loop
      vertex 0.002825 -0.002625 0.000105
      vertex 0.003325 -0.002625 0.000905
      vertex 0.002825 -0.002625 0.000905
    endloop
  endfacet
  facet normal 0 -1 -0
    outer loop
      vertex 0.003325 -0.002625 0.000905
      vertex 0.002825 -0.002625 0.000105
      vertex 0.003325 -0.002625 0.000105
    endloop
  endfacet
  facet normal 0 1 -0
    outer loop
      vertex 0.003325 -0.003125 0.000105
      vertex 0.002825 -0.003125 0.000905
      vertex 0.003325 -0.003125 0.000905
    endloop
  endfacet
  facet normal 0 1 0
    outer loop
      vertex 0.002825 -0.003125 0.000905
      vertex 0.003325 -0.003125 0.000105
      vertex 0.002825 -0.003125 0.000105
    endloop
  endfacet
  facet normal 1 -0 0
    outer loop
      vertex 0.0029 -0.0025 0.000905
      vertex 0.0029 0.0025 0.000105
      vertex 0.0029 0.0025 0.000905
    endloop
  endfacet
  facet normal 1 0 0
    outer loop
      vertex 0.0029 0.0025 0.000105
      vertex 0.0029 -0.0025 0.000905
      vertex 0.0029 -0.0025 0.000105
    endloop
  endfacet
  facet normal -1 0 0
    outer loop
      vertex 0.0027 -0.0025 0.000105
      vertex 0.0027 0.0023 0.000905
      vertex 0.0027 0.0023 0.000105
    endloop
  endfacet
  facet normal -1 -0 0
    outer loop
      vertex 0.0027 0.0023 0.000905
      vertex 0.0027 -0.0025 0.000105
      vertex 0.0027 -0.0025 0.000905
    endloop
  endfacet
  facet normal 0 1 -0
    outer loop
      vertex 0.0029 0.0025 0.000105
      vertex -0.0023 0.0025 0.000905
      vertex 0.0029 0.0025 0.000905
    endloop
  endfacet
  facet normal 0 1 0
    outer loop
      vertex -0.0023 0.0025 0.000905
      vertex 0.0029 0.0025 0.000105
      vertex -0.0023 0.0025 0.000105
    endloop
  endfacet
  facet normal 1 -0 0
    outer loop
      vertex 0.0025 -0.0029 0.000905
      vertex 0.0025 0.0023 0.000105
      vertex 0.0025 0.0023 0.000905
    endloop
  endfacet
  facet normal 1 0 0
    outer loop
      vertex 0.0025 0.0023 0.000105
      vertex 0.0025 -0.0029 0.000905
      vertex 0.0025 -0.0029 0.000105
    endloop
  endfacet
  facet normal 0 -1 0
    outer loop
      vertex 0.0025 0.0023 0.000105
      vertex 0.0027 0.0023 0.000905
      vertex 0.0025 0.0023 0.000905
    endloop
  endfacet
  facet normal 0 -1 -0
    outer loop
      vertex 0.0027 0.0023 0.000905
      vertex 0.0025 0.0023 0.000105
      vertex 0.0027 0.0023 0.000105
    endloop
  endfacet
  facet normal 0 1 -0
    outer loop
      vertex 0.00325 0.00345 0.000105
      vertex 0.0025 0.00345 0.000905
      vertex 0.00325 0.00345 0.000905
    endloop
  endfacet
  facet normal 0 1 0
    outer loop
      vertex 0.0025 0.00345 0.000905
      vertex 0.00325 0.00345 0.000105
      vertex 0.0025 0.00345 0.000105
    endloop
  endfacet
  facet normal 0 -1 0
    outer loop
      vertex 0.0025 0.0027 0.000105
      vertex 0.00325 0.0027 0.000905
      vertex 0.0025 0.0027 0.000905
    endloop
  endfacet
  facet normal 0 -1 -0
    outer loop
      vertex 0.00325 0.0027 0.000905
      vertex 0.0025 0.0027 0.000105
      vertex 0.00325 0.0027 0.000105
    endloop
  endfacet
  facet normal -1 0 0
    outer loop
      vertex 0.0025 0.0029 0.000105
      vertex 0.0025 0.00345 0.000905
      vertex 0.0025 0.00345 0.000105
    endloop
  endfacet
  facet normal -1 -0 0
    outer loop
      vertex 0.0025 0.00345 0.000905
      vertex 0.0025 0.0029 0.000105
      vertex 0.0025 0.0029 0.000905
    endloop
  endfacet
  facet normal 1 -0 0
    outer loop
      vertex 0.00325 0.0027 0.000905
      vertex 0.00325 0.00345 0.000105
      vertex 0.00325 0.00345 0.000905
    endloop
  endfacet
  facet normal 1 0 0
    outer loop
      vertex 0.00325 0.00345 0.000105
      vertex 0.00325 0.0027 0.000905
      vertex 0.00325 0.0027 0.000105
    endloop
  endfacet
  facet normal 0 -1 0
    outer loop
      vertex 0.002625 0.003325 0.000105
      vertex 0.003125 0.003325 0.000905
      vertex 0.002625 0.003325 0.000905
    endloop
  endfacet
  facet normal 0 -1 -0
    outer loop
      vertex 0.003125 0.003325 0.000905
      vertex 0.002625 0.003325 0.000105
      vertex 0.003125 0.003325 0.000105
    endloop
  endfacet
  facet normal 0 1 -0
    outer loop
      vertex 0.003125 0.002825 0.000105
      vertex 0.002625 0.002825 0.000905
      vertex 0.003125 0.002825 0.000905
    endloop
  endfacet
  facet normal 0 1 0
    outer loop
      vertex 0.002625 0.002825 0.000905
      vertex 0.003125 0.002825 0.000105
      vertex 0.002625 0.002825 0.000105
    endloop
  endfacet
  facet normal 1 -0 0
    outer loop
      vertex 0.002625 0.002825 0.000905
      vertex 0.002625 0.003325 0.000105
      vertex 0.002625 0.003325 0.000905
    endloop
  endfacet
  facet normal 1 0 0
    outer loop
      vertex 0.002625 0.003325 0.000105
      vertex 0.002625 0.002825 0.000905
      vertex 0.002625 0.002825 0.000105
    endloop
  endfacet
  facet normal -1 0 0
    outer loop
      vertex 0.003125 0.002825 0.000105
      vertex 0.003125 0.003325 0.000905
      vertex 0.003125 0.003325 0.000105
    endloop
  endfacet
  facet normal -1 -0 0
    outer loop
      vertex 0.003125 0.003325 0.000905
      vertex 0.003125 0.002825 0.000105
      vertex 0.003125 0.002825 0.000905
    endloop
  endfacet
  facet normal 0 1 -0
    outer loop
      vertex 0.0025 0.0029 0.000105
      vertex -0.0025 0.0029 0.000905
      vertex 0.0025 0.0029 0.000905
    endloop
  endfacet
  facet normal 0 1 0
    outer loop
      vertex -0.0025 0.0029 0.000905
      vertex 0.0025 0.0029 0.000105
      vertex -0.0025 0.0029 0.000105
    endloop
  endfacet
  facet normal 0 -1 0
    outer loop
      vertex -0.0023 0.0027 0.000105
      vertex 0.0025 0.0027 0.000905
      vertex -0.0023 0.0027 0.000905
    endloop
  endfacet
  facet normal 0 -1 -0
    outer loop
      vertex 0.0025 0.0027 0.000905
      vertex -0.0023 0.0027 0.000105
      vertex 0.0025 0.0027 0.000105
    endloop
  endfacet
  facet normal -1 0 0
    outer loop
      vertex -0.0025 -0.0023 0.000105
      vertex -0.0025 0.0029 0.000905
      vertex -0.0025 0.0029 0.000105
    endloop
  endfacet
  facet normal -1 -0 0
    outer loop
      vertex -0.0025 0.0029 0.000905
      vertex -0.0025 -0.0023 0.000105
      vertex -0.0025 -0.0023 0.000905
    endloop
  endfacet
  facet normal 1 -0 0
    outer loop
      vertex -0.0023 0.0025 0.000905
      vertex -0.0023 0.0027 0.000105
      vertex -0.0023 0.0027 0.000905
    endloop
  endfacet
  facet normal 1 0 0
    outer loop
      vertex -0.0023 0.0027 0.000105
      vertex -0.0023 0.0025 0.000905
      vertex -0.0023 0.0025 0.000105
    endloop
  endfacet
  facet normal -1 0 0
    outer loop
      vertex -0.00345 0.0025 0.000105
      vertex -0.00345 0.00325 0.000905
      vertex -0.00345 0.00325 0.000105
    endloop
  endfacet
  facet normal -1 -0 0
    outer loop
      vertex -0.00345 0.00325 0.000905
      vertex -0.00345 0.0025 0.000105
      vertex -0.00345 0.0025 0.000905
    endloop
  endfacet
  facet normal 1 -0 0
    outer loop
      vertex -0.0027 0.0025 0.000905
      vertex -0.0027 0.00325 0.000105
      vertex -0.0027 0.00325 0.000905
    endloop
  endfacet
  facet normal 1 0 0
    outer loop
      vertex -0.0027 0.00325 0.000105
      vertex -0.0027 0.0025 0.000905
      vertex -0.0027 0.0025 0.000105
    endloop
  endfacet
  facet normal 0 -1 0
    outer loop
      vertex -0.00345 0.0025 0.000105
      vertex -0.0029 0.0025 0.000905
      vertex -0.00345 0.0025 0.000905
    endloop
  endfacet
  facet normal 0 -1 -0
    outer loop
      vertex -0.0029 0.0025 0.000905
      vertex -0.00345 0.0025 0.000105
      vertex -0.0029 0.0025 0.000105
    endloop
  endfacet
  facet normal 0 1 -0
    outer loop
      vertex -0.0027 0.00325 0.000105
      vertex -0.00345 0.00325 0.000905
      vertex -0.0027 0.00325 0.000905
    endloop
  endfacet
  facet normal 0 1 0
    outer loop
      vertex -0.00345 0.00325 0.000905
      vertex -0.0027 0.00325 0.000105
      vertex -0.00345 0.00325 0.000105
    endloop
  endfacet
  facet normal 1 -0 0
    outer loop
      vertex -0.003325 0.002625 0.000905
      vertex -0.003325 0.003125 0.000105
      vertex -0.003325 0.003125 0.000905
    endloop
  endfacet
  facet normal 1 0 0
    outer loop
      vertex -0.003325 0.003125 0.000105
      vertex -0.003325 0.002625 0.000905
      vertex -0.003325 0.002625 0.000105
    endloop
  endfacet
  facet normal -1 0 0
    outer loop
      vertex -0.002825 0.002625 0.000105
      vertex -0.002825 0.003125 0.000905
      vertex -0.002825 0.003125 0.000105
    endloop
  endfacet
  facet normal -1 -0 0
    outer loop
      vertex -0.002825 0.003125 0.000905
      vertex -0.002825 0.002625 0.000105
      vertex -0.002825 0.002625 0.000905
    endloop
  endfacet
  facet normal 0 1 -0
    outer loop
      vertex -0.002825 0.002625 0.000105
      vertex -0.003325 0.002625 0.000905
      vertex -0.002825 0.002625 0.000905
    endloop
  endfacet
  facet normal 0 1 0
    outer loop
      vertex -0.003325 0.002625 0.000905
      vertex -0.002825 0.002625 0.000105
      vertex -0.003325 0.002625 0.000105
    endloop
  endfacet
  facet normal 0 -1 0
    outer loop
      vertex -0.003325 0.003125 0.000105
      vertex -0.002825 0.003125 0.000905
      vertex -0.003325 0.003125 0.000905
    endloop
  endfacet
  facet normal 0 -1 -0
    outer loop
      vertex -0.002825 0.003125 0.000905
      vertex -0.003325 0.003125 0.000105
      vertex -0.002825 0.003125 0.000105
    endloop
  endfacet
  facet normal -1 0 0
    outer loop
      vertex -0.0029 -0.0025 0.000105
      vertex -0.0029 0.0025 0.000905
      vertex -0.0029 0.0025 0.000105
    endloop
  endfacet
  facet normal -1 -0 0
    outer loop
      vertex -0.0029 0.0025 0.000905
      vertex -0.0029 -0.0025 0.000105
      vertex -0.0029 -0.0025 0.000905
    endloop
  endfacet
  facet normal 1 -0 0
    outer loop
      vertex -0.0027 -0.0023 0.000905
      vertex -0.0027 0.0025 0.000105
      vertex -0.0027 0.0025 0.000905
    endloop
  endfacet
  facet normal 1 0 0
    outer loop
      vertex -0.0027 0.0025 0.000105
      vertex -0.0027 -0.0023 0.000905
      vertex -0.0027 -0.0023 0.000105
    endloop
  endfacet
  facet normal 0 -1 0
    outer loop
      vertex -0.0029 -0.0025 0.000105
      vertex 0.0023 -0.0025 0.000905
      vertex -0.0029 -0.0025 0.000905
    endloop
  endfacet
  facet normal 0 -1 -0
    outer loop
      vertex 0.0023 -0.0025 0.000905
      vertex -0.0029 -0.0025 0.000105
      vertex 0.0023 -0.0025 0.000105
    endloop
  endfacet
  facet normal 0 1 -0
    outer loop
      vertex -0.0025 -0.0023 0.000105
      vertex -0.0027 -0.0023 0.000905
      vertex -0.0025 -0.0023 0.000905
    endloop
  endfacet
  facet normal 0 1 0
    outer loop
      vertex -0.0027 -0.0023 0.000905
      vertex -0.0025 -0.0023 0.000105
      vertex -0.0027 -0.0023 0.000105
    endloop
  endfacet
  facet normal 0 -1 0
    outer loop
      vertex -0.00325 -0.00345 0.000105
      vertex -0.0025 -0.00345 0.000905
      vertex -0.00325 -0.00345 0.000905
    endloop
  endfacet
  facet normal 0 -1 -0
    outer loop
      vertex -0.0025 -0.00345 0.000905
      vertex -0.00325 -0.00345 0.000105
      vertex -0.0025 -0.00345 0.000105
    endloop
  endfacet
  facet normal 0 1 -0
    outer loop
      vertex -0.0025 -0.0027 0.000105
      vertex -0.00325 -0.0027 0.000905
      vertex -0.0025 -0.0027 0.000905
    endloop
  endfacet
  facet normal 0 1 0
    outer loop
      vertex -0.00325 -0.0027 0.000905
      vertex -0.0025 -0.0027 0.000105
      vertex -0.00325 -0.0027 0.000105
    endloop
  endfacet
  facet normal 1 -0 0
    outer loop
      vertex -0.0025 -0.00345 0.000905
      vertex -0.0025 -0.0029 0.000105
      vertex -0.0025 -0.0029 0.000905
    endloop
  endfacet
  facet normal 1 0 0
    outer loop
      vertex -0.0025 -0.0029 0.000105
      vertex -0.0025 -0.00345 0.000905
      vertex -0.0025 -0.00345 0.000105
    endloop
  endfacet
  facet normal -1 0 0
    outer loop
      vertex -0.00325 -0.00345 0.000105
      vertex -0.00325 -0.0027 0.000905
      vertex -0.00325 -0.0027 0.000105
    endloop
  endfacet
  facet normal -1 -0 0
    outer loop
      vertex -0.00325 -0.0027 0.000905
      vertex -0.00325 -0.00345 0.000105
      vertex -0.00325 -0.00345 0.000905
    endloop
  endfacet
  facet normal 0 1 -0
    outer loop
      vertex -0.002625 -0.003325 0.000105
      vertex -0.003125 -0.003325 0.000905
      vertex -0.002625 -0.003325 0.000905
    endloop
  endfacet
  facet normal 0 1 0
    outer loop
      vertex -0.003125 -0.003325 0.000905
      vertex -0.002625 -0.003325 0.000105
      vertex -0.003125 -0.003325 0.000105
    endloop
  endfacet
  facet normal 0 -1 0
    outer loop
      vertex -0.003125 -0.002825 0.000105
      vertex -0.002625 -0.002825 0.000905
      vertex -0.003125 -0.002825 0.000905
    endloop
  endfacet
  facet normal 0 -1 -0
    outer loop
      vertex -0.002625 -0.002825 0.000905
      vertex -0.003125 -0.002825 0.000105
      vertex -0.002625 -0.002825 0.000105
    endloop
  endfacet
  facet normal -1 0 0
    outer loop
      vertex -0.002625 -0.003325 0.000105
      vertex -0.002625 -0.002825 0.000905
      vertex -0.002625 -0.002825 0.000105
    endloop
  endfacet
  facet normal -1 -0 0
    outer loop
      vertex -0.002625 -0.002825 0.000905
      vertex -0.002625 -0.003325 0.000105
      vertex -0.002625 -0.003325 0.000905
    endloop
  endfacet
  facet normal 1 -0 0
    outer loop
      vertex -0.003125 -0.003325 0.000905
      vertex -0.003125 -0.002825 0.000105
      vertex -0.003125 -0.002825 0.000905
    endloop
  endfacet
  facet normal 1 0 0
    outer loop
      vertex -0.003125 -0.002825 0.000105
      vertex -0.003125 -0.003325 0.000905
      vertex -0.003125 -0.003325 0.000105
    endloop
  endfacet
  facet normal 0 -1 0
    outer loop
      vertex -0.0025 -0.0029 0.000105
      vertex 0.0025 -0.0029 0.000905
      vertex -0.0025 -0.0029 0.000905
    endloop
  endfacet
  facet normal 0 -1 -0
    outer loop
      vertex 0.0025 -0.0029 0.000905
      vertex -0.0025 -0.0029 0.000105
      vertex 0.0025 -0.0029 0.000105
    endloop
  endfacet
  facet normal 0 1 -0
    outer loop
      vertex 0.0023 -0.0027 0.000105
      vertex -0.0025 -0.0027 0.000905
      vertex 0.0023 -0.0027 0.000905
    endloop
  endfacet
  facet normal 0 1 0
    outer loop
      vertex -0.0025 -0.0027 0.000905
      vertex 0.0023 -0.0027 0.000105
      vertex -0.0025 -0.0027 0.000105
    endloop
  endfacet
  facet normal -1 0 0
    outer loop
      vertex 0.0023 -0.0027 0.000105
      vertex 0.0023 -0.0025 0.000905
      vertex 0.0023 -0.0025 0.000105
    endloop
  endfacet
  facet normal -1 -0 0
    outer loop
      vertex 0.0023 -0.0025 0.000905
      vertex 0.0023 -0.0027 0.000105
      vertex 0.0023 -0.0027 0.000905
    endloop
  endfacet
endsolid OpenSCAD_Model
