solid OpenSCAD_Model
  facet normal 1 -0 0
    outer loop
      vertex 0.00395 -0.00325 0.000304999
      vertex 0.00395 -0.0025 0.000105001
      vertex 0.00395 -0.0025 0.000304999
    endloop
  endfacet
  facet normal 1 0 0
    outer loop
      vertex 0.00395 -0.0025 0.000105001
      vertex 0.00395 -0.00325 0.000304999
      vertex 0.00395 -0.00325 0.000105001
    endloop
  endfacet
  facet normal -0 0 1
    outer loop
      vertex -0.003325 0.002625 0.000304999
      vertex -0.0032 0.0025 0.000304999
      vertex -0.0032 0.00325 0.000304999
    endloop
  endfacet
  facet normal 0 0 1
    outer loop
      vertex -0.003325 0.002625 0.000304999
      vertex -0.0032 0.00325 0.000304999
      vertex -0.003325 0.003125 0.000304999
    endloop
  endfacet
  facet normal 0 0 1
    outer loop
      vertex -0.0032 0.00325 0.000304999
      vertex -0.003825 0.003125 0.000304999
      vertex -0.003325 0.003125 0.000304999
    endloop
  endfacet
  facet normal 0 0 1
    outer loop
      vertex -0.00395 0.0025 0.000304999
      vertex -0.003825 0.002625 0.000304999
      vertex -0.003825 0.003125 0.000304999
    endloop
  endfacet
  facet normal -0 0 1
    outer loop
      vertex -0.00395 0.00325 0.000304999
      vertex -0.003825 0.003125 0.000304999
      vertex -0.0032 0.00325 0.000304999
    endloop
  endfacet
  facet normal 0 0 1
    outer loop
      vertex -0.00395 0.0025 0.000304999
      vertex -0.003825 0.003125 0.000304999
      vertex -0.00395 0.00325 0.000304999
    endloop
  endfacet
  facet normal 0 0 1
    outer loop
      vertex -0.003825 0.002625 0.000304999
      vertex -0.00395 0.0025 0.000304999
      vertex -0.0039 0.0025 0.000304999
    endloop
  endfacet
  facet normal -0 0 1
    outer loop
      vertex 0.0032 0.0018 0.000304999
      vertex 0.0039 -0.0025 0.000304999
      vertex 0.0039 0.0025 0.000304999
    endloop
  endfacet
  facet normal 0 0 1
    outer loop
      vertex 0.0032 -0.0025 0.000304999
      vertex 0.0039 -0.0025 0.000304999
      vertex 0.0032 0.0018 0.000304999
    endloop
  endfacet
  facet normal 0 0 1
    outer loop
      vertex 0.0039 -0.0025 0.000304999
      vertex 0.003325 -0.002625 0.000304999
      vertex 0.003825 -0.002625 0.000304999
    endloop
  endfacet
  facet normal 0 -0 1
    outer loop
      vertex 0.003325 -0.002625 0.000304999
      vertex 0.0039 -0.0025 0.000304999
      vertex 0.0032 -0.0025 0.000304999
    endloop
  endfacet
  facet normal 0 0 1
    outer loop
      vertex 0.0039 0.0025 0.000304999
      vertex 0.0025 0.0018 0.000304999
      vertex 0.0032 0.0018 0.000304999
    endloop
  endfacet
  facet normal 0 0 1
    outer loop
      vertex 0.0025 0.0018 0.000304999
      vertex 0.0018 -0.0025 0.000304999
      vertex 0.0025 -0.0039 0.000304999
    endloop
  endfacet
  facet normal -0 0 1
    outer loop
      vertex -0.0018 0.0025 0.000304999
      vertex 0.0025 0.0018 0.000304999
      vertex 0.0039 0.0025 0.000304999
    endloop
  endfacet
  facet normal 0 0 1
    outer loop
      vertex -0.0018 0.0025 0.000304999
      vertex 0.0018 -0.0025 0.000304999
      vertex 0.0025 0.0018 0.000304999
    endloop
  endfacet
  facet normal 0 0 1
    outer loop
      vertex -0.0025 -0.0018 0.000304999
      vertex -0.0018 0.0025 0.000304999
      vertex -0.0025 0.0039 0.000304999
    endloop
  endfacet
  facet normal -0 0 1
    outer loop
      vertex -0.0025 -0.0018 0.000304999
      vertex 0.0018 -0.0025 0.000304999
      vertex -0.0018 0.0025 0.000304999
    endloop
  endfacet
  facet normal 0 0 1
    outer loop
      vertex -0.0039 -0.0025 0.000304999
      vertex -0.0025 -0.0018 0.000304999
      vertex -0.0032 -0.0018 0.000304999
    endloop
  endfacet
  facet normal 0 0 1
    outer loop
      vertex -0.0039 0.0025 0.000304999
      vertex -0.0032 0.0025 0.000304999
      vertex -0.003325 0.002625 0.000304999
    endloop
  endfacet
  facet normal 0 0 1
    outer loop
      vertex -0.0039 0.0025 0.000304999
      vertex -0.003325 0.002625 0.000304999
      vertex -0.003825 0.002625 0.000304999
    endloop
  endfacet
  facet normal 0 0 1
    outer loop
      vertex -0.0032 0.0025 0.000304999
      vertex -0.0039 0.0025 0.000304999
      vertex -0.0032 -0.0018 0.000304999
    endloop
  endfacet
  facet normal 0 0 1
    outer loop
      vertex -0.0025 -0.0018 0.000304999
      vertex -0.0039 -0.0025 0.000304999
      vertex 0.0018 -0.0025 0.000304999
    endloop
  endfacet
  facet normal 0 0 1
    outer loop
      vertex -0.0039 -0.0025 0.000304999
      vertex -0.0032 -0.0018 0.000304999
      vertex -0.0039 0.0025 0.000304999
    endloop
  endfacet
  facet normal 0 0 1
    outer loop
      vertex 0.003825 -0.002625 0.000304999
      vertex 0.00395 -0.0025 0.000304999
      vertex 0.0039 -0.0025 0.000304999
    endloop
  endfacet
  facet normal 0 0 1
    outer loop
      vertex 0.00395 -0.0025 0.000304999
      vertex 0.003825 -0.002625 0.000304999
      vertex 0.00395 -0.00325 0.000304999
    endloop
  endfacet
  facet normal -0 0 1
    outer loop
      vertex 0.003825 -0.003125 0.000304999
      vertex 0.00395 -0.00325 0.000304999
      vertex 0.003825 -0.002625 0.000304999
    endloop
  endfacet
  facet normal -0 0 1
    outer loop
      vertex 0.003325 -0.003125 0.000304999
      vertex 0.00395 -0.00325 0.000304999
      vertex 0.003825 -0.003125 0.000304999
    endloop
  endfacet
  facet normal 0 0 1
    outer loop
      vertex 0.003325 -0.002625 0.000304999
      vertex 0.0032 -0.0025 0.000304999
      vertex 0.003325 -0.003125 0.000304999
    endloop
  endfacet
  facet normal 0 0 1
    outer loop
      vertex 0.003325 -0.003125 0.000304999
      vertex 0.0032 -0.00325 0.000304999
      vertex 0.00395 -0.00325 0.000304999
    endloop
  endfacet
  facet normal 0 0 1
    outer loop
      vertex 0.0032 -0.00325 0.000304999
      vertex 0.003325 -0.003125 0.000304999
      vertex 0.0032 -0.0025 0.000304999
    endloop
  endfacet
  facet normal -0 0 1
    outer loop
      vertex 0.0018 -0.0032 0.000304999
      vertex 0.0025 -0.0039 0.000304999
      vertex 0.0018 -0.0025 0.000304999
    endloop
  endfacet
  facet normal 0 0 1
    outer loop
      vertex -0.0025 -0.0039 0.000304999
      vertex 0.0018 -0.0032 0.000304999
      vertex -0.0025 -0.0032 0.000304999
    endloop
  endfacet
  facet normal 0 0 1
    outer loop
      vertex 0.0018 -0.0032 0.000304999
      vertex -0.0025 -0.0039 0.000304999
      vertex 0.0025 -0.0039 0.000304999
    endloop
  endfacet
  facet normal -0 0 1
    outer loop
      vertex -0.002625 -0.003325 0.000304999
      vertex -0.0025 -0.0039 0.000304999
      vertex -0.0025 -0.0032 0.000304999
    endloop
  endfacet
  facet normal -0 0 1
    outer loop
      vertex -0.002625 -0.003825 0.000304999
      vertex -0.0025 -0.0039 0.000304999
      vertex -0.002625 -0.003325 0.000304999
    endloop
  endfacet
  facet normal 0 0 1
    outer loop
      vertex -0.0025 -0.0032 0.000304999
      vertex -0.003125 -0.003325 0.000304999
      vertex -0.002625 -0.003325 0.000304999
    endloop
  endfacet
  facet normal 0 0 1
    outer loop
      vertex -0.003125 -0.003325 0.000304999
      vertex -0.00325 -0.0032 0.000304999
      vertex -0.003125 -0.003825 0.000304999
    endloop
  endfacet
  facet normal -0 0 1
    outer loop
      vertex -0.00325 -0.0032 0.000304999
      vertex -0.003125 -0.003325 0.000304999
      vertex -0.0025 -0.0032 0.000304999
    endloop
  endfacet
  facet normal 0 0 1
    outer loop
      vertex -0.0025 -0.0039 0.000304999
      vertex -0.002625 -0.003825 0.000304999
      vertex -0.0025 -0.00395 0.000304999
    endloop
  endfacet
  facet normal -0 0 1
    outer loop
      vertex -0.003125 -0.003825 0.000304999
      vertex -0.0025 -0.00395 0.000304999
      vertex -0.002625 -0.003825 0.000304999
    endloop
  endfacet
  facet normal 0 0 1
    outer loop
      vertex -0.003125 -0.003825 0.000304999
      vertex -0.00325 -0.00395 0.000304999
      vertex -0.0025 -0.00395 0.000304999
    endloop
  endfacet
  facet normal 0 0 1
    outer loop
      vertex -0.00325 -0.00395 0.000304999
      vertex -0.003125 -0.003825 0.000304999
      vertex -0.00325 -0.0032 0.000304999
    endloop
  endfacet
  facet normal 0 0 1
    outer loop
      vertex 0.00325 0.00395 0.000304999
      vertex 0.003125 0.003825 0.000304999
      vertex 0.00325 0.0032 0.000304999
    endloop
  endfacet
  facet normal 0 0 1
    outer loop
      vertex 0.00325 0.00395 0.000304999
      vertex 0.002625 0.003825 0.000304999
      vertex 0.003125 0.003825 0.000304999
    endloop
  endfacet
  facet normal -0 0 1
    outer loop
      vertex 0.0025 0.0039 0.000304999
      vertex 0.002625 0.003825 0.000304999
      vertex 0.0025 0.00395 0.000304999
    endloop
  endfacet
  facet normal -0 0 1
    outer loop
      vertex 0.0025 0.00395 0.000304999
      vertex 0.002625 0.003825 0.000304999
      vertex 0.00325 0.00395 0.000304999
    endloop
  endfacet
  facet normal -0 0 1
    outer loop
      vertex 0.003125 0.003325 0.000304999
      vertex 0.00325 0.0032 0.000304999
      vertex 0.003125 0.003825 0.000304999
    endloop
  endfacet
  facet normal -0 0 1
    outer loop
      vertex 0.002625 0.003325 0.000304999
      vertex 0.00325 0.0032 0.000304999
      vertex 0.003125 0.003325 0.000304999
    endloop
  endfacet
  facet normal 0 0 1
    outer loop
      vertex 0.002625 0.003825 0.000304999
      vertex 0.0025 0.0039 0.000304999
      vertex 0.002625 0.003325 0.000304999
    endloop
  endfacet
  facet normal 0 0 1
    outer loop
      vertex 0.002625 0.003325 0.000304999
      vertex 0.0025 0.0032 0.000304999
      vertex 0.00325 0.0032 0.000304999
    endloop
  endfacet
  facet normal 0 0 1
    outer loop
      vertex 0.0025 0.0039 0.000304999
      vertex 0.0025 0.0032 0.000304999
      vertex 0.002625 0.003325 0.000304999
    endloop
  endfacet
  facet normal 0 0 1
    outer loop
      vertex 0.0025 0.0039 0.000304999
      vertex -0.0018 0.0032 0.000304999
      vertex 0.0025 0.0032 0.000304999
    endloop
  endfacet
  facet normal 0 0 1
    outer loop
      vertex -0.0018 0.0032 0.000304999
      vertex -0.0025 0.0039 0.000304999
      vertex -0.0018 0.0025 0.000304999
    endloop
  endfacet
  facet normal -0 0 1
    outer loop
      vertex -0.0025 0.0039 0.000304999
      vertex -0.0018 0.0032 0.000304999
      vertex 0.0025 0.0039 0.000304999
    endloop
  endfacet
  facet normal 0 0 -1
    outer loop
      vertex -0.003325 0.003125 0.000105001
      vertex -0.0032 0.00325 0.000105001
      vertex -0.003325 0.002625 0.000105001
    endloop
  endfacet
  facet normal 0 0 -1
    outer loop
      vertex -0.003825 0.003125 0.000105001
      vertex -0.0032 0.00325 0.000105001
      vertex -0.003325 0.003125 0.000105001
    endloop
  endfacet
  facet normal 0 0 -1
    outer loop
      vertex -0.00395 0.0025 0.000105001
      vertex -0.003825 0.002625 0.000105001
      vertex -0.0039 0.0025 0.000105001
    endloop
  endfacet
  facet normal -0 0 -1
    outer loop
      vertex -0.003825 0.002625 0.000105001
      vertex -0.00395 0.0025 0.000105001
      vertex -0.003825 0.003125 0.000105001
    endloop
  endfacet
  facet normal 0 0 -1
    outer loop
      vertex -0.003825 0.003125 0.000105001
      vertex -0.00395 0.00325 0.000105001
      vertex -0.0032 0.00325 0.000105001
    endloop
  endfacet
  facet normal 0 0 -1
    outer loop
      vertex -0.00395 0.00325 0.000105001
      vertex -0.003825 0.003125 0.000105001
      vertex -0.00395 0.0025 0.000105001
    endloop
  endfacet
  facet normal 0 0 -1
    outer loop
      vertex 0.0018 -0.0025 0.000105001
      vertex 0.0025 -0.0039 0.000105001
      vertex 0.0018 -0.0032 0.000105001
    endloop
  endfacet
  facet normal 0 0 -1
    outer loop
      vertex -0.0025 -0.0039 0.000105001
      vertex 0.0018 -0.0032 0.000105001
      vertex 0.0025 -0.0039 0.000105001
    endloop
  endfacet
  facet normal -0 0 -1
    outer loop
      vertex 0.0018 -0.0032 0.000105001
      vertex -0.0025 -0.0039 0.000105001
      vertex -0.0025 -0.0032 0.000105001
    endloop
  endfacet
  facet normal 0 0 -1
    outer loop
      vertex -0.0018 0.0032 0.000105001
      vertex 0.0025 0.0039 0.000105001
      vertex 0.0025 0.0032 0.000105001
    endloop
  endfacet
  facet normal 0 0 -1
    outer loop
      vertex -0.0018 0.0032 0.000105001
      vertex -0.0025 0.0039 0.000105001
      vertex 0.0025 0.0039 0.000105001
    endloop
  endfacet
  facet normal 0 0 -1
    outer loop
      vertex -0.0018 0.0025 0.000105001
      vertex -0.0025 0.0039 0.000105001
      vertex -0.0018 0.0032 0.000105001
    endloop
  endfacet
  facet normal 0 0 -1
    outer loop
      vertex -0.002625 -0.003825 0.000105001
      vertex -0.0025 -0.0039 0.000105001
      vertex -0.0025 -0.00395 0.000105001
    endloop
  endfacet
  facet normal 0 0 -1
    outer loop
      vertex -0.002625 -0.003325 0.000105001
      vertex -0.0025 -0.0039 0.000105001
      vertex -0.002625 -0.003825 0.000105001
    endloop
  endfacet
  facet normal 0 0 -1
    outer loop
      vertex -0.0025 -0.00395 0.000105001
      vertex -0.003125 -0.003825 0.000105001
      vertex -0.002625 -0.003825 0.000105001
    endloop
  endfacet
  facet normal -0 0 -1
    outer loop
      vertex -0.003125 -0.003825 0.000105001
      vertex -0.00325 -0.00395 0.000105001
      vertex -0.003125 -0.003325 0.000105001
    endloop
  endfacet
  facet normal 0 0 -1
    outer loop
      vertex -0.00325 -0.00395 0.000105001
      vertex -0.003125 -0.003825 0.000105001
      vertex -0.0025 -0.00395 0.000105001
    endloop
  endfacet
  facet normal 0 0 -1
    outer loop
      vertex -0.0025 -0.0039 0.000105001
      vertex -0.002625 -0.003325 0.000105001
      vertex -0.0025 -0.0032 0.000105001
    endloop
  endfacet
  facet normal 0 0 -1
    outer loop
      vertex -0.003125 -0.003325 0.000105001
      vertex -0.0025 -0.0032 0.000105001
      vertex -0.002625 -0.003325 0.000105001
    endloop
  endfacet
  facet normal 0 0 -1
    outer loop
      vertex -0.003125 -0.003325 0.000105001
      vertex -0.00325 -0.0032 0.000105001
      vertex -0.0025 -0.0032 0.000105001
    endloop
  endfacet
  facet normal 0 0 -1
    outer loop
      vertex -0.00325 -0.0032 0.000105001
      vertex -0.003125 -0.003325 0.000105001
      vertex -0.00325 -0.00395 0.000105001
    endloop
  endfacet
  facet normal 0 0 -1
    outer loop
      vertex 0.00325 0.0032 0.000105001
      vertex 0.003125 0.003325 0.000105001
      vertex 0.00325 0.00395 0.000105001
    endloop
  endfacet
  facet normal 0 0 -1
    outer loop
      vertex 0.00325 0.0032 0.000105001
      vertex 0.002625 0.003325 0.000105001
      vertex 0.003125 0.003325 0.000105001
    endloop
  endfacet
  facet normal 0 0 -1
    outer loop
      vertex 0.0025 0.0039 0.000105001
      vertex 0.002625 0.003325 0.000105001
      vertex 0.0025 0.0032 0.000105001
    endloop
  endfacet
  facet normal 0 0 -1
    outer loop
      vertex 0.0025 0.0032 0.000105001
      vertex 0.002625 0.003325 0.000105001
      vertex 0.00325 0.0032 0.000105001
    endloop
  endfacet
  facet normal 0 0 -1
    outer loop
      vertex 0.003125 0.003825 0.000105001
      vertex 0.00325 0.00395 0.000105001
      vertex 0.003125 0.003325 0.000105001
    endloop
  endfacet
  facet normal 0 0 -1
    outer loop
      vertex 0.002625 0.003825 0.000105001
      vertex 0.00325 0.00395 0.000105001
      vertex 0.003125 0.003825 0.000105001
    endloop
  endfacet
  facet normal 0 0 -1
    outer loop
      vertex 0.002625 0.003325 0.000105001
      vertex 0.0025 0.0039 0.000105001
      vertex 0.002625 0.003825 0.000105001
    endloop
  endfacet
  facet normal 0 0 -1
    outer loop
      vertex 0.0025 0.00395 0.000105001
      vertex 0.002625 0.003825 0.000105001
      vertex 0.0025 0.0039 0.000105001
    endloop
  endfacet
  facet normal 0 0 -1
    outer loop
      vertex 0.002625 0.003825 0.000105001
      vertex 0.0025 0.00395 0.000105001
      vertex 0.00325 0.00395 0.000105001
    endloop
  endfacet
  facet normal 0 0 -1
    outer loop
      vertex 0.003825 -0.002625 0.000105001
      vertex 0.00395 -0.0025 0.000105001
      vertex 0.00395 -0.00325 0.000105001
    endloop
  endfacet
  facet normal -0 0 -1
    outer loop
      vertex 0.00395 -0.0025 0.000105001
      vertex 0.003825 -0.002625 0.000105001
      vertex 0.0039 -0.0025 0.000105001
    endloop
  endfacet
  facet normal 0 0 -1
    outer loop
      vertex 0.003825 -0.002625 0.000105001
      vertex 0.00395 -0.00325 0.000105001
      vertex 0.003825 -0.003125 0.000105001
    endloop
  endfacet
  facet normal 0 0 -1
    outer loop
      vertex 0.00395 -0.00325 0.000105001
      vertex 0.003325 -0.003125 0.000105001
      vertex 0.003825 -0.003125 0.000105001
    endloop
  endfacet
  facet normal -0 0 -1
    outer loop
      vertex 0.003325 -0.003125 0.000105001
      vertex 0.0032 -0.00325 0.000105001
      vertex 0.003325 -0.002625 0.000105001
    endloop
  endfacet
  facet normal 0 0 -1
    outer loop
      vertex 0.0032 -0.00325 0.000105001
      vertex 0.003325 -0.003125 0.000105001
      vertex 0.00395 -0.00325 0.000105001
    endloop
  endfacet
  facet normal 0 0 -1
    outer loop
      vertex 0.003325 -0.002625 0.000105001
      vertex 0.0039 -0.0025 0.000105001
      vertex 0.003825 -0.002625 0.000105001
    endloop
  endfacet
  facet normal -0 0 -1
    outer loop
      vertex 0.0039 -0.0025 0.000105001
      vertex 0.003325 -0.002625 0.000105001
      vertex 0.0032 -0.0025 0.000105001
    endloop
  endfacet
  facet normal 0 0 -1
    outer loop
      vertex 0.0032 -0.0025 0.000105001
      vertex 0.003325 -0.002625 0.000105001
      vertex 0.0032 -0.00325 0.000105001
    endloop
  endfacet
  facet normal 0 0 -1
    outer loop
      vertex 0.0039 -0.0025 0.000105001
      vertex 0.0032 -0.0025 0.000105001
      vertex 0.0032 0.0018 0.000105001
    endloop
  endfacet
  facet normal 0 0 -1
    outer loop
      vertex 0.0039 -0.0025 0.000105001
      vertex 0.0032 0.0018 0.000105001
      vertex 0.0039 0.0025 0.000105001
    endloop
  endfacet
  facet normal 0 0 -1
    outer loop
      vertex 0.0025 0.0018 0.000105001
      vertex 0.0039 0.0025 0.000105001
      vertex 0.0032 0.0018 0.000105001
    endloop
  endfacet
  facet normal 0 0 -1
    outer loop
      vertex 0.0025 -0.0039 0.000105001
      vertex 0.0018 -0.0025 0.000105001
      vertex 0.0025 0.0018 0.000105001
    endloop
  endfacet
  facet normal 0 0 -1
    outer loop
      vertex 0.0025 0.0018 0.000105001
      vertex -0.0018 0.0025 0.000105001
      vertex 0.0039 0.0025 0.000105001
    endloop
  endfacet
  facet normal 0 0 -1
    outer loop
      vertex 0.0018 -0.0025 0.000105001
      vertex -0.0018 0.0025 0.000105001
      vertex 0.0025 0.0018 0.000105001
    endloop
  endfacet
  facet normal 0 0 -1
    outer loop
      vertex -0.0025 0.0039 0.000105001
      vertex -0.0018 0.0025 0.000105001
      vertex -0.0025 -0.0018 0.000105001
    endloop
  endfacet
  facet normal 0 0 -1
    outer loop
      vertex 0.0018 -0.0025 0.000105001
      vertex -0.0025 -0.0018 0.000105001
      vertex -0.0018 0.0025 0.000105001
    endloop
  endfacet
  facet normal 0 0 -1
    outer loop
      vertex -0.0039 -0.0025 0.000105001
      vertex -0.0025 -0.0018 0.000105001
      vertex 0.0018 -0.0025 0.000105001
    endloop
  endfacet
  facet normal 0 0 -1
    outer loop
      vertex -0.0039 0.0025 0.000105001
      vertex -0.0032 0.0025 0.000105001
      vertex -0.0032 -0.0018 0.000105001
    endloop
  endfacet
  facet normal 0 0 -1
    outer loop
      vertex -0.0032 0.0025 0.000105001
      vertex -0.003325 0.002625 0.000105001
      vertex -0.0032 0.00325 0.000105001
    endloop
  endfacet
  facet normal 0 0 -1
    outer loop
      vertex -0.0039 0.0025 0.000105001
      vertex -0.003325 0.002625 0.000105001
      vertex -0.0032 0.0025 0.000105001
    endloop
  endfacet
  facet normal -0 0 -1
    outer loop
      vertex -0.003325 0.002625 0.000105001
      vertex -0.0039 0.0025 0.000105001
      vertex -0.003825 0.002625 0.000105001
    endloop
  endfacet
  facet normal 0 0 -1
    outer loop
      vertex -0.0039 0.0025 0.000105001
      vertex -0.0032 -0.0018 0.000105001
      vertex -0.0039 -0.0025 0.000105001
    endloop
  endfacet
  facet normal -0 0 -1
    outer loop
      vertex -0.0025 -0.0018 0.000105001
      vertex -0.0039 -0.0025 0.000105001
      vertex -0.0032 -0.0018 0.000105001
    endloop
  endfacet
  facet normal -1 0 0
    outer loop
      vertex 0.0032 -0.00325 0.000105001
      vertex 0.0032 -0.0025 0.000304999
      vertex 0.0032 -0.0025 0.000105001
    endloop
  endfacet
  facet normal -1 -0 0
    outer loop
      vertex 0.0032 -0.0025 0.000304999
      vertex 0.0032 -0.00325 0.000105001
      vertex 0.0032 -0.00325 0.000304999
    endloop
  endfacet
  facet normal 0 1 -0
    outer loop
      vertex 0.00395 -0.0025 0.000105001
      vertex 0.0039 -0.0025 0.000304999
      vertex 0.00395 -0.0025 0.000304999
    endloop
  endfacet
  facet normal 0 1 0
    outer loop
      vertex 0.0039 -0.0025 0.000304999
      vertex 0.00395 -0.0025 0.000105001
      vertex 0.0039 -0.0025 0.000105001
    endloop
  endfacet
  facet normal 0 -1 0
    outer loop
      vertex 0.0032 -0.00325 0.000105001
      vertex 0.00395 -0.00325 0.000304999
      vertex 0.0032 -0.00325 0.000304999
    endloop
  endfacet
  facet normal 0 -1 -0
    outer loop
      vertex 0.00395 -0.00325 0.000304999
      vertex 0.0032 -0.00325 0.000105001
      vertex 0.00395 -0.00325 0.000105001
    endloop
  endfacet
  facet normal -1 0 0
    outer loop
      vertex 0.003825 -0.003125 0.000105001
      vertex 0.003825 -0.002625 0.000304999
      vertex 0.003825 -0.002625 0.000105001
    endloop
  endfacet
  facet normal -1 -0 0
    outer loop
      vertex 0.003825 -0.002625 0.000304999
      vertex 0.003825 -0.003125 0.000105001
      vertex 0.003825 -0.003125 0.000304999
    endloop
  endfacet
  facet normal 1 -0 0
    outer loop
      vertex 0.003325 -0.003125 0.000304999
      vertex 0.003325 -0.002625 0.000105001
      vertex 0.003325 -0.002625 0.000304999
    endloop
  endfacet
  facet normal 1 0 0
    outer loop
      vertex 0.003325 -0.002625 0.000105001
      vertex 0.003325 -0.003125 0.000304999
      vertex 0.003325 -0.003125 0.000105001
    endloop
  endfacet
  facet normal 0 -1 0
    outer loop
      vertex 0.003325 -0.002625 0.000105001
      vertex 0.003825 -0.002625 0.000304999
      vertex 0.003325 -0.002625 0.000304999
    endloop
  endfacet
  facet normal 0 -1 -0
    outer loop
      vertex 0.003825 -0.002625 0.000304999
      vertex 0.003325 -0.002625 0.000105001
      vertex 0.003825 -0.002625 0.000105001
    endloop
  endfacet
  facet normal 0 1 -0
    outer loop
      vertex 0.003825 -0.003125 0.000105001
      vertex 0.003325 -0.003125 0.000304999
      vertex 0.003825 -0.003125 0.000304999
    endloop
  endfacet
  facet normal 0 1 0
    outer loop
      vertex 0.003325 -0.003125 0.000304999
      vertex 0.003825 -0.003125 0.000105001
      vertex 0.003325 -0.003125 0.000105001
    endloop
  endfacet
  facet normal 1 -0 0
    outer loop
      vertex 0.0039 -0.0025 0.000304999
      vertex 0.0039 0.0025 0.000105001
      vertex 0.0039 0.0025 0.000304999
    endloop
  endfacet
  facet normal 1 0 0
    outer loop
      vertex 0.0039 0.0025 0.000105001
      vertex 0.0039 -0.0025 0.000304999
      vertex 0.0039 -0.0025 0.000105001
    endloop
  endfacet
  facet normal -1 0 0
    outer loop
      vertex 0.0032 -0.0025 0.000105001
      vertex 0.0032 0.0018 0.000304999
      vertex 0.0032 0.0018 0.000105001
    endloop
  endfacet
  facet normal -1 -0 0
    outer loop
      vertex 0.0032 0.0018 0.000304999
      vertex 0.0032 -0.0025 0.000105001
      vertex 0.0032 -0.0025 0.000304999
    endloop
  endfacet
  facet normal 0 1 -0
    outer loop
      vertex 0.0039 0.0025 0.000105001
      vertex -0.0018 0.0025 0.000304999
      vertex 0.0039 0.0025 0.000304999
    endloop
  endfacet
  facet normal 0 1 0
    outer loop
      vertex -0.0018 0.0025 0.000304999
      vertex 0.0039 0.0025 0.000105001
      vertex -0.0018 0.0025 0.000105001
    endloop
  endfacet
  facet normal 1 -0 0
    outer loop
      vertex 0.0025 -0.0039 0.000304999
      vertex 0.0025 0.0018 0.000105001
      vertex 0.0025 0.0018 0.000304999
    endloop
  endfacet
  facet normal 1 0 0
    outer loop
      vertex 0.0025 0.0018 0.000105001
      vertex 0.0025 -0.0039 0.000304999
      vertex 0.0025 -0.0039 0.000105001
    endloop
  endfacet
  facet normal 0 -1 0
    outer loop
      vertex 0.0025 0.0018 0.000105001
      vertex 0.0032 0.0018 0.000304999
      vertex 0.0025 0.0018 0.000304999
    endloop
  endfacet
  facet normal 0 -1 -0
    outer loop
      vertex 0.0032 0.0018 0.000304999
      vertex 0.0025 0.0018 0.000105001
      vertex 0.0032 0.0018 0.000105001
    endloop
  endfacet
  facet normal 0 1 -0
    outer loop
      vertex 0.00325 0.00395 0.000105001
      vertex 0.0025 0.00395 0.000304999
      vertex 0.00325 0.00395 0.000304999
    endloop
  endfacet
  facet normal 0 1 0
    outer loop
      vertex 0.0025 0.00395 0.000304999
      vertex 0.00325 0.00395 0.000105001
      vertex 0.0025 0.00395 0.000105001
    endloop
  endfacet
  facet normal 0 -1 0
    outer loop
      vertex 0.0025 0.0032 0.000105001
      vertex 0.00325 0.0032 0.000304999
      vertex 0.0025 0.0032 0.000304999
    endloop
  endfacet
  facet normal 0 -1 -0
    outer loop
      vertex 0.00325 0.0032 0.000304999
      vertex 0.0025 0.0032 0.000105001
      vertex 0.00325 0.0032 0.000105001
    endloop
  endfacet
  facet normal -1 0 0
    outer loop
      vertex 0.0025 0.0039 0.000105001
      vertex 0.0025 0.00395 0.000304999
      vertex 0.0025 0.00395 0.000105001
    endloop
  endfacet
  facet normal -1 -0 0
    outer loop
      vertex 0.0025 0.00395 0.000304999
      vertex 0.0025 0.0039 0.000105001
      vertex 0.0025 0.0039 0.000304999
    endloop
  endfacet
  facet normal 1 -0 0
    outer loop
      vertex 0.00325 0.0032 0.000304999
      vertex 0.00325 0.00395 0.000105001
      vertex 0.00325 0.00395 0.000304999
    endloop
  endfacet
  facet normal 1 0 0
    outer loop
      vertex 0.00325 0.00395 0.000105001
      vertex 0.00325 0.0032 0.000304999
      vertex 0.00325 0.0032 0.000105001
    endloop
  endfacet
  facet normal 0 -1 0
    outer loop
      vertex 0.002625 0.003825 0.000105001
      vertex 0.003125 0.003825 0.000304999
      vertex 0.002625 0.003825 0.000304999
    endloop
  endfacet
  facet normal 0 -1 -0
    outer loop
      vertex 0.003125 0.003825 0.000304999
      vertex 0.002625 0.003825 0.000105001
      vertex 0.003125 0.003825 0.000105001
    endloop
  endfacet
  facet normal 0 1 -0
    outer loop
      vertex 0.003125 0.003325 0.000105001
      vertex 0.002625 0.003325 0.000304999
      vertex 0.003125 0.003325 0.000304999
    endloop
  endfacet
  facet normal 0 1 0
    outer loop
      vertex 0.002625 0.003325 0.000304999
      vertex 0.003125 0.003325 0.000105001
      vertex 0.002625 0.003325 0.000105001
    endloop
  endfacet
  facet normal 1 -0 0
    outer loop
      vertex 0.002625 0.003325 0.000304999
      vertex 0.002625 0.003825 0.000105001
      vertex 0.002625 0.003825 0.000304999
    endloop
  endfacet
  facet normal 1 0 0
    outer loop
      vertex 0.002625 0.003825 0.000105001
      vertex 0.002625 0.003325 0.000304999
      vertex 0.002625 0.003325 0.000105001
    endloop
  endfacet
  facet normal -1 0 0
    outer loop
      vertex 0.003125 0.003325 0.000105001
      vertex 0.003125 0.003825 0.000304999
      vertex 0.003125 0.003825 0.000105001
    endloop
  endfacet
  facet normal -1 -0 0
    outer loop
      vertex 0.003125 0.003825 0.000304999
      vertex 0.003125 0.003325 0.000105001
      vertex 0.003125 0.003325 0.000304999
    endloop
  endfacet
  facet normal 0 1 -0
    outer loop
      vertex 0.0025 0.0039 0.000105001
      vertex -0.0025 0.0039 0.000304999
      vertex 0.0025 0.0039 0.000304999
    endloop
  endfacet
  facet normal 0 1 0
    outer loop
      vertex -0.0025 0.0039 0.000304999
      vertex 0.0025 0.0039 0.000105001
      vertex -0.0025 0.0039 0.000105001
    endloop
  endfacet
  facet normal 0 -1 0
    outer loop
      vertex -0.0018 0.0032 0.000105001
      vertex 0.0025 0.0032 0.000304999
      vertex -0.0018 0.0032 0.000304999
    endloop
  endfacet
  facet normal 0 -1 -0
    outer loop
      vertex 0.0025 0.0032 0.000304999
      vertex -0.0018 0.0032 0.000105001
      vertex 0.0025 0.0032 0.000105001
    endloop
  endfacet
  facet normal -1 0 0
    outer loop
      vertex -0.0025 -0.0018 0.000105001
      vertex -0.0025 0.0039 0.000304999
      vertex -0.0025 0.0039 0.000105001
    endloop
  endfacet
  facet normal -1 -0 0
    outer loop
      vertex -0.0025 0.0039 0.000304999
      vertex -0.0025 -0.0018 0.000105001
      vertex -0.0025 -0.0018 0.000304999
    endloop
  endfacet
  facet normal 1 -0 0
    outer loop
      vertex -0.0018 0.0025 0.000304999
      vertex -0.0018 0.0032 0.000105001
      vertex -0.0018 0.0032 0.000304999
    endloop
  endfacet
  facet normal 1 0 0
    outer loop
      vertex -0.0018 0.0032 0.000105001
      vertex -0.0018 0.0025 0.000304999
      vertex -0.0018 0.0025 0.000105001
    endloop
  endfacet
  facet normal -1 0 0
    outer loop
      vertex -0.00395 0.0025 0.000105001
      vertex -0.00395 0.00325 0.000304999
      vertex -0.00395 0.00325 0.000105001
    endloop
  endfacet
  facet normal -1 -0 0
    outer loop
      vertex -0.00395 0.00325 0.000304999
      vertex -0.00395 0.0025 0.000105001
      vertex -0.00395 0.0025 0.000304999
    endloop
  endfacet
  facet normal 1 -0 0
    outer loop
      vertex -0.0032 0.0025 0.000304999
      vertex -0.0032 0.00325 0.000105001
      vertex -0.0032 0.00325 0.000304999
    endloop
  endfacet
  facet normal 1 0 0
    outer loop
      vertex -0.0032 0.00325 0.000105001
      vertex -0.0032 0.0025 0.000304999
      vertex -0.0032 0.0025 0.000105001
    endloop
  endfacet
  facet normal 0 -1 0
    outer loop
      vertex -0.00395 0.0025 0.000105001
      vertex -0.0039 0.0025 0.000304999
      vertex -0.00395 0.0025 0.000304999
    endloop
  endfacet
  facet normal 0 -1 -0
    outer loop
      vertex -0.0039 0.0025 0.000304999
      vertex -0.00395 0.0025 0.000105001
      vertex -0.0039 0.0025 0.000105001
    endloop
  endfacet
  facet normal 0 1 -0
    outer loop
      vertex -0.0032 0.00325 0.000105001
      vertex -0.00395 0.00325 0.000304999
      vertex -0.0032 0.00325 0.000304999
    endloop
  endfacet
  facet normal 0 1 0
    outer loop
      vertex -0.00395 0.00325 0.000304999
      vertex -0.0032 0.00325 0.000105001
      vertex -0.00395 0.00325 0.000105001
    endloop
  endfacet
  facet normal 1 -0 0
    outer loop
      vertex -0.003825 0.002625 0.000304999
      vertex -0.003825 0.003125 0.000105001
      vertex -0.003825 0.003125 0.000304999
    endloop
  endfacet
  facet normal 1 0 0
    outer loop
      vertex -0.003825 0.003125 0.000105001
      vertex -0.003825 0.002625 0.000304999
      vertex -0.003825 0.002625 0.000105001
    endloop
  endfacet
  facet normal -1 0 0
    outer loop
      vertex -0.003325 0.002625 0.000105001
      vertex -0.003325 0.003125 0.000304999
      vertex -0.003325 0.003125 0.000105001
    endloop
  endfacet
  facet normal -1 -0 0
    outer loop
      vertex -0.003325 0.003125 0.000304999
      vertex -0.003325 0.002625 0.000105001
      vertex -0.003325 0.002625 0.000304999
    endloop
  endfacet
  facet normal 0 1 -0
    outer loop
      vertex -0.003325 0.002625 0.000105001
      vertex -0.003825 0.002625 0.000304999
      vertex -0.003325 0.002625 0.000304999
    endloop
  endfacet
  facet normal 0 1 0
    outer loop
      vertex -0.003825 0.002625 0.000304999
      vertex -0.003325 0.002625 0.000105001
      vertex -0.003825 0.002625 0.000105001
    endloop
  endfacet
  facet normal 0 -1 0
    outer loop
      vertex -0.003825 0.003125 0.000105001
      vertex -0.003325 0.003125 0.000304999
      vertex -0.003825 0.003125 0.000304999
    endloop
  endfacet
  facet normal 0 -1 -0
    outer loop
      vertex -0.003325 0.003125 0.000304999
      vertex -0.003825 0.003125 0.000105001
      vertex -0.003325 0.003125 0.000105001
    endloop
  endfacet
  facet normal -1 0 0
    outer loop
      vertex -0.0039 -0.0025 0.000105001
      vertex -0.0039 0.0025 0.000304999
      vertex -0.0039 0.0025 0.000105001
    endloop
  endfacet
  facet normal -1 -0 0
    outer loop
      vertex -0.0039 0.0025 0.000304999
      vertex -0.0039 -0.0025 0.000105001
      vertex -0.0039 -0.0025 0.000304999
    endloop
  endfacet
  facet normal 1 -0 0
    outer loop
      vertex -0.0032 -0.0018 0.000304999
      vertex -0.0032 0.0025 0.000105001
      vertex -0.0032 0.0025 0.000304999
    endloop
  endfacet
  facet normal 1 0 0
    outer loop
      vertex -0.0032 0.0025 0.000105001
      vertex -0.0032 -0.0018 0.000304999
      vertex -0.0032 -0.0018 0.000105001
    endloop
  endfacet
  facet normal 0 -1 0
    outer loop
      vertex -0.0039 -0.0025 0.000105001
      vertex 0.0018 -0.0025 0.000304999
      vertex -0.0039 -0.0025 0.000304999
    endloop
  endfacet
  facet normal 0 -1 -0
    outer loop
      vertex 0.0018 -0.0025 0.000304999
      vertex -0.0039 -0.0025 0.000105001
      vertex 0.0018 -0.0025 0.000105001
    endloop
  endfacet
  facet normal 0 1 -0
    outer loop
      vertex -0.0025 -0.0018 0.000105001
      vertex -0.0032 -0.0018 0.000304999
      vertex -0.0025 -0.0018 0.000304999
    endloop
  endfacet
  facet normal 0 1 0
    outer loop
      vertex -0.0032 -0.0018 0.000304999
      vertex -0.0025 -0.0018 0.000105001
      vertex -0.0032 -0.0018 0.000105001
    endloop
  endfacet
  facet normal 0 -1 0
    outer loop
      vertex -0.00325 -0.00395 0.000105001
      vertex -0.0025 -0.00395 0.000304999
      vertex -0.00325 -0.00395 0.000304999
    endloop
  endfacet
  facet normal 0 -1 -0
    outer loop
      vertex -0.0025 -0.00395 0.000304999
      vertex -0.00325 -0.00395 0.000105001
      vertex -0.0025 -0.00395 0.000105001
    endloop
  endfacet
  facet normal 0 1 -0
    outer loop
      vertex -0.0025 -0.0032 0.000105001
      vertex -0.00325 -0.0032 0.000304999
      vertex -0.0025 -0.0032 0.000304999
    endloop
  endfacet
  facet normal 0 1 0
    outer loop
      vertex -0.00325 -0.0032 0.000304999
      vertex -0.0025 -0.0032 0.000105001
      vertex -0.00325 -0.0032 0.000105001
    endloop
  endfacet
  facet normal 1 -0 0
    outer loop
      vertex -0.0025 -0.00395 0.000304999
      vertex -0.0025 -0.0039 0.000105001
      vertex -0.0025 -0.0039 0.000304999
    endloop
  endfacet
  facet normal 1 0 0
    outer loop
      vertex -0.0025 -0.0039 0.000105001
      vertex -0.0025 -0.00395 0.000304999
      vertex -0.0025 -0.00395 0.000105001
    endloop
  endfacet
  facet normal -1 0 0
    outer loop
      vertex -0.00325 -0.00395 0.000105001
      vertex -0.00325 -0.0032 0.000304999
      vertex -0.00325 -0.0032 0.000105001
    endloop
  endfacet
  facet normal -1 -0 0
    outer loop
      vertex -0.00325 -0.0032 0.000304999
      vertex -0.00325 -0.00395 0.000105001
      vertex -0.00325 -0.00395 0.000304999
    endloop
  endfacet
  facet normal 0 1 -0
    outer loop
      vertex -0.002625 -0.003825 0.000105001
      vertex -0.003125 -0.003825 0.000304999
      vertex -0.002625 -0.003825 0.000304999
    endloop
  endfacet
  facet normal 0 1 0
    outer loop
      vertex -0.003125 -0.003825 0.000304999
      vertex -0.002625 -0.003825 0.000105001
      vertex -0.003125 -0.003825 0.000105001
    endloop
  endfacet
  facet normal 0 -1 0
    outer loop
      vertex -0.003125 -0.003325 0.000105001
      vertex -0.002625 -0.003325 0.000304999
      vertex -0.003125 -0.003325 0.000304999
    endloop
  endfacet
  facet normal 0 -1 -0
    outer loop
      vertex -0.002625 -0.003325 0.000304999
      vertex -0.003125 -0.003325 0.000105001
      vertex -0.002625 -0.003325 0.000105001
    endloop
  endfacet
  facet normal -1 0 0
    outer loop
      vertex -0.002625 -0.003825 0.000105001
      vertex -0.002625 -0.003325 0.000304999
      vertex -0.002625 -0.003325 0.000105001
    endloop
  endfacet
  facet normal -1 -0 0
    outer loop
      vertex -0.002625 -0.003325 0.000304999
      vertex -0.002625 -0.003825 0.000105001
      vertex -0.002625 -0.003825 0.000304999
    endloop
  endfacet
  facet normal 1 -0 0
    outer loop
      vertex -0.003125 -0.003825 0.000304999
      vertex -0.003125 -0.003325 0.000105001
      vertex -0.003125 -0.003325 0.000304999
    endloop
  endfacet
  facet normal 1 0 0
    outer loop
      vertex -0.003125 -0.003325 0.000105001
      vertex -0.003125 -0.003825 0.000304999
      vertex -0.003125 -0.003825 0.000105001
    endloop
  endfacet
  facet normal 0 -1 0
    outer loop
      vertex -0.0025 -0.0039 0.000105001
      vertex 0.0025 -0.0039 0.000304999
      vertex -0.0025 -0.0039 0.000304999
    endloop
  endfacet
  facet normal 0 -1 -0
    outer loop
      vertex 0.0025 -0.0039 0.000304999
      vertex -0.0025 -0.0039 0.000105001
      vertex 0.0025 -0.0039 0.000105001
    endloop
  endfacet
  facet normal 0 1 -0
    outer loop
      vertex 0.0018 -0.0032 0.000105001
      vertex -0.0025 -0.0032 0.000304999
      vertex 0.0018 -0.0032 0.000304999
    endloop
  endfacet
  facet normal 0 1 0
    outer loop
      vertex -0.0025 -0.0032 0.000304999
      vertex 0.0018 -0.0032 0.000105001
      vertex -0.0025 -0.0032 0.000105001
    endloop
  endfacet
  facet normal -1 0 0
    outer loop
      vertex 0.0018 -0.0032 0.000105001
      vertex 0.0018 -0.0025 0.000304999
      vertex 0.0018 -0.0025 0.000105001
    endloop
  endfacet
  facet normal -1 -0 0
    outer loop
      vertex 0.0018 -0.0025 0.000304999
      vertex 0.0018 -0.0032 0.000105001
      vertex 0.0018 -0.0032 0.000304999
    endloop
  endfacet
endsolid OpenSCAD_Model
