solid OpenSCAD_Model
  facet normal 1 -0 0
    outer loop
      vertex 0.00415 -0.00325 0.000304999
      vertex 0.00415 -0.0025 0.000105001
      vertex 0.00415 -0.0025 0.000304999
    endloop
  endfacet
  facet normal 1 0 0
    outer loop
      vertex 0.00415 -0.0025 0.000105001
      vertex 0.00415 -0.00325 0.000304999
      vertex 0.00415 -0.00325 0.000105001
    endloop
  endfacet
  facet normal 0 0 1
    outer loop
      vertex -0.0034 0.00325 0.000304999
      vertex -0.003525 0.003125 0.000304999
      vertex -0.0034 0.0025 0.000304999
    endloop
  endfacet
  facet normal 0 0 1
    outer loop
      vertex -0.0034 0.00325 0.000304999
      vertex -0.004025 0.003125 0.000304999
      vertex -0.003525 0.003125 0.000304999
    endloop
  endfacet
  facet normal 0 0 1
    outer loop
      vertex -0.004025 0.003125 0.000304999
      vertex -0.00415 0.00325 0.000304999
      vertex -0.004025 0.002625 0.000304999
    endloop
  endfacet
  facet normal -0 0 1
    outer loop
      vertex -0.00415 0.00325 0.000304999
      vertex -0.004025 0.003125 0.000304999
      vertex -0.0034 0.00325 0.000304999
    endloop
  endfacet
  facet normal 0 0 1
    outer loop
      vertex -0.0016 0.0034 0.000304999
      vertex 0.0025 0.00415 0.000304999
      vertex 0.0025 0.0043 0.000304999
    endloop
  endfacet
  facet normal 0 0 1
    outer loop
      vertex 0.0025 0.00415 0.000304999
      vertex -0.0016 0.0034 0.000304999
      vertex 0.0025 0.0034 0.000304999
    endloop
  endfacet
  facet normal 0 0 1
    outer loop
      vertex -0.0016 0.0034 0.000304999
      vertex -0.0025 0.0043 0.000304999
      vertex -0.0016 0.0025 0.000304999
    endloop
  endfacet
  facet normal -0 0 1
    outer loop
      vertex -0.0025 0.0043 0.000304999
      vertex -0.0016 0.0034 0.000304999
      vertex 0.0025 0.0043 0.000304999
    endloop
  endfacet
  facet normal -0 0 1
    outer loop
      vertex 0.0034 0.0016 0.000304999
      vertex 0.0043 -0.0025 0.000304999
      vertex 0.0043 0.0025 0.000304999
    endloop
  endfacet
  facet normal 0 0 1
    outer loop
      vertex 0.00415 -0.0025 0.000304999
      vertex 0.004025 -0.002625 0.000304999
      vertex 0.00415 -0.00325 0.000304999
    endloop
  endfacet
  facet normal 0 0 1
    outer loop
      vertex 0.0043 -0.0025 0.000304999
      vertex 0.0034 0.0016 0.000304999
      vertex 0.00415 -0.0025 0.000304999
    endloop
  endfacet
  facet normal 0 0 1
    outer loop
      vertex 0.0034 -0.0025 0.000304999
      vertex 0.00415 -0.0025 0.000304999
      vertex 0.0034 0.0016 0.000304999
    endloop
  endfacet
  facet normal 0 0 1
    outer loop
      vertex 0.003525 -0.002625 0.000304999
      vertex 0.0034 -0.0025 0.000304999
      vertex 0.003525 -0.003125 0.000304999
    endloop
  endfacet
  facet normal 0 0 1
    outer loop
      vertex 0.00415 -0.0025 0.000304999
      vertex 0.0034 -0.0025 0.000304999
      vertex 0.004025 -0.002625 0.000304999
    endloop
  endfacet
  facet normal 0 0 1
    outer loop
      vertex 0.004025 -0.002625 0.000304999
      vertex 0.0034 -0.0025 0.000304999
      vertex 0.003525 -0.002625 0.000304999
    endloop
  endfacet
  facet normal 0 0 1
    outer loop
      vertex 0.0043 0.0025 0.000304999
      vertex 0.0025 0.0016 0.000304999
      vertex 0.0034 0.0016 0.000304999
    endloop
  endfacet
  facet normal 0 0 1
    outer loop
      vertex 0.0025 0.0016 0.000304999
      vertex 0.0016 -0.0025 0.000304999
      vertex 0.0025 -0.0043 0.000304999
    endloop
  endfacet
  facet normal -0 0 1
    outer loop
      vertex -0.0016 0.0025 0.000304999
      vertex 0.0025 0.0016 0.000304999
      vertex 0.0043 0.0025 0.000304999
    endloop
  endfacet
  facet normal 0 0 1
    outer loop
      vertex -0.0016 0.0025 0.000304999
      vertex 0.0016 -0.0025 0.000304999
      vertex 0.0025 0.0016 0.000304999
    endloop
  endfacet
  facet normal 0 0 1
    outer loop
      vertex -0.0025 -0.0016 0.000304999
      vertex -0.0016 0.0025 0.000304999
      vertex -0.0025 0.0043 0.000304999
    endloop
  endfacet
  facet normal -0 0 1
    outer loop
      vertex -0.0025 -0.0016 0.000304999
      vertex 0.0016 -0.0025 0.000304999
      vertex -0.0016 0.0025 0.000304999
    endloop
  endfacet
  facet normal 0 0 1
    outer loop
      vertex -0.0043 -0.0025 0.000304999
      vertex -0.0025 -0.0016 0.000304999
      vertex -0.0034 -0.0016 0.000304999
    endloop
  endfacet
  facet normal -0 0 1
    outer loop
      vertex -0.003525 0.002625 0.000304999
      vertex -0.0034 0.0025 0.000304999
      vertex -0.003525 0.003125 0.000304999
    endloop
  endfacet
  facet normal 0 0 1
    outer loop
      vertex -0.00415 0.0025 0.000304999
      vertex -0.0034 0.0025 0.000304999
      vertex -0.003525 0.002625 0.000304999
    endloop
  endfacet
  facet normal 0 0 1
    outer loop
      vertex -0.00415 0.0025 0.000304999
      vertex -0.003525 0.002625 0.000304999
      vertex -0.004025 0.002625 0.000304999
    endloop
  endfacet
  facet normal 0 0 1
    outer loop
      vertex -0.00415 0.0025 0.000304999
      vertex -0.004025 0.002625 0.000304999
      vertex -0.00415 0.00325 0.000304999
    endloop
  endfacet
  facet normal 0 0 1
    outer loop
      vertex -0.0034 0.0025 0.000304999
      vertex -0.00415 0.0025 0.000304999
      vertex -0.0034 -0.0016 0.000304999
    endloop
  endfacet
  facet normal -0 0 1
    outer loop
      vertex -0.0043 0.0025 0.000304999
      vertex -0.0034 -0.0016 0.000304999
      vertex -0.00415 0.0025 0.000304999
    endloop
  endfacet
  facet normal 0 0 1
    outer loop
      vertex -0.0025 -0.0016 0.000304999
      vertex -0.0043 -0.0025 0.000304999
      vertex 0.0016 -0.0025 0.000304999
    endloop
  endfacet
  facet normal 0 0 1
    outer loop
      vertex -0.0043 -0.0025 0.000304999
      vertex -0.0034 -0.0016 0.000304999
      vertex -0.0043 0.0025 0.000304999
    endloop
  endfacet
  facet normal -0 0 1
    outer loop
      vertex 0.004025 -0.003125 0.000304999
      vertex 0.00415 -0.00325 0.000304999
      vertex 0.004025 -0.002625 0.000304999
    endloop
  endfacet
  facet normal -0 0 1
    outer loop
      vertex 0.003525 -0.003125 0.000304999
      vertex 0.00415 -0.00325 0.000304999
      vertex 0.004025 -0.003125 0.000304999
    endloop
  endfacet
  facet normal 0 0 1
    outer loop
      vertex 0.003525 -0.003125 0.000304999
      vertex 0.0034 -0.00325 0.000304999
      vertex 0.00415 -0.00325 0.000304999
    endloop
  endfacet
  facet normal 0 0 1
    outer loop
      vertex 0.0034 -0.00325 0.000304999
      vertex 0.003525 -0.003125 0.000304999
      vertex 0.0034 -0.0025 0.000304999
    endloop
  endfacet
  facet normal -0 0 1
    outer loop
      vertex 0.0016 -0.0034 0.000304999
      vertex 0.0025 -0.0043 0.000304999
      vertex 0.0016 -0.0025 0.000304999
    endloop
  endfacet
  facet normal 0 0 1
    outer loop
      vertex -0.0025 -0.00415 0.000304999
      vertex 0.0016 -0.0034 0.000304999
      vertex -0.0025 -0.0034 0.000304999
    endloop
  endfacet
  facet normal 0 0 1
    outer loop
      vertex -0.0025 -0.0043 0.000304999
      vertex 0.0016 -0.0034 0.000304999
      vertex -0.0025 -0.00415 0.000304999
    endloop
  endfacet
  facet normal 0 0 1
    outer loop
      vertex 0.0016 -0.0034 0.000304999
      vertex -0.0025 -0.0043 0.000304999
      vertex 0.0025 -0.0043 0.000304999
    endloop
  endfacet
  facet normal 0 0 1
    outer loop
      vertex -0.0025 -0.0034 0.000304999
      vertex -0.002625 -0.003525 0.000304999
      vertex -0.0025 -0.00415 0.000304999
    endloop
  endfacet
  facet normal 0 0 1
    outer loop
      vertex -0.0025 -0.0034 0.000304999
      vertex -0.003125 -0.003525 0.000304999
      vertex -0.002625 -0.003525 0.000304999
    endloop
  endfacet
  facet normal 0 0 1
    outer loop
      vertex -0.003125 -0.003525 0.000304999
      vertex -0.00325 -0.0034 0.000304999
      vertex -0.003125 -0.004025 0.000304999
    endloop
  endfacet
  facet normal -0 0 1
    outer loop
      vertex -0.00325 -0.0034 0.000304999
      vertex -0.003125 -0.003525 0.000304999
      vertex -0.0025 -0.0034 0.000304999
    endloop
  endfacet
  facet normal -0 0 1
    outer loop
      vertex -0.002625 -0.004025 0.000304999
      vertex -0.0025 -0.00415 0.000304999
      vertex -0.002625 -0.003525 0.000304999
    endloop
  endfacet
  facet normal -0 0 1
    outer loop
      vertex -0.003125 -0.004025 0.000304999
      vertex -0.0025 -0.00415 0.000304999
      vertex -0.002625 -0.004025 0.000304999
    endloop
  endfacet
  facet normal 0 0 1
    outer loop
      vertex -0.003125 -0.004025 0.000304999
      vertex -0.00325 -0.00415 0.000304999
      vertex -0.0025 -0.00415 0.000304999
    endloop
  endfacet
  facet normal 0 0 1
    outer loop
      vertex -0.00325 -0.00415 0.000304999
      vertex -0.003125 -0.004025 0.000304999
      vertex -0.00325 -0.0034 0.000304999
    endloop
  endfacet
  facet normal 0 0 1
    outer loop
      vertex 0.00325 0.00415 0.000304999
      vertex 0.003125 0.004025 0.000304999
      vertex 0.00325 0.0034 0.000304999
    endloop
  endfacet
  facet normal 0 0 1
    outer loop
      vertex 0.00325 0.00415 0.000304999
      vertex 0.002625 0.004025 0.000304999
      vertex 0.003125 0.004025 0.000304999
    endloop
  endfacet
  facet normal 0 0 1
    outer loop
      vertex 0.002625 0.004025 0.000304999
      vertex 0.0025 0.00415 0.000304999
      vertex 0.002625 0.003525 0.000304999
    endloop
  endfacet
  facet normal -0 0 1
    outer loop
      vertex 0.0025 0.00415 0.000304999
      vertex 0.002625 0.004025 0.000304999
      vertex 0.00325 0.00415 0.000304999
    endloop
  endfacet
  facet normal -0 0 1
    outer loop
      vertex 0.003125 0.003525 0.000304999
      vertex 0.00325 0.0034 0.000304999
      vertex 0.003125 0.004025 0.000304999
    endloop
  endfacet
  facet normal -0 0 1
    outer loop
      vertex 0.002625 0.003525 0.000304999
      vertex 0.00325 0.0034 0.000304999
      vertex 0.003125 0.003525 0.000304999
    endloop
  endfacet
  facet normal 0 0 1
    outer loop
      vertex 0.002625 0.003525 0.000304999
      vertex 0.0025 0.0034 0.000304999
      vertex 0.00325 0.0034 0.000304999
    endloop
  endfacet
  facet normal 0 0 1
    outer loop
      vertex 0.0025 0.0034 0.000304999
      vertex 0.002625 0.003525 0.000304999
      vertex 0.0025 0.00415 0.000304999
    endloop
  endfacet
  facet normal 0 0 -1
    outer loop
      vertex -0.003525 0.003125 0.000105001
      vertex -0.0034 0.00325 0.000105001
      vertex -0.003525 0.002625 0.000105001
    endloop
  endfacet
  facet normal 0 0 -1
    outer loop
      vertex -0.004025 0.003125 0.000105001
      vertex -0.0034 0.00325 0.000105001
      vertex -0.003525 0.003125 0.000105001
    endloop
  endfacet
  facet normal 0 0 -1
    outer loop
      vertex -0.004025 0.003125 0.000105001
      vertex -0.00415 0.00325 0.000105001
      vertex -0.0034 0.00325 0.000105001
    endloop
  endfacet
  facet normal 0 0 -1
    outer loop
      vertex -0.00415 0.00325 0.000105001
      vertex -0.004025 0.003125 0.000105001
      vertex -0.00415 0.0025 0.000105001
    endloop
  endfacet
  facet normal 0 0 -1
    outer loop
      vertex 0.0016 -0.0025 0.000105001
      vertex 0.0025 -0.0043 0.000105001
      vertex 0.0016 -0.0034 0.000105001
    endloop
  endfacet
  facet normal 0 0 -1
    outer loop
      vertex -0.0025 -0.0043 0.000105001
      vertex 0.0016 -0.0034 0.000105001
      vertex 0.0025 -0.0043 0.000105001
    endloop
  endfacet
  facet normal 0 0 -1
    outer loop
      vertex -0.0025 -0.00415 0.000105001
      vertex 0.0016 -0.0034 0.000105001
      vertex -0.0025 -0.0043 0.000105001
    endloop
  endfacet
  facet normal 0 0 -1
    outer loop
      vertex -0.0025 -0.0034 0.000105001
      vertex 0.0016 -0.0034 0.000105001
      vertex -0.0025 -0.00415 0.000105001
    endloop
  endfacet
  facet normal 0 0 -1
    outer loop
      vertex 0.0025 0.0034 0.000105001
      vertex -0.0016 0.0034 0.000105001
      vertex 0.0025 0.00415 0.000105001
    endloop
  endfacet
  facet normal -0 0 -1
    outer loop
      vertex 0.0025 0.00415 0.000105001
      vertex -0.0016 0.0034 0.000105001
      vertex 0.0025 0.0043 0.000105001
    endloop
  endfacet
  facet normal 0 0 -1
    outer loop
      vertex -0.0016 0.0034 0.000105001
      vertex -0.0025 0.0043 0.000105001
      vertex 0.0025 0.0043 0.000105001
    endloop
  endfacet
  facet normal 0 0 -1
    outer loop
      vertex -0.0016 0.0025 0.000105001
      vertex -0.0025 0.0043 0.000105001
      vertex -0.0016 0.0034 0.000105001
    endloop
  endfacet
  facet normal 0 0 -1
    outer loop
      vertex -0.0025 -0.00415 0.000105001
      vertex -0.002625 -0.004025 0.000105001
      vertex -0.0025 -0.0034 0.000105001
    endloop
  endfacet
  facet normal 0 0 -1
    outer loop
      vertex -0.0025 -0.00415 0.000105001
      vertex -0.003125 -0.004025 0.000105001
      vertex -0.002625 -0.004025 0.000105001
    endloop
  endfacet
  facet normal -0 0 -1
    outer loop
      vertex -0.003125 -0.004025 0.000105001
      vertex -0.00325 -0.00415 0.000105001
      vertex -0.003125 -0.003525 0.000105001
    endloop
  endfacet
  facet normal 0 0 -1
    outer loop
      vertex -0.00325 -0.00415 0.000105001
      vertex -0.003125 -0.004025 0.000105001
      vertex -0.0025 -0.00415 0.000105001
    endloop
  endfacet
  facet normal 0 0 -1
    outer loop
      vertex -0.002625 -0.003525 0.000105001
      vertex -0.0025 -0.0034 0.000105001
      vertex -0.002625 -0.004025 0.000105001
    endloop
  endfacet
  facet normal 0 0 -1
    outer loop
      vertex -0.003125 -0.003525 0.000105001
      vertex -0.0025 -0.0034 0.000105001
      vertex -0.002625 -0.003525 0.000105001
    endloop
  endfacet
  facet normal 0 0 -1
    outer loop
      vertex -0.003125 -0.003525 0.000105001
      vertex -0.00325 -0.0034 0.000105001
      vertex -0.0025 -0.0034 0.000105001
    endloop
  endfacet
  facet normal 0 0 -1
    outer loop
      vertex -0.00325 -0.0034 0.000105001
      vertex -0.003125 -0.003525 0.000105001
      vertex -0.00325 -0.00415 0.000105001
    endloop
  endfacet
  facet normal 0 0 -1
    outer loop
      vertex 0.00325 0.0034 0.000105001
      vertex 0.003125 0.003525 0.000105001
      vertex 0.00325 0.00415 0.000105001
    endloop
  endfacet
  facet normal 0 0 -1
    outer loop
      vertex 0.00325 0.0034 0.000105001
      vertex 0.002625 0.003525 0.000105001
      vertex 0.003125 0.003525 0.000105001
    endloop
  endfacet
  facet normal -0 0 -1
    outer loop
      vertex 0.002625 0.003525 0.000105001
      vertex 0.0025 0.0034 0.000105001
      vertex 0.002625 0.004025 0.000105001
    endloop
  endfacet
  facet normal 0 0 -1
    outer loop
      vertex 0.0025 0.0034 0.000105001
      vertex 0.002625 0.003525 0.000105001
      vertex 0.00325 0.0034 0.000105001
    endloop
  endfacet
  facet normal 0 0 -1
    outer loop
      vertex 0.003125 0.004025 0.000105001
      vertex 0.00325 0.00415 0.000105001
      vertex 0.003125 0.003525 0.000105001
    endloop
  endfacet
  facet normal 0 0 -1
    outer loop
      vertex 0.002625 0.004025 0.000105001
      vertex 0.00325 0.00415 0.000105001
      vertex 0.003125 0.004025 0.000105001
    endloop
  endfacet
  facet normal 0 0 -1
    outer loop
      vertex 0.002625 0.004025 0.000105001
      vertex 0.0025 0.00415 0.000105001
      vertex 0.00325 0.00415 0.000105001
    endloop
  endfacet
  facet normal 0 0 -1
    outer loop
      vertex 0.0025 0.00415 0.000105001
      vertex 0.002625 0.004025 0.000105001
      vertex 0.0025 0.0034 0.000105001
    endloop
  endfacet
  facet normal 0 0 -1
    outer loop
      vertex 0.00415 -0.00325 0.000105001
      vertex 0.004025 -0.003125 0.000105001
      vertex 0.00415 -0.0025 0.000105001
    endloop
  endfacet
  facet normal 0 0 -1
    outer loop
      vertex 0.00415 -0.00325 0.000105001
      vertex 0.003525 -0.003125 0.000105001
      vertex 0.004025 -0.003125 0.000105001
    endloop
  endfacet
  facet normal -0 0 -1
    outer loop
      vertex 0.003525 -0.003125 0.000105001
      vertex 0.0034 -0.00325 0.000105001
      vertex 0.003525 -0.002625 0.000105001
    endloop
  endfacet
  facet normal 0 0 -1
    outer loop
      vertex 0.0034 -0.00325 0.000105001
      vertex 0.003525 -0.003125 0.000105001
      vertex 0.00415 -0.00325 0.000105001
    endloop
  endfacet
  facet normal 0 0 -1
    outer loop
      vertex 0.0034 0.0016 0.000105001
      vertex 0.0043 -0.0025 0.000105001
      vertex 0.00415 -0.0025 0.000105001
    endloop
  endfacet
  facet normal 0 0 -1
    outer loop
      vertex 0.004025 -0.002625 0.000105001
      vertex 0.00415 -0.0025 0.000105001
      vertex 0.004025 -0.003125 0.000105001
    endloop
  endfacet
  facet normal 0 0 -1
    outer loop
      vertex 0.0034 -0.0025 0.000105001
      vertex 0.00415 -0.0025 0.000105001
      vertex 0.004025 -0.002625 0.000105001
    endloop
  endfacet
  facet normal 0 0 -1
    outer loop
      vertex 0.0034 -0.0025 0.000105001
      vertex 0.004025 -0.002625 0.000105001
      vertex 0.003525 -0.002625 0.000105001
    endloop
  endfacet
  facet normal 0 0 -1
    outer loop
      vertex 0.0034 -0.0025 0.000105001
      vertex 0.003525 -0.002625 0.000105001
      vertex 0.0034 -0.00325 0.000105001
    endloop
  endfacet
  facet normal 0 0 -1
    outer loop
      vertex 0.00415 -0.0025 0.000105001
      vertex 0.0034 -0.0025 0.000105001
      vertex 0.0034 0.0016 0.000105001
    endloop
  endfacet
  facet normal 0 0 -1
    outer loop
      vertex 0.0043 -0.0025 0.000105001
      vertex 0.0034 0.0016 0.000105001
      vertex 0.0043 0.0025 0.000105001
    endloop
  endfacet
  facet normal 0 0 -1
    outer loop
      vertex 0.0025 0.0016 0.000105001
      vertex 0.0043 0.0025 0.000105001
      vertex 0.0034 0.0016 0.000105001
    endloop
  endfacet
  facet normal 0 0 -1
    outer loop
      vertex 0.0025 -0.0043 0.000105001
      vertex 0.0016 -0.0025 0.000105001
      vertex 0.0025 0.0016 0.000105001
    endloop
  endfacet
  facet normal 0 0 -1
    outer loop
      vertex 0.0025 0.0016 0.000105001
      vertex -0.0016 0.0025 0.000105001
      vertex 0.0043 0.0025 0.000105001
    endloop
  endfacet
  facet normal 0 0 -1
    outer loop
      vertex 0.0016 -0.0025 0.000105001
      vertex -0.0016 0.0025 0.000105001
      vertex 0.0025 0.0016 0.000105001
    endloop
  endfacet
  facet normal 0 0 -1
    outer loop
      vertex -0.0025 0.0043 0.000105001
      vertex -0.0016 0.0025 0.000105001
      vertex -0.0025 -0.0016 0.000105001
    endloop
  endfacet
  facet normal 0 0 -1
    outer loop
      vertex 0.0016 -0.0025 0.000105001
      vertex -0.0025 -0.0016 0.000105001
      vertex -0.0016 0.0025 0.000105001
    endloop
  endfacet
  facet normal 0 0 -1
    outer loop
      vertex -0.0043 -0.0025 0.000105001
      vertex -0.0025 -0.0016 0.000105001
      vertex 0.0016 -0.0025 0.000105001
    endloop
  endfacet
  facet normal 0 0 -1
    outer loop
      vertex -0.0034 0.0025 0.000105001
      vertex -0.003525 0.002625 0.000105001
      vertex -0.0034 0.00325 0.000105001
    endloop
  endfacet
  facet normal 0 0 -1
    outer loop
      vertex -0.00415 0.0025 0.000105001
      vertex -0.0034 0.0025 0.000105001
      vertex -0.0034 -0.0016 0.000105001
    endloop
  endfacet
  facet normal 0 0 -1
    outer loop
      vertex -0.0034 0.0025 0.000105001
      vertex -0.00415 0.0025 0.000105001
      vertex -0.003525 0.002625 0.000105001
    endloop
  endfacet
  facet normal -0 0 -1
    outer loop
      vertex -0.004025 0.002625 0.000105001
      vertex -0.00415 0.0025 0.000105001
      vertex -0.004025 0.003125 0.000105001
    endloop
  endfacet
  facet normal -0 0 -1
    outer loop
      vertex -0.003525 0.002625 0.000105001
      vertex -0.00415 0.0025 0.000105001
      vertex -0.004025 0.002625 0.000105001
    endloop
  endfacet
  facet normal -0 0 -1
    outer loop
      vertex -0.0025 -0.0016 0.000105001
      vertex -0.0043 -0.0025 0.000105001
      vertex -0.0034 -0.0016 0.000105001
    endloop
  endfacet
  facet normal 0 0 -1
    outer loop
      vertex -0.0043 0.0025 0.000105001
      vertex -0.0034 -0.0016 0.000105001
      vertex -0.0043 -0.0025 0.000105001
    endloop
  endfacet
  facet normal 0 0 -1
    outer loop
      vertex -0.0034 -0.0016 0.000105001
      vertex -0.0043 0.0025 0.000105001
      vertex -0.00415 0.0025 0.000105001
    endloop
  endfacet
  facet normal -1 0 0
    outer loop
      vertex 0.0034 -0.00325 0.000105001
      vertex 0.0034 -0.0025 0.000304999
      vertex 0.0034 -0.0025 0.000105001
    endloop
  endfacet
  facet normal -1 -0 0
    outer loop
      vertex 0.0034 -0.0025 0.000304999
      vertex 0.0034 -0.00325 0.000105001
      vertex 0.0034 -0.00325 0.000304999
    endloop
  endfacet
  facet normal 0 -1 0
    outer loop
      vertex 0.00415 -0.0025 0.000105001
      vertex 0.0043 -0.0025 0.000304999
      vertex 0.00415 -0.0025 0.000304999
    endloop
  endfacet
  facet normal 0 -1 -0
    outer loop
      vertex 0.0043 -0.0025 0.000304999
      vertex 0.00415 -0.0025 0.000105001
      vertex 0.0043 -0.0025 0.000105001
    endloop
  endfacet
  facet normal 0 -1 0
    outer loop
      vertex 0.0034 -0.00325 0.000105001
      vertex 0.00415 -0.00325 0.000304999
      vertex 0.0034 -0.00325 0.000304999
    endloop
  endfacet
  facet normal 0 -1 -0
    outer loop
      vertex 0.00415 -0.00325 0.000304999
      vertex 0.0034 -0.00325 0.000105001
      vertex 0.00415 -0.00325 0.000105001
    endloop
  endfacet
  facet normal -1 0 0
    outer loop
      vertex 0.004025 -0.003125 0.000105001
      vertex 0.004025 -0.002625 0.000304999
      vertex 0.004025 -0.002625 0.000105001
    endloop
  endfacet
  facet normal -1 -0 0
    outer loop
      vertex 0.004025 -0.002625 0.000304999
      vertex 0.004025 -0.003125 0.000105001
      vertex 0.004025 -0.003125 0.000304999
    endloop
  endfacet
  facet normal 1 -0 0
    outer loop
      vertex 0.003525 -0.003125 0.000304999
      vertex 0.003525 -0.002625 0.000105001
      vertex 0.003525 -0.002625 0.000304999
    endloop
  endfacet
  facet normal 1 0 0
    outer loop
      vertex 0.003525 -0.002625 0.000105001
      vertex 0.003525 -0.003125 0.000304999
      vertex 0.003525 -0.003125 0.000105001
    endloop
  endfacet
  facet normal 0 -1 0
    outer loop
      vertex 0.003525 -0.002625 0.000105001
      vertex 0.004025 -0.002625 0.000304999
      vertex 0.003525 -0.002625 0.000304999
    endloop
  endfacet
  facet normal 0 -1 -0
    outer loop
      vertex 0.004025 -0.002625 0.000304999
      vertex 0.003525 -0.002625 0.000105001
      vertex 0.004025 -0.002625 0.000105001
    endloop
  endfacet
  facet normal 0 1 -0
    outer loop
      vertex 0.004025 -0.003125 0.000105001
      vertex 0.003525 -0.003125 0.000304999
      vertex 0.004025 -0.003125 0.000304999
    endloop
  endfacet
  facet normal 0 1 0
    outer loop
      vertex 0.003525 -0.003125 0.000304999
      vertex 0.004025 -0.003125 0.000105001
      vertex 0.003525 -0.003125 0.000105001
    endloop
  endfacet
  facet normal 1 -0 0
    outer loop
      vertex 0.0043 -0.0025 0.000304999
      vertex 0.0043 0.0025 0.000105001
      vertex 0.0043 0.0025 0.000304999
    endloop
  endfacet
  facet normal 1 0 0
    outer loop
      vertex 0.0043 0.0025 0.000105001
      vertex 0.0043 -0.0025 0.000304999
      vertex 0.0043 -0.0025 0.000105001
    endloop
  endfacet
  facet normal -1 0 0
    outer loop
      vertex 0.0034 -0.0025 0.000105001
      vertex 0.0034 0.0016 0.000304999
      vertex 0.0034 0.0016 0.000105001
    endloop
  endfacet
  facet normal -1 -0 0
    outer loop
      vertex 0.0034 0.0016 0.000304999
      vertex 0.0034 -0.0025 0.000105001
      vertex 0.0034 -0.0025 0.000304999
    endloop
  endfacet
  facet normal 0 1 -0
    outer loop
      vertex 0.0043 0.0025 0.000105001
      vertex -0.0016 0.0025 0.000304999
      vertex 0.0043 0.0025 0.000304999
    endloop
  endfacet
  facet normal 0 1 0
    outer loop
      vertex -0.0016 0.0025 0.000304999
      vertex 0.0043 0.0025 0.000105001
      vertex -0.0016 0.0025 0.000105001
    endloop
  endfacet
  facet normal 1 -0 0
    outer loop
      vertex 0.0025 -0.0043 0.000304999
      vertex 0.0025 0.0016 0.000105001
      vertex 0.0025 0.0016 0.000304999
    endloop
  endfacet
  facet normal 1 0 0
    outer loop
      vertex 0.0025 0.0016 0.000105001
      vertex 0.0025 -0.0043 0.000304999
      vertex 0.0025 -0.0043 0.000105001
    endloop
  endfacet
  facet normal 0 -1 0
    outer loop
      vertex 0.0025 0.0016 0.000105001
      vertex 0.0034 0.0016 0.000304999
      vertex 0.0025 0.0016 0.000304999
    endloop
  endfacet
  facet normal 0 -1 -0
    outer loop
      vertex 0.0034 0.0016 0.000304999
      vertex 0.0025 0.0016 0.000105001
      vertex 0.0034 0.0016 0.000105001
    endloop
  endfacet
  facet normal 0 1 -0
    outer loop
      vertex 0.00325 0.00415 0.000105001
      vertex 0.0025 0.00415 0.000304999
      vertex 0.00325 0.00415 0.000304999
    endloop
  endfacet
  facet normal 0 1 0
    outer loop
      vertex 0.0025 0.00415 0.000304999
      vertex 0.00325 0.00415 0.000105001
      vertex 0.0025 0.00415 0.000105001
    endloop
  endfacet
  facet normal 0 -1 0
    outer loop
      vertex 0.0025 0.0034 0.000105001
      vertex 0.00325 0.0034 0.000304999
      vertex 0.0025 0.0034 0.000304999
    endloop
  endfacet
  facet normal 0 -1 -0
    outer loop
      vertex 0.00325 0.0034 0.000304999
      vertex 0.0025 0.0034 0.000105001
      vertex 0.00325 0.0034 0.000105001
    endloop
  endfacet
  facet normal 1 -0 0
    outer loop
      vertex 0.0025 0.00415 0.000304999
      vertex 0.0025 0.0043 0.000105001
      vertex 0.0025 0.0043 0.000304999
    endloop
  endfacet
  facet normal 1 0 0
    outer loop
      vertex 0.0025 0.0043 0.000105001
      vertex 0.0025 0.00415 0.000304999
      vertex 0.0025 0.00415 0.000105001
    endloop
  endfacet
  facet normal 1 -0 0
    outer loop
      vertex 0.00325 0.0034 0.000304999
      vertex 0.00325 0.00415 0.000105001
      vertex 0.00325 0.00415 0.000304999
    endloop
  endfacet
  facet normal 1 0 0
    outer loop
      vertex 0.00325 0.00415 0.000105001
      vertex 0.00325 0.0034 0.000304999
      vertex 0.00325 0.0034 0.000105001
    endloop
  endfacet
  facet normal 0 -1 0
    outer loop
      vertex 0.002625 0.004025 0.000105001
      vertex 0.003125 0.004025 0.000304999
      vertex 0.002625 0.004025 0.000304999
    endloop
  endfacet
  facet normal 0 -1 -0
    outer loop
      vertex 0.003125 0.004025 0.000304999
      vertex 0.002625 0.004025 0.000105001
      vertex 0.003125 0.004025 0.000105001
    endloop
  endfacet
  facet normal 0 1 -0
    outer loop
      vertex 0.003125 0.003525 0.000105001
      vertex 0.002625 0.003525 0.000304999
      vertex 0.003125 0.003525 0.000304999
    endloop
  endfacet
  facet normal 0 1 0
    outer loop
      vertex 0.002625 0.003525 0.000304999
      vertex 0.003125 0.003525 0.000105001
      vertex 0.002625 0.003525 0.000105001
    endloop
  endfacet
  facet normal 1 -0 0
    outer loop
      vertex 0.002625 0.003525 0.000304999
      vertex 0.002625 0.004025 0.000105001
      vertex 0.002625 0.004025 0.000304999
    endloop
  endfacet
  facet normal 1 0 0
    outer loop
      vertex 0.002625 0.004025 0.000105001
      vertex 0.002625 0.003525 0.000304999
      vertex 0.002625 0.003525 0.000105001
    endloop
  endfacet
  facet normal -1 0 0
    outer loop
      vertex 0.003125 0.003525 0.000105001
      vertex 0.003125 0.004025 0.000304999
      vertex 0.003125 0.004025 0.000105001
    endloop
  endfacet
  facet normal -1 -0 0
    outer loop
      vertex 0.003125 0.004025 0.000304999
      vertex 0.003125 0.003525 0.000105001
      vertex 0.003125 0.003525 0.000304999
    endloop
  endfacet
  facet normal 0 1 -0
    outer loop
      vertex 0.0025 0.0043 0.000105001
      vertex -0.0025 0.0043 0.000304999
      vertex 0.0025 0.0043 0.000304999
    endloop
  endfacet
  facet normal 0 1 0
    outer loop
      vertex -0.0025 0.0043 0.000304999
      vertex 0.0025 0.0043 0.000105001
      vertex -0.0025 0.0043 0.000105001
    endloop
  endfacet
  facet normal 0 -1 0
    outer loop
      vertex -0.0016 0.0034 0.000105001
      vertex 0.0025 0.0034 0.000304999
      vertex -0.0016 0.0034 0.000304999
    endloop
  endfacet
  facet normal 0 -1 -0
    outer loop
      vertex 0.0025 0.0034 0.000304999
      vertex -0.0016 0.0034 0.000105001
      vertex 0.0025 0.0034 0.000105001
    endloop
  endfacet
  facet normal -1 0 0
    outer loop
      vertex -0.0025 -0.0016 0.000105001
      vertex -0.0025 0.0043 0.000304999
      vertex -0.0025 0.0043 0.000105001
    endloop
  endfacet
  facet normal -1 -0 0
    outer loop
      vertex -0.0025 0.0043 0.000304999
      vertex -0.0025 -0.0016 0.000105001
      vertex -0.0025 -0.0016 0.000304999
    endloop
  endfacet
  facet normal 1 -0 0
    outer loop
      vertex -0.0016 0.0025 0.000304999
      vertex -0.0016 0.0034 0.000105001
      vertex -0.0016 0.0034 0.000304999
    endloop
  endfacet
  facet normal 1 0 0
    outer loop
      vertex -0.0016 0.0034 0.000105001
      vertex -0.0016 0.0025 0.000304999
      vertex -0.0016 0.0025 0.000105001
    endloop
  endfacet
  facet normal -1 0 0
    outer loop
      vertex -0.00415 0.0025 0.000105001
      vertex -0.00415 0.00325 0.000304999
      vertex -0.00415 0.00325 0.000105001
    endloop
  endfacet
  facet normal -1 -0 0
    outer loop
      vertex -0.00415 0.00325 0.000304999
      vertex -0.00415 0.0025 0.000105001
      vertex -0.00415 0.0025 0.000304999
    endloop
  endfacet
  facet normal 1 -0 0
    outer loop
      vertex -0.0034 0.0025 0.000304999
      vertex -0.0034 0.00325 0.000105001
      vertex -0.0034 0.00325 0.000304999
    endloop
  endfacet
  facet normal 1 0 0
    outer loop
      vertex -0.0034 0.00325 0.000105001
      vertex -0.0034 0.0025 0.000304999
      vertex -0.0034 0.0025 0.000105001
    endloop
  endfacet
  facet normal 0 1 -0
    outer loop
      vertex -0.00415 0.0025 0.000105001
      vertex -0.0043 0.0025 0.000304999
      vertex -0.00415 0.0025 0.000304999
    endloop
  endfacet
  facet normal 0 1 0
    outer loop
      vertex -0.0043 0.0025 0.000304999
      vertex -0.00415 0.0025 0.000105001
      vertex -0.0043 0.0025 0.000105001
    endloop
  endfacet
  facet normal 0 1 -0
    outer loop
      vertex -0.0034 0.00325 0.000105001
      vertex -0.00415 0.00325 0.000304999
      vertex -0.0034 0.00325 0.000304999
    endloop
  endfacet
  facet normal 0 1 0
    outer loop
      vertex -0.00415 0.00325 0.000304999
      vertex -0.0034 0.00325 0.000105001
      vertex -0.00415 0.00325 0.000105001
    endloop
  endfacet
  facet normal 1 -0 0
    outer loop
      vertex -0.004025 0.002625 0.000304999
      vertex -0.004025 0.003125 0.000105001
      vertex -0.004025 0.003125 0.000304999
    endloop
  endfacet
  facet normal 1 0 0
    outer loop
      vertex -0.004025 0.003125 0.000105001
      vertex -0.004025 0.002625 0.000304999
      vertex -0.004025 0.002625 0.000105001
    endloop
  endfacet
  facet normal -1 0 0
    outer loop
      vertex -0.003525 0.002625 0.000105001
      vertex -0.003525 0.003125 0.000304999
      vertex -0.003525 0.003125 0.000105001
    endloop
  endfacet
  facet normal -1 -0 0
    outer loop
      vertex -0.003525 0.003125 0.000304999
      vertex -0.003525 0.002625 0.000105001
      vertex -0.003525 0.002625 0.000304999
    endloop
  endfacet
  facet normal 0 1 -0
    outer loop
      vertex -0.003525 0.002625 0.000105001
      vertex -0.004025 0.002625 0.000304999
      vertex -0.003525 0.002625 0.000304999
    endloop
  endfacet
  facet normal 0 1 0
    outer loop
      vertex -0.004025 0.002625 0.000304999
      vertex -0.003525 0.002625 0.000105001
      vertex -0.004025 0.002625 0.000105001
    endloop
  endfacet
  facet normal 0 -1 0
    outer loop
      vertex -0.004025 0.003125 0.000105001
      vertex -0.003525 0.003125 0.000304999
      vertex -0.004025 0.003125 0.000304999
    endloop
  endfacet
  facet normal 0 -1 -0
    outer loop
      vertex -0.003525 0.003125 0.000304999
      vertex -0.004025 0.003125 0.000105001
      vertex -0.003525 0.003125 0.000105001
    endloop
  endfacet
  facet normal -1 0 0
    outer loop
      vertex -0.0043 -0.0025 0.000105001
      vertex -0.0043 0.0025 0.000304999
      vertex -0.0043 0.0025 0.000105001
    endloop
  endfacet
  facet normal -1 -0 0
    outer loop
      vertex -0.0043 0.0025 0.000304999
      vertex -0.0043 -0.0025 0.000105001
      vertex -0.0043 -0.0025 0.000304999
    endloop
  endfacet
  facet normal 1 -0 0
    outer loop
      vertex -0.0034 -0.0016 0.000304999
      vertex -0.0034 0.0025 0.000105001
      vertex -0.0034 0.0025 0.000304999
    endloop
  endfacet
  facet normal 1 0 0
    outer loop
      vertex -0.0034 0.0025 0.000105001
      vertex -0.0034 -0.0016 0.000304999
      vertex -0.0034 -0.0016 0.000105001
    endloop
  endfacet
  facet normal 0 -1 0
    outer loop
      vertex -0.0043 -0.0025 0.000105001
      vertex 0.0016 -0.0025 0.000304999
      vertex -0.0043 -0.0025 0.000304999
    endloop
  endfacet
  facet normal 0 -1 -0
    outer loop
      vertex 0.0016 -0.0025 0.000304999
      vertex -0.0043 -0.0025 0.000105001
      vertex 0.0016 -0.0025 0.000105001
    endloop
  endfacet
  facet normal 0 1 -0
    outer loop
      vertex -0.0025 -0.0016 0.000105001
      vertex -0.0034 -0.0016 0.000304999
      vertex -0.0025 -0.0016 0.000304999
    endloop
  endfacet
  facet normal 0 1 0
    outer loop
      vertex -0.0034 -0.0016 0.000304999
      vertex -0.0025 -0.0016 0.000105001
      vertex -0.0034 -0.0016 0.000105001
    endloop
  endfacet
  facet normal 0 -1 0
    outer loop
      vertex -0.00325 -0.00415 0.000105001
      vertex -0.0025 -0.00415 0.000304999
      vertex -0.00325 -0.00415 0.000304999
    endloop
  endfacet
  facet normal 0 -1 -0
    outer loop
      vertex -0.0025 -0.00415 0.000304999
      vertex -0.00325 -0.00415 0.000105001
      vertex -0.0025 -0.00415 0.000105001
    endloop
  endfacet
  facet normal 0 1 -0
    outer loop
      vertex -0.0025 -0.0034 0.000105001
      vertex -0.00325 -0.0034 0.000304999
      vertex -0.0025 -0.0034 0.000304999
    endloop
  endfacet
  facet normal 0 1 0
    outer loop
      vertex -0.00325 -0.0034 0.000304999
      vertex -0.0025 -0.0034 0.000105001
      vertex -0.00325 -0.0034 0.000105001
    endloop
  endfacet
  facet normal -1 0 0
    outer loop
      vertex -0.0025 -0.0043 0.000105001
      vertex -0.0025 -0.00415 0.000304999
      vertex -0.0025 -0.00415 0.000105001
    endloop
  endfacet
  facet normal -1 -0 0
    outer loop
      vertex -0.0025 -0.00415 0.000304999
      vertex -0.0025 -0.0043 0.000105001
      vertex -0.0025 -0.0043 0.000304999
    endloop
  endfacet
  facet normal -1 0 0
    outer loop
      vertex -0.00325 -0.00415 0.000105001
      vertex -0.00325 -0.0034 0.000304999
      vertex -0.00325 -0.0034 0.000105001
    endloop
  endfacet
  facet normal -1 -0 0
    outer loop
      vertex -0.00325 -0.0034 0.000304999
      vertex -0.00325 -0.00415 0.000105001
      vertex -0.00325 -0.00415 0.000304999
    endloop
  endfacet
  facet normal 0 1 -0
    outer loop
      vertex -0.002625 -0.004025 0.000105001
      vertex -0.003125 -0.004025 0.000304999
      vertex -0.002625 -0.004025 0.000304999
    endloop
  endfacet
  facet normal 0 1 0
    outer loop
      vertex -0.003125 -0.004025 0.000304999
      vertex -0.002625 -0.004025 0.000105001
      vertex -0.003125 -0.004025 0.000105001
    endloop
  endfacet
  facet normal 0 -1 0
    outer loop
      vertex -0.003125 -0.003525 0.000105001
      vertex -0.002625 -0.003525 0.000304999
      vertex -0.003125 -0.003525 0.000304999
    endloop
  endfacet
  facet normal 0 -1 -0
    outer loop
      vertex -0.002625 -0.003525 0.000304999
      vertex -0.003125 -0.003525 0.000105001
      vertex -0.002625 -0.003525 0.000105001
    endloop
  endfacet
  facet normal -1 0 0
    outer loop
      vertex -0.002625 -0.004025 0.000105001
      vertex -0.002625 -0.003525 0.000304999
      vertex -0.002625 -0.003525 0.000105001
    endloop
  endfacet
  facet normal -1 -0 0
    outer loop
      vertex -0.002625 -0.003525 0.000304999
      vertex -0.002625 -0.004025 0.000105001
      vertex -0.002625 -0.004025 0.000304999
    endloop
  endfacet
  facet normal 1 -0 0
    outer loop
      vertex -0.003125 -0.004025 0.000304999
      vertex -0.003125 -0.003525 0.000105001
      vertex -0.003125 -0.003525 0.000304999
    endloop
  endfacet
  facet normal 1 0 0
    outer loop
      vertex -0.003125 -0.003525 0.000105001
      vertex -0.003125 -0.004025 0.000304999
      vertex -0.003125 -0.004025 0.000105001
    endloop
  endfacet
  facet normal 0 -1 0
    outer loop
      vertex -0.0025 -0.0043 0.000105001
      vertex 0.0025 -0.0043 0.000304999
      vertex -0.0025 -0.0043 0.000304999
    endloop
  endfacet
  facet normal 0 -1 -0
    outer loop
      vertex 0.0025 -0.0043 0.000304999
      vertex -0.0025 -0.0043 0.000105001
      vertex 0.0025 -0.0043 0.000105001
    endloop
  endfacet
  facet normal 0 1 -0
    outer loop
      vertex 0.0016 -0.0034 0.000105001
      vertex -0.0025 -0.0034 0.000304999
      vertex 0.0016 -0.0034 0.000304999
    endloop
  endfacet
  facet normal 0 1 0
    outer loop
      vertex -0.0025 -0.0034 0.000304999
      vertex 0.0016 -0.0034 0.000105001
      vertex -0.0025 -0.0034 0.000105001
    endloop
  endfacet
  facet normal -1 0 0
    outer loop
      vertex 0.0016 -0.0034 0.000105001
      vertex 0.0016 -0.0025 0.000304999
      vertex 0.0016 -0.0025 0.000105001
    endloop
  endfacet
  facet normal -1 -0 0
    outer loop
      vertex 0.0016 -0.0025 0.000304999
      vertex 0.0016 -0.0034 0.000105001
      vertex 0.0016 -0.0034 0.000304999
    endloop
  endfacet
endsolid OpenSCAD_Model
