<?xml version="1.0" encoding="UTF-8" standalone="no"?><!DOCTYPE svg PUBLIC "-//W3C//DTD SVG 1.1//EN" "http://www.w3.org/Graphics/SVG/1.1/DTD/svg11.dtd"><!-- Generated by graphviz version 2.40.1 (20161225.0304)
 --><!-- Title: G Pages: 1 --><svg xmlns="http://www.w3.org/2000/svg" xmlns:xlink="http://www.w3.org/1999/xlink" width="598pt" height="467pt" viewBox="0.00 0.00 598.00 466.95">
<g id="graph0" class="graph" transform="scale(1.0603 1.0603) rotate(0) translate(4 436.4)">
<title>G</title>
<polygon fill="#ffffff" stroke="transparent" points="-4,4 -4,-436.4 560,-436.4 560,4 -4,4"/>
<g id="clust1" class="cluster">
<title>cluster_cell_level</title>
<polygon fill="#d3d3d3" stroke="#d3d3d3" points="8,-8 8,-424.4 238,-424.4 238,-8 8,-8"/>
<text text-anchor="start" x="26.764" y="-408.8" font-family="Times,serif" font-weight="bold" font-size="14.00" fill="#000000">NEMS Cell-Level Modeling Flow</text>
</g>
<g id="clust2" class="cluster">
<title>cluster_rtl_level</title>
<polygon fill="#d3d3d3" stroke="#d3d3d3" points="246,-236.4 246,-424.4 548,-424.4 548,-236.4 246,-236.4"/>
<text text-anchor="start" x="318.6469" y="-408.8" font-family="Times,serif" font-weight="bold" font-size="14.00" fill="#000000">CGRA Digital Design Flow</text>
</g>
<g id="clust3" class="cluster">
<title>cluster_eda_level</title>
<polygon fill="#d3d3d3" stroke="#d3d3d3" points="246,-8 246,-201.6 380,-201.6 380,-8 246,-8"/>
<text text-anchor="start" x="282.4772" y="-186" font-family="Times,serif" font-weight="bold" font-size="14.00" fill="#000000">EDA Flow</text>
</g>
<g id="clust4" class="cluster">
<title>cluster_final_level</title>
<polygon fill="#d3d3d3" stroke="#d3d3d3" points="388,-8 388,-201.6 548,-201.6 548,-8 388,-8"/>
<text text-anchor="start" x="399.3769" y="-186" font-family="Times,serif" font-weight="bold" font-size="14.00" fill="#000000">Power/Delay Estimation</text>
</g>
<!-- Relay Layout\n(KLayout) -->
<g id="node1" class="node">
<title>Relay Layout\n(KLayout)</title>
<polygon fill="#ffffff" stroke="#ffffff" points="145.8144,-391.4019 54.1856,-391.4019 54.1856,-350.1981 145.8144,-350.1981 145.8144,-391.4019"/>
<text text-anchor="middle" x="100" y="-375" font-family="Times,serif" font-size="14.00" fill="#000000">Relay Layout</text>
<text text-anchor="middle" x="100" y="-358.2" font-family="Times,serif" font-size="14.00" fill="#000000">(KLayout)</text>
</g>
<!-- FEM (COMSOL) -->
<g id="node2" class="node">
<title>FEM (COMSOL)</title>
<polygon fill="#ffffff" stroke="#ffffff" points="157.9306,-280.4 42.0694,-280.4 42.0694,-244.4 157.9306,-244.4 157.9306,-280.4"/>
<text text-anchor="middle" x="100" y="-258.2" font-family="Times,serif" font-size="14.00" fill="#000000">FEM (COMSOL)</text>
</g>
<!-- Relay Layout\n(KLayout)&#45;&gt;FEM (COMSOL) -->
<g id="edge1" class="edge">
<title>Relay Layout\n(KLayout)-&gt;FEM (COMSOL)</title>
<path fill="none" stroke="#000000" d="M100,-350.1556C100,-333.3128 100,-309.3424 100,-290.7087"/>
<polygon fill="#000000" stroke="#000000" points="103.5001,-290.4484 100,-280.4484 96.5001,-290.4484 103.5001,-290.4484"/>
<text text-anchor="middle" x="115.7479" y="-311" font-family="Times,serif" font-size="14.00" fill="#000000"> GDS</text>
</g>
<!-- FEM (COMSOL)&#45;&gt;FEM (COMSOL) -->
<g id="edge2" class="edge">
<title>FEM (COMSOL)-&gt;FEM (COMSOL)</title>
<path fill="none" stroke="#000000" d="M157.9622,-270.1968C168.5437,-269.2099 175.9653,-266.6109 175.9653,-262.4 175.9653,-259.7024 172.9195,-257.6663 167.9483,-256.2918"/>
<polygon fill="#000000" stroke="#000000" points="168.4058,-252.8196 157.9622,-254.6032 167.2386,-259.7216 168.4058,-252.8196"/>
<text text-anchor="middle" x="188.6052" y="-258.2" font-family="Times,serif" font-size="14.00" fill="#000000"> ICP</text>
</g>
<!-- SPICE Model\n(HSPICE) -->
<g id="node3" class="node">
<title>SPICE Model\n(HSPICE)</title>
<polygon fill="#ffffff" stroke="#ffffff" points="110.1649,-168.6019 15.8351,-168.6019 15.8351,-127.3981 110.1649,-127.3981 110.1649,-168.6019"/>
<text text-anchor="middle" x="63" y="-152.2" font-family="Times,serif" font-size="14.00" fill="#000000">SPICE Model</text>
<text text-anchor="middle" x="63" y="-135.4" font-family="Times,serif" font-size="14.00" fill="#000000">(HSPICE)</text>
</g>
<!-- FEM (COMSOL)&#45;&gt;SPICE Model\n(HSPICE) -->
<g id="edge3" class="edge">
<title>FEM (COMSOL)-&gt;SPICE Model\n(HSPICE)</title>
<path fill="none" stroke="#000000" d="M94.1372,-244.273C88.4285,-226.6222 79.6445,-199.463 72.8599,-178.4858"/>
<polygon fill="#000000" stroke="#000000" points="76.1197,-177.1909 69.7121,-168.7532 69.4594,-179.3451 76.1197,-177.1909"/>
<text text-anchor="middle" x="109.6038" y="-213.8" font-family="Times,serif" font-size="14.00" fill="#000000">Params</text>
</g>
<!-- NEMS Stdcells\n(Virtuoso) -->
<g id="node5" class="node">
<title>NEMS Stdcells\n(Virtuoso)</title>
<polygon fill="#ffffff" stroke="#ffffff" points="230.215,-168.6019 127.785,-168.6019 127.785,-127.3981 230.215,-127.3981 230.215,-168.6019"/>
<text text-anchor="middle" x="179" y="-152.2" font-family="Times,serif" font-size="14.00" fill="#000000">NEMS Stdcells</text>
<text text-anchor="middle" x="179" y="-135.4" font-family="Times,serif" font-size="14.00" fill="#000000">(Virtuoso)</text>
</g>
<!-- FEM (COMSOL)&#45;&gt;NEMS Stdcells\n(Virtuoso) -->
<g id="edge5" class="edge">
<title>FEM (COMSOL)-&gt;NEMS Stdcells\n(Virtuoso)</title>
<path fill="none" stroke="#000000" d="M118.8805,-244.0831C124.061,-238.6244 129.4885,-232.4728 134,-226.4 145.3157,-211.1685 155.9805,-192.8366 164.085,-177.7304"/>
<polygon fill="#000000" stroke="#000000" points="167.2257,-179.2778 168.7834,-168.7981 161.0305,-176.0191 167.2257,-179.2778"/>
<text text-anchor="middle" x="159.9979" y="-213.8" font-family="Times,serif" font-size="14.00" fill="#000000">GDS</text>
</g>
<!-- Liberty Model\n(SiliconSmart) -->
<g id="node4" class="node">
<title>Liberty Model\n(SiliconSmart)</title>
<polygon fill="#ffffff" stroke="#ffffff" points="172.4301,-57.4019 73.5699,-57.4019 73.5699,-16.1981 172.4301,-16.1981 172.4301,-57.4019"/>
<text text-anchor="middle" x="123" y="-41" font-family="Times,serif" font-size="14.00" fill="#000000">Liberty Model</text>
<text text-anchor="middle" x="123" y="-24.2" font-family="Times,serif" font-size="14.00" fill="#000000">(SiliconSmart)</text>
</g>
<!-- SPICE Model\n(HSPICE)&#45;&gt;Liberty Model\n(SiliconSmart) -->
<g id="edge4" class="edge">
<title>SPICE Model\n(HSPICE)-&gt;Liberty Model\n(SiliconSmart)</title>
<path fill="none" stroke="#000000" d="M74.1449,-127.3447C83.3481,-110.2882 96.5325,-85.8531 106.8859,-66.6649"/>
<polygon fill="#000000" stroke="#000000" points="110.0428,-68.1847 111.7112,-57.722 103.8823,-64.8606 110.0428,-68.1847"/>
</g>
<!-- Synthesis\n(DesignCompiler) -->
<g id="node9" class="node">
<title>Synthesis\n(DesignCompiler)</title>
<polygon fill="#ffffff" stroke="#ffffff" points="371.8613,-168.6019 254.1387,-168.6019 254.1387,-127.3981 371.8613,-127.3981 371.8613,-168.6019"/>
<text text-anchor="middle" x="313" y="-152.2" font-family="Times,serif" font-size="14.00" fill="#000000">Synthesis</text>
<text text-anchor="middle" x="313" y="-135.4" font-family="Times,serif" font-size="14.00" fill="#000000">(DesignCompiler)</text>
</g>
<!-- Liberty Model\n(SiliconSmart)&#45;&gt;Synthesis\n(DesignCompiler) -->
<g id="edge10" class="edge">
<title>Liberty Model\n(SiliconSmart)-&gt;Synthesis\n(DesignCompiler):sw</title>
<path fill="none" stroke="#000000" d="M160.1262,-57.4126C185.5419,-72.5539 219.4187,-94.8148 246.5417,-120.0171"/>
<polygon fill="#000000" stroke="#000000" points="244.3693,-122.7842 254,-127.2 249.225,-117.7422 244.3693,-122.7842"/>
</g>
<!-- Place&#45;and&#45;Route\n(Innovus) -->
<g id="node10" class="node">
<title>Place-and-Route\n(Innovus)</title>
<polygon fill="#ffffff" stroke="#ffffff" points="370.795,-57.4019 261.205,-57.4019 261.205,-16.1981 370.795,-16.1981 370.795,-57.4019"/>
<text text-anchor="middle" x="316" y="-41" font-family="Times,serif" font-size="14.00" fill="#000000">Place-and-Route</text>
<text text-anchor="middle" x="316" y="-24.2" font-family="Times,serif" font-size="14.00" fill="#000000">(Innovus)</text>
</g>
<!-- NEMS Stdcells\n(Virtuoso)&#45;&gt;Place&#45;and&#45;Route\n(Innovus) -->
<g id="edge9" class="edge">
<title>NEMS Stdcells\n(Virtuoso)-&gt;Place-and-Route\n(Innovus)</title>
<path fill="none" stroke="#000000" d="M204.4476,-127.3447C226.4167,-109.5129 258.3215,-83.6164 282.3882,-64.082"/>
<polygon fill="#000000" stroke="#000000" points="284.6653,-66.7416 290.2238,-57.722 280.2538,-61.3066 284.6653,-66.7416"/>
</g>
<!--  &#160;App Suite \n(Halide) -->
<g id="node6" class="node">
<title>  App Suite \n(Halide)</title>
<polygon fill="#ffffff" stroke="#ffffff" points="540.3851,-391.4019 457.6149,-391.4019 457.6149,-350.1981 540.3851,-350.1981 540.3851,-391.4019"/>
<text text-anchor="middle" x="499" y="-375" font-family="Times,serif" font-size="14.00" fill="#000000">  App Suite </text>
<text text-anchor="middle" x="499" y="-358.2" font-family="Times,serif" font-size="14.00" fill="#000000">(Halide)</text>
</g>
<!-- RTL Simulation (Verilator) -->
<g id="node7" class="node">
<title>RTL Simulation (Verilator)</title>
<polygon fill="#ffffff" stroke="#ffffff" points="481.2422,-280.4 310.7578,-280.4 310.7578,-244.4 481.2422,-244.4 481.2422,-280.4"/>
<text text-anchor="middle" x="396" y="-258.2" font-family="Times,serif" font-size="14.00" fill="#000000">RTL Simulation (Verilator)</text>
</g>
<!--  &#160;App Suite \n(Halide)&#45;&gt;RTL Simulation (Verilator) -->
<g id="edge6" class="edge">
<title>  App Suite \n(Halide)-&gt;RTL Simulation (Verilator)</title>
<path fill="none" stroke="#000000" d="M483.756,-349.8924C472.4083,-334.9018 456.1504,-314.582 440,-298.4 436.2611,-294.6538 432.158,-290.8974 428.0072,-287.2995"/>
<polygon fill="#000000" stroke="#000000" points="429.9593,-284.3685 420.0497,-280.6202 425.4589,-289.7301 429.9593,-284.3685"/>
<text text-anchor="middle" x="495.2167" y="-311" font-family="Times,serif" font-size="14.00" fill="#000000">Bitstream</text>
</g>
<!-- Gate&#45;Level Simulation\n(VCS) -->
<g id="node11" class="node">
<title>Gate-Level Simulation\n(VCS)</title>
<polygon fill="#ffffff" stroke="#ffffff" points="539.9096,-168.6019 396.0904,-168.6019 396.0904,-127.3981 539.9096,-127.3981 539.9096,-168.6019"/>
<text text-anchor="middle" x="468" y="-152.2" font-family="Times,serif" font-size="14.00" fill="#000000">Gate-Level Simulation</text>
<text text-anchor="middle" x="468" y="-135.4" font-family="Times,serif" font-size="14.00" fill="#000000">(VCS)</text>
</g>
<!-- RTL Simulation (Verilator)&#45;&gt;Gate&#45;Level Simulation\n(VCS) -->
<g id="edge12" class="edge">
<title>RTL Simulation (Verilator)-&gt;Gate-Level Simulation\n(VCS):nw</title>
<path fill="none" stroke="#000000" d="M393.101,-244.1051C390.3942,-224.6372 387.3502,-194.4389 391.5517,-178.098"/>
<polygon fill="#000000" stroke="#000000" points="394.7518,-179.5211 396,-169 388.4632,-176.4463 394.7518,-179.5211"/>
<text text-anchor="middle" x="438.2027" y="-213.8" font-family="Times,serif" font-size="14.00" fill="#000000"> VCD Waveform</text>
</g>
<!--  CGRA Generator (Genesis2)  -->
<g id="node8" class="node">
<title> CGRA Generator (Genesis2) </title>
<polygon fill="#ffffff" stroke="#ffffff" points="439.986,-388.8 254.014,-388.8 254.014,-352.8 439.986,-352.8 439.986,-388.8"/>
<text text-anchor="middle" x="347" y="-366.6" font-family="Times,serif" font-size="14.00" fill="#000000"> CGRA Generator (Genesis2) </text>
</g>
<!--  CGRA Generator (Genesis2) &#45;&gt;RTL Simulation (Verilator) -->
<g id="edge7" class="edge">
<title> CGRA Generator (Genesis2) -&gt;RTL Simulation (Verilator)</title>
<path fill="none" stroke="#000000" d="M355.3122,-352.4114C363.0671,-335.2557 374.7386,-309.4355 383.5951,-289.8426"/>
<polygon fill="#000000" stroke="#000000" points="386.8808,-291.071 387.8106,-280.517 380.5022,-288.1876 386.8808,-291.071"/>
<text text-anchor="middle" x="406.7658" y="-319.4" font-family="Times,serif" font-size="14.00" fill="#000000">RTL</text>
<text text-anchor="middle" x="406.7658" y="-302.6" font-family="Times,serif" font-size="14.00" fill="#000000">Testbench</text>
</g>
<!--  CGRA Generator (Genesis2) &#45;&gt;Synthesis\n(DesignCompiler) -->
<g id="edge8" class="edge">
<title> CGRA Generator (Genesis2) -&gt;Synthesis\n(DesignCompiler):nw</title>
<path fill="none" stroke="#000000" d="M328.1289,-352.5185C311.6443,-335.4277 288.3995,-308.4018 275.5582,-280.4 266.3613,-260.3453 243.1027,-203.7465 249.3762,-177.9657"/>
<polygon fill="#000000" stroke="#000000" points="252.5271,-179.492 254,-169 246.3057,-176.2834 252.5271,-179.492"/>
<text text-anchor="middle" x="288.2209" y="-258.2" font-family="Times,serif" font-size="14.00" fill="#000000">RTL</text>
</g>
<!-- Synthesis\n(DesignCompiler)&#45;&gt;Place&#45;and&#45;Route\n(Innovus) -->
<g id="edge11" class="edge">
<title>Synthesis\n(DesignCompiler)-&gt;Place-and-Route\n(Innovus)</title>
<path fill="none" stroke="#000000" d="M313.5572,-127.3447C314.0069,-110.6758 314.6468,-86.9599 315.1588,-67.9811"/>
<polygon fill="#000000" stroke="#000000" points="318.6645,-67.8128 315.4356,-57.722 311.667,-67.6239 318.6645,-67.8128"/>
<text text-anchor="middle" x="334.4141" y="-88.2" font-family="Times,serif" font-size="14.00" fill="#000000"> Netlist</text>
</g>
<!-- Place&#45;and&#45;Route\n(Innovus)&#45;&gt;Gate&#45;Level Simulation\n(VCS) -->
<g id="edge13" class="edge">
<title>Place-and-Route\n(Innovus)-&gt;Gate-Level Simulation\n(VCS):sw</title>
<path fill="none" stroke="#000000" d="M340.9756,-57.6877C347.1188,-63.2624 353.5053,-69.4525 359,-75.6 375.3084,-93.8458 376.1504,-104.2445 389.0995,-119.6978"/>
<polygon fill="#000000" stroke="#000000" points="386.6542,-122.2094 396,-127.2 391.8062,-117.4705 386.6542,-122.2094"/>
</g>
<!-- Power Estimation\n(PTPX) -->
<g id="node12" class="node">
<title>Power Estimation\n(PTPX)</title>
<polygon fill="#ffffff" stroke="#ffffff" points="523.9292,-57.4019 408.0708,-57.4019 408.0708,-16.1981 523.9292,-16.1981 523.9292,-57.4019"/>
<text text-anchor="middle" x="466" y="-41" font-family="Times,serif" font-size="14.00" fill="#000000">Power Estimation</text>
<text text-anchor="middle" x="466" y="-24.2" font-family="Times,serif" font-size="14.00" fill="#000000">(PTPX)</text>
</g>
<!-- Place&#45;and&#45;Route\n(Innovus)&#45;&gt;Power Estimation\n(PTPX) -->
<g id="edge14" class="edge">
<title>Place-and-Route\n(Innovus)-&gt;Power Estimation\n(PTPX):w</title>
<path fill="none" stroke="#000000" d="M370.9938,-36.8C379.7599,-36.8 388.8696,-36.8 397.7501,-36.8"/>
<polygon fill="#000000" stroke="#000000" points="398.0354,-40.3001 408.0354,-36.8 398.0354,-33.3001 398.0354,-40.3001"/>
</g>
<!-- Gate&#45;Level Simulation\n(VCS)&#45;&gt;Power Estimation\n(PTPX) -->
<g id="edge15" class="edge">
<title>Gate-Level Simulation\n(VCS)-&gt;Power Estimation\n(PTPX)</title>
<path fill="none" stroke="#000000" d="M467.6285,-127.3447C467.3287,-110.6758 466.9022,-86.9599 466.5608,-67.9811"/>
<polygon fill="#000000" stroke="#000000" points="470.0557,-67.6574 466.3763,-57.722 463.0568,-67.7833 470.0557,-67.6574"/>
<text text-anchor="middle" x="497.1378" y="-96.6" font-family="Times,serif" font-size="14.00" fill="#000000"> Switching</text>
<text text-anchor="middle" x="497.1378" y="-79.8" font-family="Times,serif" font-size="14.00" fill="#000000">Behavior</text>
</g>
</g>
</svg>