<?xml version="1.0" encoding="UTF-8" standalone="no"?>
<svg
   xmlns:dc="http://purl.org/dc/elements/1.1/"
   xmlns:cc="http://creativecommons.org/ns#"
   xmlns:rdf="http://www.w3.org/1999/02/22-rdf-syntax-ns#"
   xmlns:svg="http://www.w3.org/2000/svg"
   xmlns="http://www.w3.org/2000/svg"
   xmlns:sodipodi="http://sodipodi.sourceforge.net/DTD/sodipodi-0.dtd"
   xmlns:inkscape="http://www.inkscape.org/namespaces/inkscape"
   inkscape:version="1.0beta1 (32d4812, 2019-09-19)"
   sodipodi:docname="land.svg"
   id="svg639"
   version="1.1"
   viewBox="-5 -5 10 10"
   height="10mm"
   width="10mm">
  <metadata
     id="metadata645">
    <rdf:RDF>
      <cc:Work
         rdf:about="">
        <dc:format>image/svg+xml</dc:format>
        <dc:type
           rdf:resource="http://purl.org/dc/dcmitype/StillImage" />
      </cc:Work>
    </rdf:RDF>
  </metadata>
  <defs
     id="defs643" />
  <sodipodi:namedview
     inkscape:current-layer="svg639"
     inkscape:window-maximized="0"
     inkscape:window-y="0"
     inkscape:window-x="0"
     inkscape:cy="18.897638"
     inkscape:cx="1.597962"
     inkscape:zoom="7.1966667"
     showgrid="false"
     id="namedview641"
     inkscape:window-height="900"
     inkscape:window-width="1440"
     inkscape:pageshadow="2"
     inkscape:pageopacity="0"
     guidetolerance="10"
     gridtolerance="10"
     objecttolerance="10"
     borderopacity="1"
     inkscape:document-rotation="0"
     bordercolor="#666666"
     pagecolor="#ffffff" />
  <title
     id="title635">OpenSCAD Model</title>
  <path
     id="path677"
     d="M 1.11494,3.3279 H 0.359268 V 4.08356 H 1.11494 Z" />
  <path
     id="path675"
     d="M -0.359268,3.3279 H -1.11494 v 0.75566 h 0.755672 z" />
  <path
     id="path673"
     d="M 2.47696,2.76373 H 1.72128 v 0.75566 h 0.75568 z" />
  <path
     id="path671"
     d="m -1.72128,2.76373 h -0.75568 v 0.75566 h 0.75568 z" />
  <path
     id="path669"
     d="m -2.76373,1.72128 h -0.75566 v 0.75568 h 0.75566 z" />
  <path
     id="path667"
     d="M 3.51939,1.72128 H 2.76373 v 0.75568 h 0.75566 z" />
  <path
     id="path665"
     d="M 4.08356,0.359268 H 3.3279 V 1.11494 h 0.75566 z" />
  <path
     id="path663"
     d="M -3.3279,0.359268 H -4.08356 V 1.11494 h 0.75566 z" />
  <path
     id="path661"
     d="m -3.3279,-1.11494 h -0.75566 v 0.755672 h 0.75566 z" />
  <path
     id="path659"
     d="M 4.08356,-1.11494 H 3.3279 v 0.755672 h 0.75566 z" />
  <path
     id="path657"
     d="m -2.76373,-2.47696 h -0.75566 v 0.75568 h 0.75566 z" />
  <path
     id="path655"
     d="M 3.51939,-2.47696 H 2.76373 v 0.75568 h 0.75566 z" />
  <path
     id="path653"
     d="m -1.72128,-3.51939 h -0.75568 v 0.75566 h 0.75568 z" />
  <path
     id="path651"
     d="M 2.47696,-3.51939 H 1.72128 v 0.75566 h 0.75568 z" />
  <path
     id="path649"
     d="M 1.11494,-4.08356 H 0.359268 V -3.3279 H 1.11494 Z" />
  <path
     id="path637"
     d="M -0.359268,-4.08356 H -1.11494 v 0.75566 h 0.755672 z" />
</svg>
