  0
SECTION
  2
BLOCKS
  0
ENDSEC
  0
SECTION
  2
ENTITIES
  0
LINE
  8
0
 10
-1.7
 20
-1.89999
 11
1.5
 21
-1.89999
  0
LINE
  8
0
 10
1.5
 20
-1.89999
 11
1.5
 21
1.29999
  0
LINE
  8
0
 10
1.5
 20
1.29999
 11
1.7
 21
1.29999
  0
LINE
  8
0
 10
1.7
 20
1.29999
 11
1.7
 21
-2.45
  0
LINE
  8
0
 10
1.7
 20
-2.45
 11
2.45
 21
-2.45
  0
LINE
  8
0
 10
2.45
 20
-2.45
 11
2.45
 21
-1.7
  0
LINE
  8
0
 10
2.45
 20
-1.7
 11
1.89999
 21
-1.7
  0
LINE
  8
0
 10
1.89999
 20
-1.7
 11
1.89999
 21
1.5
  0
LINE
  8
0
 10
1.89999
 20
1.5
 11
-1.29999
 21
1.5
  0
LINE
  8
0
 10
-1.29999
 20
1.5
 11
-1.29999
 21
1.7
  0
LINE
  8
0
 10
-1.29999
 20
1.7
 11
2.45
 21
1.7
  0
LINE
  8
0
 10
2.45
 20
1.7
 11
2.45
 21
2.45
  0
LINE
  8
0
 10
2.45
 20
2.45
 11
1.7
 21
2.45
  0
LINE
  8
0
 10
1.7
 20
2.45
 11
1.7
 21
1.89999
  0
LINE
  8
0
 10
1.7
 20
1.89999
 11
-1.5
 21
1.89999
  0
LINE
  8
0
 10
-1.5
 20
1.89999
 11
-1.5
 21
-1.29999
  0
LINE
  8
0
 10
-1.5
 20
-1.29999
 11
-1.7
 21
-1.29999
  0
LINE
  8
0
 10
-1.7
 20
-1.29999
 11
-1.7
 21
2.45
  0
LINE
  8
0
 10
-1.7
 20
2.45
 11
-2.45
 21
2.45
  0
LINE
  8
0
 10
-2.45
 20
2.45
 11
-2.45
 21
1.7
  0
LINE
  8
0
 10
-2.45
 20
1.7
 11
-1.89999
 21
1.7
  0
LINE
  8
0
 10
-1.89999
 20
1.7
 11
-1.89999
 21
-1.5
  0
LINE
  8
0
 10
-1.89999
 20
-1.5
 11
1.29999
 21
-1.5
  0
LINE
  8
0
 10
1.29999
 20
-1.5
 11
1.29999
 21
-1.7
  0
LINE
  8
0
 10
1.29999
 20
-1.7
 11
-2.45
 21
-1.7
  0
LINE
  8
0
 10
-2.45
 20
-1.7
 11
-2.45
 21
-2.45
  0
LINE
  8
0
 10
-2.45
 20
-2.45
 11
-1.7
 21
-2.45
  0
LINE
  8
0
 10
-1.7
 20
-2.45
 11
-1.7
 21
-1.89999
  0
LINE
  8
0
 10
-2.325
 20
1.825
 11
-2.325
 21
2.325
  0
LINE
  8
0
 10
-2.325
 20
2.325
 11
-1.825
 21
2.325
  0
LINE
  8
0
 10
-1.825
 20
2.325
 11
-1.825
 21
1.825
  0
LINE
  8
0
 10
-1.825
 20
1.825
 11
-2.325
 21
1.825
  0
LINE
  8
0
 10
1.825
 20
1.825
 11
1.825
 21
2.325
  0
LINE
  8
0
 10
1.825
 20
2.325
 11
2.325
 21
2.325
  0
LINE
  8
0
 10
2.325
 20
2.325
 11
2.325
 21
1.825
  0
LINE
  8
0
 10
2.325
 20
1.825
 11
1.825
 21
1.825
  0
LINE
  8
0
 10
-2.325
 20
-2.325
 11
-2.325
 21
-1.825
  0
LINE
  8
0
 10
-2.325
 20
-1.825
 11
-1.825
 21
-1.825
  0
LINE
  8
0
 10
-1.825
 20
-1.825
 11
-1.825
 21
-2.325
  0
LINE
  8
0
 10
-1.825
 20
-2.325
 11
-2.325
 21
-2.325
  0
LINE
  8
0
 10
1.825
 20
-2.325
 11
1.825
 21
-1.825
  0
LINE
  8
0
 10
1.825
 20
-1.825
 11
2.325
 21
-1.825
  0
LINE
  8
0
 10
2.325
 20
-1.825
 11
2.325
 21
-2.325
  0
LINE
  8
0
 10
2.325
 20
-2.325
 11
1.825
 21
-2.325
  0
ENDSEC
  0
SECTION
  2
OBJECTS
  0
DICTIONARY
  0
ENDSEC
  0
EOF
