<?xml version="1.0" standalone="no"?>
<!DOCTYPE svg PUBLIC "-//W3C//DTD SVG 1.1//EN" "http://www.w3.org/Graphics/SVG/1.1/DTD/svg11.dtd">
<svg width="6mm" height="6mm" viewBox="-3 -3 6 6" xmlns="http://www.w3.org/2000/svg" version="1.1">
<title>OpenSCAD Model</title>
<path d="
M -1.7,1.89999 L 1.5,1.89999 L 1.5,-1.29999 L 1.7,-1.29999 L 1.7,2.45 L 2.45,2.45
 L 2.45,1.7 L 1.89999,1.7 L 1.89999,-1.5 L -1.29999,-1.5 L -1.29999,-1.7 L 2.45,-1.7
 L 2.45,-2.45 L 1.7,-2.45 L 1.7,-1.89999 L -1.5,-1.89999 L -1.5,1.29999 L -1.7,1.29999
 L -1.7,-2.45 L -2.45,-2.45 L -2.45,-1.7 L -1.89999,-1.7 L -1.89999,1.5 L 1.29999,1.5
 L 1.29999,1.7 L -2.45,1.7 L -2.45,2.45 L -1.7,2.45 z
M -2.325,-1.825 L -2.325,-2.325 L -1.825,-2.325 L -1.825,-1.825 z
M 1.825,-1.825 L 1.825,-2.325 L 2.325,-2.325 L 2.325,-1.825 z
M -2.325,2.325 L -2.325,1.825 L -1.825,1.825 L -1.825,2.325 z
M 1.825,2.325 L 1.825,1.825 L 2.325,1.825 L 2.325,2.325 z
" stroke="black" fill="lightgray" stroke-width="0.5"/>
</svg>
