<?xml version="1.0" standalone="no"?>
<!DOCTYPE svg PUBLIC "-//W3C//DTD SVG 1.1//EN" "http://www.w3.org/Graphics/SVG/1.1/DTD/svg11.dtd">
<svg width="20mm" height="20mm" viewBox="-10 -10 20 20" xmlns="http://www.w3.org/2000/svg" version="1.1">
<title>OpenSCAD Model</title>
<path d="
M -6.42317,7.17883 L 5.6675,7.17883 L 5.6675,-4.91183 L 6.42317,-4.91183 L 6.42317,9.25691 L 9.25691,9.25691
 L 9.25691,6.42317 L 7.17883,6.42317 L 7.17883,-5.6675 L -4.91183,-5.6675 L -4.91183,-6.42317 L 9.25691,-6.42317
 L 9.25691,-9.25691 L 6.42317,-9.25691 L 6.42317,-7.17883 L -5.6675,-7.17883 L -5.6675,4.91183 L -6.42317,4.91183
 L -6.42317,-9.25691 L -9.25691,-9.25691 L -9.25691,-6.42317 L -7.17883,-6.42317 L -7.17883,5.6675 L 4.91183,5.6675
 L 4.91183,6.42317 L -9.25691,6.42317 L -9.25691,9.25691 L -6.42317,9.25691 z
M -8.78462,-6.89546 L -8.78462,-8.78462 L -6.89546,-8.78462 L -6.89546,-6.89546 z
M 6.89546,-6.89546 L 6.89546,-8.78462 L 8.78462,-8.78462 L 8.78462,-6.89546 z
M -8.78462,8.78462 L -8.78462,6.89546 L -6.89546,6.89546 L -6.89546,8.78462 z
M 6.89546,8.78462 L 6.89546,6.89546 L 8.78462,6.89546 L 8.78462,8.78462 z
" stroke="black" fill="lightgray" stroke-width="0.5"/>
</svg>
