0
SECTION
2
HEADER
9
$ACADVER
1
AC1006
0
ENDSEC
0
SECTION
2
TABLES
0
TABLE
2
LAYER
70
8
0
LAYER
70
0
62
1
6
CONTINUOUS
2
L1D0
0
LAYER
70
0
62
2
6
CONTINUOUS
2
L2D0
0
LAYER
70
0
62
3
6
CONTINUOUS
2
L3D0
0
LAYER
70
0
62
4
6
CONTINUOUS
2
L4D0
0
LAYER
70
0
62
5
6
CONTINUOUS
2
L5D0
0
LAYER
70
0
62
6
6
CONTINUOUS
2
L6D0
0
LAYER
70
0
62
7
6
CONTINUOUS
2
L7D0
0
LAYER
70
0
62
8
6
CONTINUOUS
2
L8D0
0
ENDTAB
0
ENDSEC
0
SECTION
2
BLOCKS
0
ENDSEC
0
SECTION
2
ENTITIES
0
POLYLINE
8
L1D0
70
1
40
0
41
0
66
1
0
VERTEX
8
L1D0
10
1.69
20
1.69
0
VERTEX
8
L1D0
10
1.69
20
2.09
0
VERTEX
8
L1D0
10
2.09
20
2.09
0
VERTEX
8
L1D0
10
2.09
20
1.69
0
SEQEND
0
POLYLINE
8
L1D0
70
1
40
0
41
0
66
1
0
VERTEX
8
L1D0
10
-2.09
20
1.69
0
VERTEX
8
L1D0
10
-2.09
20
2.09
0
VERTEX
8
L1D0
10
-1.69
20
2.09
0
VERTEX
8
L1D0
10
-1.69
20
1.69
0
SEQEND
0
POLYLINE
8
L1D0
70
1
40
0
41
0
66
1
0
VERTEX
8
L1D0
10
-2.09
20
-2.09
0
VERTEX
8
L1D0
10
-2.09
20
-1.69
0
VERTEX
8
L1D0
10
-1.69
20
-1.69
0
VERTEX
8
L1D0
10
-1.69
20
-2.09
0
SEQEND
0
POLYLINE
8
L1D0
70
1
40
0
41
0
66
1
0
VERTEX
8
L1D0
10
1.69
20
-2.09
0
VERTEX
8
L1D0
10
1.69
20
-1.69
0
VERTEX
8
L1D0
10
2.09
20
-1.69
0
VERTEX
8
L1D0
10
2.09
20
-2.09
0
SEQEND
0
POLYLINE
8
L2D0
70
1
40
0
41
0
66
1
0
VERTEX
8
L2D0
10
-0.782
20
-0.188
0
VERTEX
8
L2D0
10
-1.084
20
-0.091
0
VERTEX
8
L2D0
10
-1.038
20
0.052
0
VERTEX
8
L2D0
10
-0.736
20
-0.045
0
SEQEND
0
POLYLINE
8
L2D0
70
1
40
0
41
0
66
1
0
VERTEX
8
L2D0
10
-0.7
20
-0.789
0
VERTEX
8
L2D0
10
-0.83
20
-0.715
0
VERTEX
8
L2D0
10
-0.67
20
-0.435
0
VERTEX
8
L2D0
10
-0.54
20
-0.509
0
SEQEND
0
POLYLINE
8
L2D0
70
1
40
0
41
0
66
1
0
VERTEX
8
L2D0
10
0.1
20
-1.076
0
VERTEX
8
L2D0
10
-0.042
20
-1.029
0
VERTEX
8
L2D0
10
0.06
20
-0.724
0
VERTEX
8
L2D0
10
0.202
20
-0.771
0
SEQEND
0
POLYLINE
8
L2D0
70
1
40
0
41
0
66
1
0
VERTEX
8
L2D0
10
0.727
20
-0.825
0
VERTEX
8
L2D0
10
0.446
20
-0.663
0
VERTEX
8
L2D0
10
0.521
20
-0.533
0
VERTEX
8
L2D0
10
0.802
20
-0.695
0
SEQEND
0
POLYLINE
8
L2D0
70
1
40
0
41
0
66
1
0
VERTEX
8
L2D0
10
1.032
20
-0.051
0
VERTEX
8
L2D0
10
0.727
20
0.05
0
VERTEX
8
L2D0
10
0.774
20
0.193
0
VERTEX
8
L2D0
10
1.079
20
0.092
0
SEQEND
0
POLYLINE
8
L2D0
70
1
40
0
41
0
66
1
0
VERTEX
8
L2D0
10
0.664
20
0.433
0
VERTEX
8
L2D0
10
0.532
20
0.505
0
VERTEX
8
L2D0
10
0.69
20
0.793
0
VERTEX
8
L2D0
10
0.822
20
0.721
0
SEQEND
0
POLYLINE
8
L2D0
70
1
40
0
41
0
66
1
0
VERTEX
8
L2D0
10
-0.049
20
0.732
0
VERTEX
8
L2D0
10
-0.192
20
0.777
0
VERTEX
8
L2D0
10
-0.095
20
1.08
0
VERTEX
8
L2D0
10
0.048
20
1.035
0
SEQEND
0
POLYLINE
8
L2D0
70
1
40
0
41
0
66
1
0
VERTEX
8
L2D0
10
-0.507
20
0.528
0
VERTEX
8
L2D0
10
-0.793
20
0.685
0
VERTEX
8
L2D0
10
-0.721
20
0.816
0
VERTEX
8
L2D0
10
-0.435
20
0.659
0
SEQEND
0
POLYLINE
8
L3D0
70
1
40
0
41
0
66
1
0
VERTEX
8
L3D0
10
-1.137
20
-0.094
0
VERTEX
8
L3D0
10
-1.137
20
0.056
0
VERTEX
8
L3D0
10
-0.987
20
0.056
0
VERTEX
8
L3D0
10
-0.987
20
-0.094
0
SEQEND
0
POLYLINE
8
L3D0
70
1
40
0
41
0
66
1
0
VERTEX
8
L3D0
10
-0.833
20
-0.192
0
VERTEX
8
L3D0
10
-0.833
20
-0.042
0
VERTEX
8
L3D0
10
-0.683
20
-0.042
0
VERTEX
8
L3D0
10
-0.683
20
-0.192
0
SEQEND
0
POLYLINE
8
L3D0
70
1
40
0
41
0
66
1
0
VERTEX
8
L3D0
10
-0.68
20
-0.547
0
VERTEX
8
L3D0
10
-0.68
20
-0.397
0
VERTEX
8
L3D0
10
-0.53
20
-0.397
0
VERTEX
8
L3D0
10
-0.53
20
-0.547
0
SEQEND
0
POLYLINE
8
L3D0
70
1
40
0
41
0
66
1
0
VERTEX
8
L3D0
10
-0.84
20
-0.827
0
VERTEX
8
L3D0
10
-0.84
20
-0.677
0
VERTEX
8
L3D0
10
-0.69
20
-0.677
0
VERTEX
8
L3D0
10
-0.69
20
-0.827
0
SEQEND
0
POLYLINE
8
L3D0
70
1
40
0
41
0
66
1
0
VERTEX
8
L3D0
10
-0.046
20
-1.129
0
VERTEX
8
L3D0
10
-0.046
20
-0.979
0
VERTEX
8
L3D0
10
0.104
20
-0.979
0
VERTEX
8
L3D0
10
0.104
20
-1.129
0
SEQEND
0
POLYLINE
8
L3D0
70
1
40
0
41
0
66
1
0
VERTEX
8
L3D0
10
0.056
20
-0.822
0
VERTEX
8
L3D0
10
0.056
20
-0.672
0
VERTEX
8
L3D0
10
0.206
20
-0.672
0
VERTEX
8
L3D0
10
0.206
20
-0.822
0
SEQEND
0
POLYLINE
8
L3D0
70
1
40
0
41
0
66
1
0
VERTEX
8
L3D0
10
0.408
20
-0.673
0
VERTEX
8
L3D0
10
0.408
20
-0.523
0
VERTEX
8
L3D0
10
0.558
20
-0.523
0
VERTEX
8
L3D0
10
0.558
20
-0.673
0
SEQEND
0
POLYLINE
8
L3D0
70
1
40
0
41
0
66
1
0
VERTEX
8
L3D0
10
0.69
20
-0.836
0
VERTEX
8
L3D0
10
0.69
20
-0.686
0
VERTEX
8
L3D0
10
0.84
20
-0.686
0
VERTEX
8
L3D0
10
0.84
20
-0.836
0
SEQEND
0
POLYLINE
8
L3D0
70
1
40
0
41
0
66
1
0
VERTEX
8
L3D0
10
0.98
20
-0.055
0
VERTEX
8
L3D0
10
0.98
20
0.095
0
VERTEX
8
L3D0
10
1.13
20
0.095
0
VERTEX
8
L3D0
10
1.13
20
-0.055
0
SEQEND
0
POLYLINE
8
L3D0
70
1
40
0
41
0
66
1
0
VERTEX
8
L3D0
10
0.675
20
0.046
0
VERTEX
8
L3D0
10
0.675
20
0.196
0
VERTEX
8
L3D0
10
0.825
20
0.196
0
VERTEX
8
L3D0
10
0.825
20
0.046
0
SEQEND
0
POLYLINE
8
L3D0
70
1
40
0
41
0
66
1
0
VERTEX
8
L3D0
10
0.522
20
0.394
0
VERTEX
8
L3D0
10
0.522
20
0.544
0
VERTEX
8
L3D0
10
0.672
20
0.544
0
VERTEX
8
L3D0
10
0.672
20
0.394
0
SEQEND
0
POLYLINE
8
L3D0
70
1
40
0
41
0
66
1
0
VERTEX
8
L3D0
10
0.681
20
0.683
0
VERTEX
8
L3D0
10
0.681
20
0.833
0
VERTEX
8
L3D0
10
0.831
20
0.833
0
VERTEX
8
L3D0
10
0.831
20
0.683
0
SEQEND
0
POLYLINE
8
L3D0
70
1
40
0
41
0
66
1
0
VERTEX
8
L3D0
10
-0.099
20
0.983
0
VERTEX
8
L3D0
10
-0.099
20
1.133
0
VERTEX
8
L3D0
10
0.051
20
1.133
0
VERTEX
8
L3D0
10
0.051
20
0.983
0
SEQEND
0
POLYLINE
8
L3D0
70
1
40
0
41
0
66
1
0
VERTEX
8
L3D0
10
-0.195
20
0.68
0
VERTEX
8
L3D0
10
-0.195
20
0.83
0
VERTEX
8
L3D0
10
-0.045
20
0.83
0
VERTEX
8
L3D0
10
-0.045
20
0.68
0
SEQEND
0
POLYLINE
8
L3D0
70
1
40
0
41
0
66
1
0
VERTEX
8
L3D0
10
-0.546
20
0.518
0
VERTEX
8
L3D0
10
-0.546
20
0.668
0
VERTEX
8
L3D0
10
-0.396
20
0.668
0
VERTEX
8
L3D0
10
-0.396
20
0.518
0
SEQEND
0
POLYLINE
8
L3D0
70
1
40
0
41
0
66
1
0
VERTEX
8
L3D0
10
-0.832
20
0.676
0
VERTEX
8
L3D0
10
-0.832
20
0.826
0
VERTEX
8
L3D0
10
-0.682
20
0.826
0
VERTEX
8
L3D0
10
-0.682
20
0.676
0
SEQEND
0
POLYLINE
8
L4D0
70
1
40
0
41
0
66
1
0
VERTEX
8
L4D0
10
-2.19
20
-2.19
0
VERTEX
8
L4D0
10
-2.19
20
-1.59
0
VERTEX
8
L4D0
10
1.19
20
-1.59
0
VERTEX
8
L4D0
10
1.19
20
-1.39
0
VERTEX
8
L4D0
10
-1.79
20
-1.39
0
VERTEX
8
L4D0
10
-1.79
20
1.59
0
VERTEX
8
L4D0
10
-2.19
20
1.59
0
VERTEX
8
L4D0
10
-2.19
20
2.19
0
VERTEX
8
L4D0
10
-1.59
20
2.19
0
VERTEX
8
L4D0
10
-1.59
20
-1.19
0
VERTEX
8
L4D0
10
-1.39
20
-1.19
0
VERTEX
8
L4D0
10
-1.39
20
1.79
0
VERTEX
8
L4D0
10
1.59
20
1.79
0
VERTEX
8
L4D0
10
1.59
20
2.19
0
VERTEX
8
L4D0
10
2.19
20
2.19
0
VERTEX
8
L4D0
10
2.19
20
1.59
0
VERTEX
8
L4D0
10
-1.19
20
1.59
0
VERTEX
8
L4D0
10
-1.19
20
1.39
0
VERTEX
8
L4D0
10
1.79
20
1.39
0
VERTEX
8
L4D0
10
1.79
20
-1.59
0
VERTEX
8
L4D0
10
2.19
20
-1.59
0
VERTEX
8
L4D0
10
2.19
20
-2.19
0
VERTEX
8
L4D0
10
1.59
20
-2.19
0
VERTEX
8
L4D0
10
1.59
20
1.19
0
VERTEX
8
L4D0
10
1.39
20
1.19
0
VERTEX
8
L4D0
10
1.39
20
-1.79
0
VERTEX
8
L4D0
10
-1.59
20
-1.79
0
VERTEX
8
L4D0
10
-1.59
20
-2.19
0
SEQEND
0
POLYLINE
8
L5D0
70
1
40
0
41
0
66
1
0
VERTEX
8
L5D0
10
-0.05
20
-0.05
0
VERTEX
8
L5D0
10
-0.05
20
0.05
0
VERTEX
8
L5D0
10
0.05
20
0.05
0
VERTEX
8
L5D0
10
0.05
20
-0.05
0
SEQEND
0
POLYLINE
8
L5D0
70
1
40
0
41
0
66
1
0
VERTEX
8
L5D0
10
0.411
20
0.141
0
VERTEX
8
L5D0
10
0.411
20
0.241
0
VERTEX
8
L5D0
10
0.511
20
0.241
0
VERTEX
8
L5D0
10
0.511
20
0.141
0
SEQEND
0
POLYLINE
8
L5D0
70
1
40
0
41
0
66
1
0
VERTEX
8
L5D0
10
0.141
20
0.411
0
VERTEX
8
L5D0
10
0.141
20
0.511
0
VERTEX
8
L5D0
10
0.241
20
0.511
0
VERTEX
8
L5D0
10
0.241
20
0.411
0
SEQEND
0
POLYLINE
8
L5D0
70
1
40
0
41
0
66
1
0
VERTEX
8
L5D0
10
-0.241
20
0.411
0
VERTEX
8
L5D0
10
-0.241
20
0.511
0
VERTEX
8
L5D0
10
-0.141
20
0.511
0
VERTEX
8
L5D0
10
-0.141
20
0.411
0
SEQEND
0
POLYLINE
8
L5D0
70
1
40
0
41
0
66
1
0
VERTEX
8
L5D0
10
-0.511
20
0.141
0
VERTEX
8
L5D0
10
-0.511
20
0.241
0
VERTEX
8
L5D0
10
-0.411
20
0.241
0
VERTEX
8
L5D0
10
-0.411
20
0.141
0
SEQEND
0
POLYLINE
8
L5D0
70
1
40
0
41
0
66
1
0
VERTEX
8
L5D0
10
-0.511
20
-0.241
0
VERTEX
8
L5D0
10
-0.511
20
-0.141
0
VERTEX
8
L5D0
10
-0.411
20
-0.141
0
VERTEX
8
L5D0
10
-0.411
20
-0.241
0
SEQEND
0
POLYLINE
8
L5D0
70
1
40
0
41
0
66
1
0
VERTEX
8
L5D0
10
-0.241
20
-0.511
0
VERTEX
8
L5D0
10
-0.241
20
-0.411
0
VERTEX
8
L5D0
10
-0.141
20
-0.411
0
VERTEX
8
L5D0
10
-0.141
20
-0.511
0
SEQEND
0
POLYLINE
8
L5D0
70
1
40
0
41
0
66
1
0
VERTEX
8
L5D0
10
0.141
20
-0.511
0
VERTEX
8
L5D0
10
0.141
20
-0.411
0
VERTEX
8
L5D0
10
0.241
20
-0.411
0
VERTEX
8
L5D0
10
0.241
20
-0.511
0
SEQEND
0
POLYLINE
8
L5D0
70
1
40
0
41
0
66
1
0
VERTEX
8
L5D0
10
0.411
20
-0.241
0
VERTEX
8
L5D0
10
0.411
20
-0.141
0
VERTEX
8
L5D0
10
0.511
20
-0.141
0
VERTEX
8
L5D0
10
0.511
20
-0.241
0
SEQEND
0
POLYLINE
8
L5D0
70
1
40
0
41
0
66
1
0
VERTEX
8
L5D0
10
0.93
20
0.145
0
VERTEX
8
L5D0
10
0.93
20
0.245
0
VERTEX
8
L5D0
10
1.03
20
0.245
0
VERTEX
8
L5D0
10
1.03
20
0.145
0
SEQEND
0
POLYLINE
8
L5D0
70
1
40
0
41
0
66
1
0
VERTEX
8
L5D0
10
0.781
20
0.505
0
VERTEX
8
L5D0
10
0.781
20
0.605
0
VERTEX
8
L5D0
10
0.881
20
0.605
0
VERTEX
8
L5D0
10
0.881
20
0.505
0
SEQEND
0
POLYLINE
8
L5D0
70
1
40
0
41
0
66
1
0
VERTEX
8
L5D0
10
0.505
20
0.781
0
VERTEX
8
L5D0
10
0.505
20
0.881
0
VERTEX
8
L5D0
10
0.605
20
0.881
0
VERTEX
8
L5D0
10
0.605
20
0.781
0
SEQEND
0
POLYLINE
8
L5D0
70
1
40
0
41
0
66
1
0
VERTEX
8
L5D0
10
0.145
20
0.93
0
VERTEX
8
L5D0
10
0.145
20
1.03
0
VERTEX
8
L5D0
10
0.245
20
1.03
0
VERTEX
8
L5D0
10
0.245
20
0.93
0
SEQEND
0
POLYLINE
8
L5D0
70
1
40
0
41
0
66
1
0
VERTEX
8
L5D0
10
-0.245
20
0.93
0
VERTEX
8
L5D0
10
-0.245
20
1.03
0
VERTEX
8
L5D0
10
-0.145
20
1.03
0
VERTEX
8
L5D0
10
-0.145
20
0.93
0
SEQEND
0
POLYLINE
8
L5D0
70
1
40
0
41
0
66
1
0
VERTEX
8
L5D0
10
-0.605
20
0.781
0
VERTEX
8
L5D0
10
-0.605
20
0.881
0
VERTEX
8
L5D0
10
-0.505
20
0.881
0
VERTEX
8
L5D0
10
-0.505
20
0.781
0
SEQEND
0
POLYLINE
8
L5D0
70
1
40
0
41
0
66
1
0
VERTEX
8
L5D0
10
-0.881
20
0.505
0
VERTEX
8
L5D0
10
-0.881
20
0.605
0
VERTEX
8
L5D0
10
-0.781
20
0.605
0
VERTEX
8
L5D0
10
-0.781
20
0.505
0
SEQEND
0
POLYLINE
8
L5D0
70
1
40
0
41
0
66
1
0
VERTEX
8
L5D0
10
-1.03
20
0.145
0
VERTEX
8
L5D0
10
-1.03
20
0.245
0
VERTEX
8
L5D0
10
-0.93
20
0.245
0
VERTEX
8
L5D0
10
-0.93
20
0.145
0
SEQEND
0
POLYLINE
8
L5D0
70
1
40
0
41
0
66
1
0
VERTEX
8
L5D0
10
-1.03
20
-0.245
0
VERTEX
8
L5D0
10
-1.03
20
-0.145
0
VERTEX
8
L5D0
10
-0.93
20
-0.145
0
VERTEX
8
L5D0
10
-0.93
20
-0.245
0
SEQEND
0
POLYLINE
8
L5D0
70
1
40
0
41
0
66
1
0
VERTEX
8
L5D0
10
-0.881
20
-0.605
0
VERTEX
8
L5D0
10
-0.881
20
-0.505
0
VERTEX
8
L5D0
10
-0.781
20
-0.505
0
VERTEX
8
L5D0
10
-0.781
20
-0.605
0
SEQEND
0
POLYLINE
8
L5D0
70
1
40
0
41
0
66
1
0
VERTEX
8
L5D0
10
-0.605
20
-0.881
0
VERTEX
8
L5D0
10
-0.605
20
-0.781
0
VERTEX
8
L5D0
10
-0.505
20
-0.781
0
VERTEX
8
L5D0
10
-0.505
20
-0.881
0
SEQEND
0
POLYLINE
8
L5D0
70
1
40
0
41
0
66
1
0
VERTEX
8
L5D0
10
-0.245
20
-1.03
0
VERTEX
8
L5D0
10
-0.245
20
-0.93
0
VERTEX
8
L5D0
10
-0.145
20
-0.93
0
VERTEX
8
L5D0
10
-0.145
20
-1.03
0
SEQEND
0
POLYLINE
8
L5D0
70
1
40
0
41
0
66
1
0
VERTEX
8
L5D0
10
0.145
20
-1.03
0
VERTEX
8
L5D0
10
0.145
20
-0.93
0
VERTEX
8
L5D0
10
0.245
20
-0.93
0
VERTEX
8
L5D0
10
0.245
20
-1.03
0
SEQEND
0
POLYLINE
8
L5D0
70
1
40
0
41
0
66
1
0
VERTEX
8
L5D0
10
0.505
20
-0.881
0
VERTEX
8
L5D0
10
0.505
20
-0.781
0
VERTEX
8
L5D0
10
0.605
20
-0.781
0
VERTEX
8
L5D0
10
0.605
20
-0.881
0
SEQEND
0
POLYLINE
8
L5D0
70
1
40
0
41
0
66
1
0
VERTEX
8
L5D0
10
0.781
20
-0.605
0
VERTEX
8
L5D0
10
0.781
20
-0.505
0
VERTEX
8
L5D0
10
0.881
20
-0.505
0
VERTEX
8
L5D0
10
0.881
20
-0.605
0
SEQEND
0
POLYLINE
8
L5D0
70
1
40
0
41
0
66
1
0
VERTEX
8
L5D0
10
0.93
20
-0.245
0
VERTEX
8
L5D0
10
0.93
20
-0.145
0
VERTEX
8
L5D0
10
1.03
20
-0.145
0
VERTEX
8
L5D0
10
1.03
20
-0.245
0
SEQEND
0
POLYLINE
8
L5D0
70
1
40
0
41
0
66
1
0
VERTEX
8
L5D0
10
1.14
20
0.863
0
VERTEX
8
L5D0
10
1.14
20
0.963
0
VERTEX
8
L5D0
10
1.24
20
0.963
0
VERTEX
8
L5D0
10
1.24
20
0.863
0
SEQEND
0
POLYLINE
8
L5D0
70
1
40
0
41
0
66
1
0
VERTEX
8
L5D0
10
0.863
20
1.14
0
VERTEX
8
L5D0
10
0.863
20
1.24
0
VERTEX
8
L5D0
10
0.963
20
1.24
0
VERTEX
8
L5D0
10
0.963
20
1.14
0
SEQEND
0
POLYLINE
8
L5D0
70
1
40
0
41
0
66
1
0
VERTEX
8
L5D0
10
-0.963
20
1.14
0
VERTEX
8
L5D0
10
-0.963
20
1.24
0
VERTEX
8
L5D0
10
-0.863
20
1.24
0
VERTEX
8
L5D0
10
-0.863
20
1.14
0
SEQEND
0
POLYLINE
8
L5D0
70
1
40
0
41
0
66
1
0
VERTEX
8
L5D0
10
-1.24
20
0.863
0
VERTEX
8
L5D0
10
-1.24
20
0.963
0
VERTEX
8
L5D0
10
-1.14
20
0.963
0
VERTEX
8
L5D0
10
-1.14
20
0.863
0
SEQEND
0
POLYLINE
8
L5D0
70
1
40
0
41
0
66
1
0
VERTEX
8
L5D0
10
-1.24
20
-0.963
0
VERTEX
8
L5D0
10
-1.24
20
-0.863
0
VERTEX
8
L5D0
10
-1.14
20
-0.863
0
VERTEX
8
L5D0
10
-1.14
20
-0.963
0
SEQEND
0
POLYLINE
8
L5D0
70
1
40
0
41
0
66
1
0
VERTEX
8
L5D0
10
-0.963
20
-1.24
0
VERTEX
8
L5D0
10
-0.963
20
-1.14
0
VERTEX
8
L5D0
10
-0.863
20
-1.14
0
VERTEX
8
L5D0
10
-0.863
20
-1.24
0
SEQEND
0
POLYLINE
8
L5D0
70
1
40
0
41
0
66
1
0
VERTEX
8
L5D0
10
0.863
20
-1.24
0
VERTEX
8
L5D0
10
0.863
20
-1.14
0
VERTEX
8
L5D0
10
0.963
20
-1.14
0
VERTEX
8
L5D0
10
0.963
20
-1.24
0
SEQEND
0
POLYLINE
8
L5D0
70
1
40
0
41
0
66
1
0
VERTEX
8
L5D0
10
1.14
20
-0.963
0
VERTEX
8
L5D0
10
1.14
20
-0.863
0
VERTEX
8
L5D0
10
1.24
20
-0.863
0
VERTEX
8
L5D0
10
1.24
20
-0.963
0
SEQEND
0
POLYLINE
8
L6D0
70
1
40
0
41
0
66
1
0
VERTEX
8
L6D0
10
1.69
20
1.69
0
VERTEX
8
L6D0
10
1.69
20
2.09
0
VERTEX
8
L6D0
10
2.09
20
2.09
0
VERTEX
8
L6D0
10
2.09
20
1.69
0
SEQEND
0
POLYLINE
8
L6D0
70
1
40
0
41
0
66
1
0
VERTEX
8
L6D0
10
-2.09
20
1.69
0
VERTEX
8
L6D0
10
-2.09
20
2.09
0
VERTEX
8
L6D0
10
-1.69
20
2.09
0
VERTEX
8
L6D0
10
-1.69
20
1.69
0
SEQEND
0
POLYLINE
8
L6D0
70
1
40
0
41
0
66
1
0
VERTEX
8
L6D0
10
-2.09
20
-2.09
0
VERTEX
8
L6D0
10
-2.09
20
-1.69
0
VERTEX
8
L6D0
10
-1.69
20
-1.69
0
VERTEX
8
L6D0
10
-1.69
20
-2.09
0
SEQEND
0
POLYLINE
8
L6D0
70
1
40
0
41
0
66
1
0
VERTEX
8
L6D0
10
1.69
20
-2.09
0
VERTEX
8
L6D0
10
1.69
20
-1.69
0
VERTEX
8
L6D0
10
2.09
20
-1.69
0
VERTEX
8
L6D0
10
2.09
20
-2.09
0
SEQEND
0
POLYLINE
8
L6D0
70
1
40
0
41
0
66
1
0
VERTEX
8
L6D0
10
-1.39
20
-1.39
0
VERTEX
8
L6D0
10
-1.39
20
1.39
0
VERTEX
8
L6D0
10
1.39
20
1.39
0
VERTEX
8
L6D0
10
1.39
20
-1.39
0
SEQEND
0
POLYLINE
8
L7D0
70
1
40
0
41
0
66
1
0
VERTEX
8
L7D0
10
-1.337
20
-0.294
0
VERTEX
8
L7D0
10
-1.337
20
0.256
0
VERTEX
8
L7D0
10
-0.787
20
0.256
0
VERTEX
8
L7D0
10
-0.787
20
-0.294
0
SEQEND
0
POLYLINE
8
L7D0
70
1
40
0
41
0
66
1
0
VERTEX
8
L7D0
10
-1.033
20
-0.392
0
VERTEX
8
L7D0
10
-1.033
20
0.158
0
VERTEX
8
L7D0
10
-0.483
20
0.158
0
VERTEX
8
L7D0
10
-0.483
20
-0.392
0
SEQEND
0
POLYLINE
8
L7D0
70
1
40
0
41
0
66
1
0
VERTEX
8
L7D0
10
-0.88
20
-0.747
0
VERTEX
8
L7D0
10
-0.88
20
-0.197
0
VERTEX
8
L7D0
10
-0.33
20
-0.197
0
VERTEX
8
L7D0
10
-0.33
20
-0.747
0
SEQEND
0
POLYLINE
8
L7D0
70
1
40
0
41
0
66
1
0
VERTEX
8
L7D0
10
-1.04
20
-1.027
0
VERTEX
8
L7D0
10
-1.04
20
-0.477
0
VERTEX
8
L7D0
10
-0.49
20
-0.477
0
VERTEX
8
L7D0
10
-0.49
20
-1.027
0
SEQEND
0
POLYLINE
8
L7D0
70
1
40
0
41
0
66
1
0
VERTEX
8
L7D0
10
-0.246
20
-1.329
0
VERTEX
8
L7D0
10
-0.246
20
-0.779
0
VERTEX
8
L7D0
10
0.304
20
-0.779
0
VERTEX
8
L7D0
10
0.304
20
-1.329
0
SEQEND
0
POLYLINE
8
L7D0
70
1
40
0
41
0
66
1
0
VERTEX
8
L7D0
10
-0.144
20
-1.022
0
VERTEX
8
L7D0
10
-0.144
20
-0.472
0
VERTEX
8
L7D0
10
0.406
20
-0.472
0
VERTEX
8
L7D0
10
0.406
20
-1.022
0
SEQEND
0
POLYLINE
8
L7D0
70
1
40
0
41
0
66
1
0
VERTEX
8
L7D0
10
0.208
20
-0.873
0
VERTEX
8
L7D0
10
0.208
20
-0.323
0
VERTEX
8
L7D0
10
0.758
20
-0.323
0
VERTEX
8
L7D0
10
0.758
20
-0.873
0
SEQEND
0
POLYLINE
8
L7D0
70
1
40
0
41
0
66
1
0
VERTEX
8
L7D0
10
0.49
20
-1.036
0
VERTEX
8
L7D0
10
0.49
20
-0.486
0
VERTEX
8
L7D0
10
1.04
20
-0.486
0
VERTEX
8
L7D0
10
1.04
20
-1.036
0
SEQEND
0
POLYLINE
8
L7D0
70
1
40
0
41
0
66
1
0
VERTEX
8
L7D0
10
0.78
20
-0.255
0
VERTEX
8
L7D0
10
0.78
20
0.295
0
VERTEX
8
L7D0
10
1.33
20
0.295
0
VERTEX
8
L7D0
10
1.33
20
-0.255
0
SEQEND
0
POLYLINE
8
L7D0
70
1
40
0
41
0
66
1
0
VERTEX
8
L7D0
10
0.475
20
-0.154
0
VERTEX
8
L7D0
10
0.475
20
0.396
0
VERTEX
8
L7D0
10
1.025
20
0.396
0
VERTEX
8
L7D0
10
1.025
20
-0.154
0
SEQEND
0
POLYLINE
8
L7D0
70
1
40
0
41
0
66
1
0
VERTEX
8
L7D0
10
0.322
20
0.194
0
VERTEX
8
L7D0
10
0.322
20
0.744
0
VERTEX
8
L7D0
10
0.872
20
0.744
0
VERTEX
8
L7D0
10
0.872
20
0.194
0
SEQEND
0
POLYLINE
8
L7D0
70
1
40
0
41
0
66
1
0
VERTEX
8
L7D0
10
0.481
20
0.483
0
VERTEX
8
L7D0
10
0.481
20
1.033
0
VERTEX
8
L7D0
10
1.031
20
1.033
0
VERTEX
8
L7D0
10
1.031
20
0.483
0
SEQEND
0
POLYLINE
8
L7D0
70
1
40
0
41
0
66
1
0
VERTEX
8
L7D0
10
-0.299
20
0.783
0
VERTEX
8
L7D0
10
-0.299
20
1.333
0
VERTEX
8
L7D0
10
0.251
20
1.333
0
VERTEX
8
L7D0
10
0.251
20
0.783
0
SEQEND
0
POLYLINE
8
L7D0
70
1
40
0
41
0
66
1
0
VERTEX
8
L7D0
10
-0.395
20
0.48
0
VERTEX
8
L7D0
10
-0.395
20
1.03
0
VERTEX
8
L7D0
10
0.155
20
1.03
0
VERTEX
8
L7D0
10
0.155
20
0.48
0
SEQEND
0
POLYLINE
8
L7D0
70
1
40
0
41
0
66
1
0
VERTEX
8
L7D0
10
-0.746
20
0.318
0
VERTEX
8
L7D0
10
-0.746
20
0.868
0
VERTEX
8
L7D0
10
-0.196
20
0.868
0
VERTEX
8
L7D0
10
-0.196
20
0.318
0
SEQEND
0
POLYLINE
8
L7D0
70
1
40
0
41
0
66
1
0
VERTEX
8
L7D0
10
-1.032
20
0.476
0
VERTEX
8
L7D0
10
-1.032
20
1.026
0
VERTEX
8
L7D0
10
-0.482
20
1.026
0
VERTEX
8
L7D0
10
-0.482
20
0.476
0
SEQEND
0
POLYLINE
8
L8D0
70
1
40
0
41
0
66
1
0
VERTEX
8
L8D0
10
-1.137
20
-0.094
0
VERTEX
8
L8D0
10
-1.137
20
0.056
0
VERTEX
8
L8D0
10
-0.987
20
0.056
0
VERTEX
8
L8D0
10
-0.987
20
-0.094
0
SEQEND
0
POLYLINE
8
L8D0
70
1
40
0
41
0
66
1
0
VERTEX
8
L8D0
10
-0.833
20
-0.192
0
VERTEX
8
L8D0
10
-0.833
20
-0.042
0
VERTEX
8
L8D0
10
-0.683
20
-0.042
0
VERTEX
8
L8D0
10
-0.683
20
-0.192
0
SEQEND
0
POLYLINE
8
L8D0
70
1
40
0
41
0
66
1
0
VERTEX
8
L8D0
10
-0.68
20
-0.547
0
VERTEX
8
L8D0
10
-0.68
20
-0.397
0
VERTEX
8
L8D0
10
-0.53
20
-0.397
0
VERTEX
8
L8D0
10
-0.53
20
-0.547
0
SEQEND
0
POLYLINE
8
L8D0
70
1
40
0
41
0
66
1
0
VERTEX
8
L8D0
10
-0.84
20
-0.827
0
VERTEX
8
L8D0
10
-0.84
20
-0.677
0
VERTEX
8
L8D0
10
-0.69
20
-0.677
0
VERTEX
8
L8D0
10
-0.69
20
-0.827
0
SEQEND
0
POLYLINE
8
L8D0
70
1
40
0
41
0
66
1
0
VERTEX
8
L8D0
10
-0.046
20
-1.129
0
VERTEX
8
L8D0
10
-0.046
20
-0.979
0
VERTEX
8
L8D0
10
0.104
20
-0.979
0
VERTEX
8
L8D0
10
0.104
20
-1.129
0
SEQEND
0
POLYLINE
8
L8D0
70
1
40
0
41
0
66
1
0
VERTEX
8
L8D0
10
0.056
20
-0.822
0
VERTEX
8
L8D0
10
0.056
20
-0.672
0
VERTEX
8
L8D0
10
0.206
20
-0.672
0
VERTEX
8
L8D0
10
0.206
20
-0.822
0
SEQEND
0
POLYLINE
8
L8D0
70
1
40
0
41
0
66
1
0
VERTEX
8
L8D0
10
0.408
20
-0.673
0
VERTEX
8
L8D0
10
0.408
20
-0.523
0
VERTEX
8
L8D0
10
0.558
20
-0.523
0
VERTEX
8
L8D0
10
0.558
20
-0.673
0
SEQEND
0
POLYLINE
8
L8D0
70
1
40
0
41
0
66
1
0
VERTEX
8
L8D0
10
0.69
20
-0.836
0
VERTEX
8
L8D0
10
0.69
20
-0.686
0
VERTEX
8
L8D0
10
0.84
20
-0.686
0
VERTEX
8
L8D0
10
0.84
20
-0.836
0
SEQEND
0
POLYLINE
8
L8D0
70
1
40
0
41
0
66
1
0
VERTEX
8
L8D0
10
0.98
20
-0.055
0
VERTEX
8
L8D0
10
0.98
20
0.095
0
VERTEX
8
L8D0
10
1.13
20
0.095
0
VERTEX
8
L8D0
10
1.13
20
-0.055
0
SEQEND
0
POLYLINE
8
L8D0
70
1
40
0
41
0
66
1
0
VERTEX
8
L8D0
10
0.675
20
0.046
0
VERTEX
8
L8D0
10
0.675
20
0.196
0
VERTEX
8
L8D0
10
0.825
20
0.196
0
VERTEX
8
L8D0
10
0.825
20
0.046
0
SEQEND
0
POLYLINE
8
L8D0
70
1
40
0
41
0
66
1
0
VERTEX
8
L8D0
10
0.522
20
0.394
0
VERTEX
8
L8D0
10
0.522
20
0.544
0
VERTEX
8
L8D0
10
0.672
20
0.544
0
VERTEX
8
L8D0
10
0.672
20
0.394
0
SEQEND
0
POLYLINE
8
L8D0
70
1
40
0
41
0
66
1
0
VERTEX
8
L8D0
10
0.681
20
0.683
0
VERTEX
8
L8D0
10
0.681
20
0.833
0
VERTEX
8
L8D0
10
0.831
20
0.833
0
VERTEX
8
L8D0
10
0.831
20
0.683
0
SEQEND
0
POLYLINE
8
L8D0
70
1
40
0
41
0
66
1
0
VERTEX
8
L8D0
10
-0.099
20
0.983
0
VERTEX
8
L8D0
10
-0.099
20
1.133
0
VERTEX
8
L8D0
10
0.051
20
1.133
0
VERTEX
8
L8D0
10
0.051
20
0.983
0
SEQEND
0
POLYLINE
8
L8D0
70
1
40
0
41
0
66
1
0
VERTEX
8
L8D0
10
-0.195
20
0.68
0
VERTEX
8
L8D0
10
-0.195
20
0.83
0
VERTEX
8
L8D0
10
-0.045
20
0.83
0
VERTEX
8
L8D0
10
-0.045
20
0.68
0
SEQEND
0
POLYLINE
8
L8D0
70
1
40
0
41
0
66
1
0
VERTEX
8
L8D0
10
-0.546
20
0.518
0
VERTEX
8
L8D0
10
-0.546
20
0.668
0
VERTEX
8
L8D0
10
-0.396
20
0.668
0
VERTEX
8
L8D0
10
-0.396
20
0.518
0
SEQEND
0
POLYLINE
8
L8D0
70
1
40
0
41
0
66
1
0
VERTEX
8
L8D0
10
-0.832
20
0.676
0
VERTEX
8
L8D0
10
-0.832
20
0.826
0
VERTEX
8
L8D0
10
-0.682
20
0.826
0
VERTEX
8
L8D0
10
-0.682
20
0.676
0
SEQEND
0
ENDSEC
0
EOF
