0
SECTION
2
HEADER
9
$ACADVER
1
AC1006
0
ENDSEC
0
SECTION
2
TABLES
0
TABLE
2
LAYER
70
5
0
LAYER
70
0
62
1
6
CONTINUOUS
2
L1D0
0
LAYER
70
0
62
2
6
CONTINUOUS
2
L2D0
0
LAYER
70
0
62
3
6
CONTINUOUS
2
L3D0
0
LAYER
70
0
62
4
6
CONTINUOUS
2
L4D0
0
LAYER
70
0
62
5
6
CONTINUOUS
2
L5D0
0
ENDTAB
0
ENDSEC
0
SECTION
2
BLOCKS
0
ENDSEC
0
SECTION
2
ENTITIES
0
POLYLINE
8
L1D0
70
1
40
0
41
0
66
1
0
VERTEX
8
L1D0
10
1.8
20
1.8
0
VERTEX
8
L1D0
10
1.8
20
2.2
0
VERTEX
8
L1D0
10
2.2
20
2.2
0
VERTEX
8
L1D0
10
2.2
20
1.8
0
SEQEND
0
POLYLINE
8
L1D0
70
1
40
0
41
0
66
1
0
VERTEX
8
L1D0
10
-2.2
20
1.8
0
VERTEX
8
L1D0
10
-2.2
20
2.2
0
VERTEX
8
L1D0
10
-1.8
20
2.2
0
VERTEX
8
L1D0
10
-1.8
20
1.8
0
SEQEND
0
POLYLINE
8
L1D0
70
1
40
0
41
0
66
1
0
VERTEX
8
L1D0
10
-2.2
20
-2.2
0
VERTEX
8
L1D0
10
-2.2
20
-1.8
0
VERTEX
8
L1D0
10
-1.8
20
-1.8
0
VERTEX
8
L1D0
10
-1.8
20
-2.2
0
SEQEND
0
POLYLINE
8
L1D0
70
1
40
0
41
0
66
1
0
VERTEX
8
L1D0
10
1.8
20
-2.2
0
VERTEX
8
L1D0
10
1.8
20
-1.8
0
VERTEX
8
L1D0
10
2.2
20
-1.8
0
VERTEX
8
L1D0
10
2.2
20
-2.2
0
SEQEND
0
POLYLINE
8
L2D0
70
1
40
0
41
0
66
1
0
VERTEX
8
L2D0
10
-0.497
20
0.781
0
VERTEX
8
L2D0
10
-0.549
20
0.922
0
VERTEX
8
L2D0
10
-0.181
20
1.058
0
VERTEX
8
L2D0
10
-0.129
20
0.917
0
SEQEND
0
POLYLINE
8
L2D0
70
1
40
0
41
0
66
1
0
VERTEX
8
L2D0
10
-0.734
20
0.16
0
VERTEX
8
L2D0
10
-0.87
20
0.223
0
VERTEX
8
L2D0
10
-0.735
20
0.517
0
VERTEX
8
L2D0
10
-0.598
20
0.454
0
SEQEND
0
POLYLINE
8
L2D0
70
1
40
0
41
0
66
1
0
VERTEX
8
L2D0
10
-0.922
20
-0.549
0
VERTEX
8
L2D0
10
-1.058
20
-0.181
0
VERTEX
8
L2D0
10
-0.917
20
-0.129
0
VERTEX
8
L2D0
10
-0.781
20
-0.497
0
SEQEND
0
POLYLINE
8
L2D0
70
1
40
0
41
0
66
1
0
VERTEX
8
L2D0
10
-0.223
20
-0.87
0
VERTEX
8
L2D0
10
-0.517
20
-0.735
0
VERTEX
8
L2D0
10
-0.454
20
-0.598
0
VERTEX
8
L2D0
10
-0.16
20
-0.734
0
SEQEND
0
POLYLINE
8
L2D0
70
1
40
0
41
0
66
1
0
VERTEX
8
L2D0
10
0.181
20
-1.058
0
VERTEX
8
L2D0
10
0.129
20
-0.917
0
VERTEX
8
L2D0
10
0.497
20
-0.781
0
VERTEX
8
L2D0
10
0.549
20
-0.922
0
SEQEND
0
POLYLINE
8
L2D0
70
1
40
0
41
0
66
1
0
VERTEX
8
L2D0
10
0.735
20
-0.517
0
VERTEX
8
L2D0
10
0.598
20
-0.454
0
VERTEX
8
L2D0
10
0.734
20
-0.16
0
VERTEX
8
L2D0
10
0.87
20
-0.223
0
SEQEND
0
POLYLINE
8
L2D0
70
1
40
0
41
0
66
1
0
VERTEX
8
L2D0
10
0.917
20
0.129
0
VERTEX
8
L2D0
10
0.781
20
0.497
0
VERTEX
8
L2D0
10
0.922
20
0.549
0
VERTEX
8
L2D0
10
1.058
20
0.181
0
SEQEND
0
POLYLINE
8
L2D0
70
1
40
0
41
0
66
1
0
VERTEX
8
L2D0
10
0.454
20
0.598
0
VERTEX
8
L2D0
10
0.16
20
0.734
0
VERTEX
8
L2D0
10
0.223
20
0.87
0
VERTEX
8
L2D0
10
0.517
20
0.735
0
SEQEND
0
POLYLINE
8
L3D0
70
1
40
0
41
0
66
1
0
VERTEX
8
L3D0
10
0.912
20
0.081
0
VERTEX
8
L3D0
10
0.912
20
0.231
0
VERTEX
8
L3D0
10
1.062
20
0.231
0
VERTEX
8
L3D0
10
1.062
20
0.081
0
SEQEND
0
POLYLINE
8
L3D0
70
1
40
0
41
0
66
1
0
VERTEX
8
L3D0
10
0.777
20
0.447
0
VERTEX
8
L3D0
10
0.777
20
0.597
0
VERTEX
8
L3D0
10
0.927
20
0.597
0
VERTEX
8
L3D0
10
0.927
20
0.447
0
SEQEND
0
POLYLINE
8
L3D0
70
1
40
0
41
0
66
1
0
VERTEX
8
L3D0
10
0.409
20
0.592
0
VERTEX
8
L3D0
10
0.409
20
0.742
0
VERTEX
8
L3D0
10
0.559
20
0.742
0
VERTEX
8
L3D0
10
0.559
20
0.592
0
SEQEND
0
POLYLINE
8
L3D0
70
1
40
0
41
0
66
1
0
VERTEX
8
L3D0
10
0.117
20
0.727
0
VERTEX
8
L3D0
10
0.117
20
0.877
0
VERTEX
8
L3D0
10
0.267
20
0.877
0
VERTEX
8
L3D0
10
0.267
20
0.727
0
SEQEND
0
POLYLINE
8
L3D0
70
1
40
0
41
0
66
1
0
VERTEX
8
L3D0
10
-0.231
20
0.912
0
VERTEX
8
L3D0
10
-0.231
20
1.062
0
VERTEX
8
L3D0
10
-0.081
20
1.062
0
VERTEX
8
L3D0
10
-0.081
20
0.912
0
SEQEND
0
POLYLINE
8
L3D0
70
1
40
0
41
0
66
1
0
VERTEX
8
L3D0
10
-0.597
20
0.777
0
VERTEX
8
L3D0
10
-0.597
20
0.927
0
VERTEX
8
L3D0
10
-0.447
20
0.927
0
VERTEX
8
L3D0
10
-0.447
20
0.777
0
SEQEND
0
POLYLINE
8
L3D0
70
1
40
0
41
0
66
1
0
VERTEX
8
L3D0
10
-0.742
20
0.409
0
VERTEX
8
L3D0
10
-0.742
20
0.559
0
VERTEX
8
L3D0
10
-0.592
20
0.559
0
VERTEX
8
L3D0
10
-0.592
20
0.409
0
SEQEND
0
POLYLINE
8
L3D0
70
1
40
0
41
0
66
1
0
VERTEX
8
L3D0
10
-0.877
20
0.117
0
VERTEX
8
L3D0
10
-0.877
20
0.267
0
VERTEX
8
L3D0
10
-0.727
20
0.267
0
VERTEX
8
L3D0
10
-0.727
20
0.117
0
SEQEND
0
POLYLINE
8
L3D0
70
1
40
0
41
0
66
1
0
VERTEX
8
L3D0
10
-1.062
20
-0.231
0
VERTEX
8
L3D0
10
-1.062
20
-0.081
0
VERTEX
8
L3D0
10
-0.912
20
-0.081
0
VERTEX
8
L3D0
10
-0.912
20
-0.231
0
SEQEND
0
POLYLINE
8
L3D0
70
1
40
0
41
0
66
1
0
VERTEX
8
L3D0
10
-0.927
20
-0.597
0
VERTEX
8
L3D0
10
-0.927
20
-0.447
0
VERTEX
8
L3D0
10
-0.777
20
-0.447
0
VERTEX
8
L3D0
10
-0.777
20
-0.597
0
SEQEND
0
POLYLINE
8
L3D0
70
1
40
0
41
0
66
1
0
VERTEX
8
L3D0
10
-0.559
20
-0.742
0
VERTEX
8
L3D0
10
-0.559
20
-0.592
0
VERTEX
8
L3D0
10
-0.409
20
-0.592
0
VERTEX
8
L3D0
10
-0.409
20
-0.742
0
SEQEND
0
POLYLINE
8
L3D0
70
1
40
0
41
0
66
1
0
VERTEX
8
L3D0
10
-0.267
20
-0.877
0
VERTEX
8
L3D0
10
-0.267
20
-0.727
0
VERTEX
8
L3D0
10
-0.117
20
-0.727
0
VERTEX
8
L3D0
10
-0.117
20
-0.877
0
SEQEND
0
POLYLINE
8
L3D0
70
1
40
0
41
0
66
1
0
VERTEX
8
L3D0
10
0.081
20
-1.062
0
VERTEX
8
L3D0
10
0.081
20
-0.912
0
VERTEX
8
L3D0
10
0.231
20
-0.912
0
VERTEX
8
L3D0
10
0.231
20
-1.062
0
SEQEND
0
POLYLINE
8
L3D0
70
1
40
0
41
0
66
1
0
VERTEX
8
L3D0
10
0.447
20
-0.927
0
VERTEX
8
L3D0
10
0.447
20
-0.777
0
VERTEX
8
L3D0
10
0.597
20
-0.777
0
VERTEX
8
L3D0
10
0.597
20
-0.927
0
SEQEND
0
POLYLINE
8
L3D0
70
1
40
0
41
0
66
1
0
VERTEX
8
L3D0
10
0.592
20
-0.559
0
VERTEX
8
L3D0
10
0.592
20
-0.409
0
VERTEX
8
L3D0
10
0.742
20
-0.409
0
VERTEX
8
L3D0
10
0.742
20
-0.559
0
SEQEND
0
POLYLINE
8
L3D0
70
1
40
0
41
0
66
1
0
VERTEX
8
L3D0
10
0.727
20
-0.267
0
VERTEX
8
L3D0
10
0.727
20
-0.117
0
VERTEX
8
L3D0
10
0.877
20
-0.117
0
VERTEX
8
L3D0
10
0.877
20
-0.267
0
SEQEND
0
POLYLINE
8
L4D0
70
1
40
0
41
0
66
1
0
VERTEX
8
L4D0
10
-2.3
20
-2.3
0
VERTEX
8
L4D0
10
-2.3
20
-1.7
0
VERTEX
8
L4D0
10
1.3
20
-1.7
0
VERTEX
8
L4D0
10
1.3
20
-1.5
0
VERTEX
8
L4D0
10
-1.9
20
-1.5
0
VERTEX
8
L4D0
10
-1.9
20
1.7
0
VERTEX
8
L4D0
10
-2.3
20
1.7
0
VERTEX
8
L4D0
10
-2.3
20
2.3
0
VERTEX
8
L4D0
10
-1.7
20
2.3
0
VERTEX
8
L4D0
10
-1.7
20
-1.3
0
VERTEX
8
L4D0
10
-1.5
20
-1.3
0
VERTEX
8
L4D0
10
-1.5
20
1.9
0
VERTEX
8
L4D0
10
1.7
20
1.9
0
VERTEX
8
L4D0
10
1.7
20
2.3
0
VERTEX
8
L4D0
10
2.3
20
2.3
0
VERTEX
8
L4D0
10
2.3
20
1.7
0
VERTEX
8
L4D0
10
-1.3
20
1.7
0
VERTEX
8
L4D0
10
-1.3
20
1.5
0
VERTEX
8
L4D0
10
1.9
20
1.5
0
VERTEX
8
L4D0
10
1.9
20
-1.7
0
VERTEX
8
L4D0
10
2.3
20
-1.7
0
VERTEX
8
L4D0
10
2.3
20
-2.3
0
VERTEX
8
L4D0
10
1.7
20
-2.3
0
VERTEX
8
L4D0
10
1.7
20
1.3
0
VERTEX
8
L4D0
10
1.5
20
1.3
0
VERTEX
8
L4D0
10
1.5
20
-1.9
0
VERTEX
8
L4D0
10
-1.7
20
-1.9
0
VERTEX
8
L4D0
10
-1.7
20
-2.3
0
SEQEND
0
POLYLINE
8
L4D0
70
1
40
0
41
0
66
1
0
VERTEX
8
L4D0
10
-1.29
20
-1.29
0
VERTEX
8
L4D0
10
-1.19
20
-1.29
0
VERTEX
8
L4D0
10
-1.19
20
-1.19
0
VERTEX
8
L4D0
10
-1.29
20
-1.19
0
SEQEND
0
POLYLINE
8
L4D0
70
1
40
0
41
0
66
1
0
VERTEX
8
L4D0
10
1.19
20
-1.29
0
VERTEX
8
L4D0
10
1.29
20
-1.29
0
VERTEX
8
L4D0
10
1.29
20
-1.19
0
VERTEX
8
L4D0
10
1.19
20
-1.19
0
SEQEND
0
POLYLINE
8
L4D0
70
1
40
0
41
0
66
1
0
VERTEX
8
L4D0
10
-0.05
20
-1.22
0
VERTEX
8
L4D0
10
0.05
20
-1.22
0
VERTEX
8
L4D0
10
0.05
20
-1.12
0
VERTEX
8
L4D0
10
-0.05
20
-1.12
0
SEQEND
0
POLYLINE
8
L4D0
70
1
40
0
41
0
66
1
0
VERTEX
8
L4D0
10
-0.497
20
-1.13
0
VERTEX
8
L4D0
10
-0.397
20
-1.13
0
VERTEX
8
L4D0
10
-0.397
20
-1.03
0
VERTEX
8
L4D0
10
-0.497
20
-1.03
0
SEQEND
0
POLYLINE
8
L4D0
70
1
40
0
41
0
66
1
0
VERTEX
8
L4D0
10
0.397
20
-1.13
0
VERTEX
8
L4D0
10
0.497
20
-1.13
0
VERTEX
8
L4D0
10
0.497
20
-1.03
0
VERTEX
8
L4D0
10
0.397
20
-1.03
0
SEQEND
0
POLYLINE
8
L4D0
70
1
40
0
41
0
66
1
0
VERTEX
8
L4D0
10
-0.877
20
-0.877
0
VERTEX
8
L4D0
10
-0.777
20
-0.877
0
VERTEX
8
L4D0
10
-0.777
20
-0.777
0
VERTEX
8
L4D0
10
-0.877
20
-0.777
0
SEQEND
0
POLYLINE
8
L4D0
70
1
40
0
41
0
66
1
0
VERTEX
8
L4D0
10
0.777
20
-0.877
0
VERTEX
8
L4D0
10
0.877
20
-0.877
0
VERTEX
8
L4D0
10
0.877
20
-0.777
0
VERTEX
8
L4D0
10
0.777
20
-0.777
0
SEQEND
0
POLYLINE
8
L4D0
70
1
40
0
41
0
66
1
0
VERTEX
8
L4D0
10
-0.05
20
-0.635
0
VERTEX
8
L4D0
10
0.05
20
-0.635
0
VERTEX
8
L4D0
10
0.05
20
-0.535
0
VERTEX
8
L4D0
10
-0.05
20
-0.535
0
SEQEND
0
POLYLINE
8
L4D0
70
1
40
0
41
0
66
1
0
VERTEX
8
L4D0
10
-1.13
20
-0.497
0
VERTEX
8
L4D0
10
-1.03
20
-0.497
0
VERTEX
8
L4D0
10
-1.03
20
-0.397
0
VERTEX
8
L4D0
10
-1.13
20
-0.397
0
SEQEND
0
POLYLINE
8
L4D0
70
1
40
0
41
0
66
1
0
VERTEX
8
L4D0
10
1.03
20
-0.497
0
VERTEX
8
L4D0
10
1.13
20
-0.497
0
VERTEX
8
L4D0
10
1.13
20
-0.397
0
VERTEX
8
L4D0
10
1.03
20
-0.397
0
SEQEND
0
POLYLINE
8
L4D0
70
1
40
0
41
0
66
1
0
VERTEX
8
L4D0
10
-0.463
20
-0.463
0
VERTEX
8
L4D0
10
-0.363
20
-0.463
0
VERTEX
8
L4D0
10
-0.363
20
-0.363
0
VERTEX
8
L4D0
10
-0.463
20
-0.363
0
SEQEND
0
POLYLINE
8
L4D0
70
1
40
0
41
0
66
1
0
VERTEX
8
L4D0
10
0.363
20
-0.463
0
VERTEX
8
L4D0
10
0.463
20
-0.463
0
VERTEX
8
L4D0
10
0.463
20
-0.363
0
VERTEX
8
L4D0
10
0.363
20
-0.363
0
SEQEND
0
POLYLINE
8
L4D0
70
1
40
0
41
0
66
1
0
VERTEX
8
L4D0
10
-1.22
20
-0.05
0
VERTEX
8
L4D0
10
-1.12
20
-0.05
0
VERTEX
8
L4D0
10
-1.12
20
0.05
0
VERTEX
8
L4D0
10
-1.22
20
0.05
0
SEQEND
0
POLYLINE
8
L4D0
70
1
40
0
41
0
66
1
0
VERTEX
8
L4D0
10
-0.635
20
-0.05
0
VERTEX
8
L4D0
10
-0.535
20
-0.05
0
VERTEX
8
L4D0
10
-0.535
20
0.05
0
VERTEX
8
L4D0
10
-0.635
20
0.05
0
SEQEND
0
POLYLINE
8
L4D0
70
1
40
0
41
0
66
1
0
VERTEX
8
L4D0
10
-0.05
20
-0.05
0
VERTEX
8
L4D0
10
0.05
20
-0.05
0
VERTEX
8
L4D0
10
0.05
20
0.05
0
VERTEX
8
L4D0
10
-0.05
20
0.05
0
SEQEND
0
POLYLINE
8
L4D0
70
1
40
0
41
0
66
1
0
VERTEX
8
L4D0
10
0.535
20
-0.05
0
VERTEX
8
L4D0
10
0.635
20
-0.05
0
VERTEX
8
L4D0
10
0.635
20
0.05
0
VERTEX
8
L4D0
10
0.535
20
0.05
0
SEQEND
0
POLYLINE
8
L4D0
70
1
40
0
41
0
66
1
0
VERTEX
8
L4D0
10
1.12
20
-0.05
0
VERTEX
8
L4D0
10
1.22
20
-0.05
0
VERTEX
8
L4D0
10
1.22
20
0.05
0
VERTEX
8
L4D0
10
1.12
20
0.05
0
SEQEND
0
POLYLINE
8
L4D0
70
1
40
0
41
0
66
1
0
VERTEX
8
L4D0
10
-0.463
20
0.363
0
VERTEX
8
L4D0
10
-0.363
20
0.363
0
VERTEX
8
L4D0
10
-0.363
20
0.463
0
VERTEX
8
L4D0
10
-0.463
20
0.463
0
SEQEND
0
POLYLINE
8
L4D0
70
1
40
0
41
0
66
1
0
VERTEX
8
L4D0
10
0.363
20
0.363
0
VERTEX
8
L4D0
10
0.463
20
0.363
0
VERTEX
8
L4D0
10
0.463
20
0.463
0
VERTEX
8
L4D0
10
0.363
20
0.463
0
SEQEND
0
POLYLINE
8
L4D0
70
1
40
0
41
0
66
1
0
VERTEX
8
L4D0
10
-1.13
20
0.397
0
VERTEX
8
L4D0
10
-1.03
20
0.397
0
VERTEX
8
L4D0
10
-1.03
20
0.497
0
VERTEX
8
L4D0
10
-1.13
20
0.497
0
SEQEND
0
POLYLINE
8
L4D0
70
1
40
0
41
0
66
1
0
VERTEX
8
L4D0
10
1.03
20
0.397
0
VERTEX
8
L4D0
10
1.13
20
0.397
0
VERTEX
8
L4D0
10
1.13
20
0.497
0
VERTEX
8
L4D0
10
1.03
20
0.497
0
SEQEND
0
POLYLINE
8
L4D0
70
1
40
0
41
0
66
1
0
VERTEX
8
L4D0
10
-0.05
20
0.535
0
VERTEX
8
L4D0
10
0.05
20
0.535
0
VERTEX
8
L4D0
10
0.05
20
0.635
0
VERTEX
8
L4D0
10
-0.05
20
0.635
0
SEQEND
0
POLYLINE
8
L4D0
70
1
40
0
41
0
66
1
0
VERTEX
8
L4D0
10
-0.877
20
0.777
0
VERTEX
8
L4D0
10
-0.777
20
0.777
0
VERTEX
8
L4D0
10
-0.777
20
0.877
0
VERTEX
8
L4D0
10
-0.877
20
0.877
0
SEQEND
0
POLYLINE
8
L4D0
70
1
40
0
41
0
66
1
0
VERTEX
8
L4D0
10
0.777
20
0.777
0
VERTEX
8
L4D0
10
0.877
20
0.777
0
VERTEX
8
L4D0
10
0.877
20
0.877
0
VERTEX
8
L4D0
10
0.777
20
0.877
0
SEQEND
0
POLYLINE
8
L4D0
70
1
40
0
41
0
66
1
0
VERTEX
8
L4D0
10
-0.497
20
1.03
0
VERTEX
8
L4D0
10
-0.397
20
1.03
0
VERTEX
8
L4D0
10
-0.397
20
1.13
0
VERTEX
8
L4D0
10
-0.497
20
1.13
0
SEQEND
0
POLYLINE
8
L4D0
70
1
40
0
41
0
66
1
0
VERTEX
8
L4D0
10
0.397
20
1.03
0
VERTEX
8
L4D0
10
0.497
20
1.03
0
VERTEX
8
L4D0
10
0.497
20
1.13
0
VERTEX
8
L4D0
10
0.397
20
1.13
0
SEQEND
0
POLYLINE
8
L4D0
70
1
40
0
41
0
66
1
0
VERTEX
8
L4D0
10
-0.05
20
1.12
0
VERTEX
8
L4D0
10
0.05
20
1.12
0
VERTEX
8
L4D0
10
0.05
20
1.22
0
VERTEX
8
L4D0
10
-0.05
20
1.22
0
SEQEND
0
POLYLINE
8
L4D0
70
1
40
0
41
0
66
1
0
VERTEX
8
L4D0
10
-1.29
20
1.19
0
VERTEX
8
L4D0
10
-1.19
20
1.19
0
VERTEX
8
L4D0
10
-1.19
20
1.29
0
VERTEX
8
L4D0
10
-1.29
20
1.29
0
SEQEND
0
POLYLINE
8
L4D0
70
1
40
0
41
0
66
1
0
VERTEX
8
L4D0
10
1.19
20
1.19
0
VERTEX
8
L4D0
10
1.29
20
1.19
0
VERTEX
8
L4D0
10
1.29
20
1.29
0
VERTEX
8
L4D0
10
1.19
20
1.29
0
SEQEND
0
POLYLINE
8
L5D0
70
1
40
0
41
0
66
1
0
VERTEX
8
L5D0
10
-1.5
20
-1.5
0
VERTEX
8
L5D0
10
-1.5
20
1.5
0
VERTEX
8
L5D0
10
1.5
20
1.5
0
VERTEX
8
L5D0
10
1.5
20
-1.5
0
SEQEND
0
POLYLINE
8
L5D0
70
1
40
0
41
0
66
1
0
VERTEX
8
L5D0
10
0.031
20
-1.112
0
VERTEX
8
L5D0
10
0.281
20
-1.112
0
VERTEX
8
L5D0
10
0.281
20
-0.862
0
VERTEX
8
L5D0
10
0.031
20
-0.862
0
SEQEND
0
POLYLINE
8
L5D0
70
1
40
0
41
0
66
1
0
VERTEX
8
L5D0
10
0.397
20
-0.977
0
VERTEX
8
L5D0
10
0.647
20
-0.977
0
VERTEX
8
L5D0
10
0.647
20
-0.727
0
VERTEX
8
L5D0
10
0.397
20
-0.727
0
SEQEND
0
POLYLINE
8
L5D0
70
1
40
0
41
0
66
1
0
VERTEX
8
L5D0
10
-0.317
20
-0.927
0
VERTEX
8
L5D0
10
-0.067
20
-0.927
0
VERTEX
8
L5D0
10
-0.067
20
-0.677
0
VERTEX
8
L5D0
10
-0.317
20
-0.677
0
SEQEND
0
POLYLINE
8
L5D0
70
1
40
0
41
0
66
1
0
VERTEX
8
L5D0
10
-0.609
20
-0.792
0
VERTEX
8
L5D0
10
-0.359
20
-0.792
0
VERTEX
8
L5D0
10
-0.359
20
-0.542
0
VERTEX
8
L5D0
10
-0.609
20
-0.542
0
SEQEND
0
POLYLINE
8
L5D0
70
1
40
0
41
0
66
1
0
VERTEX
8
L5D0
10
-0.977
20
-0.647
0
VERTEX
8
L5D0
10
-0.727
20
-0.647
0
VERTEX
8
L5D0
10
-0.727
20
-0.397
0
VERTEX
8
L5D0
10
-0.977
20
-0.397
0
SEQEND
0
POLYLINE
8
L5D0
70
1
40
0
41
0
66
1
0
VERTEX
8
L5D0
10
0.542
20
-0.609
0
VERTEX
8
L5D0
10
0.792
20
-0.609
0
VERTEX
8
L5D0
10
0.792
20
-0.359
0
VERTEX
8
L5D0
10
0.542
20
-0.359
0
SEQEND
0
POLYLINE
8
L5D0
70
1
40
0
41
0
66
1
0
VERTEX
8
L5D0
10
0.677
20
-0.317
0
VERTEX
8
L5D0
10
0.927
20
-0.317
0
VERTEX
8
L5D0
10
0.927
20
-0.067
0
VERTEX
8
L5D0
10
0.677
20
-0.067
0
SEQEND
0
POLYLINE
8
L5D0
70
1
40
0
41
0
66
1
0
VERTEX
8
L5D0
10
-1.112
20
-0.281
0
VERTEX
8
L5D0
10
-0.862
20
-0.281
0
VERTEX
8
L5D0
10
-0.862
20
-0.031
0
VERTEX
8
L5D0
10
-1.112
20
-0.031
0
SEQEND
0
POLYLINE
8
L5D0
70
1
40
0
41
0
66
1
0
VERTEX
8
L5D0
10
0.862
20
0.031
0
VERTEX
8
L5D0
10
1.112
20
0.031
0
VERTEX
8
L5D0
10
1.112
20
0.281
0
VERTEX
8
L5D0
10
0.862
20
0.281
0
SEQEND
0
POLYLINE
8
L5D0
70
1
40
0
41
0
66
1
0
VERTEX
8
L5D0
10
-0.927
20
0.067
0
VERTEX
8
L5D0
10
-0.677
20
0.067
0
VERTEX
8
L5D0
10
-0.677
20
0.317
0
VERTEX
8
L5D0
10
-0.927
20
0.317
0
SEQEND
0
POLYLINE
8
L5D0
70
1
40
0
41
0
66
1
0
VERTEX
8
L5D0
10
-0.792
20
0.359
0
VERTEX
8
L5D0
10
-0.542
20
0.359
0
VERTEX
8
L5D0
10
-0.542
20
0.609
0
VERTEX
8
L5D0
10
-0.792
20
0.609
0
SEQEND
0
POLYLINE
8
L5D0
70
1
40
0
41
0
66
1
0
VERTEX
8
L5D0
10
0.727
20
0.397
0
VERTEX
8
L5D0
10
0.977
20
0.397
0
VERTEX
8
L5D0
10
0.977
20
0.647
0
VERTEX
8
L5D0
10
0.727
20
0.647
0
SEQEND
0
POLYLINE
8
L5D0
70
1
40
0
41
0
66
1
0
VERTEX
8
L5D0
10
0.359
20
0.542
0
VERTEX
8
L5D0
10
0.609
20
0.542
0
VERTEX
8
L5D0
10
0.609
20
0.792
0
VERTEX
8
L5D0
10
0.359
20
0.792
0
SEQEND
0
POLYLINE
8
L5D0
70
1
40
0
41
0
66
1
0
VERTEX
8
L5D0
10
0.067
20
0.677
0
VERTEX
8
L5D0
10
0.317
20
0.677
0
VERTEX
8
L5D0
10
0.317
20
0.927
0
VERTEX
8
L5D0
10
0.067
20
0.927
0
SEQEND
0
POLYLINE
8
L5D0
70
1
40
0
41
0
66
1
0
VERTEX
8
L5D0
10
-0.647
20
0.727
0
VERTEX
8
L5D0
10
-0.397
20
0.727
0
VERTEX
8
L5D0
10
-0.397
20
0.977
0
VERTEX
8
L5D0
10
-0.647
20
0.977
0
SEQEND
0
POLYLINE
8
L5D0
70
1
40
0
41
0
66
1
0
VERTEX
8
L5D0
10
-0.281
20
0.862
0
VERTEX
8
L5D0
10
-0.031
20
0.862
0
VERTEX
8
L5D0
10
-0.031
20
1.112
0
VERTEX
8
L5D0
10
-0.281
20
1.112
0
SEQEND
0
POLYLINE
8
L5D0
70
1
40
0
41
0
66
1
0
VERTEX
8
L5D0
10
1.8
20
1.8
0
VERTEX
8
L5D0
10
1.8
20
2.2
0
VERTEX
8
L5D0
10
2.2
20
2.2
0
VERTEX
8
L5D0
10
2.2
20
1.8
0
SEQEND
0
POLYLINE
8
L5D0
70
1
40
0
41
0
66
1
0
VERTEX
8
L5D0
10
-2.2
20
1.8
0
VERTEX
8
L5D0
10
-2.2
20
2.2
0
VERTEX
8
L5D0
10
-1.8
20
2.2
0
VERTEX
8
L5D0
10
-1.8
20
1.8
0
SEQEND
0
POLYLINE
8
L5D0
70
1
40
0
41
0
66
1
0
VERTEX
8
L5D0
10
-2.2
20
-2.2
0
VERTEX
8
L5D0
10
-2.2
20
-1.8
0
VERTEX
8
L5D0
10
-1.8
20
-1.8
0
VERTEX
8
L5D0
10
-1.8
20
-2.2
0
SEQEND
0
POLYLINE
8
L5D0
70
1
40
0
41
0
66
1
0
VERTEX
8
L5D0
10
1.8
20
-2.2
0
VERTEX
8
L5D0
10
1.8
20
-1.8
0
VERTEX
8
L5D0
10
2.2
20
-1.8
0
VERTEX
8
L5D0
10
2.2
20
-2.2
0
SEQEND
0
POLYLINE
8
L5D0
70
1
40
0
41
0
66
1
0
VERTEX
8
L5D0
10
0.912
20
0.081
0
VERTEX
8
L5D0
10
0.912
20
0.231
0
VERTEX
8
L5D0
10
1.062
20
0.231
0
VERTEX
8
L5D0
10
1.062
20
0.081
0
SEQEND
0
POLYLINE
8
L5D0
70
1
40
0
41
0
66
1
0
VERTEX
8
L5D0
10
0.777
20
0.447
0
VERTEX
8
L5D0
10
0.777
20
0.597
0
VERTEX
8
L5D0
10
0.927
20
0.597
0
VERTEX
8
L5D0
10
0.927
20
0.447
0
SEQEND
0
POLYLINE
8
L5D0
70
1
40
0
41
0
66
1
0
VERTEX
8
L5D0
10
0.409
20
0.592
0
VERTEX
8
L5D0
10
0.409
20
0.742
0
VERTEX
8
L5D0
10
0.559
20
0.742
0
VERTEX
8
L5D0
10
0.559
20
0.592
0
SEQEND
0
POLYLINE
8
L5D0
70
1
40
0
41
0
66
1
0
VERTEX
8
L5D0
10
0.117
20
0.727
0
VERTEX
8
L5D0
10
0.117
20
0.877
0
VERTEX
8
L5D0
10
0.267
20
0.877
0
VERTEX
8
L5D0
10
0.267
20
0.727
0
SEQEND
0
POLYLINE
8
L5D0
70
1
40
0
41
0
66
1
0
VERTEX
8
L5D0
10
-0.231
20
0.912
0
VERTEX
8
L5D0
10
-0.231
20
1.062
0
VERTEX
8
L5D0
10
-0.081
20
1.062
0
VERTEX
8
L5D0
10
-0.081
20
0.912
0
SEQEND
0
POLYLINE
8
L5D0
70
1
40
0
41
0
66
1
0
VERTEX
8
L5D0
10
-0.597
20
0.777
0
VERTEX
8
L5D0
10
-0.597
20
0.927
0
VERTEX
8
L5D0
10
-0.447
20
0.927
0
VERTEX
8
L5D0
10
-0.447
20
0.777
0
SEQEND
0
POLYLINE
8
L5D0
70
1
40
0
41
0
66
1
0
VERTEX
8
L5D0
10
-0.742
20
0.409
0
VERTEX
8
L5D0
10
-0.742
20
0.559
0
VERTEX
8
L5D0
10
-0.592
20
0.559
0
VERTEX
8
L5D0
10
-0.592
20
0.409
0
SEQEND
0
POLYLINE
8
L5D0
70
1
40
0
41
0
66
1
0
VERTEX
8
L5D0
10
-0.877
20
0.117
0
VERTEX
8
L5D0
10
-0.877
20
0.267
0
VERTEX
8
L5D0
10
-0.727
20
0.267
0
VERTEX
8
L5D0
10
-0.727
20
0.117
0
SEQEND
0
POLYLINE
8
L5D0
70
1
40
0
41
0
66
1
0
VERTEX
8
L5D0
10
-1.062
20
-0.231
0
VERTEX
8
L5D0
10
-1.062
20
-0.081
0
VERTEX
8
L5D0
10
-0.912
20
-0.081
0
VERTEX
8
L5D0
10
-0.912
20
-0.231
0
SEQEND
0
POLYLINE
8
L5D0
70
1
40
0
41
0
66
1
0
VERTEX
8
L5D0
10
-0.927
20
-0.597
0
VERTEX
8
L5D0
10
-0.927
20
-0.447
0
VERTEX
8
L5D0
10
-0.777
20
-0.447
0
VERTEX
8
L5D0
10
-0.777
20
-0.597
0
SEQEND
0
POLYLINE
8
L5D0
70
1
40
0
41
0
66
1
0
VERTEX
8
L5D0
10
-0.559
20
-0.742
0
VERTEX
8
L5D0
10
-0.559
20
-0.592
0
VERTEX
8
L5D0
10
-0.409
20
-0.592
0
VERTEX
8
L5D0
10
-0.409
20
-0.742
0
SEQEND
0
POLYLINE
8
L5D0
70
1
40
0
41
0
66
1
0
VERTEX
8
L5D0
10
-0.267
20
-0.877
0
VERTEX
8
L5D0
10
-0.267
20
-0.727
0
VERTEX
8
L5D0
10
-0.117
20
-0.727
0
VERTEX
8
L5D0
10
-0.117
20
-0.877
0
SEQEND
0
POLYLINE
8
L5D0
70
1
40
0
41
0
66
1
0
VERTEX
8
L5D0
10
0.081
20
-1.062
0
VERTEX
8
L5D0
10
0.081
20
-0.912
0
VERTEX
8
L5D0
10
0.231
20
-0.912
0
VERTEX
8
L5D0
10
0.231
20
-1.062
0
SEQEND
0
POLYLINE
8
L5D0
70
1
40
0
41
0
66
1
0
VERTEX
8
L5D0
10
0.447
20
-0.927
0
VERTEX
8
L5D0
10
0.447
20
-0.777
0
VERTEX
8
L5D0
10
0.597
20
-0.777
0
VERTEX
8
L5D0
10
0.597
20
-0.927
0
SEQEND
0
POLYLINE
8
L5D0
70
1
40
0
41
0
66
1
0
VERTEX
8
L5D0
10
0.592
20
-0.559
0
VERTEX
8
L5D0
10
0.592
20
-0.409
0
VERTEX
8
L5D0
10
0.742
20
-0.409
0
VERTEX
8
L5D0
10
0.742
20
-0.559
0
SEQEND
0
POLYLINE
8
L5D0
70
1
40
0
41
0
66
1
0
VERTEX
8
L5D0
10
0.727
20
-0.267
0
VERTEX
8
L5D0
10
0.727
20
-0.117
0
VERTEX
8
L5D0
10
0.877
20
-0.117
0
VERTEX
8
L5D0
10
0.877
20
-0.267
0
SEQEND
0
ENDSEC
0
EOF
