0
SECTION
2
HEADER
9
$ACADVER
1
AC1006
0
ENDSEC
0
SECTION
2
TABLES
0
TABLE
2
LAYER
70
5
0
LAYER
70
0
62
1
6
CONTINUOUS
2
L1D0
0
LAYER
70
0
62
2
6
CONTINUOUS
2
L2D0
0
LAYER
70
0
62
3
6
CONTINUOUS
2
L3D0
0
LAYER
70
0
62
4
6
CONTINUOUS
2
L4D0
0
LAYER
70
0
62
5
6
CONTINUOUS
2
L5D0
0
ENDTAB
0
ENDSEC
0
SECTION
2
BLOCKS
0
ENDSEC
0
SECTION
2
ENTITIES
0
POLYLINE
8
L1D0
70
1
40
0
41
0
66
1
0
VERTEX
8
L1D0
10
1.8
20
1.8
0
VERTEX
8
L1D0
10
1.8
20
2.2
0
VERTEX
8
L1D0
10
2.2
20
2.2
0
VERTEX
8
L1D0
10
2.2
20
1.8
0
SEQEND
0
POLYLINE
8
L1D0
70
1
40
0
41
0
66
1
0
VERTEX
8
L1D0
10
-2.2
20
1.8
0
VERTEX
8
L1D0
10
-2.2
20
2.2
0
VERTEX
8
L1D0
10
-1.8
20
2.2
0
VERTEX
8
L1D0
10
-1.8
20
1.8
0
SEQEND
0
POLYLINE
8
L1D0
70
1
40
0
41
0
66
1
0
VERTEX
8
L1D0
10
-2.2
20
-2.2
0
VERTEX
8
L1D0
10
-2.2
20
-1.8
0
VERTEX
8
L1D0
10
-1.8
20
-1.8
0
VERTEX
8
L1D0
10
-1.8
20
-2.2
0
SEQEND
0
POLYLINE
8
L1D0
70
1
40
0
41
0
66
1
0
VERTEX
8
L1D0
10
1.8
20
-2.2
0
VERTEX
8
L1D0
10
1.8
20
-1.8
0
VERTEX
8
L1D0
10
2.2
20
-1.8
0
VERTEX
8
L1D0
10
2.2
20
-2.2
0
SEQEND
0
POLYLINE
8
L2D0
70
1
40
0
41
0
66
1
0
VERTEX
8
L2D0
10
-0.27
20
1.253
0
VERTEX
8
L2D0
10
-0.27
20
1.453
0
VERTEX
8
L2D0
10
0.27
20
1.453
0
VERTEX
8
L2D0
10
0.27
20
1.253
0
SEQEND
0
POLYLINE
8
L2D0
70
1
40
0
41
0
66
1
0
VERTEX
8
L2D0
10
-1.077
20
0.694
0
VERTEX
8
L2D0
10
-1.219
20
0.836
0
VERTEX
8
L2D0
10
-0.836
20
1.219
0
VERTEX
8
L2D0
10
-0.694
20
1.077
0
SEQEND
0
POLYLINE
8
L2D0
70
1
40
0
41
0
66
1
0
VERTEX
8
L2D0
10
-1.453
20
-0.27
0
VERTEX
8
L2D0
10
-1.453
20
0.27
0
VERTEX
8
L2D0
10
-1.253
20
0.27
0
VERTEX
8
L2D0
10
-1.253
20
-0.27
0
SEQEND
0
POLYLINE
8
L2D0
70
1
40
0
41
0
66
1
0
VERTEX
8
L2D0
10
-0.836
20
-1.219
0
VERTEX
8
L2D0
10
-1.219
20
-0.836
0
VERTEX
8
L2D0
10
-1.077
20
-0.694
0
VERTEX
8
L2D0
10
-0.694
20
-1.077
0
SEQEND
0
POLYLINE
8
L2D0
70
1
40
0
41
0
66
1
0
VERTEX
8
L2D0
10
-0.27
20
-1.453
0
VERTEX
8
L2D0
10
-0.27
20
-1.253
0
VERTEX
8
L2D0
10
0.27
20
-1.253
0
VERTEX
8
L2D0
10
0.27
20
-1.453
0
SEQEND
0
POLYLINE
8
L2D0
70
1
40
0
41
0
66
1
0
VERTEX
8
L2D0
10
0.836
20
-1.219
0
VERTEX
8
L2D0
10
0.694
20
-1.077
0
VERTEX
8
L2D0
10
1.077
20
-0.694
0
VERTEX
8
L2D0
10
1.219
20
-0.836
0
SEQEND
0
POLYLINE
8
L2D0
70
1
40
0
41
0
66
1
0
VERTEX
8
L2D0
10
1.253
20
-0.27
0
VERTEX
8
L2D0
10
1.253
20
0.27
0
VERTEX
8
L2D0
10
1.453
20
0.27
0
VERTEX
8
L2D0
10
1.453
20
-0.27
0
SEQEND
0
POLYLINE
8
L2D0
70
1
40
0
41
0
66
1
0
VERTEX
8
L2D0
10
1.077
20
0.694
0
VERTEX
8
L2D0
10
0.694
20
1.077
0
VERTEX
8
L2D0
10
0.836
20
1.219
0
VERTEX
8
L2D0
10
1.219
20
0.836
0
SEQEND
0
POLYLINE
8
L3D0
70
1
40
0
41
0
66
1
0
VERTEX
8
L3D0
10
1.253
20
-0.369
0
VERTEX
8
L3D0
10
1.253
20
-0.169
0
VERTEX
8
L3D0
10
1.453
20
-0.169
0
VERTEX
8
L3D0
10
1.453
20
-0.369
0
SEQEND
0
POLYLINE
8
L3D0
70
1
40
0
41
0
66
1
0
VERTEX
8
L3D0
10
1.253
20
0.169
0
VERTEX
8
L3D0
10
1.253
20
0.369
0
VERTEX
8
L3D0
10
1.453
20
0.369
0
VERTEX
8
L3D0
10
1.453
20
0.169
0
SEQEND
0
POLYLINE
8
L3D0
70
1
40
0
41
0
66
1
0
VERTEX
8
L3D0
10
1.047
20
0.666
0
VERTEX
8
L3D0
10
1.047
20
0.866
0
VERTEX
8
L3D0
10
1.247
20
0.866
0
VERTEX
8
L3D0
10
1.247
20
0.666
0
SEQEND
0
POLYLINE
8
L3D0
70
1
40
0
41
0
66
1
0
VERTEX
8
L3D0
10
0.666
20
1.047
0
VERTEX
8
L3D0
10
0.666
20
1.247
0
VERTEX
8
L3D0
10
0.866
20
1.247
0
VERTEX
8
L3D0
10
0.866
20
1.047
0
SEQEND
0
POLYLINE
8
L3D0
70
1
40
0
41
0
66
1
0
VERTEX
8
L3D0
10
0.169
20
1.253
0
VERTEX
8
L3D0
10
0.169
20
1.453
0
VERTEX
8
L3D0
10
0.369
20
1.453
0
VERTEX
8
L3D0
10
0.369
20
1.253
0
SEQEND
0
POLYLINE
8
L3D0
70
1
40
0
41
0
66
1
0
VERTEX
8
L3D0
10
-0.369
20
1.253
0
VERTEX
8
L3D0
10
-0.369
20
1.453
0
VERTEX
8
L3D0
10
-0.169
20
1.453
0
VERTEX
8
L3D0
10
-0.169
20
1.253
0
SEQEND
0
POLYLINE
8
L3D0
70
1
40
0
41
0
66
1
0
VERTEX
8
L3D0
10
-0.866
20
1.047
0
VERTEX
8
L3D0
10
-0.866
20
1.247
0
VERTEX
8
L3D0
10
-0.666
20
1.247
0
VERTEX
8
L3D0
10
-0.666
20
1.047
0
SEQEND
0
POLYLINE
8
L3D0
70
1
40
0
41
0
66
1
0
VERTEX
8
L3D0
10
-1.247
20
0.666
0
VERTEX
8
L3D0
10
-1.247
20
0.866
0
VERTEX
8
L3D0
10
-1.047
20
0.866
0
VERTEX
8
L3D0
10
-1.047
20
0.666
0
SEQEND
0
POLYLINE
8
L3D0
70
1
40
0
41
0
66
1
0
VERTEX
8
L3D0
10
-1.453
20
0.169
0
VERTEX
8
L3D0
10
-1.453
20
0.369
0
VERTEX
8
L3D0
10
-1.253
20
0.369
0
VERTEX
8
L3D0
10
-1.253
20
0.169
0
SEQEND
0
POLYLINE
8
L3D0
70
1
40
0
41
0
66
1
0
VERTEX
8
L3D0
10
-1.453
20
-0.369
0
VERTEX
8
L3D0
10
-1.453
20
-0.169
0
VERTEX
8
L3D0
10
-1.253
20
-0.169
0
VERTEX
8
L3D0
10
-1.253
20
-0.369
0
SEQEND
0
POLYLINE
8
L3D0
70
1
40
0
41
0
66
1
0
VERTEX
8
L3D0
10
-1.247
20
-0.866
0
VERTEX
8
L3D0
10
-1.247
20
-0.666
0
VERTEX
8
L3D0
10
-1.047
20
-0.666
0
VERTEX
8
L3D0
10
-1.047
20
-0.866
0
SEQEND
0
POLYLINE
8
L3D0
70
1
40
0
41
0
66
1
0
VERTEX
8
L3D0
10
-0.866
20
-1.247
0
VERTEX
8
L3D0
10
-0.866
20
-1.047
0
VERTEX
8
L3D0
10
-0.666
20
-1.047
0
VERTEX
8
L3D0
10
-0.666
20
-1.247
0
SEQEND
0
POLYLINE
8
L3D0
70
1
40
0
41
0
66
1
0
VERTEX
8
L3D0
10
-0.369
20
-1.453
0
VERTEX
8
L3D0
10
-0.369
20
-1.253
0
VERTEX
8
L3D0
10
-0.169
20
-1.253
0
VERTEX
8
L3D0
10
-0.169
20
-1.453
0
SEQEND
0
POLYLINE
8
L3D0
70
1
40
0
41
0
66
1
0
VERTEX
8
L3D0
10
0.169
20
-1.453
0
VERTEX
8
L3D0
10
0.169
20
-1.253
0
VERTEX
8
L3D0
10
0.369
20
-1.253
0
VERTEX
8
L3D0
10
0.369
20
-1.453
0
SEQEND
0
POLYLINE
8
L3D0
70
1
40
0
41
0
66
1
0
VERTEX
8
L3D0
10
0.666
20
-1.247
0
VERTEX
8
L3D0
10
0.666
20
-1.047
0
VERTEX
8
L3D0
10
0.866
20
-1.047
0
VERTEX
8
L3D0
10
0.866
20
-1.247
0
SEQEND
0
POLYLINE
8
L3D0
70
1
40
0
41
0
66
1
0
VERTEX
8
L3D0
10
1.047
20
-0.866
0
VERTEX
8
L3D0
10
1.047
20
-0.666
0
VERTEX
8
L3D0
10
1.247
20
-0.666
0
VERTEX
8
L3D0
10
1.247
20
-0.866
0
SEQEND
0
POLYLINE
8
L4D0
70
1
40
0
41
0
66
1
0
VERTEX
8
L4D0
10
-2.3
20
-2.3
0
VERTEX
8
L4D0
10
-2.3
20
-1.7
0
VERTEX
8
L4D0
10
1.3
20
-1.7
0
VERTEX
8
L4D0
10
1.3
20
-1.5
0
VERTEX
8
L4D0
10
-1.9
20
-1.5
0
VERTEX
8
L4D0
10
-1.9
20
1.7
0
VERTEX
8
L4D0
10
-2.3
20
1.7
0
VERTEX
8
L4D0
10
-2.3
20
2.3
0
VERTEX
8
L4D0
10
-1.7
20
2.3
0
VERTEX
8
L4D0
10
-1.7
20
-1.3
0
VERTEX
8
L4D0
10
-1.5
20
-1.3
0
VERTEX
8
L4D0
10
-1.5
20
1.9
0
VERTEX
8
L4D0
10
1.7
20
1.9
0
VERTEX
8
L4D0
10
1.7
20
2.3
0
VERTEX
8
L4D0
10
2.3
20
2.3
0
VERTEX
8
L4D0
10
2.3
20
1.7
0
VERTEX
8
L4D0
10
-1.3
20
1.7
0
VERTEX
8
L4D0
10
-1.3
20
1.5
0
VERTEX
8
L4D0
10
1.9
20
1.5
0
VERTEX
8
L4D0
10
1.9
20
-1.7
0
VERTEX
8
L4D0
10
2.3
20
-1.7
0
VERTEX
8
L4D0
10
2.3
20
-2.3
0
VERTEX
8
L4D0
10
1.7
20
-2.3
0
VERTEX
8
L4D0
10
1.7
20
1.3
0
VERTEX
8
L4D0
10
1.5
20
1.3
0
VERTEX
8
L4D0
10
1.5
20
-1.9
0
VERTEX
8
L4D0
10
-1.7
20
-1.9
0
VERTEX
8
L4D0
10
-1.7
20
-2.3
0
SEQEND
0
POLYLINE
8
L5D0
70
1
40
0
41
0
66
1
0
VERTEX
8
L5D0
10
-0.04
20
-0.04
0
VERTEX
8
L5D0
10
-0.04
20
0.04
0
VERTEX
8
L5D0
10
0.04
20
0.04
0
VERTEX
8
L5D0
10
0.04
20
-0.04
0
SEQEND
0
POLYLINE
8
L5D0
70
1
40
0
41
0
66
1
0
VERTEX
8
L5D0
10
0.352
20
-0.04
0
VERTEX
8
L5D0
10
0.352
20
0.04
0
VERTEX
8
L5D0
10
0.432
20
0.04
0
VERTEX
8
L5D0
10
0.432
20
-0.04
0
SEQEND
0
POLYLINE
8
L5D0
70
1
40
0
41
0
66
1
0
VERTEX
8
L5D0
10
0.156
20
0.299
0
VERTEX
8
L5D0
10
0.156
20
0.379
0
VERTEX
8
L5D0
10
0.236
20
0.379
0
VERTEX
8
L5D0
10
0.236
20
0.299
0
SEQEND
0
POLYLINE
8
L5D0
70
1
40
0
41
0
66
1
0
VERTEX
8
L5D0
10
-0.235
20
0.299
0
VERTEX
8
L5D0
10
-0.235
20
0.379
0
VERTEX
8
L5D0
10
-0.155
20
0.379
0
VERTEX
8
L5D0
10
-0.155
20
0.299
0
SEQEND
0
POLYLINE
8
L5D0
70
1
40
0
41
0
66
1
0
VERTEX
8
L5D0
10
-0.432
20
-0.04
0
VERTEX
8
L5D0
10
-0.432
20
0.04
0
VERTEX
8
L5D0
10
-0.352
20
0.04
0
VERTEX
8
L5D0
10
-0.352
20
-0.04
0
SEQEND
0
POLYLINE
8
L5D0
70
1
40
0
41
0
66
1
0
VERTEX
8
L5D0
10
-0.236
20
-0.379
0
VERTEX
8
L5D0
10
-0.236
20
-0.299
0
VERTEX
8
L5D0
10
-0.156
20
-0.299
0
VERTEX
8
L5D0
10
-0.156
20
-0.379
0
SEQEND
0
POLYLINE
8
L5D0
70
1
40
0
41
0
66
1
0
VERTEX
8
L5D0
10
0.155
20
-0.379
0
VERTEX
8
L5D0
10
0.155
20
-0.299
0
VERTEX
8
L5D0
10
0.235
20
-0.299
0
VERTEX
8
L5D0
10
0.235
20
-0.379
0
SEQEND
0
POLYLINE
8
L5D0
70
1
40
0
41
0
66
1
0
VERTEX
8
L5D0
10
0.744
20
-0.04
0
VERTEX
8
L5D0
10
0.744
20
0.04
0
VERTEX
8
L5D0
10
0.824
20
0.04
0
VERTEX
8
L5D0
10
0.824
20
-0.04
0
SEQEND
0
POLYLINE
8
L5D0
70
1
40
0
41
0
66
1
0
VERTEX
8
L5D0
10
0.638
20
0.351
0
VERTEX
8
L5D0
10
0.638
20
0.431
0
VERTEX
8
L5D0
10
0.718
20
0.431
0
VERTEX
8
L5D0
10
0.718
20
0.351
0
SEQEND
0
POLYLINE
8
L5D0
70
1
40
0
41
0
66
1
0
VERTEX
8
L5D0
10
0.352
20
0.638
0
VERTEX
8
L5D0
10
0.352
20
0.718
0
VERTEX
8
L5D0
10
0.432
20
0.718
0
VERTEX
8
L5D0
10
0.432
20
0.638
0
SEQEND
0
POLYLINE
8
L5D0
70
1
40
0
41
0
66
1
0
VERTEX
8
L5D0
10
-0.04
20
0.744
0
VERTEX
8
L5D0
10
-0.04
20
0.824
0
VERTEX
8
L5D0
10
0.04
20
0.824
0
VERTEX
8
L5D0
10
0.04
20
0.744
0
SEQEND
0
POLYLINE
8
L5D0
70
1
40
0
41
0
66
1
0
VERTEX
8
L5D0
10
-0.431
20
0.638
0
VERTEX
8
L5D0
10
-0.431
20
0.718
0
VERTEX
8
L5D0
10
-0.351
20
0.718
0
VERTEX
8
L5D0
10
-0.351
20
0.638
0
SEQEND
0
POLYLINE
8
L5D0
70
1
40
0
41
0
66
1
0
VERTEX
8
L5D0
10
-0.718
20
0.352
0
VERTEX
8
L5D0
10
-0.718
20
0.432
0
VERTEX
8
L5D0
10
-0.638
20
0.432
0
VERTEX
8
L5D0
10
-0.638
20
0.352
0
SEQEND
0
POLYLINE
8
L5D0
70
1
40
0
41
0
66
1
0
VERTEX
8
L5D0
10
-0.824
20
-0.04
0
VERTEX
8
L5D0
10
-0.824
20
0.04
0
VERTEX
8
L5D0
10
-0.744
20
0.04
0
VERTEX
8
L5D0
10
-0.744
20
-0.04
0
SEQEND
0
POLYLINE
8
L5D0
70
1
40
0
41
0
66
1
0
VERTEX
8
L5D0
10
-0.718
20
-0.431
0
VERTEX
8
L5D0
10
-0.718
20
-0.351
0
VERTEX
8
L5D0
10
-0.638
20
-0.351
0
VERTEX
8
L5D0
10
-0.638
20
-0.431
0
SEQEND
0
POLYLINE
8
L5D0
70
1
40
0
41
0
66
1
0
VERTEX
8
L5D0
10
-0.432
20
-0.718
0
VERTEX
8
L5D0
10
-0.432
20
-0.638
0
VERTEX
8
L5D0
10
-0.352
20
-0.638
0
VERTEX
8
L5D0
10
-0.352
20
-0.718
0
SEQEND
0
POLYLINE
8
L5D0
70
1
40
0
41
0
66
1
0
VERTEX
8
L5D0
10
-0.04
20
-0.824
0
VERTEX
8
L5D0
10
-0.04
20
-0.744
0
VERTEX
8
L5D0
10
0.04
20
-0.744
0
VERTEX
8
L5D0
10
0.04
20
-0.824
0
SEQEND
0
POLYLINE
8
L5D0
70
1
40
0
41
0
66
1
0
VERTEX
8
L5D0
10
0.351
20
-0.718
0
VERTEX
8
L5D0
10
0.351
20
-0.638
0
VERTEX
8
L5D0
10
0.431
20
-0.638
0
VERTEX
8
L5D0
10
0.431
20
-0.718
0
SEQEND
0
POLYLINE
8
L5D0
70
1
40
0
41
0
66
1
0
VERTEX
8
L5D0
10
0.638
20
-0.432
0
VERTEX
8
L5D0
10
0.638
20
-0.352
0
VERTEX
8
L5D0
10
0.718
20
-0.352
0
VERTEX
8
L5D0
10
0.718
20
-0.432
0
SEQEND
0
POLYLINE
8
L5D0
70
1
40
0
41
0
66
1
0
VERTEX
8
L5D0
10
1.136
20
-0.04
0
VERTEX
8
L5D0
10
1.136
20
0.04
0
VERTEX
8
L5D0
10
1.216
20
0.04
0
VERTEX
8
L5D0
10
1.216
20
-0.04
0
SEQEND
0
POLYLINE
8
L5D0
70
1
40
0
41
0
66
1
0
VERTEX
8
L5D0
10
1.065
20
0.362
0
VERTEX
8
L5D0
10
1.065
20
0.442
0
VERTEX
8
L5D0
10
1.145
20
0.442
0
VERTEX
8
L5D0
10
1.145
20
0.362
0
SEQEND
0
POLYLINE
8
L5D0
70
1
40
0
41
0
66
1
0
VERTEX
8
L5D0
10
0.86
20
0.715
0
VERTEX
8
L5D0
10
0.86
20
0.795
0
VERTEX
8
L5D0
10
0.94
20
0.795
0
VERTEX
8
L5D0
10
0.94
20
0.715
0
SEQEND
0
POLYLINE
8
L5D0
70
1
40
0
41
0
66
1
0
VERTEX
8
L5D0
10
0.548
20
0.978
0
VERTEX
8
L5D0
10
0.548
20
1.058
0
VERTEX
8
L5D0
10
0.628
20
1.058
0
VERTEX
8
L5D0
10
0.628
20
0.978
0
SEQEND
0
POLYLINE
8
L5D0
70
1
40
0
41
0
66
1
0
VERTEX
8
L5D0
10
0.164
20
1.118
0
VERTEX
8
L5D0
10
0.164
20
1.198
0
VERTEX
8
L5D0
10
0.244
20
1.198
0
VERTEX
8
L5D0
10
0.244
20
1.118
0
SEQEND
0
POLYLINE
8
L5D0
70
1
40
0
41
0
66
1
0
VERTEX
8
L5D0
10
-0.244
20
1.118
0
VERTEX
8
L5D0
10
-0.244
20
1.198
0
VERTEX
8
L5D0
10
-0.164
20
1.198
0
VERTEX
8
L5D0
10
-0.164
20
1.118
0
SEQEND
0
POLYLINE
8
L5D0
70
1
40
0
41
0
66
1
0
VERTEX
8
L5D0
10
-0.627
20
0.978
0
VERTEX
8
L5D0
10
-0.627
20
1.058
0
VERTEX
8
L5D0
10
-0.547
20
1.058
0
VERTEX
8
L5D0
10
-0.547
20
0.978
0
SEQEND
0
POLYLINE
8
L5D0
70
1
40
0
41
0
66
1
0
VERTEX
8
L5D0
10
-0.94
20
0.715
0
VERTEX
8
L5D0
10
-0.94
20
0.795
0
VERTEX
8
L5D0
10
-0.86
20
0.795
0
VERTEX
8
L5D0
10
-0.86
20
0.715
0
SEQEND
0
POLYLINE
8
L5D0
70
1
40
0
41
0
66
1
0
VERTEX
8
L5D0
10
-1.145
20
0.362
0
VERTEX
8
L5D0
10
-1.145
20
0.442
0
VERTEX
8
L5D0
10
-1.065
20
0.442
0
VERTEX
8
L5D0
10
-1.065
20
0.362
0
SEQEND
0
POLYLINE
8
L5D0
70
1
40
0
41
0
66
1
0
VERTEX
8
L5D0
10
-1.216
20
-0.04
0
VERTEX
8
L5D0
10
-1.216
20
0.04
0
VERTEX
8
L5D0
10
-1.136
20
0.04
0
VERTEX
8
L5D0
10
-1.136
20
-0.04
0
SEQEND
0
POLYLINE
8
L5D0
70
1
40
0
41
0
66
1
0
VERTEX
8
L5D0
10
-1.145
20
-0.442
0
VERTEX
8
L5D0
10
-1.145
20
-0.362
0
VERTEX
8
L5D0
10
-1.065
20
-0.362
0
VERTEX
8
L5D0
10
-1.065
20
-0.442
0
SEQEND
0
POLYLINE
8
L5D0
70
1
40
0
41
0
66
1
0
VERTEX
8
L5D0
10
-0.94
20
-0.795
0
VERTEX
8
L5D0
10
-0.94
20
-0.715
0
VERTEX
8
L5D0
10
-0.86
20
-0.715
0
VERTEX
8
L5D0
10
-0.86
20
-0.795
0
SEQEND
0
POLYLINE
8
L5D0
70
1
40
0
41
0
66
1
0
VERTEX
8
L5D0
10
-0.628
20
-1.058
0
VERTEX
8
L5D0
10
-0.628
20
-0.978
0
VERTEX
8
L5D0
10
-0.548
20
-0.978
0
VERTEX
8
L5D0
10
-0.548
20
-1.058
0
SEQEND
0
POLYLINE
8
L5D0
70
1
40
0
41
0
66
1
0
VERTEX
8
L5D0
10
-0.244
20
-1.198
0
VERTEX
8
L5D0
10
-0.244
20
-1.118
0
VERTEX
8
L5D0
10
-0.164
20
-1.118
0
VERTEX
8
L5D0
10
-0.164
20
-1.198
0
SEQEND
0
POLYLINE
8
L5D0
70
1
40
0
41
0
66
1
0
VERTEX
8
L5D0
10
0.164
20
-1.198
0
VERTEX
8
L5D0
10
0.164
20
-1.118
0
VERTEX
8
L5D0
10
0.244
20
-1.118
0
VERTEX
8
L5D0
10
0.244
20
-1.198
0
SEQEND
0
POLYLINE
8
L5D0
70
1
40
0
41
0
66
1
0
VERTEX
8
L5D0
10
0.548
20
-1.058
0
VERTEX
8
L5D0
10
0.548
20
-0.978
0
VERTEX
8
L5D0
10
0.628
20
-0.978
0
VERTEX
8
L5D0
10
0.628
20
-1.058
0
SEQEND
0
POLYLINE
8
L5D0
70
1
40
0
41
0
66
1
0
VERTEX
8
L5D0
10
0.86
20
-0.795
0
VERTEX
8
L5D0
10
0.86
20
-0.715
0
VERTEX
8
L5D0
10
0.94
20
-0.715
0
VERTEX
8
L5D0
10
0.94
20
-0.795
0
SEQEND
0
POLYLINE
8
L5D0
70
1
40
0
41
0
66
1
0
VERTEX
8
L5D0
10
1.065
20
-0.442
0
VERTEX
8
L5D0
10
1.065
20
-0.362
0
VERTEX
8
L5D0
10
1.145
20
-0.362
0
VERTEX
8
L5D0
10
1.145
20
-0.442
0
SEQEND
0
POLYLINE
8
L5D0
70
1
40
0
41
0
66
1
0
VERTEX
8
L5D0
10
1.068
20
1.068
0
VERTEX
8
L5D0
10
1.068
20
1.148
0
VERTEX
8
L5D0
10
1.148
20
1.148
0
VERTEX
8
L5D0
10
1.148
20
1.068
0
SEQEND
0
POLYLINE
8
L5D0
70
1
40
0
41
0
66
1
0
VERTEX
8
L5D0
10
-1.148
20
1.068
0
VERTEX
8
L5D0
10
-1.148
20
1.148
0
VERTEX
8
L5D0
10
-1.068
20
1.148
0
VERTEX
8
L5D0
10
-1.068
20
1.068
0
SEQEND
0
POLYLINE
8
L5D0
70
1
40
0
41
0
66
1
0
VERTEX
8
L5D0
10
-1.148
20
-1.148
0
VERTEX
8
L5D0
10
-1.148
20
-1.068
0
VERTEX
8
L5D0
10
-1.068
20
-1.068
0
VERTEX
8
L5D0
10
-1.068
20
-1.148
0
SEQEND
0
POLYLINE
8
L5D0
70
1
40
0
41
0
66
1
0
VERTEX
8
L5D0
10
1.068
20
-1.148
0
VERTEX
8
L5D0
10
1.068
20
-1.068
0
VERTEX
8
L5D0
10
1.148
20
-1.068
0
VERTEX
8
L5D0
10
1.148
20
-1.148
0
SEQEND
0
ENDSEC
0
EOF
