<?xml version="1.0" standalone="no"?>
<!DOCTYPE svg PUBLIC "-//W3C//DTD SVG 1.1//EN" "http://www.w3.org/Graphics/SVG/1.1/DTD/svg11.dtd">
<svg width="10mm" height="10mm" viewBox="-5 -5 10 10" xmlns="http://www.w3.org/2000/svg" version="1.1">
<title>OpenSCAD Model</title>
<path d="
M -0.359268,-4.08356 L -1.11494,-4.08356 L -1.11494,-3.3279 L -0.359268,-3.3279 z
M 1.11494,-4.08356 L 0.359268,-4.08356 L 0.359268,-3.3279 L 1.11494,-3.3279 z
M 2.47696,-3.51939 L 1.72128,-3.51939 L 1.72128,-2.76373 L 2.47696,-2.76373 z
M -1.72128,-3.51939 L -2.47696,-3.51939 L -2.47696,-2.76373 L -1.72128,-2.76373 z
M 3.51939,-2.47696 L 2.76373,-2.47696 L 2.76373,-1.72128 L 3.51939,-1.72128 z
M -2.76373,-2.47696 L -3.51939,-2.47696 L -3.51939,-1.72128 L -2.76373,-1.72128 z
M 4.08356,-1.11494 L 3.3279,-1.11494 L 3.3279,-0.359268 L 4.08356,-0.359268 z
M -3.3279,-1.11494 L -4.08356,-1.11494 L -4.08356,-0.359268 L -3.3279,-0.359268 z
M -3.3279,0.359268 L -4.08356,0.359268 L -4.08356,1.11494 L -3.3279,1.11494 z
M 4.08356,0.359268 L 3.3279,0.359268 L 3.3279,1.11494 L 4.08356,1.11494 z
M 3.51939,1.72128 L 2.76373,1.72128 L 2.76373,2.47696 L 3.51939,2.47696 z
M -2.76373,1.72128 L -3.51939,1.72128 L -3.51939,2.47696 L -2.76373,2.47696 z
M -1.72128,2.76373 L -2.47696,2.76373 L -2.47696,3.51939 L -1.72128,3.51939 z
M 2.47696,2.76373 L 1.72128,2.76373 L 1.72128,3.51939 L 2.47696,3.51939 z
M -0.359268,3.3279 L -1.11494,3.3279 L -1.11494,4.08356 L -0.359268,4.08356 z
M 1.11494,3.3279 L 0.359268,3.3279 L 0.359268,4.08356 L 1.11494,4.08356 z
" stroke="black" fill="lightgray" stroke-width="0.5"/>
</svg>
