0
SECTION
2
HEADER
9
$ACADVER
1
AC1006
0
ENDSEC
0
SECTION
2
TABLES
0
TABLE
2
LAYER
70
8
0
LAYER
70
0
62
1
6
CONTINUOUS
2
L1D0
0
LAYER
70
0
62
2
6
CONTINUOUS
2
L2D0
0
LAYER
70
0
62
3
6
CONTINUOUS
2
L3D0
0
LAYER
70
0
62
4
6
CONTINUOUS
2
L4D0
0
LAYER
70
0
62
5
6
CONTINUOUS
2
L5D0
0
LAYER
70
0
62
6
6
CONTINUOUS
2
L6D0
0
LAYER
70
0
62
7
6
CONTINUOUS
2
L7D0
0
LAYER
70
0
62
8
6
CONTINUOUS
2
L8D0
0
ENDTAB
0
ENDSEC
0
SECTION
2
BLOCKS
0
ENDSEC
0
SECTION
2
ENTITIES
0
POLYLINE
8
L1D0
70
1
40
0
41
0
66
1
0
VERTEX
8
L1D0
10
1.8
20
1.8
0
VERTEX
8
L1D0
10
1.8
20
2.2
0
VERTEX
8
L1D0
10
2.2
20
2.2
0
VERTEX
8
L1D0
10
2.2
20
1.8
0
SEQEND
0
POLYLINE
8
L1D0
70
1
40
0
41
0
66
1
0
VERTEX
8
L1D0
10
-2.2
20
1.8
0
VERTEX
8
L1D0
10
-2.2
20
2.2
0
VERTEX
8
L1D0
10
-1.8
20
2.2
0
VERTEX
8
L1D0
10
-1.8
20
1.8
0
SEQEND
0
POLYLINE
8
L1D0
70
1
40
0
41
0
66
1
0
VERTEX
8
L1D0
10
-2.2
20
-2.2
0
VERTEX
8
L1D0
10
-2.2
20
-1.8
0
VERTEX
8
L1D0
10
-1.8
20
-1.8
0
VERTEX
8
L1D0
10
-1.8
20
-2.2
0
SEQEND
0
POLYLINE
8
L1D0
70
1
40
0
41
0
66
1
0
VERTEX
8
L1D0
10
1.8
20
-2.2
0
VERTEX
8
L1D0
10
1.8
20
-1.8
0
VERTEX
8
L1D0
10
2.2
20
-1.8
0
VERTEX
8
L1D0
10
2.2
20
-2.2
0
SEQEND
0
POLYLINE
8
L2D0
70
1
40
0
41
0
66
1
0
VERTEX
8
L2D0
10
-0.793
20
-0.609
0
VERTEX
8
L2D0
10
-0.997
20
-0.114
0
VERTEX
8
L2D0
10
-0.859
20
-0.057
0
VERTEX
8
L2D0
10
-0.655
20
-0.552
0
SEQEND
0
POLYLINE
8
L2D0
70
1
40
0
41
0
66
1
0
VERTEX
8
L2D0
10
-0.111
20
-0.84
0
VERTEX
8
L2D0
10
-0.509
20
-0.672
0
VERTEX
8
L2D0
10
-0.451
20
-0.534
0
VERTEX
8
L2D0
10
-0.053
20
-0.702
0
SEQEND
0
POLYLINE
8
L2D0
70
1
40
0
41
0
66
1
0
VERTEX
8
L2D0
10
0.129
20
-1
0
VERTEX
8
L2D0
10
0.073
20
-0.861
0
VERTEX
8
L2D0
10
0.547
20
-0.668
0
VERTEX
8
L2D0
10
0.603
20
-0.807
0
SEQEND
0
POLYLINE
8
L2D0
70
1
40
0
41
0
66
1
0
VERTEX
8
L2D0
10
0.669
20
-0.529
0
VERTEX
8
L2D0
10
0.531
20
-0.471
0
VERTEX
8
L2D0
10
0.701
20
-0.067
0
VERTEX
8
L2D0
10
0.839
20
-0.125
0
SEQEND
0
POLYLINE
8
L2D0
70
1
40
0
41
0
66
1
0
VERTEX
8
L2D0
10
0.859
20
0.055
0
VERTEX
8
L2D0
10
0.655
20
0.543
0
VERTEX
8
L2D0
10
0.793
20
0.601
0
VERTEX
8
L2D0
10
0.997
20
0.113
0
SEQEND
0
POLYLINE
8
L2D0
70
1
40
0
41
0
66
1
0
VERTEX
8
L2D0
10
0.457
20
0.528
0
VERTEX
8
L2D0
10
0.051
20
0.693
0
VERTEX
8
L2D0
10
0.107
20
0.832
0
VERTEX
8
L2D0
10
0.513
20
0.667
0
SEQEND
0
POLYLINE
8
L2D0
70
1
40
0
41
0
66
1
0
VERTEX
8
L2D0
10
-0.503
20
0.659
0
VERTEX
8
L2D0
10
-0.56
20
0.798
0
VERTEX
8
L2D0
10
-0.147
20
0.967
0
VERTEX
8
L2D0
10
-0.09
20
0.828
0
SEQEND
0
POLYLINE
8
L2D0
70
1
40
0
41
0
66
1
0
VERTEX
8
L2D0
10
-0.697
20
0.063
0
VERTEX
8
L2D0
10
-0.834
20
0.125
0
VERTEX
8
L2D0
10
-0.653
20
0.521
0
VERTEX
8
L2D0
10
-0.516
20
0.459
0
SEQEND
0
POLYLINE
8
L3D0
70
1
40
0
41
0
66
1
0
VERTEX
8
L3D0
10
-1.003
20
-0.16
0
VERTEX
8
L3D0
10
-1.003
20
-0.01
0
VERTEX
8
L3D0
10
-0.853
20
-0.01
0
VERTEX
8
L3D0
10
-0.853
20
-0.16
0
SEQEND
0
POLYLINE
8
L3D0
70
1
40
0
41
0
66
1
0
VERTEX
8
L3D0
10
-0.799
20
-0.656
0
VERTEX
8
L3D0
10
-0.799
20
-0.506
0
VERTEX
8
L3D0
10
-0.649
20
-0.506
0
VERTEX
8
L3D0
10
-0.649
20
-0.656
0
SEQEND
0
POLYLINE
8
L3D0
70
1
40
0
41
0
66
1
0
VERTEX
8
L3D0
10
-0.556
20
-0.678
0
VERTEX
8
L3D0
10
-0.556
20
-0.528
0
VERTEX
8
L3D0
10
-0.406
20
-0.528
0
VERTEX
8
L3D0
10
-0.406
20
-0.678
0
SEQEND
0
POLYLINE
8
L3D0
70
1
40
0
41
0
66
1
0
VERTEX
8
L3D0
10
-0.157
20
-0.847
0
VERTEX
8
L3D0
10
-0.157
20
-0.697
0
VERTEX
8
L3D0
10
-0.007
20
-0.697
0
VERTEX
8
L3D0
10
-0.007
20
-0.847
0
SEQEND
0
POLYLINE
8
L3D0
70
1
40
0
41
0
66
1
0
VERTEX
8
L3D0
10
0.025
20
-1.005
0
VERTEX
8
L3D0
10
0.025
20
-0.855
0
VERTEX
8
L3D0
10
0.175
20
-0.855
0
VERTEX
8
L3D0
10
0.175
20
-1.005
0
SEQEND
0
POLYLINE
8
L3D0
70
1
40
0
41
0
66
1
0
VERTEX
8
L3D0
10
0.501
20
-0.812
0
VERTEX
8
L3D0
10
0.501
20
-0.662
0
VERTEX
8
L3D0
10
0.651
20
-0.662
0
VERTEX
8
L3D0
10
0.651
20
-0.812
0
SEQEND
0
POLYLINE
8
L3D0
70
1
40
0
41
0
66
1
0
VERTEX
8
L3D0
10
0.524
20
-0.575
0
VERTEX
8
L3D0
10
0.524
20
-0.425
0
VERTEX
8
L3D0
10
0.674
20
-0.425
0
VERTEX
8
L3D0
10
0.674
20
-0.575
0
SEQEND
0
POLYLINE
8
L3D0
70
1
40
0
41
0
66
1
0
VERTEX
8
L3D0
10
0.695
20
-0.171
0
VERTEX
8
L3D0
10
0.695
20
-0.021
0
VERTEX
8
L3D0
10
0.845
20
-0.021
0
VERTEX
8
L3D0
10
0.845
20
-0.171
0
SEQEND
0
POLYLINE
8
L3D0
70
1
40
0
41
0
66
1
0
VERTEX
8
L3D0
10
0.853
20
0.009
0
VERTEX
8
L3D0
10
0.853
20
0.159
0
VERTEX
8
L3D0
10
1.003
20
0.159
0
VERTEX
8
L3D0
10
1.003
20
0.009
0
SEQEND
0
POLYLINE
8
L3D0
70
1
40
0
41
0
66
1
0
VERTEX
8
L3D0
10
0.649
20
0.497
0
VERTEX
8
L3D0
10
0.649
20
0.647
0
VERTEX
8
L3D0
10
0.799
20
0.647
0
VERTEX
8
L3D0
10
0.799
20
0.497
0
SEQEND
0
POLYLINE
8
L3D0
70
1
40
0
41
0
66
1
0
VERTEX
8
L3D0
10
0.41
20
0.522
0
VERTEX
8
L3D0
10
0.41
20
0.672
0
VERTEX
8
L3D0
10
0.56
20
0.672
0
VERTEX
8
L3D0
10
0.56
20
0.522
0
SEQEND
0
POLYLINE
8
L3D0
70
1
40
0
41
0
66
1
0
VERTEX
8
L3D0
10
0.004
20
0.687
0
VERTEX
8
L3D0
10
0.004
20
0.837
0
VERTEX
8
L3D0
10
0.154
20
0.837
0
VERTEX
8
L3D0
10
0.154
20
0.687
0
SEQEND
0
POLYLINE
8
L3D0
70
1
40
0
41
0
66
1
0
VERTEX
8
L3D0
10
-0.193
20
0.823
0
VERTEX
8
L3D0
10
-0.193
20
0.973
0
VERTEX
8
L3D0
10
-0.043
20
0.973
0
VERTEX
8
L3D0
10
-0.043
20
0.823
0
SEQEND
0
POLYLINE
8
L3D0
70
1
40
0
41
0
66
1
0
VERTEX
8
L3D0
10
-0.608
20
0.654
0
VERTEX
8
L3D0
10
-0.608
20
0.804
0
VERTEX
8
L3D0
10
-0.458
20
0.804
0
VERTEX
8
L3D0
10
-0.458
20
0.654
0
SEQEND
0
POLYLINE
8
L3D0
70
1
40
0
41
0
66
1
0
VERTEX
8
L3D0
10
-0.659
20
0.416
0
VERTEX
8
L3D0
10
-0.659
20
0.566
0
VERTEX
8
L3D0
10
-0.509
20
0.566
0
VERTEX
8
L3D0
10
-0.509
20
0.416
0
SEQEND
0
POLYLINE
8
L3D0
70
1
40
0
41
0
66
1
0
VERTEX
8
L3D0
10
-0.841
20
0.018
0
VERTEX
8
L3D0
10
-0.841
20
0.168
0
VERTEX
8
L3D0
10
-0.691
20
0.168
0
VERTEX
8
L3D0
10
-0.691
20
0.018
0
SEQEND
0
POLYLINE
8
L4D0
70
1
40
0
41
0
66
1
0
VERTEX
8
L4D0
10
-2.3
20
-2.3
0
VERTEX
8
L4D0
10
-2.3
20
-1.7
0
VERTEX
8
L4D0
10
1.3
20
-1.7
0
VERTEX
8
L4D0
10
1.3
20
-1.5
0
VERTEX
8
L4D0
10
-1.9
20
-1.5
0
VERTEX
8
L4D0
10
-1.9
20
1.7
0
VERTEX
8
L4D0
10
-2.3
20
1.7
0
VERTEX
8
L4D0
10
-2.3
20
2.3
0
VERTEX
8
L4D0
10
-1.7
20
2.3
0
VERTEX
8
L4D0
10
-1.7
20
-1.3
0
VERTEX
8
L4D0
10
-1.5
20
-1.3
0
VERTEX
8
L4D0
10
-1.5
20
1.9
0
VERTEX
8
L4D0
10
1.7
20
1.9
0
VERTEX
8
L4D0
10
1.7
20
2.3
0
VERTEX
8
L4D0
10
2.3
20
2.3
0
VERTEX
8
L4D0
10
2.3
20
1.7
0
VERTEX
8
L4D0
10
-1.3
20
1.7
0
VERTEX
8
L4D0
10
-1.3
20
1.5
0
VERTEX
8
L4D0
10
1.9
20
1.5
0
VERTEX
8
L4D0
10
1.9
20
-1.7
0
VERTEX
8
L4D0
10
2.3
20
-1.7
0
VERTEX
8
L4D0
10
2.3
20
-2.3
0
VERTEX
8
L4D0
10
1.7
20
-2.3
0
VERTEX
8
L4D0
10
1.7
20
1.3
0
VERTEX
8
L4D0
10
1.5
20
1.3
0
VERTEX
8
L4D0
10
1.5
20
-1.9
0
VERTEX
8
L4D0
10
-1.7
20
-1.9
0
VERTEX
8
L4D0
10
-1.7
20
-2.3
0
SEQEND
0
POLYLINE
8
L5D0
70
1
40
0
41
0
66
1
0
VERTEX
8
L5D0
10
-0.05
20
-0.05
0
VERTEX
8
L5D0
10
-0.05
20
0.05
0
VERTEX
8
L5D0
10
0.05
20
0.05
0
VERTEX
8
L5D0
10
0.05
20
-0.05
0
SEQEND
0
POLYLINE
8
L5D0
70
1
40
0
41
0
66
1
0
VERTEX
8
L5D0
10
0.535
20
-0.05
0
VERTEX
8
L5D0
10
0.535
20
0.05
0
VERTEX
8
L5D0
10
0.635
20
0.05
0
VERTEX
8
L5D0
10
0.635
20
-0.05
0
SEQEND
0
POLYLINE
8
L5D0
70
1
40
0
41
0
66
1
0
VERTEX
8
L5D0
10
0.363
20
0.363
0
VERTEX
8
L5D0
10
0.363
20
0.463
0
VERTEX
8
L5D0
10
0.463
20
0.463
0
VERTEX
8
L5D0
10
0.463
20
0.363
0
SEQEND
0
POLYLINE
8
L5D0
70
1
40
0
41
0
66
1
0
VERTEX
8
L5D0
10
-0.05
20
0.535
0
VERTEX
8
L5D0
10
-0.05
20
0.635
0
VERTEX
8
L5D0
10
0.05
20
0.635
0
VERTEX
8
L5D0
10
0.05
20
0.535
0
SEQEND
0
POLYLINE
8
L5D0
70
1
40
0
41
0
66
1
0
VERTEX
8
L5D0
10
-0.463
20
0.363
0
VERTEX
8
L5D0
10
-0.463
20
0.463
0
VERTEX
8
L5D0
10
-0.363
20
0.463
0
VERTEX
8
L5D0
10
-0.363
20
0.363
0
SEQEND
0
POLYLINE
8
L5D0
70
1
40
0
41
0
66
1
0
VERTEX
8
L5D0
10
-0.635
20
-0.05
0
VERTEX
8
L5D0
10
-0.635
20
0.05
0
VERTEX
8
L5D0
10
-0.535
20
0.05
0
VERTEX
8
L5D0
10
-0.535
20
-0.05
0
SEQEND
0
POLYLINE
8
L5D0
70
1
40
0
41
0
66
1
0
VERTEX
8
L5D0
10
-0.463
20
-0.463
0
VERTEX
8
L5D0
10
-0.463
20
-0.363
0
VERTEX
8
L5D0
10
-0.363
20
-0.363
0
VERTEX
8
L5D0
10
-0.363
20
-0.463
0
SEQEND
0
POLYLINE
8
L5D0
70
1
40
0
41
0
66
1
0
VERTEX
8
L5D0
10
-0.05
20
-0.635
0
VERTEX
8
L5D0
10
-0.05
20
-0.535
0
VERTEX
8
L5D0
10
0.05
20
-0.535
0
VERTEX
8
L5D0
10
0.05
20
-0.635
0
SEQEND
0
POLYLINE
8
L5D0
70
1
40
0
41
0
66
1
0
VERTEX
8
L5D0
10
0.363
20
-0.463
0
VERTEX
8
L5D0
10
0.363
20
-0.363
0
VERTEX
8
L5D0
10
0.463
20
-0.363
0
VERTEX
8
L5D0
10
0.463
20
-0.463
0
SEQEND
0
POLYLINE
8
L5D0
70
1
40
0
41
0
66
1
0
VERTEX
8
L5D0
10
1.12
20
-0.05
0
VERTEX
8
L5D0
10
1.12
20
0.05
0
VERTEX
8
L5D0
10
1.22
20
0.05
0
VERTEX
8
L5D0
10
1.22
20
-0.05
0
SEQEND
0
POLYLINE
8
L5D0
70
1
40
0
41
0
66
1
0
VERTEX
8
L5D0
10
1.03
20
0.397
0
VERTEX
8
L5D0
10
1.03
20
0.497
0
VERTEX
8
L5D0
10
1.13
20
0.497
0
VERTEX
8
L5D0
10
1.13
20
0.397
0
SEQEND
0
POLYLINE
8
L5D0
70
1
40
0
41
0
66
1
0
VERTEX
8
L5D0
10
0.777
20
0.777
0
VERTEX
8
L5D0
10
0.777
20
0.877
0
VERTEX
8
L5D0
10
0.877
20
0.877
0
VERTEX
8
L5D0
10
0.877
20
0.777
0
SEQEND
0
POLYLINE
8
L5D0
70
1
40
0
41
0
66
1
0
VERTEX
8
L5D0
10
0.397
20
1.03
0
VERTEX
8
L5D0
10
0.397
20
1.13
0
VERTEX
8
L5D0
10
0.497
20
1.13
0
VERTEX
8
L5D0
10
0.497
20
1.03
0
SEQEND
0
POLYLINE
8
L5D0
70
1
40
0
41
0
66
1
0
VERTEX
8
L5D0
10
-0.05
20
1.12
0
VERTEX
8
L5D0
10
-0.05
20
1.22
0
VERTEX
8
L5D0
10
0.05
20
1.22
0
VERTEX
8
L5D0
10
0.05
20
1.12
0
SEQEND
0
POLYLINE
8
L5D0
70
1
40
0
41
0
66
1
0
VERTEX
8
L5D0
10
-0.497
20
1.03
0
VERTEX
8
L5D0
10
-0.497
20
1.13
0
VERTEX
8
L5D0
10
-0.397
20
1.13
0
VERTEX
8
L5D0
10
-0.397
20
1.03
0
SEQEND
0
POLYLINE
8
L5D0
70
1
40
0
41
0
66
1
0
VERTEX
8
L5D0
10
-0.877
20
0.777
0
VERTEX
8
L5D0
10
-0.877
20
0.877
0
VERTEX
8
L5D0
10
-0.777
20
0.877
0
VERTEX
8
L5D0
10
-0.777
20
0.777
0
SEQEND
0
POLYLINE
8
L5D0
70
1
40
0
41
0
66
1
0
VERTEX
8
L5D0
10
-1.13
20
0.397
0
VERTEX
8
L5D0
10
-1.13
20
0.497
0
VERTEX
8
L5D0
10
-1.03
20
0.497
0
VERTEX
8
L5D0
10
-1.03
20
0.397
0
SEQEND
0
POLYLINE
8
L5D0
70
1
40
0
41
0
66
1
0
VERTEX
8
L5D0
10
-1.22
20
-0.05
0
VERTEX
8
L5D0
10
-1.22
20
0.05
0
VERTEX
8
L5D0
10
-1.12
20
0.05
0
VERTEX
8
L5D0
10
-1.12
20
-0.05
0
SEQEND
0
POLYLINE
8
L5D0
70
1
40
0
41
0
66
1
0
VERTEX
8
L5D0
10
-1.13
20
-0.497
0
VERTEX
8
L5D0
10
-1.13
20
-0.397
0
VERTEX
8
L5D0
10
-1.03
20
-0.397
0
VERTEX
8
L5D0
10
-1.03
20
-0.497
0
SEQEND
0
POLYLINE
8
L5D0
70
1
40
0
41
0
66
1
0
VERTEX
8
L5D0
10
-0.877
20
-0.877
0
VERTEX
8
L5D0
10
-0.877
20
-0.777
0
VERTEX
8
L5D0
10
-0.777
20
-0.777
0
VERTEX
8
L5D0
10
-0.777
20
-0.877
0
SEQEND
0
POLYLINE
8
L5D0
70
1
40
0
41
0
66
1
0
VERTEX
8
L5D0
10
-0.497
20
-1.13
0
VERTEX
8
L5D0
10
-0.497
20
-1.03
0
VERTEX
8
L5D0
10
-0.397
20
-1.03
0
VERTEX
8
L5D0
10
-0.397
20
-1.13
0
SEQEND
0
POLYLINE
8
L5D0
70
1
40
0
41
0
66
1
0
VERTEX
8
L5D0
10
-0.05
20
-1.22
0
VERTEX
8
L5D0
10
-0.05
20
-1.12
0
VERTEX
8
L5D0
10
0.05
20
-1.12
0
VERTEX
8
L5D0
10
0.05
20
-1.22
0
SEQEND
0
POLYLINE
8
L5D0
70
1
40
0
41
0
66
1
0
VERTEX
8
L5D0
10
0.397
20
-1.13
0
VERTEX
8
L5D0
10
0.397
20
-1.03
0
VERTEX
8
L5D0
10
0.497
20
-1.03
0
VERTEX
8
L5D0
10
0.497
20
-1.13
0
SEQEND
0
POLYLINE
8
L5D0
70
1
40
0
41
0
66
1
0
VERTEX
8
L5D0
10
0.777
20
-0.877
0
VERTEX
8
L5D0
10
0.777
20
-0.777
0
VERTEX
8
L5D0
10
0.877
20
-0.777
0
VERTEX
8
L5D0
10
0.877
20
-0.877
0
SEQEND
0
POLYLINE
8
L5D0
70
1
40
0
41
0
66
1
0
VERTEX
8
L5D0
10
1.03
20
-0.497
0
VERTEX
8
L5D0
10
1.03
20
-0.397
0
VERTEX
8
L5D0
10
1.13
20
-0.397
0
VERTEX
8
L5D0
10
1.13
20
-0.497
0
SEQEND
0
POLYLINE
8
L5D0
70
1
40
0
41
0
66
1
0
VERTEX
8
L5D0
10
1.19
20
1.19
0
VERTEX
8
L5D0
10
1.19
20
1.29
0
VERTEX
8
L5D0
10
1.29
20
1.29
0
VERTEX
8
L5D0
10
1.29
20
1.19
0
SEQEND
0
POLYLINE
8
L5D0
70
1
40
0
41
0
66
1
0
VERTEX
8
L5D0
10
-1.29
20
1.19
0
VERTEX
8
L5D0
10
-1.29
20
1.29
0
VERTEX
8
L5D0
10
-1.19
20
1.29
0
VERTEX
8
L5D0
10
-1.19
20
1.19
0
SEQEND
0
POLYLINE
8
L5D0
70
1
40
0
41
0
66
1
0
VERTEX
8
L5D0
10
-1.29
20
-1.29
0
VERTEX
8
L5D0
10
-1.29
20
-1.19
0
VERTEX
8
L5D0
10
-1.19
20
-1.19
0
VERTEX
8
L5D0
10
-1.19
20
-1.29
0
SEQEND
0
POLYLINE
8
L5D0
70
1
40
0
41
0
66
1
0
VERTEX
8
L5D0
10
1.19
20
-1.29
0
VERTEX
8
L5D0
10
1.19
20
-1.19
0
VERTEX
8
L5D0
10
1.29
20
-1.19
0
VERTEX
8
L5D0
10
1.29
20
-1.29
0
SEQEND
0
POLYLINE
8
L6D0
70
1
40
0
41
0
66
1
0
VERTEX
8
L6D0
10
1.8
20
1.8
0
VERTEX
8
L6D0
10
1.8
20
2.2
0
VERTEX
8
L6D0
10
2.2
20
2.2
0
VERTEX
8
L6D0
10
2.2
20
1.8
0
SEQEND
0
POLYLINE
8
L6D0
70
1
40
0
41
0
66
1
0
VERTEX
8
L6D0
10
-2.2
20
1.8
0
VERTEX
8
L6D0
10
-2.2
20
2.2
0
VERTEX
8
L6D0
10
-1.8
20
2.2
0
VERTEX
8
L6D0
10
-1.8
20
1.8
0
SEQEND
0
POLYLINE
8
L6D0
70
1
40
0
41
0
66
1
0
VERTEX
8
L6D0
10
-2.2
20
-2.2
0
VERTEX
8
L6D0
10
-2.2
20
-1.8
0
VERTEX
8
L6D0
10
-1.8
20
-1.8
0
VERTEX
8
L6D0
10
-1.8
20
-2.2
0
SEQEND
0
POLYLINE
8
L6D0
70
1
40
0
41
0
66
1
0
VERTEX
8
L6D0
10
1.8
20
-2.2
0
VERTEX
8
L6D0
10
1.8
20
-1.8
0
VERTEX
8
L6D0
10
2.2
20
-1.8
0
VERTEX
8
L6D0
10
2.2
20
-2.2
0
SEQEND
0
POLYLINE
8
L6D0
70
1
40
0
41
0
66
1
0
VERTEX
8
L6D0
10
-1.5
20
-1.5
0
VERTEX
8
L6D0
10
-1.5
20
1.5
0
VERTEX
8
L6D0
10
1.5
20
1.5
0
VERTEX
8
L6D0
10
1.5
20
-1.5
0
SEQEND
0
POLYLINE
8
L7D0
70
1
40
0
41
0
66
1
0
VERTEX
8
L7D0
10
-1.053
20
-0.21
0
VERTEX
8
L7D0
10
-1.053
20
0.04
0
VERTEX
8
L7D0
10
-0.803
20
0.04
0
VERTEX
8
L7D0
10
-0.803
20
-0.21
0
SEQEND
0
POLYLINE
8
L7D0
70
1
40
0
41
0
66
1
0
VERTEX
8
L7D0
10
-0.849
20
-0.706
0
VERTEX
8
L7D0
10
-0.849
20
-0.456
0
VERTEX
8
L7D0
10
-0.599
20
-0.456
0
VERTEX
8
L7D0
10
-0.599
20
-0.706
0
SEQEND
0
POLYLINE
8
L7D0
70
1
40
0
41
0
66
1
0
VERTEX
8
L7D0
10
-0.606
20
-0.728
0
VERTEX
8
L7D0
10
-0.606
20
-0.478
0
VERTEX
8
L7D0
10
-0.356
20
-0.478
0
VERTEX
8
L7D0
10
-0.356
20
-0.728
0
SEQEND
0
POLYLINE
8
L7D0
70
1
40
0
41
0
66
1
0
VERTEX
8
L7D0
10
-0.207
20
-0.897
0
VERTEX
8
L7D0
10
-0.207
20
-0.647
0
VERTEX
8
L7D0
10
0.043
20
-0.647
0
VERTEX
8
L7D0
10
0.043
20
-0.897
0
SEQEND
0
POLYLINE
8
L7D0
70
1
40
0
41
0
66
1
0
VERTEX
8
L7D0
10
-0.025
20
-1.055
0
VERTEX
8
L7D0
10
-0.025
20
-0.805
0
VERTEX
8
L7D0
10
0.225
20
-0.805
0
VERTEX
8
L7D0
10
0.225
20
-1.055
0
SEQEND
0
POLYLINE
8
L7D0
70
1
40
0
41
0
66
1
0
VERTEX
8
L7D0
10
0.451
20
-0.862
0
VERTEX
8
L7D0
10
0.451
20
-0.612
0
VERTEX
8
L7D0
10
0.701
20
-0.612
0
VERTEX
8
L7D0
10
0.701
20
-0.862
0
SEQEND
0
POLYLINE
8
L7D0
70
1
40
0
41
0
66
1
0
VERTEX
8
L7D0
10
0.474
20
-0.625
0
VERTEX
8
L7D0
10
0.474
20
-0.375
0
VERTEX
8
L7D0
10
0.724
20
-0.375
0
VERTEX
8
L7D0
10
0.724
20
-0.625
0
SEQEND
0
POLYLINE
8
L7D0
70
1
40
0
41
0
66
1
0
VERTEX
8
L7D0
10
0.645
20
-0.221
0
VERTEX
8
L7D0
10
0.645
20
0.029
0
VERTEX
8
L7D0
10
0.895
20
0.029
0
VERTEX
8
L7D0
10
0.895
20
-0.221
0
SEQEND
0
POLYLINE
8
L7D0
70
1
40
0
41
0
66
1
0
VERTEX
8
L7D0
10
0.803
20
-0.041
0
VERTEX
8
L7D0
10
0.803
20
0.209
0
VERTEX
8
L7D0
10
1.053
20
0.209
0
VERTEX
8
L7D0
10
1.053
20
-0.041
0
SEQEND
0
POLYLINE
8
L7D0
70
1
40
0
41
0
66
1
0
VERTEX
8
L7D0
10
0.599
20
0.447
0
VERTEX
8
L7D0
10
0.599
20
0.697
0
VERTEX
8
L7D0
10
0.849
20
0.697
0
VERTEX
8
L7D0
10
0.849
20
0.447
0
SEQEND
0
POLYLINE
8
L7D0
70
1
40
0
41
0
66
1
0
VERTEX
8
L7D0
10
0.36
20
0.472
0
VERTEX
8
L7D0
10
0.36
20
0.722
0
VERTEX
8
L7D0
10
0.61
20
0.722
0
VERTEX
8
L7D0
10
0.61
20
0.472
0
SEQEND
0
POLYLINE
8
L7D0
70
1
40
0
41
0
66
1
0
VERTEX
8
L7D0
10
-0.046
20
0.637
0
VERTEX
8
L7D0
10
-0.046
20
0.887
0
VERTEX
8
L7D0
10
0.204
20
0.887
0
VERTEX
8
L7D0
10
0.204
20
0.637
0
SEQEND
0
POLYLINE
8
L7D0
70
1
40
0
41
0
66
1
0
VERTEX
8
L7D0
10
-0.243
20
0.773
0
VERTEX
8
L7D0
10
-0.243
20
1.023
0
VERTEX
8
L7D0
10
0.007
20
1.023
0
VERTEX
8
L7D0
10
0.007
20
0.773
0
SEQEND
0
POLYLINE
8
L7D0
70
1
40
0
41
0
66
1
0
VERTEX
8
L7D0
10
-0.658
20
0.604
0
VERTEX
8
L7D0
10
-0.658
20
0.854
0
VERTEX
8
L7D0
10
-0.408
20
0.854
0
VERTEX
8
L7D0
10
-0.408
20
0.604
0
SEQEND
0
POLYLINE
8
L7D0
70
1
40
0
41
0
66
1
0
VERTEX
8
L7D0
10
-0.709
20
0.366
0
VERTEX
8
L7D0
10
-0.709
20
0.616
0
VERTEX
8
L7D0
10
-0.459
20
0.616
0
VERTEX
8
L7D0
10
-0.459
20
0.366
0
SEQEND
0
POLYLINE
8
L7D0
70
1
40
0
41
0
66
1
0
VERTEX
8
L7D0
10
-0.891
20
-0.032
0
VERTEX
8
L7D0
10
-0.891
20
0.218
0
VERTEX
8
L7D0
10
-0.641
20
0.218
0
VERTEX
8
L7D0
10
-0.641
20
-0.032
0
SEQEND
0
POLYLINE
8
L8D0
70
1
40
0
41
0
66
1
0
VERTEX
8
L8D0
10
-1.003
20
-0.16
0
VERTEX
8
L8D0
10
-1.003
20
-0.01
0
VERTEX
8
L8D0
10
-0.853
20
-0.01
0
VERTEX
8
L8D0
10
-0.853
20
-0.16
0
SEQEND
0
POLYLINE
8
L8D0
70
1
40
0
41
0
66
1
0
VERTEX
8
L8D0
10
-0.799
20
-0.656
0
VERTEX
8
L8D0
10
-0.799
20
-0.506
0
VERTEX
8
L8D0
10
-0.649
20
-0.506
0
VERTEX
8
L8D0
10
-0.649
20
-0.656
0
SEQEND
0
POLYLINE
8
L8D0
70
1
40
0
41
0
66
1
0
VERTEX
8
L8D0
10
-0.556
20
-0.678
0
VERTEX
8
L8D0
10
-0.556
20
-0.528
0
VERTEX
8
L8D0
10
-0.406
20
-0.528
0
VERTEX
8
L8D0
10
-0.406
20
-0.678
0
SEQEND
0
POLYLINE
8
L8D0
70
1
40
0
41
0
66
1
0
VERTEX
8
L8D0
10
-0.157
20
-0.847
0
VERTEX
8
L8D0
10
-0.157
20
-0.697
0
VERTEX
8
L8D0
10
-0.007
20
-0.697
0
VERTEX
8
L8D0
10
-0.007
20
-0.847
0
SEQEND
0
POLYLINE
8
L8D0
70
1
40
0
41
0
66
1
0
VERTEX
8
L8D0
10
0.025
20
-1.005
0
VERTEX
8
L8D0
10
0.025
20
-0.855
0
VERTEX
8
L8D0
10
0.175
20
-0.855
0
VERTEX
8
L8D0
10
0.175
20
-1.005
0
SEQEND
0
POLYLINE
8
L8D0
70
1
40
0
41
0
66
1
0
VERTEX
8
L8D0
10
0.501
20
-0.812
0
VERTEX
8
L8D0
10
0.501
20
-0.662
0
VERTEX
8
L8D0
10
0.651
20
-0.662
0
VERTEX
8
L8D0
10
0.651
20
-0.812
0
SEQEND
0
POLYLINE
8
L8D0
70
1
40
0
41
0
66
1
0
VERTEX
8
L8D0
10
0.524
20
-0.575
0
VERTEX
8
L8D0
10
0.524
20
-0.425
0
VERTEX
8
L8D0
10
0.674
20
-0.425
0
VERTEX
8
L8D0
10
0.674
20
-0.575
0
SEQEND
0
POLYLINE
8
L8D0
70
1
40
0
41
0
66
1
0
VERTEX
8
L8D0
10
0.695
20
-0.171
0
VERTEX
8
L8D0
10
0.695
20
-0.021
0
VERTEX
8
L8D0
10
0.845
20
-0.021
0
VERTEX
8
L8D0
10
0.845
20
-0.171
0
SEQEND
0
POLYLINE
8
L8D0
70
1
40
0
41
0
66
1
0
VERTEX
8
L8D0
10
0.853
20
0.009
0
VERTEX
8
L8D0
10
0.853
20
0.159
0
VERTEX
8
L8D0
10
1.003
20
0.159
0
VERTEX
8
L8D0
10
1.003
20
0.009
0
SEQEND
0
POLYLINE
8
L8D0
70
1
40
0
41
0
66
1
0
VERTEX
8
L8D0
10
0.649
20
0.497
0
VERTEX
8
L8D0
10
0.649
20
0.647
0
VERTEX
8
L8D0
10
0.799
20
0.647
0
VERTEX
8
L8D0
10
0.799
20
0.497
0
SEQEND
0
POLYLINE
8
L8D0
70
1
40
0
41
0
66
1
0
VERTEX
8
L8D0
10
0.41
20
0.522
0
VERTEX
8
L8D0
10
0.41
20
0.672
0
VERTEX
8
L8D0
10
0.56
20
0.672
0
VERTEX
8
L8D0
10
0.56
20
0.522
0
SEQEND
0
POLYLINE
8
L8D0
70
1
40
0
41
0
66
1
0
VERTEX
8
L8D0
10
0.004
20
0.687
0
VERTEX
8
L8D0
10
0.004
20
0.837
0
VERTEX
8
L8D0
10
0.154
20
0.837
0
VERTEX
8
L8D0
10
0.154
20
0.687
0
SEQEND
0
POLYLINE
8
L8D0
70
1
40
0
41
0
66
1
0
VERTEX
8
L8D0
10
-0.193
20
0.823
0
VERTEX
8
L8D0
10
-0.193
20
0.973
0
VERTEX
8
L8D0
10
-0.043
20
0.973
0
VERTEX
8
L8D0
10
-0.043
20
0.823
0
SEQEND
0
POLYLINE
8
L8D0
70
1
40
0
41
0
66
1
0
VERTEX
8
L8D0
10
-0.608
20
0.654
0
VERTEX
8
L8D0
10
-0.608
20
0.804
0
VERTEX
8
L8D0
10
-0.458
20
0.804
0
VERTEX
8
L8D0
10
-0.458
20
0.654
0
SEQEND
0
POLYLINE
8
L8D0
70
1
40
0
41
0
66
1
0
VERTEX
8
L8D0
10
-0.659
20
0.416
0
VERTEX
8
L8D0
10
-0.659
20
0.566
0
VERTEX
8
L8D0
10
-0.509
20
0.566
0
VERTEX
8
L8D0
10
-0.509
20
0.416
0
SEQEND
0
POLYLINE
8
L8D0
70
1
40
0
41
0
66
1
0
VERTEX
8
L8D0
10
-0.841
20
0.018
0
VERTEX
8
L8D0
10
-0.841
20
0.168
0
VERTEX
8
L8D0
10
-0.691
20
0.168
0
VERTEX
8
L8D0
10
-0.691
20
0.018
0
SEQEND
0
ENDSEC
0
EOF
