0
SECTION
2
HEADER
9
$ACADVER
1
AC1006
0
ENDSEC
0
SECTION
2
TABLES
0
TABLE
2
LAYER
70
8
0
LAYER
70
0
62
1
6
CONTINUOUS
2
L1D0
0
LAYER
70
0
62
2
6
CONTINUOUS
2
L2D0
0
LAYER
70
0
62
3
6
CONTINUOUS
2
L3D0
0
LAYER
70
0
62
4
6
CONTINUOUS
2
L4D0
0
LAYER
70
0
62
5
6
CONTINUOUS
2
L5D0
0
LAYER
70
0
62
6
6
CONTINUOUS
2
L6D0
0
LAYER
70
0
62
7
6
CONTINUOUS
2
L7D0
0
LAYER
70
0
62
8
6
CONTINUOUS
2
L8D0
0
ENDTAB
0
ENDSEC
0
SECTION
2
BLOCKS
0
ENDSEC
0
SECTION
2
ENTITIES
0
POLYLINE
8
L1D0
70
1
40
0
41
0
66
1
0
VERTEX
8
L1D0
10
1.69
20
1.69
0
VERTEX
8
L1D0
10
1.69
20
2.09
0
VERTEX
8
L1D0
10
2.09
20
2.09
0
VERTEX
8
L1D0
10
2.09
20
1.69
0
SEQEND
0
POLYLINE
8
L1D0
70
1
40
0
41
0
66
1
0
VERTEX
8
L1D0
10
-2.09
20
1.69
0
VERTEX
8
L1D0
10
-2.09
20
2.09
0
VERTEX
8
L1D0
10
-1.69
20
2.09
0
VERTEX
8
L1D0
10
-1.69
20
1.69
0
SEQEND
0
POLYLINE
8
L1D0
70
1
40
0
41
0
66
1
0
VERTEX
8
L1D0
10
-2.09
20
-2.09
0
VERTEX
8
L1D0
10
-2.09
20
-1.69
0
VERTEX
8
L1D0
10
-1.69
20
-1.69
0
VERTEX
8
L1D0
10
-1.69
20
-2.09
0
SEQEND
0
POLYLINE
8
L1D0
70
1
40
0
41
0
66
1
0
VERTEX
8
L1D0
10
1.69
20
-2.09
0
VERTEX
8
L1D0
10
1.69
20
-1.69
0
VERTEX
8
L1D0
10
2.09
20
-1.69
0
VERTEX
8
L1D0
10
2.09
20
-2.09
0
SEQEND
0
POLYLINE
8
L2D0
70
1
40
0
41
0
66
1
0
VERTEX
8
L2D0
10
-0.7
20
-0.84
0
VERTEX
8
L2D0
10
-0.813
20
-0.742
0
VERTEX
8
L2D0
10
-0.59
20
-0.482
0
VERTEX
8
L2D0
10
-0.477
20
-0.58
0
SEQEND
0
POLYLINE
8
L2D0
70
1
40
0
41
0
66
1
0
VERTEX
8
L2D0
10
0.065
20
-1.085
0
VERTEX
8
L2D0
10
-0.084
20
-1.066
0
VERTEX
8
L2D0
10
-0.041
20
-0.741
0
VERTEX
8
L2D0
10
0.108
20
-0.76
0
SEQEND
0
POLYLINE
8
L2D0
70
1
40
0
41
0
66
1
0
VERTEX
8
L2D0
10
0.749
20
-0.82
0
VERTEX
8
L2D0
10
0.496
20
-0.598
0
VERTEX
8
L2D0
10
0.595
20
-0.486
0
VERTEX
8
L2D0
10
0.848
20
-0.708
0
SEQEND
0
POLYLINE
8
L2D0
70
1
40
0
41
0
66
1
0
VERTEX
8
L2D0
10
1.067
20
-0.089
0
VERTEX
8
L2D0
10
0.736
20
-0.046
0
VERTEX
8
L2D0
10
0.755
20
0.103
0
VERTEX
8
L2D0
10
1.086
20
0.06
0
SEQEND
0
POLYLINE
8
L2D0
70
1
40
0
41
0
66
1
0
VERTEX
8
L2D0
10
0.594
20
0.492
0
VERTEX
8
L2D0
10
0.48
20
0.59
0
VERTEX
8
L2D0
10
0.704
20
0.848
0
VERTEX
8
L2D0
10
0.818
20
0.75
0
SEQEND
0
POLYLINE
8
L2D0
70
1
40
0
41
0
66
1
0
VERTEX
8
L2D0
10
0.039
20
0.732
0
VERTEX
8
L2D0
10
-0.11
20
0.753
0
VERTEX
8
L2D0
10
-0.063
20
1.084
0
VERTEX
8
L2D0
10
0.086
20
1.063
0
SEQEND
0
POLYLINE
8
L2D0
70
1
40
0
41
0
66
1
0
VERTEX
8
L2D0
10
-0.598
20
0.481
0
VERTEX
8
L2D0
10
-0.851
20
0.705
0
VERTEX
8
L2D0
10
-0.752
20
0.817
0
VERTEX
8
L2D0
10
-0.499
20
0.593
0
SEQEND
0
POLYLINE
8
L2D0
70
1
40
0
41
0
66
1
0
VERTEX
8
L2D0
10
-0.76
20
-0.097
0
VERTEX
8
L2D0
10
-1.088
20
-0.058
0
VERTEX
8
L2D0
10
-1.07
20
0.091
0
VERTEX
8
L2D0
10
-0.742
20
0.052
0
SEQEND
0
POLYLINE
8
L3D0
70
1
40
0
41
0
66
1
0
VERTEX
8
L3D0
10
-0.825
20
-0.098
0
VERTEX
8
L3D0
10
-0.825
20
0.052
0
VERTEX
8
L3D0
10
-0.675
20
0.052
0
VERTEX
8
L3D0
10
-0.675
20
-0.098
0
SEQEND
0
POLYLINE
8
L3D0
70
1
40
0
41
0
66
1
0
VERTEX
8
L3D0
10
-0.609
20
-0.606
0
VERTEX
8
L3D0
10
-0.609
20
-0.456
0
VERTEX
8
L3D0
10
-0.459
20
-0.456
0
VERTEX
8
L3D0
10
-0.459
20
-0.606
0
SEQEND
0
POLYLINE
8
L3D0
70
1
40
0
41
0
66
1
0
VERTEX
8
L3D0
10
-0.832
20
-0.866
0
VERTEX
8
L3D0
10
-0.832
20
-0.716
0
VERTEX
8
L3D0
10
-0.682
20
-0.716
0
VERTEX
8
L3D0
10
-0.682
20
-0.866
0
SEQEND
0
POLYLINE
8
L3D0
70
1
40
0
41
0
66
1
0
VERTEX
8
L3D0
10
-0.083
20
-1.151
0
VERTEX
8
L3D0
10
-0.083
20
-1.001
0
VERTEX
8
L3D0
10
0.067
20
-1.001
0
VERTEX
8
L3D0
10
0.067
20
-1.151
0
SEQEND
0
POLYLINE
8
L3D0
70
1
40
0
41
0
66
1
0
VERTEX
8
L3D0
10
-0.041
20
-0.824
0
VERTEX
8
L3D0
10
-0.041
20
-0.674
0
VERTEX
8
L3D0
10
0.109
20
-0.674
0
VERTEX
8
L3D0
10
0.109
20
-0.824
0
SEQEND
0
POLYLINE
8
L3D0
70
1
40
0
41
0
66
1
0
VERTEX
8
L3D0
10
0.471
20
-0.616
0
VERTEX
8
L3D0
10
0.471
20
-0.466
0
VERTEX
8
L3D0
10
0.621
20
-0.466
0
VERTEX
8
L3D0
10
0.621
20
-0.616
0
SEQEND
0
POLYLINE
8
L3D0
70
1
40
0
41
0
66
1
0
VERTEX
8
L3D0
10
0.723
20
-0.839
0
VERTEX
8
L3D0
10
0.723
20
-0.689
0
VERTEX
8
L3D0
10
0.873
20
-0.689
0
VERTEX
8
L3D0
10
0.873
20
-0.839
0
SEQEND
0
POLYLINE
8
L3D0
70
1
40
0
41
0
66
1
0
VERTEX
8
L3D0
10
1.002
20
-0.089
0
VERTEX
8
L3D0
10
1.002
20
0.061
0
VERTEX
8
L3D0
10
1.152
20
0.061
0
VERTEX
8
L3D0
10
1.152
20
-0.089
0
SEQEND
0
POLYLINE
8
L3D0
70
1
40
0
41
0
66
1
0
VERTEX
8
L3D0
10
0.67
20
-0.046
0
VERTEX
8
L3D0
10
0.67
20
0.104
0
VERTEX
8
L3D0
10
0.82
20
0.104
0
VERTEX
8
L3D0
10
0.82
20
-0.046
0
SEQEND
0
POLYLINE
8
L3D0
70
1
40
0
41
0
66
1
0
VERTEX
8
L3D0
10
0.461
20
0.465
0
VERTEX
8
L3D0
10
0.461
20
0.615
0
VERTEX
8
L3D0
10
0.611
20
0.615
0
VERTEX
8
L3D0
10
0.611
20
0.465
0
SEQEND
0
POLYLINE
8
L3D0
70
1
40
0
41
0
66
1
0
VERTEX
8
L3D0
10
0.686
20
0.724
0
VERTEX
8
L3D0
10
0.686
20
0.874
0
VERTEX
8
L3D0
10
0.836
20
0.874
0
VERTEX
8
L3D0
10
0.836
20
0.724
0
SEQEND
0
POLYLINE
8
L3D0
70
1
40
0
41
0
66
1
0
VERTEX
8
L3D0
10
-0.064
20
0.998
0
VERTEX
8
L3D0
10
-0.064
20
1.148
0
VERTEX
8
L3D0
10
0.086
20
1.148
0
VERTEX
8
L3D0
10
0.086
20
0.998
0
SEQEND
0
POLYLINE
8
L3D0
70
1
40
0
41
0
66
1
0
VERTEX
8
L3D0
10
-0.111
20
0.667
0
VERTEX
8
L3D0
10
-0.111
20
0.817
0
VERTEX
8
L3D0
10
0.039
20
0.817
0
VERTEX
8
L3D0
10
0.039
20
0.667
0
SEQEND
0
POLYLINE
8
L3D0
70
1
40
0
41
0
66
1
0
VERTEX
8
L3D0
10
-0.623
20
0.462
0
VERTEX
8
L3D0
10
-0.623
20
0.612
0
VERTEX
8
L3D0
10
-0.473
20
0.612
0
VERTEX
8
L3D0
10
-0.473
20
0.462
0
SEQEND
0
POLYLINE
8
L3D0
70
1
40
0
41
0
66
1
0
VERTEX
8
L3D0
10
-0.877
20
0.687
0
VERTEX
8
L3D0
10
-0.877
20
0.837
0
VERTEX
8
L3D0
10
-0.727
20
0.837
0
VERTEX
8
L3D0
10
-0.727
20
0.687
0
SEQEND
0
POLYLINE
8
L3D0
70
1
40
0
41
0
66
1
0
VERTEX
8
L3D0
10
-1.154
20
-0.059
0
VERTEX
8
L3D0
10
-1.154
20
0.091
0
VERTEX
8
L3D0
10
-1.004
20
0.091
0
VERTEX
8
L3D0
10
-1.004
20
-0.059
0
SEQEND
0
POLYLINE
8
L4D0
70
1
40
0
41
0
66
1
0
VERTEX
8
L4D0
10
-2.19
20
-2.19
0
VERTEX
8
L4D0
10
-2.19
20
-1.59
0
VERTEX
8
L4D0
10
1.19
20
-1.59
0
VERTEX
8
L4D0
10
1.19
20
-1.39
0
VERTEX
8
L4D0
10
-1.79
20
-1.39
0
VERTEX
8
L4D0
10
-1.79
20
1.59
0
VERTEX
8
L4D0
10
-2.19
20
1.59
0
VERTEX
8
L4D0
10
-2.19
20
2.19
0
VERTEX
8
L4D0
10
-1.59
20
2.19
0
VERTEX
8
L4D0
10
-1.59
20
-1.19
0
VERTEX
8
L4D0
10
-1.39
20
-1.19
0
VERTEX
8
L4D0
10
-1.39
20
1.79
0
VERTEX
8
L4D0
10
1.59
20
1.79
0
VERTEX
8
L4D0
10
1.59
20
2.19
0
VERTEX
8
L4D0
10
2.19
20
2.19
0
VERTEX
8
L4D0
10
2.19
20
1.59
0
VERTEX
8
L4D0
10
-1.19
20
1.59
0
VERTEX
8
L4D0
10
-1.19
20
1.39
0
VERTEX
8
L4D0
10
1.79
20
1.39
0
VERTEX
8
L4D0
10
1.79
20
-1.59
0
VERTEX
8
L4D0
10
2.19
20
-1.59
0
VERTEX
8
L4D0
10
2.19
20
-2.19
0
VERTEX
8
L4D0
10
1.59
20
-2.19
0
VERTEX
8
L4D0
10
1.59
20
1.19
0
VERTEX
8
L4D0
10
1.39
20
1.19
0
VERTEX
8
L4D0
10
1.39
20
-1.79
0
VERTEX
8
L4D0
10
-1.59
20
-1.79
0
VERTEX
8
L4D0
10
-1.59
20
-2.19
0
SEQEND
0
POLYLINE
8
L5D0
70
1
40
0
41
0
66
1
0
VERTEX
8
L5D0
10
-0.05
20
-0.05
0
VERTEX
8
L5D0
10
-0.05
20
0.05
0
VERTEX
8
L5D0
10
0.05
20
0.05
0
VERTEX
8
L5D0
10
0.05
20
-0.05
0
SEQEND
0
POLYLINE
8
L5D0
70
1
40
0
41
0
66
1
0
VERTEX
8
L5D0
10
0.411
20
0.141
0
VERTEX
8
L5D0
10
0.411
20
0.241
0
VERTEX
8
L5D0
10
0.511
20
0.241
0
VERTEX
8
L5D0
10
0.511
20
0.141
0
SEQEND
0
POLYLINE
8
L5D0
70
1
40
0
41
0
66
1
0
VERTEX
8
L5D0
10
0.141
20
0.411
0
VERTEX
8
L5D0
10
0.141
20
0.511
0
VERTEX
8
L5D0
10
0.241
20
0.511
0
VERTEX
8
L5D0
10
0.241
20
0.411
0
SEQEND
0
POLYLINE
8
L5D0
70
1
40
0
41
0
66
1
0
VERTEX
8
L5D0
10
-0.241
20
0.411
0
VERTEX
8
L5D0
10
-0.241
20
0.511
0
VERTEX
8
L5D0
10
-0.141
20
0.511
0
VERTEX
8
L5D0
10
-0.141
20
0.411
0
SEQEND
0
POLYLINE
8
L5D0
70
1
40
0
41
0
66
1
0
VERTEX
8
L5D0
10
-0.511
20
0.141
0
VERTEX
8
L5D0
10
-0.511
20
0.241
0
VERTEX
8
L5D0
10
-0.411
20
0.241
0
VERTEX
8
L5D0
10
-0.411
20
0.141
0
SEQEND
0
POLYLINE
8
L5D0
70
1
40
0
41
0
66
1
0
VERTEX
8
L5D0
10
-0.511
20
-0.241
0
VERTEX
8
L5D0
10
-0.511
20
-0.141
0
VERTEX
8
L5D0
10
-0.411
20
-0.141
0
VERTEX
8
L5D0
10
-0.411
20
-0.241
0
SEQEND
0
POLYLINE
8
L5D0
70
1
40
0
41
0
66
1
0
VERTEX
8
L5D0
10
-0.241
20
-0.511
0
VERTEX
8
L5D0
10
-0.241
20
-0.411
0
VERTEX
8
L5D0
10
-0.141
20
-0.411
0
VERTEX
8
L5D0
10
-0.141
20
-0.511
0
SEQEND
0
POLYLINE
8
L5D0
70
1
40
0
41
0
66
1
0
VERTEX
8
L5D0
10
0.141
20
-0.511
0
VERTEX
8
L5D0
10
0.141
20
-0.411
0
VERTEX
8
L5D0
10
0.241
20
-0.411
0
VERTEX
8
L5D0
10
0.241
20
-0.511
0
SEQEND
0
POLYLINE
8
L5D0
70
1
40
0
41
0
66
1
0
VERTEX
8
L5D0
10
0.411
20
-0.241
0
VERTEX
8
L5D0
10
0.411
20
-0.141
0
VERTEX
8
L5D0
10
0.511
20
-0.141
0
VERTEX
8
L5D0
10
0.511
20
-0.241
0
SEQEND
0
POLYLINE
8
L5D0
70
1
40
0
41
0
66
1
0
VERTEX
8
L5D0
10
0.93
20
0.145
0
VERTEX
8
L5D0
10
0.93
20
0.245
0
VERTEX
8
L5D0
10
1.03
20
0.245
0
VERTEX
8
L5D0
10
1.03
20
0.145
0
SEQEND
0
POLYLINE
8
L5D0
70
1
40
0
41
0
66
1
0
VERTEX
8
L5D0
10
0.781
20
0.505
0
VERTEX
8
L5D0
10
0.781
20
0.605
0
VERTEX
8
L5D0
10
0.881
20
0.605
0
VERTEX
8
L5D0
10
0.881
20
0.505
0
SEQEND
0
POLYLINE
8
L5D0
70
1
40
0
41
0
66
1
0
VERTEX
8
L5D0
10
0.505
20
0.781
0
VERTEX
8
L5D0
10
0.505
20
0.881
0
VERTEX
8
L5D0
10
0.605
20
0.881
0
VERTEX
8
L5D0
10
0.605
20
0.781
0
SEQEND
0
POLYLINE
8
L5D0
70
1
40
0
41
0
66
1
0
VERTEX
8
L5D0
10
0.145
20
0.93
0
VERTEX
8
L5D0
10
0.145
20
1.03
0
VERTEX
8
L5D0
10
0.245
20
1.03
0
VERTEX
8
L5D0
10
0.245
20
0.93
0
SEQEND
0
POLYLINE
8
L5D0
70
1
40
0
41
0
66
1
0
VERTEX
8
L5D0
10
-0.245
20
0.93
0
VERTEX
8
L5D0
10
-0.245
20
1.03
0
VERTEX
8
L5D0
10
-0.145
20
1.03
0
VERTEX
8
L5D0
10
-0.145
20
0.93
0
SEQEND
0
POLYLINE
8
L5D0
70
1
40
0
41
0
66
1
0
VERTEX
8
L5D0
10
-0.605
20
0.781
0
VERTEX
8
L5D0
10
-0.605
20
0.881
0
VERTEX
8
L5D0
10
-0.505
20
0.881
0
VERTEX
8
L5D0
10
-0.505
20
0.781
0
SEQEND
0
POLYLINE
8
L5D0
70
1
40
0
41
0
66
1
0
VERTEX
8
L5D0
10
-0.881
20
0.505
0
VERTEX
8
L5D0
10
-0.881
20
0.605
0
VERTEX
8
L5D0
10
-0.781
20
0.605
0
VERTEX
8
L5D0
10
-0.781
20
0.505
0
SEQEND
0
POLYLINE
8
L5D0
70
1
40
0
41
0
66
1
0
VERTEX
8
L5D0
10
-1.03
20
0.145
0
VERTEX
8
L5D0
10
-1.03
20
0.245
0
VERTEX
8
L5D0
10
-0.93
20
0.245
0
VERTEX
8
L5D0
10
-0.93
20
0.145
0
SEQEND
0
POLYLINE
8
L5D0
70
1
40
0
41
0
66
1
0
VERTEX
8
L5D0
10
-1.03
20
-0.245
0
VERTEX
8
L5D0
10
-1.03
20
-0.145
0
VERTEX
8
L5D0
10
-0.93
20
-0.145
0
VERTEX
8
L5D0
10
-0.93
20
-0.245
0
SEQEND
0
POLYLINE
8
L5D0
70
1
40
0
41
0
66
1
0
VERTEX
8
L5D0
10
-0.881
20
-0.605
0
VERTEX
8
L5D0
10
-0.881
20
-0.505
0
VERTEX
8
L5D0
10
-0.781
20
-0.505
0
VERTEX
8
L5D0
10
-0.781
20
-0.605
0
SEQEND
0
POLYLINE
8
L5D0
70
1
40
0
41
0
66
1
0
VERTEX
8
L5D0
10
-0.605
20
-0.881
0
VERTEX
8
L5D0
10
-0.605
20
-0.781
0
VERTEX
8
L5D0
10
-0.505
20
-0.781
0
VERTEX
8
L5D0
10
-0.505
20
-0.881
0
SEQEND
0
POLYLINE
8
L5D0
70
1
40
0
41
0
66
1
0
VERTEX
8
L5D0
10
-0.245
20
-1.03
0
VERTEX
8
L5D0
10
-0.245
20
-0.93
0
VERTEX
8
L5D0
10
-0.145
20
-0.93
0
VERTEX
8
L5D0
10
-0.145
20
-1.03
0
SEQEND
0
POLYLINE
8
L5D0
70
1
40
0
41
0
66
1
0
VERTEX
8
L5D0
10
0.145
20
-1.03
0
VERTEX
8
L5D0
10
0.145
20
-0.93
0
VERTEX
8
L5D0
10
0.245
20
-0.93
0
VERTEX
8
L5D0
10
0.245
20
-1.03
0
SEQEND
0
POLYLINE
8
L5D0
70
1
40
0
41
0
66
1
0
VERTEX
8
L5D0
10
0.505
20
-0.881
0
VERTEX
8
L5D0
10
0.505
20
-0.781
0
VERTEX
8
L5D0
10
0.605
20
-0.781
0
VERTEX
8
L5D0
10
0.605
20
-0.881
0
SEQEND
0
POLYLINE
8
L5D0
70
1
40
0
41
0
66
1
0
VERTEX
8
L5D0
10
0.781
20
-0.605
0
VERTEX
8
L5D0
10
0.781
20
-0.505
0
VERTEX
8
L5D0
10
0.881
20
-0.505
0
VERTEX
8
L5D0
10
0.881
20
-0.605
0
SEQEND
0
POLYLINE
8
L5D0
70
1
40
0
41
0
66
1
0
VERTEX
8
L5D0
10
0.93
20
-0.245
0
VERTEX
8
L5D0
10
0.93
20
-0.145
0
VERTEX
8
L5D0
10
1.03
20
-0.145
0
VERTEX
8
L5D0
10
1.03
20
-0.245
0
SEQEND
0
POLYLINE
8
L5D0
70
1
40
0
41
0
66
1
0
VERTEX
8
L5D0
10
1.14
20
0.863
0
VERTEX
8
L5D0
10
1.14
20
0.963
0
VERTEX
8
L5D0
10
1.24
20
0.963
0
VERTEX
8
L5D0
10
1.24
20
0.863
0
SEQEND
0
POLYLINE
8
L5D0
70
1
40
0
41
0
66
1
0
VERTEX
8
L5D0
10
0.863
20
1.14
0
VERTEX
8
L5D0
10
0.863
20
1.24
0
VERTEX
8
L5D0
10
0.963
20
1.24
0
VERTEX
8
L5D0
10
0.963
20
1.14
0
SEQEND
0
POLYLINE
8
L5D0
70
1
40
0
41
0
66
1
0
VERTEX
8
L5D0
10
-0.963
20
1.14
0
VERTEX
8
L5D0
10
-0.963
20
1.24
0
VERTEX
8
L5D0
10
-0.863
20
1.24
0
VERTEX
8
L5D0
10
-0.863
20
1.14
0
SEQEND
0
POLYLINE
8
L5D0
70
1
40
0
41
0
66
1
0
VERTEX
8
L5D0
10
-1.24
20
0.863
0
VERTEX
8
L5D0
10
-1.24
20
0.963
0
VERTEX
8
L5D0
10
-1.14
20
0.963
0
VERTEX
8
L5D0
10
-1.14
20
0.863
0
SEQEND
0
POLYLINE
8
L5D0
70
1
40
0
41
0
66
1
0
VERTEX
8
L5D0
10
-1.24
20
-0.963
0
VERTEX
8
L5D0
10
-1.24
20
-0.863
0
VERTEX
8
L5D0
10
-1.14
20
-0.863
0
VERTEX
8
L5D0
10
-1.14
20
-0.963
0
SEQEND
0
POLYLINE
8
L5D0
70
1
40
0
41
0
66
1
0
VERTEX
8
L5D0
10
-0.963
20
-1.24
0
VERTEX
8
L5D0
10
-0.963
20
-1.14
0
VERTEX
8
L5D0
10
-0.863
20
-1.14
0
VERTEX
8
L5D0
10
-0.863
20
-1.24
0
SEQEND
0
POLYLINE
8
L5D0
70
1
40
0
41
0
66
1
0
VERTEX
8
L5D0
10
0.863
20
-1.24
0
VERTEX
8
L5D0
10
0.863
20
-1.14
0
VERTEX
8
L5D0
10
0.963
20
-1.14
0
VERTEX
8
L5D0
10
0.963
20
-1.24
0
SEQEND
0
POLYLINE
8
L5D0
70
1
40
0
41
0
66
1
0
VERTEX
8
L5D0
10
1.14
20
-0.963
0
VERTEX
8
L5D0
10
1.14
20
-0.863
0
VERTEX
8
L5D0
10
1.24
20
-0.863
0
VERTEX
8
L5D0
10
1.24
20
-0.963
0
SEQEND
0
POLYLINE
8
L6D0
70
1
40
0
41
0
66
1
0
VERTEX
8
L6D0
10
1.69
20
1.69
0
VERTEX
8
L6D0
10
1.69
20
2.09
0
VERTEX
8
L6D0
10
2.09
20
2.09
0
VERTEX
8
L6D0
10
2.09
20
1.69
0
SEQEND
0
POLYLINE
8
L6D0
70
1
40
0
41
0
66
1
0
VERTEX
8
L6D0
10
-2.09
20
1.69
0
VERTEX
8
L6D0
10
-2.09
20
2.09
0
VERTEX
8
L6D0
10
-1.69
20
2.09
0
VERTEX
8
L6D0
10
-1.69
20
1.69
0
SEQEND
0
POLYLINE
8
L6D0
70
1
40
0
41
0
66
1
0
VERTEX
8
L6D0
10
-2.09
20
-2.09
0
VERTEX
8
L6D0
10
-2.09
20
-1.69
0
VERTEX
8
L6D0
10
-1.69
20
-1.69
0
VERTEX
8
L6D0
10
-1.69
20
-2.09
0
SEQEND
0
POLYLINE
8
L6D0
70
1
40
0
41
0
66
1
0
VERTEX
8
L6D0
10
1.69
20
-2.09
0
VERTEX
8
L6D0
10
1.69
20
-1.69
0
VERTEX
8
L6D0
10
2.09
20
-1.69
0
VERTEX
8
L6D0
10
2.09
20
-2.09
0
SEQEND
0
POLYLINE
8
L6D0
70
1
40
0
41
0
66
1
0
VERTEX
8
L6D0
10
-1.39
20
-1.39
0
VERTEX
8
L6D0
10
-1.39
20
1.39
0
VERTEX
8
L6D0
10
1.39
20
1.39
0
VERTEX
8
L6D0
10
1.39
20
-1.39
0
SEQEND
0
POLYLINE
8
L7D0
70
1
40
0
41
0
66
1
0
VERTEX
8
L7D0
10
-0.875
20
-0.148
0
VERTEX
8
L7D0
10
-0.875
20
0.102
0
VERTEX
8
L7D0
10
-0.625
20
0.102
0
VERTEX
8
L7D0
10
-0.625
20
-0.148
0
SEQEND
0
POLYLINE
8
L7D0
70
1
40
0
41
0
66
1
0
VERTEX
8
L7D0
10
-0.659
20
-0.656
0
VERTEX
8
L7D0
10
-0.659
20
-0.406
0
VERTEX
8
L7D0
10
-0.409
20
-0.406
0
VERTEX
8
L7D0
10
-0.409
20
-0.656
0
SEQEND
0
POLYLINE
8
L7D0
70
1
40
0
41
0
66
1
0
VERTEX
8
L7D0
10
-0.882
20
-0.916
0
VERTEX
8
L7D0
10
-0.882
20
-0.666
0
VERTEX
8
L7D0
10
-0.632
20
-0.666
0
VERTEX
8
L7D0
10
-0.632
20
-0.916
0
SEQEND
0
POLYLINE
8
L7D0
70
1
40
0
41
0
66
1
0
VERTEX
8
L7D0
10
-0.133
20
-1.201
0
VERTEX
8
L7D0
10
-0.133
20
-0.951
0
VERTEX
8
L7D0
10
0.117
20
-0.951
0
VERTEX
8
L7D0
10
0.117
20
-1.201
0
SEQEND
0
POLYLINE
8
L7D0
70
1
40
0
41
0
66
1
0
VERTEX
8
L7D0
10
-0.091
20
-0.874
0
VERTEX
8
L7D0
10
-0.091
20
-0.624
0
VERTEX
8
L7D0
10
0.159
20
-0.624
0
VERTEX
8
L7D0
10
0.159
20
-0.874
0
SEQEND
0
POLYLINE
8
L7D0
70
1
40
0
41
0
66
1
0
VERTEX
8
L7D0
10
0.421
20
-0.666
0
VERTEX
8
L7D0
10
0.421
20
-0.416
0
VERTEX
8
L7D0
10
0.671
20
-0.416
0
VERTEX
8
L7D0
10
0.671
20
-0.666
0
SEQEND
0
POLYLINE
8
L7D0
70
1
40
0
41
0
66
1
0
VERTEX
8
L7D0
10
0.673
20
-0.889
0
VERTEX
8
L7D0
10
0.673
20
-0.639
0
VERTEX
8
L7D0
10
0.923
20
-0.639
0
VERTEX
8
L7D0
10
0.923
20
-0.889
0
SEQEND
0
POLYLINE
8
L7D0
70
1
40
0
41
0
66
1
0
VERTEX
8
L7D0
10
0.952
20
-0.139
0
VERTEX
8
L7D0
10
0.952
20
0.111
0
VERTEX
8
L7D0
10
1.202
20
0.111
0
VERTEX
8
L7D0
10
1.202
20
-0.139
0
SEQEND
0
POLYLINE
8
L7D0
70
1
40
0
41
0
66
1
0
VERTEX
8
L7D0
10
0.62
20
-0.096
0
VERTEX
8
L7D0
10
0.62
20
0.154
0
VERTEX
8
L7D0
10
0.87
20
0.154
0
VERTEX
8
L7D0
10
0.87
20
-0.096
0
SEQEND
0
POLYLINE
8
L7D0
70
1
40
0
41
0
66
1
0
VERTEX
8
L7D0
10
0.411
20
0.415
0
VERTEX
8
L7D0
10
0.411
20
0.665
0
VERTEX
8
L7D0
10
0.661
20
0.665
0
VERTEX
8
L7D0
10
0.661
20
0.415
0
SEQEND
0
POLYLINE
8
L7D0
70
1
40
0
41
0
66
1
0
VERTEX
8
L7D0
10
0.636
20
0.674
0
VERTEX
8
L7D0
10
0.636
20
0.924
0
VERTEX
8
L7D0
10
0.886
20
0.924
0
VERTEX
8
L7D0
10
0.886
20
0.674
0
SEQEND
0
POLYLINE
8
L7D0
70
1
40
0
41
0
66
1
0
VERTEX
8
L7D0
10
-0.114
20
0.948
0
VERTEX
8
L7D0
10
-0.114
20
1.198
0
VERTEX
8
L7D0
10
0.136
20
1.198
0
VERTEX
8
L7D0
10
0.136
20
0.948
0
SEQEND
0
POLYLINE
8
L7D0
70
1
40
0
41
0
66
1
0
VERTEX
8
L7D0
10
-0.161
20
0.617
0
VERTEX
8
L7D0
10
-0.161
20
0.867
0
VERTEX
8
L7D0
10
0.089
20
0.867
0
VERTEX
8
L7D0
10
0.089
20
0.617
0
SEQEND
0
POLYLINE
8
L7D0
70
1
40
0
41
0
66
1
0
VERTEX
8
L7D0
10
-0.673
20
0.412
0
VERTEX
8
L7D0
10
-0.673
20
0.662
0
VERTEX
8
L7D0
10
-0.423
20
0.662
0
VERTEX
8
L7D0
10
-0.423
20
0.412
0
SEQEND
0
POLYLINE
8
L7D0
70
1
40
0
41
0
66
1
0
VERTEX
8
L7D0
10
-0.927
20
0.637
0
VERTEX
8
L7D0
10
-0.927
20
0.887
0
VERTEX
8
L7D0
10
-0.677
20
0.887
0
VERTEX
8
L7D0
10
-0.677
20
0.637
0
SEQEND
0
POLYLINE
8
L7D0
70
1
40
0
41
0
66
1
0
VERTEX
8
L7D0
10
-1.204
20
-0.109
0
VERTEX
8
L7D0
10
-1.204
20
0.141
0
VERTEX
8
L7D0
10
-0.954
20
0.141
0
VERTEX
8
L7D0
10
-0.954
20
-0.109
0
SEQEND
0
POLYLINE
8
L8D0
70
1
40
0
41
0
66
1
0
VERTEX
8
L8D0
10
-0.825
20
-0.098
0
VERTEX
8
L8D0
10
-0.825
20
0.052
0
VERTEX
8
L8D0
10
-0.675
20
0.052
0
VERTEX
8
L8D0
10
-0.675
20
-0.098
0
SEQEND
0
POLYLINE
8
L8D0
70
1
40
0
41
0
66
1
0
VERTEX
8
L8D0
10
-0.609
20
-0.606
0
VERTEX
8
L8D0
10
-0.609
20
-0.456
0
VERTEX
8
L8D0
10
-0.459
20
-0.456
0
VERTEX
8
L8D0
10
-0.459
20
-0.606
0
SEQEND
0
POLYLINE
8
L8D0
70
1
40
0
41
0
66
1
0
VERTEX
8
L8D0
10
-0.832
20
-0.866
0
VERTEX
8
L8D0
10
-0.832
20
-0.716
0
VERTEX
8
L8D0
10
-0.682
20
-0.716
0
VERTEX
8
L8D0
10
-0.682
20
-0.866
0
SEQEND
0
POLYLINE
8
L8D0
70
1
40
0
41
0
66
1
0
VERTEX
8
L8D0
10
-0.083
20
-1.151
0
VERTEX
8
L8D0
10
-0.083
20
-1.001
0
VERTEX
8
L8D0
10
0.067
20
-1.001
0
VERTEX
8
L8D0
10
0.067
20
-1.151
0
SEQEND
0
POLYLINE
8
L8D0
70
1
40
0
41
0
66
1
0
VERTEX
8
L8D0
10
-0.041
20
-0.824
0
VERTEX
8
L8D0
10
-0.041
20
-0.674
0
VERTEX
8
L8D0
10
0.109
20
-0.674
0
VERTEX
8
L8D0
10
0.109
20
-0.824
0
SEQEND
0
POLYLINE
8
L8D0
70
1
40
0
41
0
66
1
0
VERTEX
8
L8D0
10
0.471
20
-0.616
0
VERTEX
8
L8D0
10
0.471
20
-0.466
0
VERTEX
8
L8D0
10
0.621
20
-0.466
0
VERTEX
8
L8D0
10
0.621
20
-0.616
0
SEQEND
0
POLYLINE
8
L8D0
70
1
40
0
41
0
66
1
0
VERTEX
8
L8D0
10
0.723
20
-0.839
0
VERTEX
8
L8D0
10
0.723
20
-0.689
0
VERTEX
8
L8D0
10
0.873
20
-0.689
0
VERTEX
8
L8D0
10
0.873
20
-0.839
0
SEQEND
0
POLYLINE
8
L8D0
70
1
40
0
41
0
66
1
0
VERTEX
8
L8D0
10
1.002
20
-0.089
0
VERTEX
8
L8D0
10
1.002
20
0.061
0
VERTEX
8
L8D0
10
1.152
20
0.061
0
VERTEX
8
L8D0
10
1.152
20
-0.089
0
SEQEND
0
POLYLINE
8
L8D0
70
1
40
0
41
0
66
1
0
VERTEX
8
L8D0
10
0.67
20
-0.046
0
VERTEX
8
L8D0
10
0.67
20
0.104
0
VERTEX
8
L8D0
10
0.82
20
0.104
0
VERTEX
8
L8D0
10
0.82
20
-0.046
0
SEQEND
0
POLYLINE
8
L8D0
70
1
40
0
41
0
66
1
0
VERTEX
8
L8D0
10
0.461
20
0.465
0
VERTEX
8
L8D0
10
0.461
20
0.615
0
VERTEX
8
L8D0
10
0.611
20
0.615
0
VERTEX
8
L8D0
10
0.611
20
0.465
0
SEQEND
0
POLYLINE
8
L8D0
70
1
40
0
41
0
66
1
0
VERTEX
8
L8D0
10
0.686
20
0.724
0
VERTEX
8
L8D0
10
0.686
20
0.874
0
VERTEX
8
L8D0
10
0.836
20
0.874
0
VERTEX
8
L8D0
10
0.836
20
0.724
0
SEQEND
0
POLYLINE
8
L8D0
70
1
40
0
41
0
66
1
0
VERTEX
8
L8D0
10
-0.064
20
0.998
0
VERTEX
8
L8D0
10
-0.064
20
1.148
0
VERTEX
8
L8D0
10
0.086
20
1.148
0
VERTEX
8
L8D0
10
0.086
20
0.998
0
SEQEND
0
POLYLINE
8
L8D0
70
1
40
0
41
0
66
1
0
VERTEX
8
L8D0
10
-0.111
20
0.667
0
VERTEX
8
L8D0
10
-0.111
20
0.817
0
VERTEX
8
L8D0
10
0.039
20
0.817
0
VERTEX
8
L8D0
10
0.039
20
0.667
0
SEQEND
0
POLYLINE
8
L8D0
70
1
40
0
41
0
66
1
0
VERTEX
8
L8D0
10
-0.623
20
0.462
0
VERTEX
8
L8D0
10
-0.623
20
0.612
0
VERTEX
8
L8D0
10
-0.473
20
0.612
0
VERTEX
8
L8D0
10
-0.473
20
0.462
0
SEQEND
0
POLYLINE
8
L8D0
70
1
40
0
41
0
66
1
0
VERTEX
8
L8D0
10
-0.877
20
0.687
0
VERTEX
8
L8D0
10
-0.877
20
0.837
0
VERTEX
8
L8D0
10
-0.727
20
0.837
0
VERTEX
8
L8D0
10
-0.727
20
0.687
0
SEQEND
0
POLYLINE
8
L8D0
70
1
40
0
41
0
66
1
0
VERTEX
8
L8D0
10
-1.154
20
-0.059
0
VERTEX
8
L8D0
10
-1.154
20
0.091
0
VERTEX
8
L8D0
10
-1.004
20
0.091
0
VERTEX
8
L8D0
10
-1.004
20
-0.059
0
SEQEND
0
ENDSEC
0
EOF
